<svg width="16" height="16" viewBox="0 0 16 16" fill="none" xmlns="http://www.w3.org/2000/svg">
<path fill-rule="evenodd" clip-rule="evenodd" d="M5.53125 6.43423C6.10268 8.18852 6.31982 11.3142 7.99411 11.3142C8.12554 11.3142 8.25125 11.2971 8.38268 11.2742C6.85696 10.9199 6.67982 7.82852 5.75411 6.22852L5.53125 6.43423Z" fill="#1384C8"/>
<path fill-rule="evenodd" clip-rule="evenodd" d="M5.74829 6.22821C6.67972 7.82821 6.85686 10.9196 8.37686 11.2739C8.50258 11.2511 8.62258 11.2168 8.74258 11.1768C7.37115 10.5082 6.994 7.50821 5.94258 6.0625L5.74829 6.22821Z" fill="#1384C8"/>
<path fill-rule="evenodd" clip-rule="evenodd" d="M7.08536 5.27403C6.58065 5.30635 6.0927 5.46769 5.66821 5.74261C5.76536 5.83975 5.85678 5.94261 5.9425 6.06261C6.29678 5.77118 6.64536 5.54832 6.99393 5.42261C7.12536 5.37118 7.25678 5.33689 7.38821 5.30832C7.28911 5.28419 7.18735 5.27267 7.08536 5.27403ZM9.80536 10.5597C9.94821 10.4455 10.0911 10.3312 10.2282 10.194C9.64536 8.45118 9.43964 5.27975 7.74821 5.27975C7.63393 5.27975 7.50821 5.29118 7.38821 5.31403C8.92536 5.69689 9.11964 9.03975 9.80536 10.5597Z" fill="#1384C8"/>
<path fill-rule="evenodd" clip-rule="evenodd" d="M7.38843 5.31441C7.28957 5.28835 7.1878 5.27491 7.08557 5.27441H7.75414C7.62843 5.27441 7.50843 5.29156 7.38843 5.31441ZM9.777 10.9316C9.71036 10.8666 9.6474 10.7979 9.58843 10.7258C9.30271 10.9258 9.017 11.0801 8.74271 11.183C8.92419 11.2714 9.12373 11.3163 9.32557 11.3144C9.63985 11.3144 9.89128 11.2744 10.1027 11.1716C9.98843 11.1144 9.87414 11.0287 9.777 10.9316ZM6.99414 5.42299C8.36557 6.14299 8.49128 9.40013 9.58843 10.7258L9.80557 10.5601C9.11985 9.04013 8.92557 5.69727 7.38843 5.31441C7.257 5.33727 7.12557 5.37156 6.99414 5.42299Z" fill="#1384C8"/>
<path fill-rule="evenodd" clip-rule="evenodd" d="M5.94268 6.05665C6.99411 7.50808 7.37125 10.5081 8.74268 11.1766C9.02268 11.0795 9.30268 10.9252 9.5884 10.7252C8.49125 9.39951 8.37125 6.14236 6.99411 5.42236C6.64554 5.55379 6.29697 5.76522 5.94268 6.06236M4.85697 6.39379C4.68554 6.76522 4.51982 7.25665 4.31982 7.90236C4.71982 7.33093 5.13125 6.83379 5.53125 6.43379C5.47411 6.26236 5.41697 6.10808 5.35411 5.96522C5.18268 6.09093 5.02268 6.23379 4.85697 6.39379Z" fill="#1384C8"/>
<path fill-rule="evenodd" clip-rule="evenodd" d="M5.49686 5.86279L5.354 5.96565C5.41115 6.10851 5.474 6.26279 5.52543 6.43422L5.754 6.22851C5.67784 6.10016 5.59187 5.97789 5.49686 5.86279Z" fill="#1384C8"/>
<path fill-rule="evenodd" clip-rule="evenodd" d="M5.67409 5.74258L5.50266 5.85686C5.58837 5.97115 5.67409 6.09686 5.74837 6.22829L5.94266 6.05686C5.85694 5.94258 5.77123 5.83972 5.67409 5.74258ZM15.0569 5.14258C14.2798 8.14258 12.6569 10.554 11.2912 11.1654L11.2169 11.194H11.2055L11.1827 11.2054H11.1769L11.1427 11.2226H11.1255L11.1084 11.234H11.0969L11.0798 11.2454L11.0512 11.2512H11.0398L11.0169 11.2626H11.0055L10.9827 11.2683L10.9598 11.274C11.0169 11.2969 11.0855 11.3083 11.1541 11.3083C12.4455 11.3083 13.7484 8.99401 15.9027 5.14258H15.0569ZM4.03409 5.39972H4.0398L4.06266 5.38829H4.06837L4.07409 5.38258L4.09694 5.37686L4.14837 5.35401H4.15409L4.17695 5.34829H4.18837L4.20552 5.33686H4.21695L4.28552 5.31972H4.29695L4.3198 5.31401H4.32552L4.34837 5.30258L4.39409 5.29686H4.43409L4.45694 5.29115H4.46837L4.51409 5.27972H4.37695C2.9198 5.27972 0.914088 7.97686 0.0112305 11.474H0.182659C0.474088 10.9597 0.731231 10.4683 0.971231 10.0111C1.5998 7.53686 2.89123 5.84544 4.03409 5.39972ZM4.85694 6.39401C5.02266 6.23401 5.18837 6.09115 5.35409 5.96544C5.31832 5.8871 5.27826 5.81079 5.23409 5.73686C5.07918 5.93781 4.9523 6.15888 4.85694 6.39401Z" fill="#1384C8"/>
<path fill-rule="evenodd" clip-rule="evenodd" d="M4.97119 5.41705C5.06833 5.49705 5.15405 5.61133 5.23405 5.74276L5.30833 5.65705C5.2097 5.56185 5.09812 5.48106 4.97691 5.41705M0.971191 10.0113C2.29691 7.45705 2.92548 5.8399 4.03405 5.3999C2.89119 5.84562 1.60548 7.53705 0.971191 10.0113Z" fill="#1384C8"/>
<path fill-rule="evenodd" clip-rule="evenodd" d="M5.31398 5.65674L5.23398 5.73674L5.34826 5.96531L5.49683 5.86245C5.43969 5.78817 5.37683 5.7196 5.30826 5.65674M1.57112 11.4625H1.5254L1.46826 11.4682C2.81112 11.4339 3.42255 10.7596 3.73112 9.78245C3.95969 9.0396 4.14826 8.42245 4.31969 7.89674C3.69725 8.79449 3.13047 9.72958 2.62255 10.6967C2.34826 11.1996 1.93112 11.4167 1.57112 11.4625Z" fill="#1384C8"/>
<path fill-rule="evenodd" clip-rule="evenodd" d="M1.57119 11.4625C1.7978 11.4301 2.0129 11.3422 2.19734 11.2066C2.38178 11.071 2.52983 10.892 2.62833 10.6853C3.19976 9.62818 3.75976 8.68533 4.32547 7.89675C4.52547 7.25104 4.6969 6.75961 4.86262 6.38818C3.74262 7.45104 2.6169 9.22818 1.5769 11.4568M0.971189 10.011C0.731189 10.4682 0.474046 10.9596 0.182617 11.4739H0.691189C0.75976 10.9596 0.851189 10.4739 0.971189 10.011Z" fill="#1384C8"/>
<path fill-rule="evenodd" clip-rule="evenodd" d="M4.4684 5.28544H4.45698L4.43412 5.29115H4.42269L4.40555 5.29686H4.39412L4.35412 5.30829H4.34269C4.33508 5.3088 4.32744 5.3088 4.31983 5.30829L4.3084 5.31401H4.29126L4.27983 5.31972L4.21126 5.33686H4.19983L4.18269 5.34829H4.17126L4.1484 5.35972H4.14269L4.09126 5.37686L4.0684 5.38258L4.06269 5.38829L4.03983 5.39401L4.03412 5.39972C2.91983 5.83972 2.29126 7.45686 0.965547 10.0111C0.851261 10.474 0.754118 10.9597 0.685547 11.474H1.52555L1.5484 11.4683H1.57698C2.61126 9.23972 3.73698 7.46258 4.85698 6.39401C4.98269 6.11972 5.10269 5.90258 5.23412 5.74258C5.16678 5.62237 5.07987 5.51422 4.97698 5.42258L4.95983 5.41115L4.94269 5.40544L4.92555 5.39401H4.9084L4.89698 5.38258L4.8684 5.37115H4.85126C4.84545 5.36748 4.83974 5.36367 4.83412 5.35972L4.81698 5.35401L4.7884 5.34258L4.75412 5.33115H4.74269L4.71412 5.31972H4.7084C4.68386 5.31311 4.65908 5.30739 4.63412 5.30258H4.62269L4.59412 5.29686H4.5884L4.5484 5.29115H4.4684M12.017 6.79972C11.7655 7.62258 11.5598 8.29686 11.377 8.85686C12.1685 7.72856 12.8533 6.52911 13.4227 5.27401C12.657 5.51972 12.2513 6.06829 12.017 6.80544M11.3998 11.114L11.2913 11.1654C12.657 10.554 14.2798 8.14258 15.0627 5.14258H14.9027C13.1141 8.34258 12.537 10.474 11.3998 11.114ZM10.5084 10.8454C10.8055 10.4797 11.0455 9.86829 11.377 8.85115C11.0347 9.32851 10.6523 9.77584 10.2341 10.1883L10.2284 10.194C10.3141 10.4454 10.3998 10.6683 10.5084 10.8454ZM10.5084 10.8454C10.3982 10.982 10.2598 11.0931 10.1027 11.1711C10.2524 11.2523 10.4183 11.2992 10.5884 11.3083H10.8227L10.8455 11.2969H10.8913L10.9598 11.2797C10.7827 11.2169 10.6341 11.0626 10.5027 10.8454M7.99983 11.314C8.25383 11.3149 8.50577 11.2684 8.74269 11.1769C8.92377 11.267 9.12327 11.314 9.32555 11.314H7.99983Z" fill="#1384C8"/>
<path fill-rule="evenodd" clip-rule="evenodd" d="M9.32559 11.314C9.63987 11.314 9.8913 11.274 10.1027 11.1711C10.2525 11.2523 10.4184 11.2992 10.5884 11.3083H10.6627H9.32559V11.314ZM10.6627 11.314H10.7484L10.7713 11.3083H10.8284L10.857 11.2969H10.8913L10.9599 11.2797C11.017 11.3026 11.0856 11.314 11.1542 11.314H10.6627ZM10.2284 10.194C10.0274 10.3854 9.81356 10.563 9.58845 10.7254C9.64559 10.7997 9.71416 10.8683 9.77702 10.9311C9.87988 11.0283 9.98845 11.1083 10.1027 11.1711L10.1827 11.1311C10.297 11.0626 10.4113 10.9654 10.5084 10.8454C10.4056 10.6626 10.3142 10.4454 10.2284 10.194ZM14.3999 5.14258H13.6113L13.4799 5.14829L13.4227 5.27401C12.853 6.52714 12.1682 7.72467 11.377 8.85115C11.0456 9.86258 10.8056 10.4797 10.5084 10.8397C10.6342 11.0569 10.7827 11.2111 10.9599 11.274H10.9827L11.0056 11.2626H11.017L11.0399 11.2569H11.0513L11.0799 11.2454L11.097 11.2397L11.1084 11.234L11.1256 11.2283L11.1427 11.2226L11.177 11.2112H11.1827L11.2056 11.1997H11.217L11.2856 11.1654H11.2913L11.3999 11.1083C12.537 10.4797 13.1142 8.33686 14.9027 5.14258H14.3999ZM4.51416 5.28544H4.54273L4.58845 5.29115L4.62273 5.30258H4.63416L4.70845 5.31972L4.74273 5.33115H4.74845C4.76192 5.33444 4.77527 5.33825 4.78845 5.34258L4.81702 5.35401H4.82845L4.8513 5.36544L4.86273 5.37115L4.8913 5.38258L4.90845 5.38829L4.92559 5.39972H4.94273L4.95987 5.41115C5.08559 5.47401 5.19987 5.55972 5.30845 5.65686C5.34746 5.6157 5.38948 5.5775 5.43416 5.54258C5.16822 5.34938 4.84173 5.25812 4.51416 5.28544Z" fill="#1384C8"/>
<path fill-rule="evenodd" clip-rule="evenodd" d="M5.3141 5.65727C5.37124 5.71441 5.43981 5.7887 5.49695 5.86299C5.5541 5.81727 5.61124 5.78299 5.66838 5.7487C5.59629 5.67358 5.51791 5.60476 5.4341 5.54299C5.38838 5.57727 5.34838 5.61156 5.30838 5.65727M4.5141 5.28584L4.62267 5.28013C4.93124 5.28013 5.1941 5.37727 5.4341 5.54299C5.68552 5.3487 5.98267 5.27441 6.40552 5.27441H4.37695L4.5141 5.28584Z" fill="#1384C8"/>
<path fill-rule="evenodd" clip-rule="evenodd" d="M6.39965 5.27415C5.98251 5.27415 5.68537 5.34844 5.42822 5.54272C5.51394 5.59987 5.59965 5.66844 5.67394 5.74272C6.01679 5.52558 6.35965 5.37701 6.70251 5.31415C6.83394 5.29129 6.95965 5.27415 7.08537 5.27415H6.39965ZM11.3711 8.85701C11.5539 8.29701 11.7597 7.62272 12.0168 6.79987C12.2454 6.06844 12.6568 5.51415 13.4225 5.27415L13.4797 5.14844C12.2339 5.22844 11.6511 5.86272 11.3539 6.80558C10.8397 8.44558 10.5311 9.51415 10.2282 10.1884C10.6477 9.77716 11.0301 9.32971 11.3711 8.85129" fill="#1384C8"/>
</svg>
