<svg width="16" height="16" viewBox="0 0 16 16" fill="none" xmlns="http://www.w3.org/2000/svg">
<g clip-path="url(#clip0_980_1507)">
<path d="M1.20694 6.76724C1.17578 6.76724 1.16799 6.75166 1.18357 6.72829L1.34716 6.51795C1.36274 6.49458 1.40169 6.479 1.43286 6.479H4.21393C4.24509 6.479 4.25288 6.50237 4.2373 6.52574L4.10487 6.72829C4.08929 6.75166 4.05034 6.77503 4.02697 6.77503L1.20694 6.76724Z" fill="#00ACD7"/>
<path d="M0.0306723 7.48404C-0.000488216 7.48404 -0.00827844 7.46846 0.00730183 7.44509L0.170895 7.23475C0.186475 7.21138 0.225426 7.1958 0.256586 7.1958H3.80889C3.84005 7.1958 3.85563 7.21917 3.84784 7.24254L3.78552 7.4295C3.77773 7.46067 3.74657 7.47625 3.71541 7.47625L0.0306723 7.48404Z" fill="#00ACD7"/>
<path d="M1.91593 8.20083C1.88477 8.20083 1.87698 8.17746 1.89256 8.15409L2.00162 7.95934C2.0172 7.93597 2.04836 7.9126 2.07952 7.9126H3.63755C3.66871 7.9126 3.68429 7.93597 3.68429 7.96713L3.66871 8.15409C3.66871 8.18525 3.63755 8.20862 3.61418 8.20862L1.91593 8.20083Z" fill="#00ACD7"/>
<path d="M10.0018 6.62679C9.51106 6.75144 9.17609 6.84492 8.6931 6.96956C8.57625 7.00072 8.56845 7.00851 8.46718 6.89166C8.35033 6.75923 8.26464 6.67354 8.10105 6.59563C7.61027 6.35414 7.13507 6.42425 6.69103 6.71249C6.1613 7.05525 5.88865 7.56161 5.89644 8.19261C5.90423 8.81582 6.33269 9.32997 6.94811 9.41566C7.47784 9.48577 7.92187 9.29881 8.27243 8.90151C8.34254 8.81582 8.40486 8.72234 8.48276 8.61328H6.97927C6.81568 8.61328 6.77672 8.51201 6.83126 8.37957C6.93253 8.13808 7.11949 7.73299 7.22855 7.53045C7.25192 7.48371 7.30645 7.40581 7.42331 7.40581H10.2589C10.2433 7.61614 10.2433 7.82647 10.2122 8.03681C10.1265 8.5977 9.91615 9.11185 9.57338 9.56367C9.01249 10.3037 8.28022 10.7634 7.35319 10.888C6.58976 10.9893 5.88086 10.8413 5.25765 10.3738C4.68118 9.9376 4.35399 9.36113 4.2683 8.64444C4.16703 7.79531 4.41631 7.03188 4.93046 6.36193C5.48356 5.63745 6.21583 5.17783 7.1117 5.01424C7.84397 4.8818 8.54508 4.9675 9.17609 5.39595C9.58896 5.66861 9.88499 6.04253 10.0797 6.49436C10.1265 6.56447 10.0953 6.60342 10.0018 6.62679Z" fill="#00ACD7"/>
<path d="M12.5804 10.9349C11.8715 10.9193 11.2249 10.7167 10.6796 10.2493C10.22 9.85204 9.93179 9.34568 9.8383 8.74584C9.69808 7.86556 9.93958 7.08654 10.4693 6.39322C11.038 5.64537 11.7235 5.25586 12.6505 5.09227C13.4451 4.95205 14.193 5.02995 14.8707 5.48956C15.4862 5.91023 15.8679 6.47891 15.9691 7.22676C16.1016 8.27843 15.7978 9.13535 15.0733 9.86762C14.5591 10.3896 13.9281 10.7167 13.2036 10.8648C12.9933 10.9037 12.783 10.9115 12.5804 10.9349ZM14.4345 7.78765C14.4267 7.68638 14.4267 7.60848 14.4111 7.53058C14.2709 6.75936 13.562 6.32311 12.8219 6.49449C12.0974 6.65808 11.63 7.1177 11.4587 7.84998C11.3184 8.45761 11.6145 9.07303 12.1753 9.32231C12.6038 9.50927 13.0323 9.4859 13.4451 9.27557C14.0606 8.95617 14.3955 8.45761 14.4345 7.78765Z" fill="#00ACD7"/>
</g>
<defs>
<clipPath id="clip0_980_1507">
<rect width="16" height="16" fill="white"/>
</clipPath>
</defs>
</svg>
