<svg width="16" height="16" viewBox="0 0 16 16" fill="none" xmlns="http://www.w3.org/2000/svg">
<path d="M5.89825 12.3686C5.89825 12.3686 5.28785 12.7237 6.33293 12.8439C7.5986 12.9882 8.24507 12.9674 9.63976 12.7034C9.63976 12.7034 10.0065 12.9332 10.5184 13.1325C7.39236 14.4726 3.44276 13.0548 5.89872 12.3686M5.51675 10.6201C5.51675 10.6201 4.83189 11.1269 5.87744 11.2351C7.22912 11.3743 8.29687 11.3859 10.1443 11.0298C10.1443 11.0298 10.4 11.2888 10.8018 11.4308C7.02149 12.536 2.81109 11.5182 5.51629 10.6201" fill="#5382A1"/>
<path d="M8.7373 7.65386C9.5077 8.54126 8.53476 9.33941 8.53476 9.33941C8.53476 9.33941 10.4908 8.32947 9.59279 7.06473C8.75348 5.88554 8.11025 5.29964 11.5937 3.2793C11.5937 3.2793 6.12597 4.64485 8.7373 7.65386Z" fill="#E76F00"/>
<path d="M12.872 13.6618C12.872 13.6618 13.3238 14.034 12.3749 14.3221C10.5701 14.8687 4.86324 15.0338 3.27803 14.3439C2.70832 14.096 3.77699 13.752 4.11318 13.6793C4.4637 13.6035 4.66393 13.6178 4.66393 13.6178C4.0304 13.1711 0.567744 14.4941 2.90532 14.8733C9.27988 15.9069 14.5261 14.4077 12.872 13.6618ZM6.19179 8.80813C6.19179 8.80813 3.28913 9.49715 5.16381 9.74779C5.95549 9.85415 7.53376 9.8301 9.00335 9.70663C10.2047 9.60536 11.4112 9.38987 11.4112 9.38987C11.4112 9.38987 10.9876 9.5716 10.6806 9.78062C7.73306 10.5561 2.03873 10.1954 3.67803 9.40235C5.06439 8.73183 6.19179 8.80813 6.19179 8.80813ZM11.3987 11.7187C14.3953 10.1617 13.0098 8.66524 12.0429 8.86686C11.8061 8.91634 11.7007 8.95935 11.7007 8.95935C11.7007 8.95935 11.7886 8.82108 11.9564 8.76143C13.8695 8.08906 15.3409 10.7452 11.3386 11.7973C11.3386 11.7973 11.3849 11.7556 11.3987 11.7187Z" fill="#5382A1"/>
<path d="M9.59267 0.0170898C9.59267 0.0170898 11.2523 1.67721 8.01857 4.22981C5.42574 6.27744 7.42759 7.44507 8.01764 8.77917C6.50412 7.41362 5.39337 6.21131 6.13834 5.0927C7.23244 3.44969 10.2623 2.65385 9.59267 0.0170898Z" fill="#E76F00"/>
<path d="M6.48655 15.9382C9.36285 16.1223 13.7795 15.836 13.884 14.4751C13.884 14.4751 13.6829 14.9907 11.5071 15.4004C9.0521 15.8628 6.02412 15.8087 4.22852 15.5123C4.22852 15.5123 4.59615 15.8166 6.48655 15.9378" fill="#5382A1"/>
</svg>
