<svg width="16" height="16" viewBox="0 0 16 16" fill="none" xmlns="http://www.w3.org/2000/svg">
<path fill-rule="evenodd" clip-rule="evenodd" d="M4.88098 7.25439H4.29098L3.96948 8.90939H4.49298C4.84048 8.90939 5.09948 8.84339 5.26948 8.71289C5.43948 8.58189 5.55398 8.36389 5.61298 8.05739C5.67048 7.76339 5.64448 7.55639 5.53548 7.43539C5.42648 7.31489 5.20848 7.25439 4.88098 7.25439Z" fill="#6181B6"/>
<path d="M8 4.43018C3.858 4.43018 0.5 6.19668 0.5 8.37518C0.5 10.5537 3.858 12.3207 8 12.3207C12.142 12.3207 15.5 10.5542 15.5 8.37518C15.5 6.19618 12.142 4.43018 8 4.43018ZM5.9625 9.08718C5.79945 9.24301 5.6037 9.36053 5.3895 9.43118C5.1795 9.49868 4.9115 9.53368 4.5865 9.53368H3.848L3.644 10.5847H2.782L3.551 6.63068H5.207C5.705 6.63068 6.0685 6.76118 6.297 7.02318C6.526 7.28468 6.5945 7.64968 6.503 8.11818C6.468 8.30368 6.404 8.48268 6.313 8.64768C6.21996 8.8118 6.10149 8.96015 5.962 9.08718H5.9625ZM8.4775 9.53368L8.817 7.78468C8.8565 7.58568 8.8415 7.44968 8.7745 7.37768C8.7075 7.30518 8.5645 7.26868 8.345 7.26868H7.6625L7.2225 9.53468H6.3675L7.1365 5.58018H7.9905L7.7865 6.63168H8.5475C9.027 6.63168 9.357 6.71518 9.539 6.88168C9.721 7.04818 9.775 7.31968 9.703 7.69418L9.3455 9.53418H8.4775V9.53368ZM13.2255 8.11868C13.1911 8.30418 13.1268 8.48285 13.035 8.64768C12.9421 8.81177 12.8238 8.96011 12.6845 9.08718C12.5211 9.24286 12.3253 9.36035 12.111 9.43118C11.901 9.49868 11.633 9.53368 11.3075 9.53368H10.57L10.3655 10.5852H9.505L10.2735 6.63118H11.9295C12.4275 6.63118 12.7905 6.76218 13.0195 7.02368C13.248 7.28468 13.317 7.64968 13.2255 8.11868Z" fill="#6181B6"/>
<path fill-rule="evenodd" clip-rule="evenodd" d="M11.6034 7.25439H11.0149L10.6924 8.90939H11.2159C11.5639 8.90939 11.8229 8.84339 11.9924 8.71289C12.1624 8.58189 12.2764 8.36389 12.3364 8.05739C12.3939 7.76339 12.3674 7.55639 12.2584 7.43539C12.1499 7.31489 11.9304 7.25439 11.6034 7.25439Z" fill="#6181B6"/>
</svg>
