<svg width="16" height="16" viewBox="0 0 16 16" fill="none" xmlns="http://www.w3.org/2000/svg">
<g clip-path="url(#clip0_980_1497)">
<path d="M7.93222 0.0356445C3.88022 0.0356445 4.13322 1.79283 4.13322 1.79283L4.13772 3.61333H8.00447V4.15989H2.60191C2.60191 4.15989 0.0090332 3.86583 0.0090332 7.95427C0.0090332 12.0428 2.27216 11.8978 2.27216 11.8978H3.62278V10.0006C3.62278 10.0006 3.54997 7.73746 5.84978 7.73746H9.68491C9.68491 7.73746 11.8396 7.77227 11.8396 5.65502V2.15427C11.8396 2.15427 12.1668 0.0356445 7.93222 0.0356445ZM5.8001 1.25989C5.89147 1.25981 5.98196 1.27775 6.0664 1.31268C6.15083 1.34761 6.22755 1.39884 6.29216 1.46345C6.35677 1.52807 6.40801 1.60478 6.44294 1.68922C6.47787 1.77365 6.4958 1.86415 6.49572 1.95552C6.4958 2.04689 6.47787 2.13739 6.44294 2.22182C6.40801 2.30626 6.35677 2.38297 6.29216 2.44758C6.22755 2.5122 6.15083 2.56343 6.0664 2.59836C5.98196 2.63329 5.89147 2.65123 5.8001 2.65114C5.70872 2.65123 5.61823 2.63329 5.53379 2.59836C5.44936 2.56343 5.37264 2.5122 5.30803 2.44758C5.24342 2.38297 5.19218 2.30626 5.15726 2.22182C5.12233 2.13739 5.10439 2.04689 5.10447 1.95552C5.10439 1.86415 5.12233 1.77365 5.15726 1.68922C5.19218 1.60478 5.24342 1.52807 5.30803 1.46345C5.37264 1.39884 5.44936 1.34761 5.53379 1.31268C5.61823 1.27775 5.70872 1.25981 5.8001 1.25989Z" fill="#3372A7"/>
<path d="M8.04709 15.9141C12.0991 15.9141 11.8461 14.1569 11.8461 14.1569L11.8416 12.3365H7.97478V11.7899H13.3773C13.3773 11.7899 15.9702 12.084 15.9702 7.99541C15.9702 3.90691 13.7071 4.05191 13.7071 4.05191H12.3565V5.94909C12.3565 5.94909 12.4293 8.21222 10.1295 8.21222H6.29434C6.29434 8.21222 4.13965 8.17741 4.13965 10.2947V13.7955C4.13965 13.7955 3.81246 15.9141 8.04703 15.9141H8.04709ZM10.1792 14.69C10.0878 14.69 9.99735 14.6721 9.91291 14.6372C9.82848 14.6023 9.75176 14.551 9.68715 14.4864C9.62254 14.4218 9.5713 14.3451 9.53637 14.2606C9.50144 14.1762 9.48351 14.0857 9.48359 13.9943C9.4835 13.903 9.50143 13.8125 9.53635 13.728C9.57128 13.6436 9.62251 13.5669 9.68713 13.5022C9.75174 13.4376 9.82846 13.3864 9.9129 13.3514C9.99733 13.3165 10.0878 13.2986 10.1792 13.2987C10.2706 13.2986 10.3611 13.3165 10.4455 13.3514C10.5299 13.3864 10.6067 13.4376 10.6713 13.5022C10.7359 13.5668 10.7871 13.6435 10.8221 13.728C10.857 13.8124 10.8749 13.9029 10.8748 13.9943C10.8749 14.0857 10.857 14.1761 10.8221 14.2606C10.7871 14.345 10.7359 14.4217 10.6713 14.4863C10.6067 14.551 10.5299 14.6022 10.4455 14.6371C10.3611 14.6721 10.2706 14.69 10.1792 14.69Z" fill="#FFD235"/>
</g>
<defs>
<clipPath id="clip0_980_1497">
<rect width="16" height="16" fill="white"/>
</clipPath>
</defs>
</svg>
