<svg width="16" height="16" viewBox="0 0 16 16" fill="none" xmlns="http://www.w3.org/2000/svg">
<g clip-path="url(#clip0_980_1487)">
<path d="M0 0H16V16H0" fill="#3178C6"/>
<path d="M7.28125 8.87492H9.28125V7.59367H3.6875V8.87492H5.6875V14.5937H7.28125V8.87492ZM9.90625 14.2812C10.4697 14.569 11.2284 14.6718 11.9063 14.6718C12.4906 14.6718 13.2478 14.5959 13.8438 14.2218C14.0969 14.0562 14.3125 13.8468 14.4375 13.5655C14.5625 13.2843 14.6594 12.9718 14.6594 12.5655C14.6566 11.2796 13.7441 10.8534 12.8438 10.4405C12.435 10.2546 11.5156 9.9543 11.5156 9.37492C11.5156 8.90805 12.0409 8.67086 12.7094 8.66867C13.2306 8.66867 13.9313 8.83836 14.3656 9.15742V7.68867C13.7791 7.46336 13.1644 7.42117 12.6156 7.41992C11.0766 7.41992 9.87625 8.05492 9.86563 9.50742C9.88094 10.6046 10.5319 11.0837 11.4906 11.5387C12.0128 11.7749 12.9772 12.0774 12.9844 12.7324C12.9616 13.344 12.2163 13.4371 11.7844 13.4418C11.1106 13.4418 10.3981 13.1859 9.90625 12.7812V14.2812Z" fill="white"/>
</g>
<defs>
<clipPath id="clip0_980_1487">
<rect width="16" height="16" rx="2.66667" fill="white"/>
</clipPath>
</defs>
</svg>
