<svg width="308" height="168" viewBox="0 0 308 168" fill="none" xmlns="http://www.w3.org/2000/svg" xmlns:xlink="http://www.w3.org/1999/xlink">
<g clip-path="url(#clip0_933_36393)">
<g filter="url(#filter0_n_933_36393)">
<rect width="308" height="168" fill="#161E27"/>
</g>
<g clip-path="url(#clip1_933_36393)">
<path d="M122 52H186V116H122" fill="#3178C6"/>
<path d="M151.125 87.4992H159.125V82.3742H136.75V87.4992H144.75V110.374H151.125V87.4992ZM161.625 109.124C163.879 110.275 166.914 110.687 169.625 110.687C171.962 110.687 174.991 110.383 177.375 108.887C178.387 108.224 179.25 107.387 179.75 106.262C180.25 105.137 180.637 103.887 180.637 102.262C180.626 97.1179 176.976 95.4129 173.375 93.7617C171.74 93.018 168.062 91.8167 168.062 89.4992C168.062 87.6317 170.164 86.6829 172.837 86.6742C174.922 86.6742 177.725 87.353 179.462 88.6292V82.7542C177.116 81.8529 174.657 81.6842 172.462 81.6792C166.306 81.6792 161.505 84.2192 161.462 90.0292C161.524 94.4179 164.127 96.3342 167.962 98.1542C170.051 99.0992 173.909 100.309 173.937 102.929C173.846 105.375 170.865 105.748 169.137 105.767C166.442 105.767 163.592 104.743 161.625 103.124V109.124Z" fill="white"/>
</g>
<path d="M16 175L16 -10" stroke="#3E4D5C" stroke-linecap="round" stroke-linejoin="round"/>
<path d="M89 175L89 -10" stroke="#3E4D5C" stroke-linecap="round" stroke-linejoin="round"/>
<path d="M219 175L219 -10" stroke="#3E4D5C" stroke-linecap="round" stroke-linejoin="round"/>
<path d="M292 175L292 -10" stroke="#3E4D5C" stroke-linecap="round" stroke-linejoin="round"/>
<path d="M-10 16L312 16" stroke="#3E4D5C" stroke-linecap="round" stroke-linejoin="round"/>
<path d="M-10 40L312 40" stroke="#3E4D5C" stroke-linecap="round" stroke-linejoin="round"/>
<path d="M-10 128L312 128" stroke="#3E4D5C" stroke-linecap="round" stroke-linejoin="round"/>
<path d="M-10 152L312 152" stroke="#3E4D5C" stroke-linecap="round" stroke-linejoin="round"/>
<rect x="16" y="128" width="73" height="24" fill="url(#pattern0_933_36393)"/>
<rect x="219" y="40" width="73" height="88" fill="url(#pattern1_933_36393)"/>
</g>
<rect x="0.5" y="0.5" width="307" height="167" rx="7.5" stroke="#3E4D5C"/>
<defs>
<filter id="filter0_n_933_36393" x="0" y="0" width="308" height="168" filterUnits="userSpaceOnUse" color-interpolation-filters="sRGB">
<feFlood flood-opacity="0" result="BackgroundImageFix"/>
<feBlend mode="normal" in="SourceGraphic" in2="BackgroundImageFix" result="shape"/>
<feTurbulence type="fractalNoise" baseFrequency="2 2" stitchTiles="stitch" numOctaves="3" result="noise" seed="2581" />
<feColorMatrix in="noise" type="luminanceToAlpha" result="alphaNoise" />
<feComponentTransfer in="alphaNoise" result="coloredNoise1">
<feFuncA type="discrete" tableValues="1 1 1 1 1 1 1 1 1 1 1 1 1 1 1 1 1 1 1 1 1 1 1 1 1 1 1 1 1 1 1 1 1 1 1 1 1 1 1 1 1 1 1 1 1 1 1 1 1 1 1 0 0 0 0 0 0 0 0 0 0 0 0 0 0 0 0 0 0 0 0 0 0 0 0 0 0 0 0 0 0 0 0 0 0 0 0 0 0 0 0 0 0 0 0 0 0 0 0 0 "/>
</feComponentTransfer>
<feComposite operator="in" in2="shape" in="coloredNoise1" result="noise1Clipped" />
<feFlood flood-color="rgba(255, 255, 255, 0.05)" result="color1Flood" />
<feComposite operator="in" in2="noise1Clipped" in="color1Flood" result="color1" />
<feMerge result="effect1_noise_933_36393">
<feMergeNode in="shape" />
<feMergeNode in="color1" />
</feMerge>
</filter>
<clipPath id="clip0_933_36393">
<rect width="308" height="168" rx="8" fill="white"/>
</clipPath>
<clipPath id="clip1_933_36393">
<rect x="122" y="52" width="64" height="64" rx="8.77601" fill="white"/>
</clipPath>
<pattern id="pattern0_933_36393" patternUnits="userSpaceOnUse" viewBox="1173 98 100 100" width="15.068493069034734%" height="45.833333084980652%" x="-0.55" y="-0.55" patternContentUnits="objectBoundingBox">
<g id="pattern0_933_36393_inner">
<path d="M1073 98L1173 -2" stroke="#3E4D5C" stroke-width="10" stroke-linecap="round" stroke-linejoin="round"/>
</g>
<use xlink:href="#pattern0_933_36393_inner" transform="translate(100 0)"/>
<use xlink:href="#pattern0_933_36393_inner" transform="translate(0 100)"/>
<use xlink:href="#pattern0_933_36393_inner" transform="translate(100 100)"/>
</pattern><pattern id="pattern1_933_36393" patternUnits="userSpaceOnUse" viewBox="1173 98 100 100" width="15.068493069034734%" height="12.499999932267448%" x="-0.55" y="-0.55" patternContentUnits="objectBoundingBox">
<g id="pattern1_933_36393_inner">
<path d="M1073 98L1173 -2" stroke="#3E4D5C" stroke-width="10" stroke-linecap="round" stroke-linejoin="round"/>
</g>
<use xlink:href="#pattern1_933_36393_inner" transform="translate(100 0)"/>
<use xlink:href="#pattern1_933_36393_inner" transform="translate(0 100)"/>
<use xlink:href="#pattern1_933_36393_inner" transform="translate(100 100)"/>
</pattern></defs>
</svg>
