<svg width="371" height="99" viewBox="0 0 371 99" fill="none" xmlns="http://www.w3.org/2000/svg">
<g clip-path="url(#clip0_798_22562)">
<mask id="mask0_798_22562" style="mask-type:alpha" maskUnits="userSpaceOnUse" x="-25" y="-37" width="440" height="239">
<rect x="-25" y="-36.9531" width="440" height="238" fill="url(#paint0_linear_798_22562)"/>
</mask>
<g mask="url(#mask0_798_22562)">
<rect x="11.2805" y="0.757031" width="348.439" height="241.34" rx="6.45078" stroke="#303136" stroke-width="0.560938"/>
<path d="M11.5609 7.03748C11.5609 3.72377 14.2472 1.03748 17.5609 1.03748H353.439C356.753 1.03748 359.439 3.72377 359.439 7.03748V31.2679H11.5609V7.03748Z" fill="#19191B"/>
<g clip-path="url(#clip1_798_22562)">
<path d="M23.7771 19.8734C22.9088 19.8734 22.2256 19.668 21.7274 19.2574C21.2293 18.8468 20.9769 18.2848 20.9702 17.5713H22.0102C22.0169 18.0021 22.1751 18.3454 22.4847 18.6011C22.8011 18.8502 23.2319 18.9747 23.7771 18.9747C24.2618 18.9747 24.6454 18.8603 24.9282 18.6314C25.2176 18.3958 25.3623 18.0862 25.3623 17.7025C25.3623 17.0765 24.9618 16.7097 24.1608 16.602L23.2319 16.4707C22.5588 16.3832 22.0505 16.1779 21.7072 15.8548C21.3707 15.525 21.2024 15.0942 21.2024 14.5624C21.2024 14.1518 21.3067 13.795 21.5154 13.4921C21.7241 13.1825 22.0169 12.9435 22.3938 12.7752C22.7775 12.607 23.2218 12.5228 23.7266 12.5228C24.5142 12.5228 25.1368 12.7012 25.5945 13.058C26.059 13.4147 26.298 13.9027 26.3114 14.522H25.2714C25.258 14.1787 25.1133 13.9095 24.8373 13.7143C24.5613 13.5123 24.1911 13.4114 23.7266 13.4114C23.2824 13.4114 22.9256 13.5123 22.6564 13.7143C22.3871 13.9095 22.2525 14.172 22.2525 14.5018C22.2525 14.7913 22.3568 15.0201 22.5655 15.1884C22.7742 15.35 23.0973 15.461 23.5348 15.5216L24.4132 15.6428C25.0729 15.737 25.571 15.9524 25.9075 16.289C26.2441 16.6188 26.4124 17.0698 26.4124 17.6419C26.4124 18.0929 26.3047 18.4867 26.0893 18.8233C25.8806 19.1598 25.5777 19.419 25.1806 19.6007C24.7834 19.7825 24.3156 19.8734 23.7771 19.8734ZM29.7735 19.8734C29.2955 19.8734 28.8715 19.769 28.5013 19.5603C28.1378 19.3449 27.8551 19.042 27.6531 18.6516C27.4512 18.2545 27.3502 17.7968 27.3502 17.2785C27.3502 16.7669 27.4478 16.3193 27.643 15.9356C27.845 15.5519 28.1243 15.2557 28.4811 15.047C28.8378 14.8384 29.2451 14.734 29.7028 14.734C30.423 14.734 30.9918 14.9528 31.4092 15.3903C31.8265 15.8211 32.0352 16.4101 32.0352 17.1573C32.0352 17.265 32.0251 17.4198 32.0049 17.6217H28.3195C28.3397 18.066 28.4777 18.416 28.7335 18.6718C28.996 18.9209 29.3427 19.0454 29.7735 19.0454C30.0562 19.0454 30.2985 18.9848 30.5004 18.8637C30.7024 18.7425 30.8505 18.5709 30.9447 18.3487H31.9443C31.7895 18.8266 31.527 19.2002 31.1567 19.4695C30.7865 19.7387 30.3254 19.8734 29.7735 19.8734ZM31.0457 16.8544V16.8039C31.0457 16.4202 30.9245 16.1106 30.6822 15.875C30.4466 15.6394 30.1201 15.5216 29.7028 15.5216C29.2989 15.5216 28.9724 15.6461 28.7234 15.8952C28.4743 16.1375 28.3397 16.4572 28.3195 16.8544H31.0457ZM34.6185 19.8734C34.0598 19.8734 33.6155 19.7387 33.2857 19.4695C32.9559 19.1935 32.7909 18.8233 32.7909 18.3588C32.7909 17.9078 32.9424 17.5443 33.2453 17.2684C33.5482 16.9856 33.9891 16.8275 34.568 16.7938L36.0421 16.713V16.4404C36.0421 16.124 35.9614 15.8952 35.7998 15.7538C35.645 15.6125 35.3993 15.5418 35.0627 15.5418C34.7329 15.5418 34.4838 15.5956 34.3156 15.7033C34.154 15.8043 34.053 15.9793 34.0127 16.2284H33.0333C33.0871 15.7303 33.2857 15.3567 33.629 15.1076C33.979 14.8586 34.4805 14.734 35.1334 14.734C35.719 14.734 36.17 14.8788 36.4864 15.1682C36.8095 15.4509 36.971 15.8582 36.971 16.3899V18.7627C36.971 18.8704 37.0249 18.9242 37.1326 18.9242H37.5466V19.732H36.759C36.5907 19.732 36.4595 19.6882 36.3652 19.6007C36.2777 19.5132 36.234 19.3887 36.234 19.2272V19.0858C36.0926 19.3349 35.8806 19.5301 35.5979 19.6714C35.3219 19.806 34.9954 19.8734 34.6185 19.8734ZM33.7703 18.3285C33.7703 18.5507 33.8545 18.729 34.0228 18.8637C34.1978 18.9983 34.4334 19.0656 34.7295 19.0656C35.1334 19.0656 35.4531 18.9545 35.6887 18.7324C35.9243 18.5035 36.0421 18.1872 36.0421 17.7833V17.4703L34.6891 17.5713C34.3862 17.5915 34.1574 17.6722 34.0026 17.8136C33.8477 17.9482 33.7703 18.1199 33.7703 18.3285ZM38.579 14.8754H39.4473V15.663C39.5079 15.4139 39.629 15.2221 39.8108 15.0874C39.9925 14.9461 40.2248 14.8754 40.5075 14.8754H41.4364V15.7336H40.4166C40.1204 15.7336 39.9017 15.8178 39.7603 15.9861C39.6257 16.1476 39.5584 16.3967 39.5584 16.7332V19.732H38.579V14.8754ZM44.1588 19.8734C43.6809 19.8734 43.2602 19.7657 42.8967 19.5503C42.54 19.3281 42.2606 19.0252 42.0587 18.6415C41.8635 18.2511 41.7659 17.8102 41.7659 17.3188C41.7659 16.8207 41.8668 16.3765 42.0688 15.9861C42.2775 15.5889 42.5669 15.2826 42.9371 15.0672C43.3073 14.8451 43.7348 14.734 44.2194 14.734C44.8252 14.734 45.3267 14.8956 45.7239 15.2187C46.121 15.5351 46.3465 15.9524 46.4003 16.4707H45.4008C45.3536 16.2284 45.2257 16.0264 45.0171 15.8649C44.8084 15.7033 44.5392 15.6226 44.2093 15.6226C43.7718 15.6226 43.4218 15.774 43.1592 16.0769C42.9035 16.3798 42.7756 16.7871 42.7756 17.2986C42.7756 17.817 42.9035 18.2276 43.1592 18.5305C43.4218 18.8334 43.7651 18.9848 44.1891 18.9848C44.5122 18.9848 44.7848 18.8973 45.007 18.7223C45.2291 18.5473 45.3671 18.3184 45.4209 18.0357H46.4205C46.3734 18.3656 46.2523 18.6718 46.057 18.9545C45.8686 19.2305 45.6094 19.4526 45.2796 19.6209C44.9565 19.7892 44.5829 19.8734 44.1588 19.8734ZM47.4236 12.6642H48.403V15.35C48.5645 15.148 48.7665 14.9966 49.0088 14.8956C49.2579 14.7879 49.5305 14.734 49.8267 14.734C50.4325 14.734 50.907 14.9158 51.2503 15.2793C51.5936 15.636 51.7653 16.1442 51.7653 16.8039V19.732H50.7859V16.8948C50.7859 16.4707 50.6849 16.1543 50.4829 15.9457C50.2877 15.7303 50.0084 15.6226 49.6449 15.6226C49.268 15.6226 48.9651 15.7437 48.7362 15.9861C48.5141 16.2216 48.403 16.5347 48.403 16.9251V19.732H47.4236V12.6642Z" fill="#5F606A"/>
</g>
<rect x="332.135" y="9.42146" width="22.5359" height="12.9016" rx="4.20703" stroke="#5F606A" stroke-width="0.560938"/>
<path d="M340.803 17.567V18.3723H337.812V13.6295H340.803V14.4347H338.749V15.6015H340.682V16.3476H338.749V17.567H340.803ZM341.937 15.8053C341.937 15.1019 342.503 14.6615 343.4 14.6615C344.277 14.6615 344.813 15.0559 344.856 15.7363H344.008C343.965 15.4964 343.728 15.3484 343.393 15.3484C343.051 15.3484 342.825 15.5029 342.825 15.733C342.825 15.9302 342.976 16.0485 343.327 16.1208L343.89 16.2359C344.622 16.3871 344.948 16.6993 344.948 17.2515C344.948 17.9844 344.35 18.4478 343.406 18.4478C342.48 18.4478 341.908 18.0502 341.858 17.3698H342.746C342.802 17.6196 343.045 17.7576 343.42 17.7576C343.788 17.7576 344.024 17.6032 344.024 17.3665C344.024 17.1627 343.886 17.0641 343.505 16.982L342.963 16.8669C342.282 16.719 341.937 16.3641 341.937 15.8053ZM349.204 16.0124H348.323C348.264 15.6048 348.021 15.4076 347.63 15.4076C347.147 15.4076 346.88 15.7692 346.88 16.4331V16.6763C346.88 17.3402 347.147 17.7018 347.63 17.7018C348.024 17.7018 348.261 17.5144 348.323 17.1266H349.204C349.125 17.991 348.573 18.4511 347.636 18.4511C346.568 18.4511 345.977 17.8464 345.977 16.7453V16.3641C345.977 15.263 346.568 14.6582 347.636 14.6582C348.573 14.6582 349.119 15.125 349.204 16.0124Z" fill="#5F606A"/>
<path d="M21.0947 68.286H24.0497V69.1948H22.064V70.1439H24.0497V71.0526H22.064V72.9979H21.0947V68.286ZM24.8394 69.6727H25.7818V72.9979H24.8394V69.6727ZM24.8125 68.2995H25.802V69.1746H24.8125V68.2995ZM27.46 72.9979C27.1997 72.9979 27.009 72.9441 26.8878 72.8364C26.7712 72.7287 26.7128 72.5514 26.7128 72.3046V68.286H27.6552V71.968C27.6552 72.0398 27.6709 72.0937 27.7023 72.1296C27.7337 72.161 27.7876 72.1767 27.8639 72.1767H28.2274V72.9979H27.46ZM29.9707 72.9979C29.6611 72.9979 29.4344 72.9306 29.2908 72.796C29.1517 72.6569 29.0822 72.4303 29.0822 72.1161V70.4939H28.2542V69.6727H29.0822V68.7101H30.0245V69.6727H31.014V70.4939H30.0245V71.8873C30.0245 71.986 30.047 72.06 30.0919 72.1094C30.1367 72.1543 30.2108 72.1767 30.314 72.1767H31.014V72.9979H29.9707ZM33.0778 73.0989C32.7412 73.0989 32.4451 73.0248 32.1893 72.8768C31.9335 72.7287 31.736 72.52 31.5969 72.2508C31.4578 71.9815 31.3883 71.6696 31.3883 71.3151C31.3883 70.9696 31.4578 70.6644 31.5969 70.3997C31.736 70.1349 31.9312 69.9307 32.1825 69.7871C32.4338 69.6435 32.721 69.5717 33.0441 69.5717C33.5557 69.5717 33.9574 69.7265 34.249 70.0362C34.5452 70.3413 34.6933 70.7587 34.6933 71.2882C34.6933 71.4004 34.6866 71.5283 34.6731 71.6719H32.3172C32.3351 71.8783 32.4114 72.0376 32.546 72.1498C32.6807 72.262 32.8602 72.3181 33.0845 72.3181C33.2326 72.3181 33.356 72.2911 33.4548 72.2373C33.5535 72.179 33.6253 72.1027 33.6702 72.0084H34.6327C34.5295 72.3495 34.3478 72.6165 34.0875 72.8094C33.8272 73.0024 33.4907 73.0989 33.0778 73.0989ZM33.7442 70.9584V70.9449C33.7442 70.7519 33.6836 70.5994 33.5625 70.4872C33.4413 70.3705 33.2685 70.3122 33.0441 70.3122C32.8287 70.3122 32.656 70.3705 32.5258 70.4872C32.3957 70.6038 32.3239 70.7609 32.3104 70.9584H33.7442ZM35.3767 69.6727H36.2046V70.2583C36.245 70.0698 36.3303 69.9262 36.4604 69.8275C36.595 69.7243 36.7678 69.6727 36.9787 69.6727H37.5711V70.4939H36.8643C36.5008 70.4939 36.3191 70.6824 36.3191 71.0593V72.9979H35.3767V69.6727ZM39.2903 73.0989C38.8281 73.0989 38.4646 73.0069 38.1999 72.8229C37.9396 72.6344 37.8005 72.3629 37.7825 72.0084H38.7518C38.7788 72.2373 38.9717 72.3517 39.3307 72.3517C39.4788 72.3517 39.5977 72.3226 39.6875 72.2642C39.7772 72.2059 39.8221 72.1273 39.8221 72.0286C39.8221 71.8671 39.6897 71.7728 39.425 71.7459L38.8999 71.6921C38.5903 71.6562 38.3435 71.5485 38.1595 71.369C37.98 71.185 37.8902 70.9516 37.8902 70.6689C37.8902 70.3279 38.0159 70.0609 38.2672 69.8679C38.5185 69.6704 38.8595 69.5717 39.2903 69.5717C39.7256 69.5717 40.0689 69.6615 40.3202 69.841C40.5715 70.0205 40.7084 70.2875 40.7308 70.642H39.8019C39.7884 70.4266 39.6134 70.3189 39.2769 70.3189C39.1288 70.3189 39.0121 70.3458 38.9268 70.3997C38.8461 70.449 38.8057 70.5208 38.8057 70.6151C38.8057 70.7721 38.947 70.8686 39.2297 70.9045L39.7682 70.9651C40.0779 70.9965 40.3202 71.1042 40.4952 71.2882C40.6747 71.4677 40.7645 71.6965 40.7645 71.9748C40.7645 72.3203 40.6321 72.594 40.3673 72.796C40.1026 72.9979 39.7436 73.0989 39.2903 73.0989Z" fill="#797B86"/>
<g opacity="0.6" clip-path="url(#clip2_798_22562)">
<path d="M21.6579 89.4589H28.3891" stroke="#797B86" stroke-width="0.747917" stroke-linecap="round" stroke-linejoin="round"/>
<path d="M23.154 91.705H26.8936" stroke="#797B86" stroke-width="0.747917" stroke-linecap="round" stroke-linejoin="round"/>
<path d="M24.2758 93.9471H25.7717" stroke="#797B86" stroke-width="0.747917" stroke-linecap="round" stroke-linejoin="round"/>
</g>
<path d="M39.1927 89.207H42.491V89.9452H39.978V91.5236H42.491V92.2618H39.978V94.7042H39.1927V89.207ZM43.4545 90.9268H44.2162V94.7042H43.4545V90.9268ZM43.4074 89.2619H44.2555V90.1651H43.4074V89.2619ZM46.2025 94.7042C45.9355 94.7042 45.7418 94.6492 45.6214 94.5392C45.501 94.4293 45.4408 94.2461 45.4408 93.9895V89.207H46.2025V93.7539C46.2025 93.8534 46.2235 93.9267 46.2653 93.9738C46.3072 94.0157 46.3753 94.0366 46.4695 94.0366H46.9486V94.7042H46.2025ZM48.9317 94.7042C48.6019 94.7042 48.3637 94.6335 48.2171 94.4921C48.0705 94.3508 47.9972 94.1178 47.9972 93.7932V91.5943H47.0077V90.9268H47.9972V89.796H48.759V90.9268H49.9448V91.5943H48.759V93.644C48.759 93.7801 48.7904 93.8796 48.8532 93.9424C48.916 94.0052 49.0181 94.0366 49.1595 94.0366H49.9448V94.7042H48.9317ZM52.3043 94.8141C51.9326 94.8141 51.6028 94.733 51.3148 94.5707C51.0321 94.4031 50.8122 94.1675 50.6552 93.8639C50.4981 93.555 50.4196 93.199 50.4196 92.7959C50.4196 92.398 50.4955 92.0498 50.6473 91.7514C50.8044 91.453 51.0217 91.2226 51.2991 91.0603C51.5766 90.898 51.8934 90.8169 52.2494 90.8169C52.8096 90.8169 53.2519 90.987 53.5765 91.3273C53.9011 91.6624 54.0634 92.1205 54.0634 92.7016C54.0634 92.7854 54.0556 92.9058 54.0399 93.0629H51.1735C51.1892 93.4084 51.2965 93.6806 51.4955 93.8796C51.6996 94.0733 51.9693 94.1702 52.3043 94.1702C52.5242 94.1702 52.7127 94.123 52.8698 94.0288C53.0268 93.9346 53.142 93.8011 53.2153 93.6283H53.9928C53.8723 94 53.6682 94.2906 53.3802 94.5C53.0923 94.7094 52.7336 94.8141 52.3043 94.8141ZM53.2938 92.466V92.4268C53.2938 92.1283 53.1996 91.8875 53.0111 91.7043C52.8279 91.521 52.574 91.4294 52.2494 91.4294C51.9352 91.4294 51.6813 91.5263 51.4876 91.72C51.2939 91.9084 51.1892 92.1571 51.1735 92.466H53.2938ZM54.9811 90.9268H55.6565V91.5394C55.7036 91.3456 55.7978 91.1964 55.9392 91.0917C56.0805 90.9818 56.2611 90.9268 56.481 90.9268H57.2035V91.5943H56.4104C56.18 91.5943 56.0098 91.6598 55.8999 91.7907C55.7952 91.9163 55.7428 92.11 55.7428 92.3718V94.7042H54.9811V90.9268ZM61.3096 94.7042C60.9798 94.7042 60.7416 94.6335 60.595 94.4921C60.4484 94.3508 60.3751 94.1178 60.3751 93.7932V91.5943H59.3856V90.9268H60.3751V89.796H61.1368V90.9268H62.3227V91.5943H61.1368V93.644C61.1368 93.7801 61.1682 93.8796 61.2311 93.9424C61.2939 94.0052 61.396 94.0366 61.5373 94.0366H62.3227V94.7042H61.3096ZM64.7297 94.8141C64.3527 94.8141 64.0151 94.7303 63.7166 94.5628C63.4235 94.3953 63.1931 94.1597 63.0256 93.856C62.8633 93.5524 62.7821 93.2042 62.7821 92.8116C62.7821 92.4189 62.8633 92.0734 63.0256 91.7749C63.1931 91.4713 63.4235 91.2357 63.7166 91.0682C64.0151 90.9006 64.3527 90.8169 64.7297 90.8169C65.1119 90.8169 65.4496 90.9006 65.7427 91.0682C66.0359 91.2357 66.2637 91.4713 66.426 91.7749C66.5935 92.0734 66.6773 92.4189 66.6773 92.8116C66.6773 93.2095 66.5935 93.5602 66.426 93.8639C66.2637 94.1623 66.0359 94.3953 65.7427 94.5628C65.4496 94.7303 65.1119 94.8141 64.7297 94.8141ZM63.5674 92.8116C63.5674 93.2042 63.6748 93.521 63.8894 93.7618C64.1041 94.0026 64.3842 94.123 64.7297 94.123C65.0805 94.123 65.3606 94.0026 65.57 93.7618C65.7846 93.521 65.892 93.2042 65.892 92.8116C65.892 92.4241 65.7846 92.11 65.57 91.8692C65.3606 91.6284 65.0805 91.5079 64.7297 91.5079C64.3842 91.5079 64.1041 91.6284 63.8894 91.8692C63.6748 92.11 63.5674 92.4241 63.5674 92.8116ZM71.2464 94.8141C70.8747 94.8141 70.5475 94.7303 70.2647 94.5628C69.9873 94.39 69.77 94.1544 69.6129 93.856C69.4611 93.5524 69.3852 93.2095 69.3852 92.8273C69.3852 92.4398 69.4637 92.0943 69.6208 91.7907C69.7831 91.4818 70.0082 91.2436 70.2962 91.076C70.5841 90.9032 70.9165 90.8169 71.2935 90.8169C71.7647 90.8169 72.1547 90.9425 72.4636 91.1938C72.7725 91.4399 72.9479 91.7645 72.9898 92.1676H72.2123C72.1757 91.9791 72.0762 91.8221 71.9139 91.6964C71.7516 91.5708 71.5422 91.5079 71.2856 91.5079C70.9453 91.5079 70.6731 91.6257 70.4689 91.8613C70.27 92.0969 70.1705 92.4137 70.1705 92.8116C70.1705 93.2147 70.27 93.534 70.4689 93.7696C70.6731 94.0052 70.9401 94.123 71.2699 94.123C71.5212 94.123 71.7333 94.055 71.906 93.9189C72.0788 93.7827 72.1861 93.6047 72.228 93.3848H73.0055C72.9688 93.6414 72.8746 93.8796 72.7228 94.0995C72.5762 94.3141 72.3746 94.4869 72.1181 94.6178C71.8668 94.7487 71.5762 94.8141 71.2464 94.8141ZM73.7856 89.207H74.5474V91.2959C74.673 91.1388 74.8301 91.021 75.0186 90.9425C75.2123 90.8587 75.4243 90.8169 75.6547 90.8169C76.1259 90.8169 76.495 90.9582 76.762 91.2409C77.029 91.5184 77.1625 91.9137 77.1625 92.4268V94.7042H76.4007V92.4974C76.4007 92.1676 76.3222 91.9215 76.1651 91.7592C76.0133 91.5917 75.796 91.5079 75.5133 91.5079C75.2201 91.5079 74.9846 91.6022 74.8065 91.7907C74.6338 91.9739 74.5474 92.2173 74.5474 92.521V94.7042H73.7856V89.207ZM79.402 94.8141C78.9674 94.8141 78.6219 94.7094 78.3654 94.5C78.1088 94.2853 77.9806 93.9974 77.9806 93.6361C77.9806 93.2854 78.0984 93.0027 78.3339 92.788C78.5695 92.5681 78.9125 92.4451 79.3627 92.4189L80.5093 92.3561V92.144C80.5093 91.898 80.4464 91.72 80.3208 91.61C80.2004 91.5001 80.0093 91.4451 79.7475 91.4451C79.491 91.4451 79.2973 91.487 79.1664 91.5708C79.0407 91.6493 78.9622 91.7854 78.9308 91.9791H78.169C78.2109 91.5917 78.3654 91.3011 78.6324 91.1074C78.9046 90.9137 79.2946 90.8169 79.8025 90.8169C80.258 90.8169 80.6087 90.9294 80.8548 91.1545C81.1061 91.3744 81.2318 91.6912 81.2318 92.1048V93.9503C81.2318 94.034 81.2736 94.0759 81.3574 94.0759H81.6794V94.7042H81.0668C80.936 94.7042 80.8339 94.6701 80.7606 94.6021C80.6925 94.534 80.6585 94.4372 80.6585 94.3115V94.2016C80.5485 94.3953 80.3836 94.5471 80.1637 94.657C79.9491 94.7618 79.6952 94.8141 79.402 94.8141ZM78.7423 93.6126C78.7423 93.7853 78.8078 93.9241 78.9386 94.0288C79.0748 94.1335 79.258 94.1859 79.4884 94.1859C79.8025 94.1859 80.0512 94.0995 80.2344 93.9267C80.4176 93.7487 80.5093 93.5026 80.5093 93.1885V92.9451L79.4569 93.0236C79.2214 93.0393 79.0433 93.1021 78.9229 93.2121C78.8025 93.3168 78.7423 93.4503 78.7423 93.6126ZM82.4824 90.9268H83.1577V91.4216C83.2677 91.2226 83.4274 91.0734 83.6368 90.9739C83.8514 90.8692 84.0896 90.8169 84.3514 90.8169C84.8226 90.8169 85.1917 90.9582 85.4587 91.2409C85.7257 91.5184 85.8592 91.9137 85.8592 92.4268V94.7042H85.0975V92.4974C85.0975 92.1676 85.0189 91.9215 84.8619 91.7592C84.71 91.5917 84.4928 91.5079 84.2101 91.5079C83.9169 91.5079 83.6813 91.6022 83.5033 91.7907C83.3305 91.9739 83.2441 92.2173 83.2441 92.521V94.7042H82.4824V90.9268ZM87.816 96.1177C87.4129 96.1177 87.1092 96.0313 86.905 95.8586C86.7008 95.691 86.5988 95.4633 86.5988 95.1754C86.5988 95.0131 86.6406 94.8638 86.7244 94.7277C86.8134 94.5916 86.9364 94.4843 87.0935 94.4057C86.9888 94.3324 86.905 94.2434 86.8422 94.1387C86.7794 94.0288 86.748 93.9136 86.748 93.7932C86.748 93.6204 86.8029 93.4712 86.9129 93.3456C87.0228 93.2147 87.1851 93.1231 87.3998 93.0707C87.2322 92.9608 87.1066 92.822 87.0228 92.6545C86.9391 92.4817 86.8972 92.3011 86.8972 92.1126C86.8972 91.8666 86.9574 91.6467 87.0778 91.453C87.1982 91.254 87.371 91.0996 87.5961 90.9896C87.8265 90.8745 88.0961 90.8169 88.405 90.8169C88.6982 90.8169 88.9599 90.8823 89.1903 91.0132C89.4206 91.1441 89.5751 91.3116 89.6536 91.5158V91.398C89.6536 91.22 89.6955 91.097 89.7793 91.0289C89.863 90.9608 89.9782 90.9268 90.1248 90.9268H90.6824V91.5943H90.0777C90.0201 91.5943 89.9782 91.6074 89.952 91.6336C89.9259 91.6598 89.9128 91.7017 89.9128 91.7592V92.1597C89.9128 92.5472 89.7766 92.8613 89.5044 93.1021C89.2322 93.3377 88.8788 93.4555 88.4442 93.4555H87.7924C87.6772 93.4555 87.5856 93.4817 87.5176 93.534C87.4547 93.5864 87.4233 93.6623 87.4233 93.7618C87.4233 93.8613 87.4574 93.9372 87.5254 93.9895C87.5987 94.0419 87.6877 94.0681 87.7924 94.0681H89.1667C89.5332 94.0681 89.8211 94.1518 90.0306 94.3194C90.2452 94.4869 90.3525 94.7251 90.3525 95.034C90.3525 95.3638 90.2505 95.6256 90.0463 95.8193C89.8421 96.0183 89.5332 96.1177 89.1196 96.1177H87.816ZM87.3291 95.1047C87.3291 95.2356 87.3736 95.3403 87.4626 95.4188C87.5568 95.4973 87.7034 95.5366 87.9024 95.5366H89.0725C89.2348 95.5366 89.3657 95.4973 89.4651 95.4188C89.5698 95.3403 89.6222 95.2199 89.6222 95.0576C89.6222 94.9319 89.5751 94.8324 89.4808 94.7591C89.3918 94.6858 89.2688 94.6492 89.1118 94.6492H87.9259C87.727 94.6492 87.5778 94.6911 87.4783 94.7748C87.3788 94.8638 87.3291 94.9738 87.3291 95.1047ZM87.6275 92.1362C87.6275 92.3561 87.6956 92.5315 87.8317 92.6623C87.973 92.7932 88.1641 92.8587 88.405 92.8587C88.651 92.8587 88.8421 92.7932 88.9782 92.6623C89.1144 92.5315 89.1824 92.3561 89.1824 92.1362C89.1824 91.9163 89.1118 91.7409 88.9704 91.61C88.8343 91.4791 88.6458 91.4137 88.405 91.4137C88.1589 91.4137 87.9678 91.4791 87.8317 91.61C87.6956 91.7409 87.6275 91.9163 87.6275 92.1362ZM92.9581 94.8141C92.5863 94.8141 92.2565 94.733 91.9686 94.5707C91.6859 94.4031 91.466 94.1675 91.3089 93.8639C91.1518 93.555 91.0733 93.199 91.0733 92.7959C91.0733 92.398 91.1492 92.0498 91.3011 91.7514C91.4581 91.453 91.6754 91.2226 91.9529 91.0603C92.2303 90.898 92.5471 90.8169 92.9031 90.8169C93.4633 90.8169 93.9057 90.987 94.2303 91.3273C94.5549 91.6624 94.7172 92.1205 94.7172 92.7016C94.7172 92.7854 94.7093 92.9058 94.6936 93.0629H91.8272C91.8429 93.4084 91.9502 93.6806 92.1492 93.8796C92.3534 94.0733 92.623 94.1702 92.9581 94.1702C93.1779 94.1702 93.3664 94.123 93.5235 94.0288C93.6805 93.9346 93.7957 93.8011 93.869 93.6283H94.6465C94.5261 94 94.3219 94.2906 94.0339 94.5C93.746 94.7094 93.3874 94.8141 92.9581 94.8141ZM93.9476 92.466V92.4268C93.9476 92.1283 93.8533 91.8875 93.6648 91.7043C93.4816 91.521 93.2277 91.4294 92.9031 91.4294C92.589 91.4294 92.335 91.5263 92.1413 91.72C91.9476 91.9084 91.8429 92.1571 91.8272 92.466H93.9476ZM96.3889 94.7042C96.1219 94.7042 95.9282 94.6492 95.8078 94.5392C95.6874 94.4293 95.6271 94.2461 95.6271 93.9895V89.207H96.3889V93.7539C96.3889 93.8534 96.4098 93.9267 96.4517 93.9738C96.4936 94.0157 96.5617 94.0366 96.6559 94.0366H97.1349V94.7042H96.3889ZM99.5089 94.8141C99.132 94.8141 98.7943 94.7303 98.4959 94.5628C98.2027 94.3953 97.9723 94.1597 97.8048 93.856C97.6425 93.5524 97.5613 93.2042 97.5613 92.8116C97.5613 92.4189 97.6425 92.0734 97.8048 91.7749C97.9723 91.4713 98.2027 91.2357 98.4959 91.0682C98.7943 90.9006 99.132 90.8169 99.5089 90.8169C99.8911 90.8169 100.229 90.9006 100.522 91.0682C100.815 91.2357 101.043 91.4713 101.205 91.7749C101.373 92.0734 101.456 92.4189 101.456 92.8116C101.456 93.2095 101.373 93.5602 101.205 93.8639C101.043 94.1623 100.815 94.3953 100.522 94.5628C100.229 94.7303 99.8911 94.8141 99.5089 94.8141ZM98.3467 92.8116C98.3467 93.2042 98.454 93.521 98.6686 93.7618C98.8833 94.0026 99.1634 94.123 99.5089 94.123C99.8597 94.123 100.14 94.0026 100.349 93.7618C100.564 93.521 100.671 93.2042 100.671 92.8116C100.671 92.4241 100.564 92.11 100.349 91.8692C100.14 91.6284 99.8597 91.5079 99.5089 91.5079C99.1634 91.5079 98.8833 91.6284 98.6686 91.8692C98.454 92.11 98.3467 92.4241 98.3467 92.8116ZM103.231 96.1177C102.828 96.1177 102.524 96.0313 102.32 95.8586C102.116 95.691 102.014 95.4633 102.014 95.1754C102.014 95.0131 102.055 94.8638 102.139 94.7277C102.228 94.5916 102.351 94.4843 102.508 94.4057C102.404 94.3324 102.32 94.2434 102.257 94.1387C102.194 94.0288 102.163 93.9136 102.163 93.7932C102.163 93.6204 102.218 93.4712 102.328 93.3456C102.438 93.2147 102.6 93.1231 102.815 93.0707C102.647 92.9608 102.521 92.822 102.438 92.6545C102.354 92.4817 102.312 92.3011 102.312 92.1126C102.312 91.8666 102.372 91.6467 102.493 91.453C102.613 91.254 102.786 91.0996 103.011 90.9896C103.241 90.8745 103.511 90.8169 103.82 90.8169C104.113 90.8169 104.375 90.8823 104.605 91.0132C104.835 91.1441 104.99 91.3116 105.068 91.5158V91.398C105.068 91.22 105.11 91.097 105.194 91.0289C105.278 90.9608 105.393 90.9268 105.54 90.9268H106.097V91.5943H105.493C105.435 91.5943 105.393 91.6074 105.367 91.6336C105.341 91.6598 105.328 91.7017 105.328 91.7592V92.1597C105.328 92.5472 105.191 92.8613 104.919 93.1021C104.647 93.3377 104.294 93.4555 103.859 93.4555H103.207C103.092 93.4555 103 93.4817 102.932 93.534C102.87 93.5864 102.838 93.6623 102.838 93.7618C102.838 93.8613 102.872 93.9372 102.94 93.9895C103.014 94.0419 103.103 94.0681 103.207 94.0681H104.582C104.948 94.0681 105.236 94.1518 105.445 94.3194C105.66 94.4869 105.767 94.7251 105.767 95.034C105.767 95.3638 105.665 95.6256 105.461 95.8193C105.257 96.0183 104.948 96.1177 104.534 96.1177H103.231ZM102.744 95.1047C102.744 95.2356 102.788 95.3403 102.877 95.4188C102.972 95.4973 103.118 95.5366 103.317 95.5366H104.487C104.65 95.5366 104.78 95.4973 104.88 95.4188C104.985 95.3403 105.037 95.2199 105.037 95.0576C105.037 94.9319 104.99 94.8324 104.896 94.7591C104.807 94.6858 104.684 94.6492 104.527 94.6492H103.341C103.142 94.6492 102.993 94.6911 102.893 94.7748C102.794 94.8638 102.744 94.9738 102.744 95.1047ZM103.042 92.1362C103.042 92.3561 103.11 92.5315 103.247 92.6623C103.388 92.7932 103.579 92.8587 103.82 92.8587C104.066 92.8587 104.257 92.7932 104.393 92.6623C104.529 92.5315 104.597 92.3561 104.597 92.1362C104.597 91.9163 104.527 91.7409 104.385 91.61C104.249 91.4791 104.061 91.4137 103.82 91.4137C103.574 91.4137 103.383 91.4791 103.247 91.61C103.11 91.7409 103.042 91.9163 103.042 92.1362Z" fill="#797B86"/>
<rect x="326.733" y="87.2167" width="23.7313" height="8.975" rx="4.4875" fill="#303136"/>
<path d="M330.679 93.3224H331.843V90.401H331.049V89.4923H332.793V93.3224H333.883V94.2042H330.679V93.3224ZM336.21 94.3119C335.554 94.3119 335.061 94.1032 334.729 93.6859C334.397 93.2685 334.231 92.656 334.231 91.8482C334.231 91.0405 334.397 90.4279 334.729 90.0106C335.061 89.5933 335.554 89.3846 336.21 89.3846C336.865 89.3846 337.358 89.5933 337.691 90.0106C338.023 90.4279 338.189 91.0405 338.189 91.8482C338.189 92.656 338.023 93.2685 337.691 93.6859C337.358 94.1032 336.865 94.3119 336.21 94.3119ZM335.207 91.8482C335.207 92.4092 335.287 92.822 335.449 93.0868C335.611 93.3471 335.864 93.4772 336.21 93.4772C336.555 93.4772 336.809 93.3471 336.97 93.0868C337.132 92.822 337.213 92.4092 337.213 91.8482C337.213 91.2873 337.132 90.8767 336.97 90.6164C336.809 90.3516 336.555 90.2193 336.21 90.2193C335.864 90.2193 335.611 90.3516 335.449 90.6164C335.287 90.8767 335.207 91.2873 335.207 91.8482ZM338.712 93.2281C338.712 92.8063 338.811 92.481 339.009 92.2521C339.21 92.0187 339.502 91.8505 339.884 91.7473L340.557 91.5588C340.777 91.496 340.936 91.4174 341.035 91.3232C341.133 91.2289 341.183 91.1033 341.183 90.9462C341.183 90.7757 341.122 90.6388 341.001 90.5356C340.884 90.4279 340.723 90.3741 340.516 90.3741H338.935V89.4923H340.516C340.835 89.4923 341.118 89.5506 341.364 89.6673C341.611 89.784 341.804 89.9523 341.943 90.1721C342.082 90.392 342.152 90.6478 342.152 90.9395C342.152 91.2761 342.047 91.5633 341.836 91.8011C341.625 92.0389 341.351 92.2072 341.014 92.3059L340.16 92.555C339.994 92.6044 339.875 92.6694 339.803 92.7502C339.731 92.831 339.695 92.9409 339.695 93.08V93.3224H342.098V94.2042H338.712V93.2281ZM344.575 94.3119C344.184 94.3119 343.848 94.2513 343.565 94.1301C343.282 94.009 343.067 93.8362 342.919 93.6118C342.771 93.3874 342.697 93.1249 342.697 92.8243C342.697 92.573 342.766 92.3463 342.905 92.1444C343.044 91.938 343.224 91.7876 343.444 91.6934C343.251 91.6126 343.101 91.4825 342.993 91.303C342.885 91.1235 342.831 90.926 342.831 90.7106C342.831 90.4504 342.903 90.2193 343.047 90.0173C343.195 89.8154 343.399 89.6606 343.659 89.5529C343.924 89.4407 344.229 89.3846 344.575 89.3846C344.92 89.3846 345.225 89.4407 345.49 89.5529C345.755 89.6606 345.959 89.8154 346.103 90.0173C346.251 90.2193 346.325 90.4504 346.325 90.7106C346.325 90.926 346.271 91.1235 346.163 91.303C346.056 91.4825 345.905 91.6126 345.712 91.6934C345.932 91.7876 346.112 91.938 346.251 92.1444C346.39 92.3463 346.459 92.573 346.459 92.8243C346.459 93.1249 346.385 93.3874 346.237 93.6118C346.089 93.8362 345.872 94.009 345.584 94.1301C345.302 94.2513 344.965 94.3119 344.575 94.3119ZM343.666 92.7906C343.666 93.006 343.747 93.1788 343.908 93.3089C344.07 93.439 344.292 93.5041 344.575 93.5041C344.862 93.5041 345.086 93.439 345.248 93.3089C345.409 93.1788 345.49 93.006 345.49 92.7906C345.49 92.5797 345.409 92.4137 345.248 92.2925C345.086 92.1668 344.862 92.104 344.575 92.104C344.288 92.104 344.063 92.1668 343.902 92.2925C343.745 92.4181 343.666 92.5842 343.666 92.7906ZM343.801 90.7645C343.801 90.935 343.87 91.0719 344.009 91.1751C344.148 91.2738 344.337 91.3232 344.575 91.3232C344.817 91.3232 345.008 91.2738 345.147 91.1751C345.286 91.0719 345.356 90.935 345.356 90.7645C345.356 90.5895 345.286 90.4504 345.147 90.3472C345.008 90.2439 344.817 90.1923 344.575 90.1923C344.337 90.1923 344.148 90.2439 344.009 90.3472C343.87 90.4504 343.801 90.5895 343.801 90.7645Z" fill="#797B86"/>
<rect x="0.478882" y="36.9984" width="370.042" height="24.44" rx="3.666" fill="#1E291C"/>
<g opacity="0.6" clip-path="url(#clip3_798_22562)">
<path d="M9.41457 50.6458C9.37821 50.5049 9.30473 50.3762 9.20179 50.2733C9.09885 50.1703 8.9702 50.0969 8.82924 50.0605L6.33025 49.4161C6.28761 49.404 6.25009 49.3783 6.22337 49.343C6.19665 49.3076 6.18219 49.2645 6.18219 49.2202C6.18219 49.1758 6.19665 49.1327 6.22337 49.0974C6.25009 49.062 6.28761 49.0363 6.33025 49.0242L8.82924 48.3794C8.97015 48.3431 9.09876 48.2697 9.2017 48.1668C9.30464 48.0639 9.37814 47.9354 9.41457 47.7945L10.059 45.2955C10.071 45.2527 10.0966 45.215 10.132 45.1881C10.1674 45.1613 10.2107 45.1467 10.2551 45.1467C10.2996 45.1467 10.3428 45.1613 10.3782 45.1881C10.4136 45.215 10.4393 45.2527 10.4512 45.2955L11.0952 47.7945C11.1316 47.9355 11.2051 48.0641 11.308 48.1671C11.411 48.27 11.5396 48.3435 11.6806 48.3798L14.1796 49.0238C14.2225 49.0357 14.2604 49.0613 14.2874 49.0968C14.3144 49.1322 14.3291 49.1756 14.3291 49.2202C14.3291 49.2647 14.3144 49.3081 14.2874 49.3436C14.2604 49.379 14.2225 49.4046 14.1796 49.4165L11.6806 50.0605C11.5396 50.0969 11.411 50.1703 11.308 50.2733C11.2051 50.3762 11.1316 50.5049 11.0952 50.6458L10.4508 53.1448C10.4389 53.1876 10.4132 53.2253 10.3778 53.2522C10.3424 53.2791 10.2991 53.2936 10.2547 53.2936C10.2103 53.2936 10.167 53.2791 10.1316 53.2522C10.0962 53.2253 10.0705 53.1876 10.0586 53.1448L9.41457 50.6458Z" stroke="#ABF39B" stroke-width="0.814667" stroke-linecap="round" stroke-linejoin="round"/>
<path d="M13.5137 45.553V47.1823" stroke="#ABF39B" stroke-width="0.814667" stroke-linecap="round" stroke-linejoin="round"/>
<path d="M14.3284 46.3655H12.699" stroke="#ABF39B" stroke-width="0.814667" stroke-linecap="round" stroke-linejoin="round"/>
<path d="M6.9964 51.2561V52.0708" stroke="#ABF39B" stroke-width="0.814667" stroke-linecap="round" stroke-linejoin="round"/>
<path d="M7.40378 51.6624H6.58911" stroke="#ABF39B" stroke-width="0.814667" stroke-linecap="round" stroke-linejoin="round"/>
</g>
<g clip-path="url(#clip4_798_22562)">
<path d="M27.3568 45.7306H28.5116L30.7955 51.7184H29.8546L29.2131 49.9734H26.6469L26.0053 51.7184H25.0729L27.3568 45.7306ZM28.9308 49.195L27.93 46.4748L26.9291 49.195H28.9308ZM33.0376 51.8381C32.4787 51.8381 32.0424 51.7298 31.7288 51.5131C31.4152 51.2907 31.2469 50.9685 31.2241 50.5465H32.0795C32.1251 50.9571 32.4502 51.1624 33.0547 51.1624C33.3284 51.1624 33.5422 51.1082 33.6962 50.9998C33.8559 50.8915 33.9357 50.7432 33.9357 50.555C33.9357 50.2471 33.7162 50.0703 33.2771 50.0247L32.6184 49.9563C32.2306 49.9163 31.9227 49.7937 31.6946 49.5884C31.4722 49.3774 31.361 49.1037 31.361 48.7673C31.361 48.3738 31.5121 48.063 31.8143 47.8349C32.1166 47.6011 32.5215 47.4842 33.029 47.4842C33.5479 47.4842 33.9557 47.5925 34.2522 47.8092C34.5545 48.0202 34.717 48.3339 34.7398 48.7501H33.9101C33.8987 48.5563 33.816 48.4108 33.662 48.3139C33.508 48.2112 33.2942 48.1599 33.0205 48.1599C32.7638 48.1599 32.5585 48.2112 32.4046 48.3139C32.2563 48.4108 32.1822 48.5477 32.1822 48.7245C32.1822 48.8728 32.2392 48.9897 32.3532 49.0752C32.4673 49.1607 32.6441 49.2178 32.8836 49.2463L33.5508 49.3233C33.9386 49.3632 34.238 49.4886 34.449 49.6996C34.6657 49.9106 34.774 50.1844 34.774 50.5208C34.774 50.9257 34.6172 51.2479 34.3036 51.4874C33.9899 51.7212 33.5679 51.8381 33.0376 51.8381ZM37.0267 49.8707H36.5905V51.7184H35.7607V45.7306H36.5905V49.1009H37.0267L38.4125 47.6039H39.4304L37.7538 49.4687L39.4304 51.7184H38.4296L37.0267 49.8707ZM44.1892 45.7306H45.344L47.6279 51.7184H46.6869L46.0454 49.9734H43.4792L42.8376 51.7184H41.9053L44.1892 45.7306ZM45.7631 49.195L44.7623 46.4748L43.7615 49.195H45.7631ZM48.519 45.7306H49.3744V51.7184H48.519V45.7306Z" fill="#ABF39B"/>
</g>
</g>
</g>
<defs>
<linearGradient id="paint0_linear_798_22562" x1="195" y1="60.5" x2="194.981" y2="103" gradientUnits="userSpaceOnUse">
<stop stop-color="white"/>
<stop offset="1" stop-color="white" stop-opacity="0"/>
</linearGradient>
<clipPath id="clip0_798_22562">
<rect width="371" height="99" fill="white"/>
</clipPath>
<clipPath id="clip1_798_22562">
<rect width="306.831" height="12" fill="white" transform="translate(20.536 9.73199)"/>
</clipPath>
<clipPath id="clip2_798_22562">
<rect width="8.975" height="8.975" fill="white" transform="translate(20.5361 87.2167)"/>
</clipPath>
<clipPath id="clip3_798_22562">
<rect width="9.776" height="9.776" fill="white" transform="translate(5.367 44.3303)"/>
</clipPath>
<clipPath id="clip4_798_22562">
<rect width="26" height="13" fill="white" transform="translate(24.9189 42.7184)"/>
</clipPath>
</defs>
</svg>
