<svg width="20" height="20" viewBox="0 0 20 20" fill="none" xmlns="http://www.w3.org/2000/svg">
<path d="M16.6835 6.48462C15.363 6.64968 14.7282 7.38609 14.3981 8.45262C13.7632 10.446 13.0141 12.5664 13.0268 12.5537C12.3285 10.446 12.0746 6.62429 10.0304 6.62429L5.95471 6.62429C4.20255 6.62429 1.77747 9.88736 0.685547 14.1154L2.71703 14.09C4.15177 13.9503 4.8247 13.1631 5.16751 12.0585C5.44684 11.1697 5.67538 10.4079 5.87853 9.78578C6.3737 9.10016 7.33866 8.02093 7.33866 8.02093C8.03698 10.1413 8.29092 13.9122 10.3224 13.9122C12.3539 13.9122 14.2457 13.8995 14.2965 13.8995C15.8074 13.7091 17.3564 10.9412 19.8704 6.45923L16.6835 6.48462Z" fill="#1384C8"/>
<path d="M7.35132 8.00824C8.04964 10.1286 8.30358 13.8995 10.3351 13.8995C10.4874 13.8995 10.6525 13.8868 10.8048 13.8488C8.96381 13.4171 8.74796 9.68421 7.63065 7.7543C7.52907 7.84318 7.4402 7.93206 7.35132 8.00824Z" fill="#1384C8"/>
<path d="M7.61792 7.76699C8.73524 9.6969 8.95108 13.4298 10.7921 13.8614C10.9445 13.8361 11.0841 13.798 11.2238 13.7472C9.57322 12.9346 9.11614 9.316 7.84646 7.56384C7.77028 7.62733 7.6941 7.69081 7.61792 7.76699Z" fill="#1384C8"/>
<path d="M9.23042 6.6116C9.07806 6.6116 8.913 6.6243 8.76064 6.64969C8.31625 6.73857 7.89726 6.91633 7.51636 7.17026C7.63063 7.28453 7.7449 7.4115 7.84647 7.55116C8.22738 7.22105 8.64637 6.96711 9.11615 6.77666C9.26851 6.72587 9.43357 6.67509 9.58593 6.64969C9.47166 6.6243 9.35739 6.6116 9.23042 6.6116Z" fill="#1384C8"/>
<path d="M12.5189 12.9981C12.684 12.8584 12.8617 12.7188 13.0268 12.5537C12.3284 10.446 12.0745 6.6243 10.0303 6.6243C9.87796 6.6243 9.7383 6.63699 9.58594 6.66239C11.4524 7.11947 11.6936 11.157 12.5189 12.9981Z" fill="#1384C8"/>
<path d="M12.4809 13.4425C12.4047 13.3663 12.3285 13.2774 12.2523 13.2012C11.9349 13.4298 11.5921 13.6075 11.2239 13.7472C11.3508 13.8107 11.4778 13.8488 11.6048 13.8742C11.7064 13.8996 11.8206 13.9123 11.9349 13.9123C12.2523 13.9249 12.5824 13.8742 12.8745 13.7472C12.7348 13.6456 12.5951 13.5567 12.4809 13.4425Z" fill="#1384C8"/>
<path d="M9.11609 6.78935C10.7794 7.65273 10.919 11.6014 12.2522 13.2012C12.3411 13.1377 12.4299 13.0743 12.5188 12.9981C11.6935 11.157 11.4523 7.11947 9.59857 6.66238C9.43351 6.68778 9.28115 6.72587 9.11609 6.78935Z" fill="#1384C8"/>
<path d="M7.84644 7.56384C9.11611 9.3033 9.5732 12.9346 11.2238 13.7472C11.592 13.6075 11.9348 13.4298 12.2522 13.2012C10.9318 11.5887 10.7794 7.65272 9.11611 6.78934C8.65903 6.96709 8.22734 7.23372 7.84644 7.56384Z" fill="#1384C8"/>
<path d="M6.53865 7.95746C6.29741 8.55421 6.06887 9.16365 5.89111 9.7731C6.3228 9.13826 6.81798 8.55421 7.35124 8.00824C7.28776 7.81779 7.21158 7.62734 7.1354 7.43689C6.93225 7.60195 6.7291 7.7797 6.53865 7.95746Z" fill="#1384C8"/>
<path d="M7.31313 7.30991C7.24965 7.348 7.19886 7.39878 7.13538 7.43687C7.21156 7.62733 7.28774 7.80508 7.35122 8.00823C7.4401 7.91935 7.52898 7.84317 7.61785 7.75429C7.52898 7.60193 7.4274 7.44957 7.31313 7.30991Z" fill="#1384C8"/>
<path d="M7.51638 7.17026C7.4529 7.20835 7.37672 7.25913 7.30054 7.30992C7.41481 7.44959 7.51638 7.60195 7.60526 7.75431C7.68144 7.69083 7.75762 7.61464 7.8338 7.55116C7.74492 7.42419 7.64335 7.29723 7.51638 7.17026Z" fill="#1384C8"/>
<path d="M18.8546 6.44654C17.915 10.0778 15.947 12.9854 14.3091 13.7218C14.2837 13.7345 14.2456 13.7472 14.2203 13.7599H14.2076L14.1822 13.7726H14.1695L14.1314 13.7853H14.0933L14.0679 13.798H14.0552C14.0425 13.798 14.0298 13.8107 14.0171 13.8107H13.979H13.9663L13.9409 13.8234H13.9028C13.979 13.8488 14.0552 13.8615 14.1314 13.8615C15.6931 13.8615 17.2675 11.0682 19.8703 6.40845H18.8419L18.8546 6.44654Z" fill="#1384C8"/>
<path d="M6.5387 7.95744C6.72915 7.77969 6.9323 7.60193 7.13545 7.44957C7.09735 7.36069 7.04657 7.25912 6.99578 7.17024C6.80533 7.42418 6.65297 7.67811 6.5387 7.95744ZM6.67836 6.78934C6.80533 6.90361 6.9069 7.03058 6.99578 7.17024C7.02117 7.13215 7.05926 7.10676 7.08466 7.06867C6.95769 6.9544 6.81803 6.85282 6.66566 6.77664L6.67836 6.78934Z" fill="#1384C8"/>
<path d="M1.84094 12.3251C3.44074 9.23982 4.20254 7.28452 5.5484 6.75125C4.16445 7.29721 2.60275 9.34139 1.84094 12.3251Z" fill="#1384C8"/>
<path d="M7.08473 7.06866C7.04664 7.10675 7.02124 7.13215 6.99585 7.17024C7.04664 7.25912 7.09742 7.34799 7.13551 7.44957C7.199 7.39878 7.24979 7.36069 7.31327 7.3226C7.23709 7.23372 7.16091 7.14485 7.08473 7.06866Z" fill="#1384C8"/>
<path d="M2.57729 14.0773H2.45032C4.07551 14.0265 4.81192 13.2139 5.18013 12.0458C5.45945 11.157 5.688 10.3952 5.89114 9.77307C5.14203 10.8523 4.45641 11.9823 3.83427 13.1504C3.59303 13.6583 3.12325 14.0011 2.57729 14.0773Z" fill="#1384C8"/>
<path d="M2.57727 14.0773C3.12323 14.0011 3.60571 13.6456 3.84695 13.1504C4.45639 11.9823 5.14202 10.865 5.89113 9.7731C6.08158 9.15096 6.29743 8.54151 6.53867 7.95746C5.18011 9.25253 3.82155 11.3856 2.57727 14.0773Z" fill="#1384C8"/>
<path d="M1.84093 12.3251C1.5489 12.8838 1.24418 13.4678 0.888672 14.09H1.49812C1.58699 13.5059 1.70127 12.9092 1.84093 12.3251Z" fill="#1384C8"/>
<path d="M15.1853 8.45264C14.8805 9.44298 14.6266 10.2556 14.4108 10.9285C15.2615 9.7604 16.0867 8.30027 16.8866 6.6116C15.9598 6.90363 15.4646 7.56386 15.1853 8.45264Z" fill="#1384C8"/>
<path d="M14.436 13.6583C14.398 13.6837 14.3472 13.6964 14.3091 13.7218C15.9597 12.9854 17.915 10.0778 18.8545 6.44653H18.6641C16.5183 10.3064 15.82 12.8965 14.436 13.6583Z" fill="#1384C8"/>
<path d="M13.3695 13.3409C13.7251 12.9092 14.0171 12.1601 14.4234 10.9412C14.0171 11.5252 13.5473 12.0585 13.0394 12.5537C13.1156 12.8203 13.2299 13.0869 13.3695 13.3409Z" fill="#1384C8"/>
<path d="M13.3696 13.3409C13.2553 13.4805 13.1283 13.5948 12.976 13.6837C12.9379 13.6964 12.9125 13.7218 12.8744 13.7345C13.0268 13.8234 13.2045 13.8741 13.3823 13.8995L13.4711 13.9122H13.8266L13.9028 13.8995C13.6616 13.798 13.4711 13.6075 13.3569 13.379L13.3696 13.3409Z" fill="#1384C8"/>
<path d="M10.3351 13.8996C10.4874 13.8996 10.6525 13.8869 10.8049 13.8488C10.9572 13.8234 11.0969 13.7853 11.2366 13.7345C11.4524 13.8361 11.6936 13.8996 11.9476 13.8996H10.3351ZM11.9349 13.8996C12.2523 13.9123 12.5824 13.8615 12.8744 13.7345C13.0268 13.8234 13.2046 13.8742 13.3823 13.8996L13.4712 13.9123H13.5093L11.9349 13.8996Z" fill="#1384C8"/>
<path d="M13.5474 13.8995H13.814C13.8394 13.8995 13.8648 13.8868 13.8902 13.8868C13.9664 13.9122 14.0425 13.9249 14.1314 13.9249H13.5347L13.5474 13.8995Z" fill="#1384C8"/>
<path d="M13.0268 12.5537C12.8618 12.7187 12.684 12.8711 12.519 12.9981C12.4301 13.0742 12.3412 13.1377 12.2523 13.2012C12.3285 13.2901 12.4047 13.379 12.4809 13.4552C12.5951 13.5694 12.7348 13.671 12.8745 13.7472C12.9126 13.7345 12.9379 13.7091 12.976 13.6964C13.1284 13.6075 13.2554 13.4932 13.3696 13.3536C13.23 13.0869 13.1157 12.833 13.0268 12.5537Z" fill="#1384C8"/>
<path d="M18.0674 6.44653H17.1025C17.0517 6.44653 17.0009 6.44653 16.9501 6.45923L16.8739 6.61159C16.074 8.30026 15.2488 9.76039 14.3981 10.9285C14.0045 12.1474 13.7124 12.8965 13.3442 13.3282C13.4585 13.5567 13.649 13.7472 13.8902 13.8488H13.9918L14.0299 13.8361H14.0426L14.068 13.8234H14.106L14.1441 13.8107H14.1568L14.1822 13.798H14.1949L14.2838 13.7599C14.3219 13.7345 14.3727 13.7218 14.4108 13.6964C15.782 12.9346 16.4803 10.3444 18.6388 6.48462H18.042L18.0674 6.44653Z" fill="#1384C8"/>
<path d="M7.08459 7.06868C7.16078 7.14486 7.23696 7.23374 7.31314 7.32261C7.37662 7.27183 7.4528 7.22104 7.52898 7.18295C7.4401 7.09407 7.33853 7.0052 7.23696 6.94171C7.18617 6.9798 7.13538 7.01789 7.08459 7.06868Z" fill="#1384C8"/>
<path d="M6.11971 6.6243H6.24668C6.60219 6.6243 6.945 6.73857 7.22433 6.94172C7.52906 6.70048 7.88457 6.6243 8.39244 6.6243C8.40513 6.6116 6.06893 6.6116 6.11971 6.6243Z" fill="#1384C8"/>
<path d="M8.40516 6.61157C7.89729 6.61157 7.54178 6.70045 7.23706 6.92899C7.33863 7.00517 7.44021 7.08135 7.52909 7.17023C7.90999 6.9163 8.32898 6.73854 8.77337 6.64966C8.92573 6.62427 9.07809 6.61157 9.24315 6.59888H8.40516V6.61157Z" fill="#1384C8"/>
<path d="M14.4107 10.9285C14.6265 10.2556 14.8805 9.44297 15.1852 8.45262C15.4645 7.56385 15.9597 6.89092 16.8866 6.61159L16.9627 6.45923C15.4518 6.54811 14.7535 7.32261 14.398 8.45262C13.7758 10.4333 13.4076 11.7284 13.0394 12.541C13.5346 12.0458 14.0044 11.5125 14.4107 10.9285Z" fill="#1384C8"/>
<path d="M1.51074 14.1027L2.57727 14.09C3.13593 12.8711 3.78347 11.6776 4.50718 10.5349C5.09123 9.59532 5.76416 8.73194 6.55136 7.95744C6.66564 7.67811 6.818 7.41147 7.00845 7.17024C6.91957 6.97978 6.75451 6.81473 6.56406 6.72585C6.25934 6.58618 5.90383 6.59888 5.59911 6.75124C5.12932 6.9163 4.68494 7.2972 4.26594 7.89395C3.52953 9.01127 2.71694 10.5222 1.85356 12.3378C1.70119 12.9092 1.58692 13.5059 1.51074 14.1027Z" fill="#1384C8"/>
<path d="M0.685547 14.09H0.901392C1.24421 13.4805 1.56162 12.8838 1.85365 12.3251C2.15837 11.0682 2.67894 9.86196 3.37726 8.77004C4.17716 7.53845 5.09133 6.78934 6.13247 6.61158C5.54841 6.5354 4.8247 6.78934 3.72008 7.95744C3.02175 8.71925 2.38692 9.77308 1.79017 11.0174C1.32039 12.0077 0.952179 13.0362 0.685547 14.09Z" fill="#1384C8"/>
<path d="M7.08458 7.06866C6.81795 6.81472 6.48784 6.66236 6.11963 6.61157C6.37356 6.58618 6.6148 6.62427 6.84335 6.71315C6.98301 6.76394 7.10998 6.82742 7.22425 6.92899L7.08458 7.06866Z" fill="#1384C8"/>
</svg>
