<svg width="22" height="1799" viewBox="0 0 22 1799" fill="none" xmlns="http://www.w3.org/2000/svg" xmlns:xlink="http://www.w3.org/1999/xlink">
<mask id="path-1-inside-1_703_46699" fill="white">
<path d="M0 1799L0 0H22L22 1799H0Z"/>
</mask>
<path d="M0 1799L0 0H22L22 1799H0Z" fill="url(#pattern0_703_46699)"/>
<path d="M0 1799L0 0H22L22 1799H0Z" fill="url(#paint0_linear_703_46699)"/>
<path d="M0 1799H1L1 0H0H-1L-1 1799H0ZM22 0H21L21 1799H22H23L23 0H22Z" fill="#E0E1E6" mask="url(#path-1-inside-1_703_46699)"/>
<defs>
<linearGradient id="paint0_linear_703_46699" x1="11" y1="1799" x2="11" y2="0" gradientUnits="userSpaceOnUse">
<stop stop-color="white"/>
<stop offset="0.05" stop-color="white" stop-opacity="0"/>
<stop offset="0.975" stop-color="white" stop-opacity="0"/>
<stop offset="1" stop-color="white"/>
</linearGradient>
<pattern id="pattern0_703_46699" patternUnits="userSpaceOnUse" viewBox="106 33432 100 100" width="0.88938297067104666%" height="72.7272711016915%" x="-3.52" y="-4.96" patternContentUnits="objectBoundingBox">
<g id="pattern0_703_46699_inner">
<rect width="100" height="100" transform="translate(6 33332)" fill="white"/>
<path d="M6 33432L106 33332" stroke="#E7E8EC" stroke-width="4" stroke-linecap="round" stroke-linejoin="round"/>
<path d="M36 33453L136 33353" stroke="#E7E8EC" stroke-width="4" stroke-linecap="round" stroke-linejoin="round"/>
<path d="M-14 33403L86 33303" stroke="#E7E8EC" stroke-width="4" stroke-linecap="round" stroke-linejoin="round"/>
</g>
<use xlink:href="#pattern0_703_46699_inner" transform="translate(100 0)"/>
<use xlink:href="#pattern0_703_46699_inner" transform="translate(0 100)"/>
<use xlink:href="#pattern0_703_46699_inner" transform="translate(100 100)"/>
</pattern></defs>
</svg>
