<svg width="25" height="24" viewBox="0 0 25 24" fill="none" xmlns="http://www.w3.org/2000/svg">
<mask id="mask0_798_22976" style="mask-type:luminance" maskUnits="userSpaceOnUse" x="0" y="0" width="25" height="24">
<path d="M0.26001 0H24.26V24H0.26001V0Z" fill="white"/>
</mask>
<g mask="url(#mask0_798_22976)">
<path d="M20.5775 4.65594C19.0215 3.94153 17.3795 3.43195 15.6925 3.13994C15.677 3.13703 15.661 3.13915 15.6468 3.14599C15.6325 3.15282 15.6209 3.16402 15.6135 3.17794C15.4035 3.55294 15.1695 4.04194 15.0055 4.42694C13.1869 4.15118 11.3371 4.15118 9.51849 4.42694C9.33533 3.99954 9.12936 3.58227 8.90149 3.17694C8.89332 3.16379 8.8815 3.1533 8.86748 3.14673C8.85345 3.14016 8.83783 3.1378 8.82249 3.13994C7.1352 3.43084 5.49302 3.94047 3.93749 4.65594C3.92504 4.66258 3.91413 4.67179 3.90549 4.68294C0.79349 9.33194 -0.0595096 13.8659 0.35949 18.3429C0.36039 18.3541 0.363613 18.3649 0.368952 18.3747C0.374292 18.3845 0.381629 18.3931 0.39049 18.3999C2.20209 19.7421 4.2286 20.7667 6.38349 21.4299C6.39879 21.434 6.41494 21.4333 6.42989 21.4282C6.44484 21.423 6.45792 21.4135 6.46749 21.4009C6.9311 20.7717 7.3412 20.1047 7.69349 19.4069C7.71449 19.3669 7.69449 19.3169 7.65249 19.3019C7.0057 19.0546 6.37971 18.756 5.78049 18.4089C5.7697 18.4025 5.76064 18.3936 5.75409 18.3829C5.74755 18.3722 5.74371 18.3601 5.74292 18.3476C5.74214 18.335 5.74442 18.3225 5.74957 18.3111C5.75472 18.2996 5.76259 18.2896 5.77249 18.2819C5.89916 18.1866 6.02316 18.0893 6.14449 17.9899C6.15499 17.9807 6.16805 17.9747 6.18195 17.973C6.19586 17.9712 6.20998 17.9736 6.22249 17.9799C10.1495 19.7729 14.4025 19.7729 18.2835 17.9799C18.2961 17.9734 18.3104 17.9708 18.3246 17.9726C18.3387 17.9744 18.3519 17.9804 18.3625 17.9899C18.4825 18.0886 18.6065 18.1859 18.7345 18.2819C18.7785 18.3139 18.7745 18.3819 18.7285 18.4089C18.1318 18.7576 17.5075 19.0549 16.8555 19.3009C16.8455 19.3048 16.8365 19.3107 16.8289 19.3183C16.8214 19.3259 16.8155 19.3349 16.8116 19.3449C16.8078 19.3549 16.806 19.3655 16.8065 19.3762C16.807 19.3869 16.8097 19.3974 16.8145 19.4069C17.1745 20.1049 17.5865 20.7699 18.0395 21.4009C18.0492 21.4134 18.0623 21.4226 18.0773 21.4276C18.0922 21.4326 18.1083 21.4331 18.1235 21.4289C20.2823 20.7685 22.3122 19.7437 24.1255 18.3989C24.1343 18.3925 24.1417 18.3842 24.1472 18.3748C24.1527 18.3653 24.1562 18.3548 24.1575 18.3439C24.6575 13.1679 23.3195 8.67094 20.6085 4.68394C20.6018 4.6712 20.5908 4.66126 20.5775 4.65594ZM8.28049 15.6169C7.09849 15.6169 6.12349 14.5309 6.12349 13.1979C6.12349 11.8649 7.08049 10.7799 8.28049 10.7799C9.49049 10.7799 10.4565 11.8749 10.4375 13.1999C10.4375 14.5319 9.48149 15.6179 8.28049 15.6179M16.2555 15.6179C15.0725 15.6179 14.0985 14.5319 14.0985 13.1989C14.0985 11.8659 15.0535 10.7799 16.2555 10.7799C17.4655 10.7799 18.4315 11.8749 18.4125 13.1999C18.4125 14.5319 17.4665 15.6179 16.2555 15.6179Z" fill="#EEEEF0"/>
</g>
</svg>
