<svg width="17" height="16" viewBox="0 0 17 16" fill="none" xmlns="http://www.w3.org/2000/svg">
<path d="M13.7013 7.86277C12.859 7.1507 11.59 6.86524 10.4653 7.69651C10.4135 7.73416 10.3492 7.66985 10.3884 7.61966C10.6551 7.27617 10.9641 6.90602 11.2135 6.5343C11.4676 6.15317 11.8472 5.88027 12.2849 5.74695C14.6143 5.04115 13.9147 1.60001 13.9147 1.60001C13.9147 1.60001 10.3163 1.83213 10.7602 4.93607C10.8339 5.45522 10.6959 5.98378 10.3712 6.39628C9.97277 6.89975 9.51003 7.38126 9.17435 7.72945C9.10376 7.8016 8.98455 7.73259 9.01278 7.63534C9.33748 6.54215 9.57434 4.85137 8.44965 3.76131L6.86693 2.44696L6.56262 2.84848C5.65754 4.04206 5.92264 5.72499 7.11791 6.62841C7.80339 7.14599 8.11397 7.70906 8.06535 8.32702C8.03554 8.69718 7.8677 9.0438 7.61673 9.31828C7.14458 9.83586 6.7038 10.3911 6.36341 11.0341C6.31635 11.1235 6.17989 11.089 6.18459 10.9871C6.23322 9.92526 6.13126 7.53183 4.34305 6.67703L2.34152 5.90379L2.18623 6.36648C1.6827 7.85963 2.50622 9.45473 3.99796 9.96133C5.29519 10.4021 5.75793 11.238 5.44578 12.4912C5.43166 12.5367 5.20578 13.8275 5.23716 14.4H6.67556C6.72419 13.5123 7.65594 12.9288 8.46377 13.2911C8.69122 13.3931 8.92494 13.5389 9.16494 13.7271C10.4512 14.7404 12.3461 14.5004 13.3578 13.2127L13.6464 12.8457L11.8269 11.5392C10.5782 10.5573 8.91239 11.0012 7.67947 11.8419C7.57594 11.9125 7.44418 11.7995 7.50222 11.6866C8.99239 8.76305 10.9296 8.76932 11.6888 9.41866C12.6096 10.206 14.0041 10.0649 14.7852 9.14104L15.0095 8.87598L13.6998 7.86277H13.7013Z" fill="#51C233"/>
</svg>
