<svg width="90" height="26" viewBox="0 0 90 26" fill="none" xmlns="http://www.w3.org/2000/svg">
<path d="M23.501 0.955933V0.957886C23.5012 0.958858 23.5016 0.960136 23.502 0.961792C23.5027 0.965351 23.5036 0.970827 23.5049 0.977417C23.5074 0.990554 23.5112 1.00952 23.5156 1.03406C23.5245 1.08361 23.5368 1.15618 23.5508 1.24792C23.5788 1.43135 23.6137 1.69402 23.6416 2.01257C23.6972 2.64877 23.7249 3.51445 23.6133 4.42566C23.3911 6.23866 22.5998 8.31159 20.2744 9.01648C19.507 9.25028 18.8449 9.72791 18.4023 10.3915L18.4014 10.3925C18.0869 10.8611 17.7205 11.3302 17.3662 11.7782C19.3936 10.7208 21.5494 11.3104 23.0176 12.5516L23.0479 12.577L25.46 14.4442L25.667 14.6034L25.498 14.8036L25.0781 15.2997C23.5286 17.1324 20.757 17.4179 18.9219 15.8485C18.2878 15.3063 17.1221 15.0052 15.7617 15.5077C14.4163 16.0048 12.8688 17.2965 11.501 19.9481C13.8324 18.384 17.0426 17.5133 19.4893 19.4296L22.8984 21.8778L23.1113 22.0302L22.9492 22.2362L22.4082 22.9237C20.4282 25.4437 16.7206 25.9152 14.2002 23.9296C13.7629 23.5866 13.3421 23.3253 12.9385 23.1444C11.5899 22.5397 10.0214 23.5138 9.93945 25.0077L9.92676 25.244H6.75781L6.74512 25.0077C6.71428 24.4442 6.80869 23.5489 6.91016 22.8016C6.96142 22.4241 7.01577 22.0778 7.05859 21.8202C7.08001 21.6914 7.09899 21.5838 7.11328 21.5057C7.1255 21.439 7.1375 21.3716 7.14648 21.3427C7.42503 20.2144 7.34666 19.3108 6.94238 18.5985C6.53542 17.8817 5.77263 17.3132 4.5918 16.912C1.67101 15.9197 0.0518741 12.7918 1.04102 9.85828L1.33203 8.99207L1.41504 8.74402L1.65918 8.83875L5.40918 10.287L5.42676 10.2948C7.19028 11.1379 8.10886 12.7359 8.5752 14.3446C8.99738 15.8011 9.05609 17.2918 9.0293 18.3085C9.65877 17.1881 10.4414 16.2095 11.2695 15.3016C11.7075 14.8226 11.9941 14.2237 12.0449 13.5927C12.1268 12.5494 11.612 11.5681 10.3682 10.6288C8.02264 8.85564 7.4965 5.54553 9.2793 3.19421L9.84961 2.44226L10.0078 2.23328L10.209 2.40027L13.1748 4.86414L13.1816 4.87L13.1885 4.87683C14.2994 5.95371 14.7316 7.32311 14.8105 8.6698C14.8826 9.89961 14.6594 11.1219 14.3848 12.1171C14.9899 11.4874 15.7541 10.6798 16.4189 9.83972L16.5215 9.703C17.0134 9.00653 17.2174 8.14293 17.0967 7.29285C16.8816 5.78801 17.1555 4.6111 17.7031 3.69812C18.2484 2.78923 19.0533 2.16157 19.8711 1.72937C20.6889 1.2972 21.5299 1.05446 22.1631 0.9198C22.4801 0.852378 22.7471 0.811958 22.9355 0.787964C23.0299 0.775962 23.1055 0.768396 23.1572 0.76355C23.1829 0.761149 23.2029 0.758779 23.2168 0.75769C23.2234 0.75717 23.2287 0.756984 23.2324 0.756714H23.2393L23.457 0.742065L23.501 0.955933Z" stroke="#B9BBC6" stroke-width="0.5"/>
<mask id="path-2-outside-1_703_47034" maskUnits="userSpaceOnUse" x="28.1145" y="0" width="62" height="26" fill="black">
<rect fill="white" x="28.1145" width="62" height="26"/>
<path d="M51.3118 7.4209C56.2106 7.4209 59.5325 10.7095 59.5325 15.9766C59.5325 16.5789 59.4988 17.185 59.4319 17.8877H47.6887C47.8896 19.967 49.2662 21.1094 51.5129 21.1094C53.023 21.1093 53.994 20.473 54.4329 19.5654H59.2307C58.2561 22.8536 55.7083 25 51.4827 25C46.4167 24.9998 43.0619 21.4775 43.0618 16.1104H43.0579C43.0579 10.8434 46.413 7.42096 51.3118 7.4209ZM65.2991 10.8438C65.7008 8.96534 67.0437 7.92386 69.1565 7.92383H72.1096V8.49316C72.1094 10.4384 70.5325 12.0156 68.5872 12.0156C66.7424 12.0157 65.8684 12.9566 65.8684 14.835V24.499H61.1702V7.92383H65.2991V10.8438ZM82.5579 7.4209C86.6158 7.42107 89.1672 10.0398 89.1672 14.4326V24.498H84.469V14.9346C84.469 12.7215 83.4615 11.6466 81.5833 11.6465C79.7048 11.6465 78.4622 12.9557 78.4622 15.0684V24.4941H73.7639V7.92285H77.8928V9.60059C78.8674 8.15736 80.6459 7.4209 82.5579 7.4209ZM44.0452 5.0918H39.4475C38.4732 5.09189 37.9378 5.49344 37.9377 6.46777V7.91113H43.0374V12.0029H37.9377V24.4824H33.2395V12.0029H29.1145V7.91113H33.2395V5.89844C33.2396 2.67744 35.085 1 38.2727 1H44.0452V5.0918ZM51.3118 11.1104C49.0317 11.1104 47.7894 12.3867 47.6555 14.332H54.801V14.2646C54.8009 12.3864 53.5918 11.1104 51.3118 11.1104Z"/>
</mask>
<path d="M51.3118 7.4209V6.9209H51.3118L51.3118 7.4209ZM59.5325 15.9766L60.0325 15.9766V15.9766H59.5325ZM59.4319 17.8877V18.3877H59.8865L59.9296 17.9351L59.4319 17.8877ZM47.6887 17.8877V17.3877H47.1381L47.191 17.9358L47.6887 17.8877ZM51.5129 21.1094V21.6094H51.513L51.5129 21.1094ZM54.4329 19.5654V19.0654H54.1193L53.9827 19.3477L54.4329 19.5654ZM59.2307 19.5654L59.7101 19.7075L59.9004 19.0654H59.2307V19.5654ZM51.4827 25L51.4827 25.5H51.4827V25ZM43.0618 16.1104L43.5618 16.1103L43.5618 15.6104H43.0618V16.1104ZM43.0579 16.1104H42.5579V16.6104H43.0579V16.1104ZM65.2991 10.8438H64.7991L65.788 10.9483L65.2991 10.8438ZM69.1565 7.92383V7.42383H69.1565L69.1565 7.92383ZM72.1096 7.92383H72.6096V7.42383H72.1096V7.92383ZM72.1096 8.49316L72.6096 8.49321V8.49316H72.1096ZM68.5872 12.0156V11.5156H68.5871L68.5872 12.0156ZM65.8684 24.499V24.999H66.3684V24.499H65.8684ZM61.1702 24.499H60.6702V24.999H61.1702V24.499ZM61.1702 7.92383V7.42383H60.6702V7.92383H61.1702ZM65.2991 7.92383H65.7991V7.42383H65.2991V7.92383ZM82.5579 7.4209L82.5579 6.9209H82.5579V7.4209ZM89.1672 24.498V24.998H89.6672V24.498H89.1672ZM84.469 24.498H83.969V24.998H84.469V24.498ZM84.469 14.9346H84.969H84.469ZM81.5833 11.6465L81.5833 11.1465H81.5833V11.6465ZM78.4622 15.0684L77.9622 15.0683V15.0684H78.4622ZM78.4622 24.4941V24.9941H78.9622V24.4941H78.4622ZM73.7639 24.4941H73.2639V24.9941H73.7639V24.4941ZM73.7639 7.92285V7.42285H73.2639V7.92285H73.7639ZM77.8928 7.92285H78.3928V7.42285H77.8928V7.92285ZM77.8928 9.60059H77.3928V11.2345L78.3072 9.8804L77.8928 9.60059ZM44.0452 5.0918V5.5918H44.5452V5.0918H44.0452ZM39.4475 5.0918V4.5918H39.4475L39.4475 5.0918ZM37.9377 6.46777L37.4377 6.46775V6.46777H37.9377ZM37.9377 7.91113H37.4377V8.41113H37.9377V7.91113ZM43.0374 7.91113H43.5374V7.41113H43.0374V7.91113ZM43.0374 12.0029V12.5029H43.5374V12.0029H43.0374ZM37.9377 12.0029V11.5029H37.4377V12.0029H37.9377ZM37.9377 24.4824V24.9824H38.4377V24.4824H37.9377ZM33.2395 24.4824H32.7395V24.9824H33.2395V24.4824ZM33.2395 12.0029H33.7395V11.5029H33.2395V12.0029ZM29.1145 12.0029H28.6145V12.5029H29.1145V12.0029ZM29.1145 7.91113V7.41113H28.6145V7.91113H29.1145ZM33.2395 7.91113V8.41113H33.7395V7.91113H33.2395ZM33.2395 5.89844L32.7395 5.89842V5.89844H33.2395ZM44.0452 1H44.5452V0.5H44.0452V1ZM51.3118 11.1104V10.6104H51.3118L51.3118 11.1104ZM47.6555 14.332L47.1567 14.2977L47.1199 14.832H47.6555V14.332ZM54.801 14.332V14.832H55.301V14.332H54.801ZM54.801 14.2646H55.301V14.2646L54.801 14.2646ZM51.3118 7.4209V7.9209C53.6464 7.9209 55.5655 8.70207 56.9011 10.0725C58.2375 11.4439 59.0325 13.4495 59.0325 15.9766H59.5325H60.0325C60.0325 13.2366 59.1665 10.9644 57.6173 9.37462C56.0672 7.78404 53.876 6.9209 51.3118 6.9209V7.4209ZM59.5325 15.9766L59.0325 15.9765C59.0325 16.5594 58.9999 17.1493 58.9341 17.8403L59.4319 17.8877L59.9296 17.9351C59.9977 17.2207 60.0325 16.5984 60.0325 15.9766L59.5325 15.9766ZM59.4319 17.8877V17.3877H47.6887V17.8877V18.3877H59.4319V17.8877ZM47.6887 17.8877L47.191 17.9358C47.3015 19.0792 47.743 20.0158 48.5122 20.6613C49.2763 21.3024 50.3076 21.6094 51.5129 21.6094V21.1094V20.6094C50.4716 20.6094 49.6912 20.3451 49.155 19.8952C48.6241 19.4498 48.2768 18.7755 48.1864 17.8396L47.6887 17.8877ZM51.5129 21.1094L51.513 21.6094C53.1744 21.6093 54.3443 20.8969 54.883 19.7831L54.4329 19.5654L53.9827 19.3477C53.6436 20.0491 52.8717 20.6093 51.5129 20.6094L51.5129 21.1094ZM54.4329 19.5654V20.0654H59.2307V19.5654V19.0654H54.4329V19.5654ZM59.2307 19.5654L58.7513 19.4233C58.2899 20.9802 57.4652 22.24 56.2794 23.1132C55.0934 23.9864 53.5092 24.5 51.4827 24.5V25V25.5C53.6817 25.5 55.4843 24.9404 56.8723 23.9184C58.2604 22.8963 59.197 21.4389 59.7101 19.7075L59.2307 19.5654ZM51.4827 25L51.4827 24.5C49.0701 24.4999 47.1019 23.6641 45.7353 22.2237C44.3664 20.7808 43.5618 18.6893 43.5618 16.1103L43.0618 16.1104L42.5618 16.1104C42.5618 18.8985 43.4348 21.2518 45.0098 22.9119C46.5872 24.5745 48.8293 25.4999 51.4827 25.5L51.4827 25ZM43.0618 16.1104V15.6104H43.0579V16.1104V16.6104H43.0618V16.1104ZM43.0579 16.1104H43.5579C43.5579 13.5841 44.3608 11.5428 45.7087 10.1365C47.0552 8.73176 48.9829 7.92093 51.3118 7.9209L51.3118 7.4209L51.3118 6.9209C48.7419 6.92093 46.5426 7.82132 44.9868 9.44454C43.4325 11.0662 42.5579 13.3696 42.5579 16.1104H43.0579ZM65.2991 10.8438L65.788 10.9483C65.9683 10.1055 66.3495 9.48825 66.8891 9.07714C67.4321 8.66354 68.1815 8.42384 69.1565 8.42383L69.1565 7.92383L69.1565 7.42383C68.0188 7.42384 67.0403 7.70491 66.2832 8.28165C65.5228 8.8609 65.0316 9.70355 64.8101 10.7392L65.2991 10.8438ZM69.1565 7.92383V8.42383H72.1096V7.92383V7.42383H69.1565V7.92383ZM72.1096 7.92383H71.6096V8.49316H72.1096H72.6096V7.92383H72.1096ZM72.1096 8.49316L71.6096 8.49312C71.6095 10.1623 70.2563 11.5156 68.5872 11.5156V12.0156V12.5156C70.8086 12.5156 72.6094 10.7145 72.6096 8.49321L72.1096 8.49316ZM68.5872 12.0156L68.5871 11.5156C67.5851 11.5157 66.7511 11.7721 66.1745 12.3756C65.6021 12.9746 65.3684 13.8275 65.3684 14.835H65.8684H66.3684C66.3684 13.9641 66.5717 13.4074 66.8975 13.0664C67.2191 12.7298 67.7445 12.5157 68.5872 12.5156L68.5872 12.0156ZM65.8684 14.835H65.3684V24.499H65.8684H66.3684V14.835H65.8684ZM65.8684 24.499V23.999H61.1702V24.499V24.999H65.8684V24.499ZM61.1702 24.499H61.6702V7.92383H61.1702H60.6702V24.499H61.1702ZM61.1702 7.92383V8.42383H65.2991V7.92383V7.42383H61.1702V7.92383ZM65.2991 7.92383H64.7991V10.8438H65.2991H65.7991V7.92383H65.2991ZM82.5579 7.4209L82.5578 7.9209C84.4764 7.92098 85.9881 8.53726 87.022 9.62414C88.0585 10.7138 88.6672 12.3319 88.6672 14.4326H89.1672H89.6672C89.6672 12.1405 89.0002 10.2529 87.7466 8.93492C86.4902 7.61418 84.6973 6.92099 82.5579 6.9209L82.5579 7.4209ZM89.1672 14.4326H88.6672V24.498H89.1672H89.6672V14.4326H89.1672ZM89.1672 24.498V23.998H84.469V24.498V24.998H89.1672V24.498ZM84.469 24.498H84.969V14.9346H84.469H83.969V24.498H84.469ZM84.469 14.9346H84.969C84.969 13.7617 84.703 12.7996 84.1035 12.1278C83.4947 11.4455 82.618 11.1466 81.5833 11.1465L81.5833 11.6465L81.5832 12.1465C82.4267 12.1465 82.9929 12.3851 83.3574 12.7936C83.7312 13.2125 83.969 13.8943 83.969 14.9346H84.469ZM81.5833 11.6465V11.1465C80.5228 11.1465 79.6027 11.5194 78.9508 12.2262C78.3025 12.929 77.9622 13.915 77.9622 15.0683L78.4622 15.0684L78.9622 15.0684C78.9622 14.109 79.2432 13.3841 79.6859 12.9042C80.1249 12.4281 80.7653 12.1465 81.5833 12.1465V11.6465ZM78.4622 15.0684H77.9622V24.4941H78.4622H78.9622V15.0684H78.4622ZM78.4622 24.4941V23.9941H73.7639V24.4941V24.9941H78.4622V24.4941ZM73.7639 24.4941H74.2639V7.92285H73.7639H73.2639V24.4941H73.7639ZM73.7639 7.92285V8.42285H77.8928V7.92285V7.42285H73.7639V7.92285ZM77.8928 7.92285H77.3928V9.60059H77.8928H78.3928V7.92285H77.8928ZM77.8928 9.60059L78.3072 9.8804C79.1636 8.61214 80.7613 7.9209 82.5579 7.9209V7.4209V6.9209C80.5305 6.9209 78.5712 7.70257 77.4785 9.32077L77.8928 9.60059ZM44.0452 5.0918V4.5918H39.4475V5.0918V5.5918H44.0452V5.0918ZM39.4475 5.0918L39.4475 4.5918C38.9049 4.59185 38.3853 4.70159 37.9993 5.03706C37.599 5.38494 37.4378 5.89039 37.4377 6.46775L37.9377 6.46777L38.4377 6.4678C38.4378 6.07082 38.5443 5.88833 38.6553 5.79183C38.7806 5.68292 39.0158 5.59184 39.4476 5.5918L39.4475 5.0918ZM37.9377 6.46777H37.4377V7.91113H37.9377H38.4377V6.46777H37.9377ZM37.9377 7.91113V8.41113H43.0374V7.91113V7.41113H37.9377V7.91113ZM43.0374 7.91113H42.5374V12.0029H43.0374H43.5374V7.91113H43.0374ZM43.0374 12.0029V11.5029H37.9377V12.0029V12.5029H43.0374V12.0029ZM37.9377 12.0029H37.4377V24.4824H37.9377H38.4377V12.0029H37.9377ZM37.9377 24.4824V23.9824H33.2395V24.4824V24.9824H37.9377V24.4824ZM33.2395 24.4824H33.7395V12.0029H33.2395H32.7395V24.4824H33.2395ZM33.2395 12.0029V11.5029H29.1145V12.0029V12.5029H33.2395V12.0029ZM29.1145 12.0029H29.6145V7.91113H29.1145H28.6145V12.0029H29.1145ZM29.1145 7.91113V8.41113H33.2395V7.91113V7.41113H29.1145V7.91113ZM33.2395 7.91113H33.7395V5.89844H33.2395H32.7395V7.91113H33.2395ZM33.2395 5.89844L33.7395 5.89846C33.7396 4.38299 34.1716 3.30516 34.9063 2.60276C35.6447 1.89683 36.7621 1.5 38.2727 1.5V1V0.5C36.5956 0.5 35.1965 0.941893 34.2153 1.87993C33.2303 2.8215 32.7396 4.19289 32.7395 5.89842L33.2395 5.89844ZM38.2727 1V1.5H44.0452V1V0.5H38.2727V1ZM44.0452 1H43.5452V5.0918H44.0452H44.5452V1H44.0452ZM51.3118 11.1104L51.3118 10.6104C50.0783 10.6104 49.0662 10.9572 48.3406 11.6234C47.6147 12.29 47.2305 13.226 47.1567 14.2977L47.6555 14.332L48.1543 14.3664C48.2145 13.4927 48.5183 12.8179 49.017 12.36C49.516 11.9018 50.2652 11.6104 51.3118 11.6104L51.3118 11.1104ZM47.6555 14.332V14.832H54.801V14.332V13.832H47.6555V14.332ZM54.801 14.332H55.301V14.2646H54.801H54.301V14.332H54.801ZM54.801 14.2646L55.301 14.2646C55.3009 13.2159 54.9606 12.2853 54.2544 11.6194C53.5511 10.9562 52.5433 10.6104 51.3118 10.6104V11.1104V11.6104C52.3602 11.6104 53.097 11.9025 53.5683 12.3469C54.0367 12.7886 54.301 13.4352 54.301 14.2647L54.801 14.2646Z" fill="#B9BBC6" mask="url(#path-2-outside-1_703_47034)"/>
</svg>
