<svg width="25" height="24" viewBox="0 0 25 24" fill="none" xmlns="http://www.w3.org/2000/svg">
<mask id="mask0_703_46969" style="mask-type:luminance" maskUnits="userSpaceOnUse" x="0" y="0" width="25" height="24">
<path d="M0.630005 0H24.63V24H0.630005V0Z" fill="white"/>
</mask>
<g mask="url(#mask0_703_46969)">
<path fill-rule="evenodd" clip-rule="evenodd" d="M12.6454 0.044C9.79225 0.0401346 7.03103 1.05273 4.85683 2.90022C2.68262 4.74771 1.23761 7.30928 0.780903 10.1256C0.324191 12.942 0.88564 15.8289 2.36458 18.2688C3.84353 20.7087 6.14324 22.542 8.85139 23.44C9.44739 23.55 9.66839 23.174 9.66839 22.858V20.817C6.33139 21.553 5.62339 19.21 5.62339 19.21C5.40192 18.4838 4.92944 17.86 4.29039 17.45C3.20639 16.712 4.37839 16.712 4.37839 16.712C4.75808 16.7658 5.12057 16.9052 5.43847 17.1197C5.75636 17.3341 6.02135 17.6181 6.21339 17.95C6.37651 18.2455 6.59633 18.5058 6.86026 18.7161C7.12418 18.9265 7.42702 19.0827 7.75142 19.1758C8.07582 19.2688 8.4154 19.297 8.7507 19.2586C9.086 19.2202 9.41043 19.116 9.70539 18.952C9.75179 18.3459 10.0132 17.7764 10.4424 17.346C7.77539 17.044 4.97539 16.012 4.97539 11.415C4.95671 10.2235 5.39713 9.07058 6.20539 8.195C5.84471 7.15905 5.88683 6.02533 6.32339 5.019C6.32339 5.019 7.33339 4.695 9.62439 6.249C11.5924 5.709 13.6694 5.709 15.6374 6.249C17.9284 4.695 18.9304 5.019 18.9304 5.019C19.3715 6.02387 19.4165 7.15834 19.0564 8.195C19.8646 9.07058 20.3051 10.2235 20.2864 11.415C20.2864 16.027 17.4794 17.037 14.8044 17.309C15.091 17.5974 15.3123 17.9439 15.4534 18.3252C15.5945 18.7064 15.6522 19.1135 15.6224 19.519V22.813C15.6224 23.203 15.8364 23.506 16.4474 23.395C19.1468 22.4884 21.4362 20.6521 22.9071 18.2139C24.3781 15.7757 24.9348 12.8942 24.4781 10.0835C24.0213 7.27279 22.5807 4.71584 20.4134 2.86889C18.246 1.02194 15.4929 0.00516808 12.6454 0V0.044Z" fill="#1E1F24"/>
</g>
</svg>
