<svg width="20" height="20" viewBox="0 0 20 20" fill="none" xmlns="http://www.w3.org/2000/svg">
<g clip-path="url(#clip0_705_26273)">
<path d="M1.5088 8.45868C1.46985 8.45868 1.46011 8.43921 1.47959 8.40999L1.68408 8.14708C1.70355 8.11786 1.75224 8.09839 1.79119 8.09839H5.26754C5.30649 8.09839 5.31623 8.1276 5.29675 8.15681L5.13121 8.40999C5.11174 8.43921 5.06305 8.46842 5.03383 8.46842L1.5088 8.45868Z" fill="#00ACD7"/>
<path d="M0.0384625 9.35468C-0.0004882 9.35468 -0.010226 9.3352 0.00924936 9.30599L0.21374 9.04307C0.233216 9.01386 0.281904 8.99438 0.320855 8.99438H4.76123C4.80018 8.99438 4.81966 9.0236 4.80992 9.05281L4.73202 9.28651C4.72228 9.32547 4.68333 9.34494 4.64438 9.34494L0.0384625 9.35468Z" fill="#00ACD7"/>
<path d="M2.39503 10.2507C2.35608 10.2507 2.34634 10.2215 2.36582 10.1922L2.50214 9.94881C2.52162 9.91959 2.56057 9.89038 2.59952 9.89038H4.54705C4.58601 9.89038 4.60548 9.91959 4.60548 9.95854L4.58601 10.1922C4.58601 10.2312 4.54705 10.2604 4.51784 10.2604L2.39503 10.2507Z" fill="#00ACD7"/>
<path d="M12.5027 8.28346C11.8892 8.43927 11.4705 8.55612 10.8667 8.71192C10.7207 8.75087 10.7109 8.76061 10.5843 8.61454C10.4383 8.449 10.3312 8.34189 10.1267 8.24451C9.5132 7.94264 8.9192 8.03028 8.36416 8.39058C7.702 8.81903 7.36118 9.45198 7.37092 10.2407C7.38065 11.0197 7.91622 11.6624 8.6855 11.7695C9.34766 11.8572 9.90271 11.6235 10.3409 11.1269C10.4285 11.0197 10.5064 10.9029 10.6038 10.7666H8.72445C8.51996 10.7666 8.47127 10.64 8.53944 10.4744C8.66603 10.1726 8.89973 9.66621 9.03606 9.41303C9.06527 9.35461 9.13343 9.25723 9.2795 9.25723H12.824C12.8045 9.52015 12.8045 9.78306 12.7656 10.046C12.6585 10.7471 12.3956 11.3898 11.9671 11.9546C11.266 12.8796 10.3506 13.4542 9.19186 13.61C8.23757 13.7366 7.35144 13.5515 6.57243 12.9673C5.85184 12.422 5.44286 11.7014 5.33574 10.8055C5.20915 9.74411 5.52076 8.78982 6.16344 7.95238C6.85482 7.04678 7.77016 6.47226 8.88999 6.26776C9.80533 6.10222 10.6817 6.20934 11.4705 6.74491C11.9866 7.08573 12.3566 7.55314 12.6 8.11792C12.6585 8.20556 12.6195 8.25425 12.5027 8.28346Z" fill="#00ACD7"/>
<path d="M15.7261 13.6687C14.84 13.6492 14.0317 13.396 13.3501 12.8118C12.7756 12.3151 12.4153 11.6822 12.2984 10.9324C12.1232 9.83204 12.425 8.85827 13.0872 7.99162C13.798 7.0568 14.6549 6.56992 15.8137 6.36543C16.807 6.19015 17.7418 6.28752 18.589 6.86205C19.3582 7.38788 19.8354 8.09873 19.962 9.03355C20.1275 10.3481 19.7477 11.4193 18.8421 12.3346C18.1995 12.987 17.4107 13.396 16.5051 13.581C16.2422 13.6297 15.9793 13.6395 15.7261 13.6687ZM18.0437 9.73466C18.0339 9.60807 18.0339 9.51069 18.0144 9.41332C17.8392 8.44929 16.953 7.90398 16.028 8.11821C15.1224 8.3227 14.5381 8.89722 14.3239 9.81256C14.1486 10.5721 14.5186 11.3414 15.2197 11.653C15.7553 11.8867 16.2909 11.8575 16.807 11.5946C17.5762 11.1953 17.995 10.5721 18.0437 9.73466Z" fill="#00ACD7"/>
</g>
<defs>
<clipPath id="clip0_705_26273">
<rect width="20" height="20" fill="white"/>
</clipPath>
</defs>
</svg>
