<svg width="21" height="20" viewBox="0 0 21 20" fill="none" xmlns="http://www.w3.org/2000/svg">
<path d="M8.03944 15.4607C8.03944 15.4607 7.27644 15.9046 8.58279 16.0549C10.1649 16.2353 10.973 16.2093 12.7163 15.8792C12.7163 15.8792 13.1747 16.1665 13.8146 16.4156C9.90707 18.0908 4.97008 16.3185 8.04002 15.4607M7.56256 13.2751C7.56256 13.2751 6.70649 13.9087 8.01343 14.0439C9.70303 14.2179 11.0377 14.2324 13.347 13.7873C13.347 13.7873 13.6666 14.111 14.1689 14.2884C9.44349 15.6699 4.18048 14.3977 7.56199 13.2751" fill="#5382A1"/>
<path d="M11.588 9.56708C12.551 10.6763 11.3348 11.674 11.3348 11.674C11.3348 11.674 13.7799 10.4116 12.6574 8.83067C11.6082 7.35668 10.8042 6.62431 15.1585 4.09888C15.1585 4.09888 8.32384 5.80581 11.588 9.56708Z" fill="#E76F00"/>
<path d="M16.7567 17.0775C16.7567 17.0775 17.3215 17.5428 16.1353 17.9029C13.8793 18.5861 6.74573 18.7925 4.76423 17.9301C4.05209 17.6202 5.38793 17.1902 5.80816 17.0994C6.24631 17.0046 6.4966 17.0226 6.4966 17.0226C5.70469 16.4642 1.37637 18.1179 4.29833 18.5919C12.2665 19.8838 18.8243 18.0098 16.7567 17.0775ZM8.40643 11.0104C8.40643 11.0104 4.7781 11.8717 7.12145 12.185C8.11105 12.3179 10.0839 12.2879 11.9209 12.1335C13.4226 12.0069 14.9307 11.7376 14.9307 11.7376C14.9307 11.7376 14.4012 11.9647 14.0174 12.226C10.333 13.1954 3.2151 12.7445 5.26423 11.7532C6.99718 10.915 8.40643 11.0104 8.40643 11.0104ZM14.9151 14.6486C18.6608 12.7023 16.929 10.8318 15.7203 11.0838C15.4243 11.1457 15.2926 11.1994 15.2926 11.1994C15.2926 11.1994 15.4024 11.0266 15.6122 10.952C18.0035 10.1116 19.8428 13.4318 14.8399 14.7468C14.8399 14.7468 14.8978 14.6948 14.9151 14.6486Z" fill="#5382A1"/>
<path d="M12.6574 0.0213623C12.6574 0.0213623 14.732 2.09651 10.6898 5.28726C7.44873 7.8468 9.95105 9.30633 10.6886 10.974C8.79671 9.26703 7.40827 7.76414 8.33949 6.36587C9.70712 4.31211 13.4944 3.31732 12.6574 0.0213623Z" fill="#E76F00"/>
<path d="M8.77481 19.9231C12.3702 20.1532 17.891 19.7954 18.0216 18.0942C18.0216 18.0942 17.7702 18.7387 15.0505 19.2509C11.9817 19.8289 8.19678 19.7613 5.95227 19.3908C5.95227 19.3908 6.41181 19.7711 8.77481 19.9226" fill="#5382A1"/>
</svg>
