<svg width="21" height="20" viewBox="0 0 21 20" fill="none" xmlns="http://www.w3.org/2000/svg">
<g clip-path="url(#clip0_705_874)">
<path fill-rule="evenodd" clip-rule="evenodd" d="M6.76792 9.06812H6.03041L5.62854 11.1369H6.28292C6.71729 11.1369 7.04104 11.0544 7.25354 10.8912C7.46604 10.7275 7.60917 10.455 7.68292 10.0719C7.75479 9.70437 7.72229 9.44562 7.58604 9.29437C7.44979 9.14374 7.17729 9.06812 6.76792 9.06812Z" fill="#6181B6"/>
<path d="M10.6666 5.53751C5.48913 5.53751 1.29163 7.74563 1.29163 10.4688C1.29163 13.1919 5.48913 15.4006 10.6666 15.4006C15.8441 15.4006 20.0416 13.1925 20.0416 10.4688C20.0416 7.74501 15.8441 5.53751 10.6666 5.53751ZM8.11975 11.3588C7.91594 11.5536 7.67125 11.7005 7.4035 11.7888C7.141 11.8731 6.806 11.9169 6.39975 11.9169H5.47663L5.22163 13.2306H4.14413L5.10538 8.28813H7.17538C7.79788 8.28813 8.25225 8.45126 8.53788 8.77876C8.82413 9.10563 8.90975 9.56188 8.79538 10.1475C8.75163 10.3794 8.67163 10.6031 8.55788 10.8094C8.44158 11.0145 8.29349 11.2 8.11913 11.3588H8.11975ZM11.2635 11.9169L11.6879 9.73063C11.7373 9.48188 11.7185 9.31188 11.6348 9.22188C11.551 9.13126 11.3723 9.08563 11.0979 9.08563H10.2448L9.69475 11.9181H8.626L9.58725 6.97501H10.6548L10.3998 8.28938H11.351C11.9504 8.28938 12.3629 8.39376 12.5904 8.60188C12.8179 8.81001 12.8854 9.14938 12.7954 9.61751L12.3485 11.9175H11.2635V11.9169ZM17.1985 10.1481C17.1555 10.38 17.0751 10.6033 16.9604 10.8094C16.8443 11.0145 16.6964 11.1999 16.5223 11.3588C16.3181 11.5534 16.0732 11.7002 15.8054 11.7888C15.5429 11.8731 15.2079 11.9169 14.801 11.9169H13.8791L13.6235 13.2313H12.5479L13.5085 8.28876H15.5785C16.201 8.28876 16.6548 8.45251 16.941 8.77938C17.2266 9.10563 17.3129 9.56188 17.1985 10.1481Z" fill="#6181B6"/>
<path fill-rule="evenodd" clip-rule="evenodd" d="M15.171 9.06812H14.4354L14.0322 11.1369H14.6866C15.1216 11.1369 15.4454 11.0544 15.6572 10.8912C15.8697 10.7275 16.0122 10.455 16.0872 10.0719C16.1591 9.70437 16.126 9.44562 15.9897 9.29437C15.8541 9.14374 15.5797 9.06812 15.171 9.06812Z" fill="#6181B6"/>
</g>
<defs>
<clipPath id="clip0_705_874">
<rect width="20" height="20" fill="white" transform="translate(0.666626)"/>
</clipPath>
</defs>
</svg>
