<svg width="21" height="20" viewBox="0 0 21 20" fill="none" xmlns="http://www.w3.org/2000/svg">
<g clip-path="url(#clip0_705_25427)">
<path d="M10.2487 0.0447388C5.18371 0.0447388 5.49996 2.24122 5.49996 2.24122L5.50559 4.51685L10.339 4.51685V5.20005L3.58582 5.20005C3.58582 5.20005 0.344727 4.83247 0.344727 9.94302C0.344727 15.0537 3.17363 14.8725 3.17363 14.8725H4.86191V12.5009C4.86191 12.5009 4.7709 9.672 7.64566 9.672H12.4396C12.4396 9.672 15.1329 9.71552 15.1329 7.06896V2.69302C15.1329 2.69302 15.542 0.0447388 10.2487 0.0447388ZM7.58356 1.57505C7.69777 1.57495 7.81089 1.59737 7.91643 1.64103C8.02197 1.68469 8.11787 1.74874 8.19864 1.8295C8.2794 1.91027 8.34344 2.00616 8.38711 2.11171C8.43077 2.21725 8.45319 2.33037 8.45309 2.44458C8.45319 2.5588 8.43077 2.67192 8.38711 2.77746C8.34344 2.883 8.2794 2.9789 8.19864 3.05966C8.11787 3.14043 8.02197 3.20447 7.91643 3.24813C7.81089 3.2918 7.69777 3.31422 7.58356 3.31411C7.46934 3.31422 7.35622 3.2918 7.25068 3.24813C7.14514 3.20447 7.04924 3.14043 6.96847 3.05966C6.88771 2.9789 6.82367 2.883 6.78 2.77746C6.73634 2.67192 6.71392 2.5588 6.71402 2.44458C6.71392 2.33037 6.73634 2.21725 6.78 2.11171C6.82367 2.00616 6.88771 1.91027 6.96847 1.8295C7.04924 1.74874 7.14514 1.68469 7.25068 1.64103C7.35622 1.59737 7.46934 1.57495 7.58356 1.57505Z" fill="#3372A7"/>
<path d="M10.3924 19.8927C15.4574 19.8927 15.1411 17.6962 15.1411 17.6962L15.1355 15.4206H10.302V14.7374H17.0552C17.0552 14.7374 20.2963 15.105 20.2963 9.99432C20.2963 4.88369 17.4674 5.06494 17.4674 5.06494H15.7791V7.43643C15.7791 7.43643 15.8701 10.2653 12.9953 10.2653H8.20142C8.20142 10.2653 5.50806 10.2218 5.50806 12.8685V17.2445C5.50806 17.2445 5.09908 19.8927 10.3923 19.8927H10.3924ZM13.0575 18.3625C12.9433 18.3626 12.8302 18.3402 12.7246 18.2965C12.6191 18.2529 12.5232 18.1888 12.4424 18.1081C12.3617 18.0273 12.2976 17.9314 12.254 17.8259C12.2103 17.7203 12.1879 17.6072 12.188 17.493C12.1879 17.3788 12.2103 17.2656 12.2539 17.1601C12.2976 17.0545 12.3616 16.9586 12.4424 16.8779C12.5232 16.7971 12.6191 16.733 12.7246 16.6894C12.8302 16.6457 12.9433 16.6233 13.0575 16.6234C13.1717 16.6233 13.2848 16.6457 13.3904 16.6894C13.4959 16.733 13.5918 16.7971 13.6726 16.8778C13.7534 16.9586 13.8174 17.0545 13.8611 17.16C13.9047 17.2656 13.9271 17.3787 13.927 17.4929C13.9271 17.6071 13.9047 17.7202 13.8611 17.8258C13.8174 17.9313 13.7534 18.0272 13.6726 18.108C13.5918 18.1888 13.4959 18.2528 13.3904 18.2965C13.2848 18.3401 13.1717 18.3626 13.0575 18.3625Z" fill="#FFD235"/>
</g>
<defs>
<clipPath id="clip0_705_25427">
<rect width="20" height="20" fill="white" transform="translate(0.333374)"/>
</clipPath>
</defs>
</svg>
