<svg width="21" height="20" viewBox="0 0 21 20" fill="none" xmlns="http://www.w3.org/2000/svg">
<g clip-path="url(#clip0_705_15799)">
<path fill-rule="evenodd" clip-rule="evenodd" d="M15.8088 13.2005L4.40417 19.9997L19.171 18.9936L20.3083 4.04385L15.8088 13.2005Z" fill="url(#paint0_linear_705_15799)"/>
<path fill-rule="evenodd" clip-rule="evenodd" d="M19.1952 18.9834L17.926 10.1881L14.4689 14.7715L19.1952 18.9834Z" fill="url(#paint1_linear_705_15799)"/>
<path fill-rule="evenodd" clip-rule="evenodd" d="M19.2123 18.9834L9.91394 18.2506L4.45361 19.9806L19.2123 18.9834Z" fill="url(#paint2_linear_705_15799)"/>
<path fill-rule="evenodd" clip-rule="evenodd" d="M4.46674 19.9825L6.7896 12.3422L1.6781 13.4395L4.46674 19.9825Z" fill="url(#paint3_linear_705_15799)"/>
<path fill-rule="evenodd" clip-rule="evenodd" d="M14.4679 14.7968L12.3305 6.39124L6.21387 12.1478L14.4679 14.7968Z" fill="url(#paint4_linear_705_15799)"/>
<path fill-rule="evenodd" clip-rule="evenodd" d="M19.8234 6.50967L14.0415 1.76837L12.4314 6.99453L19.8234 6.50967Z" fill="url(#paint5_linear_705_15799)"/>
<path fill-rule="evenodd" clip-rule="evenodd" d="M17.1195 0.0779487L13.7189 1.96475L11.5735 0.0526428L17.1195 0.0779487Z" fill="url(#paint6_linear_705_15799)"/>
<path fill-rule="evenodd" clip-rule="evenodd" d="M0.33313 16.0024L1.75769 13.3939L0.60534 10.2863L0.33313 16.0024Z" fill="url(#paint7_linear_705_15799)"/>
<path fill-rule="evenodd" clip-rule="evenodd" d="M0.528809 10.1881L1.68822 13.49L6.72612 12.3552L12.4778 6.98836L14.101 1.8119L11.5451 0L7.19987 1.63273C5.83085 2.91118 3.17429 5.44076 3.07851 5.48833C2.98374 5.53692 1.32427 8.68598 0.528809 10.1881Z" fill="white"/>
<path fill-rule="evenodd" clip-rule="evenodd" d="M4.59982 4.25644C7.5669 1.30274 11.392 -0.442352 12.8599 1.04462C14.3269 2.53159 12.7712 6.14526 9.80407 9.09795C6.83698 12.0506 3.05931 13.8919 1.5924 12.4049C0.124483 10.919 1.63273 7.20912 4.59982 4.25644Z" fill="url(#paint8_linear_705_15799)"/>
<path fill-rule="evenodd" clip-rule="evenodd" d="M4.4668 19.9795L6.77151 12.3148L14.4256 14.7837C11.6582 17.3891 8.58019 19.5918 4.4668 19.9795Z" fill="url(#paint9_linear_705_15799)"/>
<path fill-rule="evenodd" clip-rule="evenodd" d="M12.4879 6.97328L14.4529 14.7877C16.7646 12.3472 18.8395 9.72352 19.8556 6.4783L12.4879 6.97328Z" fill="url(#paint10_linear_705_15799)"/>
<path fill-rule="evenodd" clip-rule="evenodd" d="M19.8355 6.51775C20.6219 4.13495 20.8034 0.716641 17.0952 0.0819702L14.0525 1.76936L19.8355 6.51775Z" fill="url(#paint11_linear_705_15799)"/>
<path fill-rule="evenodd" clip-rule="evenodd" d="M0.33313 15.968C0.442014 19.9006 3.26796 19.9592 4.47173 19.9937L1.69115 13.4738L0.33313 15.968Z" fill="#9E1209"/>
<path fill-rule="evenodd" clip-rule="evenodd" d="M12.4989 6.98543C14.2753 8.08168 17.8555 10.2833 17.9281 10.3238C18.0409 10.3875 19.4716 7.9015 19.7962 6.49652L12.4989 6.98543Z" fill="url(#paint12_radial_705_15799)"/>
<path fill-rule="evenodd" clip-rule="evenodd" d="M6.76843 12.3148L9.84945 18.2829C11.6712 17.291 13.0978 16.0824 14.4044 14.7877L6.76843 12.3148Z" fill="url(#paint13_radial_705_15799)"/>
<path fill-rule="evenodd" clip-rule="evenodd" d="M1.6791 13.4819L1.24255 18.701C2.06624 19.8307 3.19944 19.9288 4.38809 19.8408C3.52811 17.6918 1.81016 13.3949 1.6791 13.4819Z" fill="url(#paint14_linear_705_15799)"/>
<path fill-rule="evenodd" clip-rule="evenodd" d="M14.0344 1.78254L20.1551 2.64497C19.8285 1.25517 18.8253 0.358331 17.1154 0.0779419L14.0344 1.78254Z" fill="url(#paint15_linear_705_15799)"/>
</g>
<defs>
<linearGradient id="paint0_linear_705_15799" x1="17.883" y1="21.8186" x2="13.6434" y2="14.3633" gradientUnits="userSpaceOnUse">
<stop stop-color="#FB7655"/>
<stop offset="0.41" stop-color="#E42B1E"/>
<stop offset="0.99" stop-color="#990000"/>
<stop offset="1" stop-color="#990000"/>
</linearGradient>
<linearGradient id="paint1_linear_705_15799" x1="19.9822" y1="15.5436" x2="14.5379" y2="11.9047" gradientUnits="userSpaceOnUse">
<stop stop-color="#871101"/>
<stop offset="0.99" stop-color="#911209"/>
<stop offset="1" stop-color="#911209"/>
</linearGradient>
<linearGradient id="paint2_linear_705_15799" x1="15.6369" y1="22.045" x2="10.1928" y2="18.4062" gradientUnits="userSpaceOnUse">
<stop stop-color="#871101"/>
<stop offset="0.99" stop-color="#911209"/>
<stop offset="1" stop-color="#911209"/>
</linearGradient>
<linearGradient id="paint3_linear_705_15799" x1="4.23448" y1="12.8949" x2="5.083" y2="18.3874" gradientUnits="userSpaceOnUse">
<stop stop-color="white"/>
<stop offset="0.23" stop-color="#E57252"/>
<stop offset="0.46" stop-color="#DE3B20"/>
<stop offset="0.99" stop-color="#A60003"/>
<stop offset="1" stop-color="#A60003"/>
</linearGradient>
<linearGradient id="paint4_linear_705_15799" x1="10.0251" y1="7.76537" x2="10.3378" y2="13.3717" gradientUnits="userSpaceOnUse">
<stop stop-color="white"/>
<stop offset="0.23" stop-color="#E4714E"/>
<stop offset="0.56" stop-color="#BE1A0D"/>
<stop offset="0.99" stop-color="#A80D00"/>
<stop offset="1" stop-color="#A80D00"/>
</linearGradient>
<linearGradient id="paint5_linear_705_15799" x1="15.1639" y1="2.58332" x2="16.0996" y2="6.59975" gradientUnits="userSpaceOnUse">
<stop stop-color="white"/>
<stop offset="0.18" stop-color="#E46342"/>
<stop offset="0.4" stop-color="#C82410"/>
<stop offset="0.99" stop-color="#A80D00"/>
<stop offset="1" stop-color="#A80D00"/>
</linearGradient>
<linearGradient id="paint6_linear_705_15799" x1="12.3282" y1="1.16828" x2="16.3364" y2="-0.827782" gradientUnits="userSpaceOnUse">
<stop stop-color="white"/>
<stop offset="0.54" stop-color="#C81F11"/>
<stop offset="0.99" stop-color="#BF0905"/>
<stop offset="1" stop-color="#BF0905"/>
</linearGradient>
<linearGradient id="paint7_linear_705_15799" x1="0.726655" y1="11.4944" x2="1.05864" y2="14.8049" gradientUnits="userSpaceOnUse">
<stop stop-color="white"/>
<stop offset="0.31" stop-color="#DE4024"/>
<stop offset="0.99" stop-color="#BF190B"/>
<stop offset="1" stop-color="#BF190B"/>
</linearGradient>
<linearGradient id="paint8_linear_705_15799" x1="-1.53758" y1="15.7002" x2="14.009" y2="-0.222087" gradientUnits="userSpaceOnUse">
<stop stop-color="#BD0012"/>
<stop offset="0.07" stop-color="white"/>
<stop offset="0.17" stop-color="white"/>
<stop offset="0.27" stop-color="#C82F1C"/>
<stop offset="0.33" stop-color="#820C01"/>
<stop offset="0.46" stop-color="#A31601"/>
<stop offset="0.72" stop-color="#B31301"/>
<stop offset="0.99" stop-color="#E82609"/>
<stop offset="1" stop-color="#E82609"/>
</linearGradient>
<linearGradient id="paint9_linear_705_15799" x1="10.3218" y1="17.3125" x2="5.6561" y2="16.1656" gradientUnits="userSpaceOnUse">
<stop stop-color="#8C0C01"/>
<stop offset="0.54" stop-color="#990C00"/>
<stop offset="0.99" stop-color="#A80D0E"/>
<stop offset="1" stop-color="#A80D0E"/>
</linearGradient>
<linearGradient id="paint10_linear_705_15799" x1="18.3319" y1="11.6928" x2="14.1742" y2="7.98123" gradientUnits="userSpaceOnUse">
<stop stop-color="#7E110B"/>
<stop offset="0.99" stop-color="#9E0C00"/>
<stop offset="1" stop-color="#9E0C00"/>
</linearGradient>
<linearGradient id="paint11_linear_705_15799" x1="19.854" y1="4.85232" x2="17.7815" y2="2.64552" gradientUnits="userSpaceOnUse">
<stop stop-color="#79130D"/>
<stop offset="0.99" stop-color="#9E120B"/>
<stop offset="1" stop-color="#9E120B"/>
</linearGradient>
<radialGradient id="paint12_radial_705_15799" cx="0" cy="0" r="1" gradientUnits="userSpaceOnUse" gradientTransform="translate(14.8341 8.03595) scale(5.07698 5.09737)">
<stop stop-color="#A80D00"/>
<stop offset="0.99" stop-color="#7E0E08"/>
<stop offset="1" stop-color="#7E0E08"/>
</radialGradient>
<radialGradient id="paint13_radial_705_15799" cx="0" cy="0" r="1" gradientUnits="userSpaceOnUse" gradientTransform="translate(7.80306 14.7534) scale(6.74916 6.77627)">
<stop stop-color="#A30C00"/>
<stop offset="0.99" stop-color="#800E08"/>
<stop offset="1" stop-color="#800E08"/>
</radialGradient>
<linearGradient id="paint14_linear_705_15799" x1="3.02199" y1="19.975" x2="1.32777" y2="14.25" gradientUnits="userSpaceOnUse">
<stop stop-color="#8B2114"/>
<stop offset="0.43" stop-color="#9E100A"/>
<stop offset="0.99" stop-color="#B3100C"/>
<stop offset="1" stop-color="#B3100C"/>
</linearGradient>
<linearGradient id="paint15_linear_705_15799" x1="15.9239" y1="0.991776" x2="19.6992" y2="2.65159" gradientUnits="userSpaceOnUse">
<stop stop-color="#B31000"/>
<stop offset="0.44" stop-color="#910F08"/>
<stop offset="0.99" stop-color="#791C12"/>
<stop offset="1" stop-color="#791C12"/>
</linearGradient>
<clipPath id="clip0_705_15799">
<rect width="20" height="20" fill="white" transform="translate(0.333252)"/>
</clipPath>
</defs>
</svg>
