<svg width="372" height="99" viewBox="0 0 372 99" fill="none" xmlns="http://www.w3.org/2000/svg">
<g clip-path="url(#clip0_798_22674)">
<mask id="mask0_798_22674" style="mask-type:alpha" maskUnits="userSpaceOnUse" x="-36" y="-36" width="440" height="151">
<rect x="-36" y="-36" width="440" height="151" fill="url(#paint0_linear_798_22674)"/>
</mask>
<g mask="url(#mask0_798_22674)">
<rect x="0.741663" y="1.21823" width="369.517" height="163.517" rx="4.084" fill="#111113"/>
<rect x="0.741663" y="1.21823" width="369.517" height="163.517" rx="4.084" stroke="#303136" stroke-width="0.516673"/>
<g clip-path="url(#clip1_798_22674)">
<rect x="8.09619" y="9.96715" width="49.4371" height="1.6464" rx="0.823199" fill="#5F606A"/>
<path fill-rule="evenodd" clip-rule="evenodd" d="M1 20.1042L372.24 20.1042L372.24 20.5478L1 20.5477L1 20.1042Z" fill="black" fill-opacity="0.1"/>
<g opacity="0.4">
<g clip-path="url(#clip2_798_22674)">
<path d="M25.5089 30.5359H35.4971V40.5241H25.5089" fill="#3178C6"/>
<path d="M30.0543 36.0762H31.3028V35.2764H27.8109V36.0762H29.0594V39.6462H30.0543V36.0762ZM31.693 39.4511C32.0447 39.6308 32.5184 39.695 32.9415 39.695C33.3063 39.695 33.779 39.6476 34.151 39.414C34.309 39.3107 34.4436 39.18 34.5217 39.0044C34.5997 38.8288 34.6602 38.6337 34.6602 38.3801C34.6584 37.5774 34.0888 37.3113 33.5267 37.0536C33.2716 36.9375 32.6976 36.75 32.6976 36.3883C32.6976 36.0969 33.0256 35.9488 33.4429 35.9475C33.7682 35.9475 34.2056 36.0534 34.4768 36.2526V35.3357C34.1106 35.195 33.7269 35.1687 33.3843 35.1679C32.4236 35.1679 31.6742 35.5643 31.6676 36.4711C31.6772 37.156 32.0835 37.455 32.682 37.7391C33.008 37.8866 33.61 38.0754 33.6145 38.4843C33.6003 38.8661 33.135 38.9242 32.8654 38.9271C32.4448 38.9271 32 38.7674 31.693 38.5147V39.4511Z" fill="white"/>
</g>
<path d="M13.0925 51.8054H11.9501V51.3148H14.7752V51.8054H13.6265V55.5371H13.0925V51.8054ZM16.9585 55.3012H16.7101L15.6297 52.2959H16.1575L17.0826 54.9286H17.0951L17.9892 52.2959H18.517L16.915 56.9093H16.3934L16.9585 55.3012ZM19.5142 52.2959H20.0296V52.6312H20.0731C20.1931 52.4698 20.3131 52.3601 20.4332 52.3021C20.5574 52.2442 20.7271 52.2152 20.9423 52.2152C21.2818 52.2152 21.5426 52.2669 21.7247 52.3704C21.911 52.4698 22.0434 52.6395 22.1221 52.8796C22.2007 53.1197 22.2401 53.4632 22.2401 53.9103C22.2401 54.3532 22.2007 54.6947 22.1221 54.9348C22.0476 55.1749 21.9193 55.3467 21.7371 55.4502C21.555 55.5495 21.2942 55.5992 20.9548 55.5992C20.7147 55.5992 20.5325 55.5702 20.4084 55.5123C20.2883 55.4543 20.1786 55.3446 20.0793 55.1832H20.0296V56.8721H19.5142V52.2959ZM20.8306 55.1335C21.0624 55.1335 21.2404 55.0983 21.3646 55.028C21.4888 54.9534 21.5778 54.8293 21.6316 54.6554C21.6854 54.4774 21.7123 54.229 21.7123 53.9103C21.7123 53.5874 21.6854 53.339 21.6316 53.1652C21.5778 52.9913 21.4888 52.8671 21.3646 52.7926C21.2404 52.7181 21.0624 52.6809 20.8306 52.6809C20.6153 52.6809 20.4498 52.7181 20.3338 52.7926C20.2221 52.863 20.1414 52.9872 20.0917 53.1652C20.042 53.339 20.0172 53.5874 20.0172 53.9103C20.0172 54.2332 20.042 54.4815 20.0917 54.6554C20.1414 54.8293 20.2221 54.9534 20.3338 55.028C20.4498 55.0983 20.6153 55.1335 20.8306 55.1335ZM24.5785 55.5992C24.206 55.5992 23.9203 55.5495 23.7216 55.4502C23.5271 55.3508 23.3884 55.1811 23.3056 54.941C23.227 54.7009 23.1877 54.3532 23.1877 53.8979C23.1877 53.455 23.2291 53.1134 23.3118 52.8734C23.3946 52.6333 23.5312 52.4656 23.7216 52.3704C23.9162 52.2711 24.1853 52.2214 24.5288 52.2214C24.9014 52.2214 25.1808 52.2773 25.3671 52.389C25.5575 52.4967 25.6879 52.6829 25.7583 52.9479C25.8286 53.2128 25.8597 53.604 25.8514 54.1214H23.7092C23.7216 54.3946 23.7548 54.6037 23.8086 54.7485C23.8624 54.8934 23.9472 54.9948 24.0632 55.0528C24.1832 55.1107 24.3529 55.1397 24.5723 55.1397C24.7793 55.1397 24.9304 55.1107 25.0256 55.0528C25.1208 54.9907 25.1953 54.8727 25.2491 54.6989H25.7893C25.7438 54.939 25.6775 55.1232 25.5906 55.2515C25.5078 55.3798 25.3878 55.4709 25.2305 55.5247C25.0732 55.5744 24.8559 55.5992 24.5785 55.5992ZM25.3547 53.6681C25.3464 53.4032 25.3153 53.2024 25.2615 53.0658C25.2119 52.9251 25.1291 52.8258 25.0132 52.7678C24.9014 52.7098 24.74 52.6809 24.5288 52.6809C24.3302 52.6809 24.1749 52.7098 24.0632 52.7678C23.9555 52.8258 23.8748 52.9251 23.821 53.0658C23.7713 53.2024 23.7361 53.4032 23.7154 53.6681H25.3547ZM28.2644 55.5992C27.9166 55.5992 27.6476 55.5702 27.4572 55.5123C27.2668 55.4543 27.1322 55.355 27.0536 55.2142C26.9749 55.0735 26.9356 54.8748 26.9356 54.6181H27.4634C27.4717 54.7547 27.5006 54.8603 27.5503 54.9348C27.6041 55.0052 27.6848 55.0569 27.7925 55.09C27.9042 55.119 28.0615 55.1356 28.2644 55.1397C28.4672 55.1439 28.6224 55.1314 28.7301 55.1025C28.8418 55.0735 28.9205 55.0259 28.966 54.9597C29.0157 54.8934 29.0405 54.7961 29.0405 54.6678C29.0405 54.5561 29.0115 54.465 28.9536 54.3946C28.8998 54.3201 28.8066 54.258 28.6742 54.2083C28.5417 54.1545 28.3513 54.1028 28.1029 54.0531C27.809 53.9952 27.5814 53.9289 27.4199 53.8544C27.2626 53.7799 27.1488 53.6868 27.0784 53.575C27.0122 53.4591 26.9791 53.3101 26.9791 53.1279C26.9791 52.8878 27.0163 52.7036 27.0908 52.5753C27.1695 52.447 27.2978 52.3559 27.4758 52.3021C27.6579 52.2442 27.9166 52.2152 28.2519 52.2152C28.5665 52.2152 28.8087 52.24 28.9784 52.2897C29.1481 52.3394 29.2723 52.4263 29.351 52.5505C29.4296 52.6705 29.4752 52.8423 29.4876 53.0658H28.9722C28.9515 52.9127 28.8894 52.8092 28.7859 52.7554C28.6825 52.7016 28.5024 52.6747 28.2457 52.6747C28.047 52.6747 27.8939 52.6892 27.7863 52.7181C27.6786 52.743 27.602 52.7885 27.5565 52.8547C27.511 52.921 27.4882 53.0141 27.4882 53.1341C27.4882 53.2045 27.5172 53.2666 27.5751 53.3204C27.6372 53.3742 27.7387 53.428 27.8794 53.4819C28.0201 53.5315 28.2209 53.5895 28.4817 53.6557C28.7673 53.7261 28.9867 53.8027 29.1399 53.8855C29.293 53.9682 29.4007 54.0697 29.4627 54.1897C29.5248 54.3098 29.5559 54.465 29.5559 54.6554C29.5559 54.9038 29.5166 55.0963 29.4379 55.2329C29.3593 55.3653 29.2289 55.4605 29.0467 55.5185C28.8646 55.5723 28.6038 55.5992 28.2644 55.5992ZM32.0806 55.5992C31.7122 55.5992 31.4266 55.5495 31.2237 55.4502C31.025 55.3467 30.8822 55.177 30.7953 54.941C30.7125 54.7009 30.6711 54.3594 30.6711 53.9165C30.6711 53.4694 30.7125 53.1259 30.7953 52.8858C30.8822 52.6415 31.025 52.4698 31.2237 52.3704C31.4224 52.2669 31.7039 52.2152 32.0682 52.2152C32.3745 52.2152 32.6125 52.2462 32.7822 52.3083C32.952 52.3704 33.0761 52.476 33.1548 52.625C33.2334 52.7699 33.281 52.9768 33.2976 53.2459H32.7822C32.7408 53.0307 32.6725 52.8837 32.5773 52.8051C32.4821 52.7264 32.3248 52.6871 32.1054 52.6871C31.8653 52.6871 31.6811 52.7243 31.5528 52.7988C31.4245 52.8734 31.3314 52.9996 31.2734 53.1776C31.2196 53.3515 31.1927 53.6019 31.1927 53.9289C31.1927 54.2435 31.2196 54.4857 31.2734 54.6554C31.3314 54.8251 31.4245 54.9472 31.5528 55.0217C31.6853 55.0921 31.8716 55.1273 32.1116 55.1273C32.3269 55.1273 32.4801 55.0942 32.5711 55.028C32.6663 54.9576 32.7367 54.8272 32.7822 54.6368H33.2976C33.281 54.8893 33.2334 55.0838 33.1548 55.2204C33.0761 55.357 32.952 55.4543 32.7822 55.5123C32.6167 55.5702 32.3828 55.5992 32.0806 55.5992ZM34.8785 52.2959H35.3753L35.3566 53.0596H35.4063C35.5181 52.7947 35.6091 52.6126 35.6795 52.5132C35.7499 52.4097 35.8223 52.3456 35.8968 52.3207C35.9755 52.2959 36.108 52.2814 36.2942 52.2773H36.3066C36.5674 52.269 36.7723 52.2711 36.9214 52.2835V52.774C36.5612 52.7616 36.3129 52.7657 36.1763 52.7864C36.0562 52.8071 35.9341 52.8734 35.8099 52.9851C35.6857 53.0928 35.5822 53.2294 35.4995 53.3949C35.4208 53.5564 35.3815 53.724 35.3815 53.8979V55.5371H34.8785V52.2959ZM39.117 51.0168H39.8311V51.7247H39.117V51.0168ZM38.2663 55.0776H39.3157V52.7492H38.3284V52.2959H39.8248V55.0776H40.8307V55.5309H38.2663V55.0776ZM41.8528 52.2959H42.3682V52.6312H42.4117C42.5317 52.4698 42.6518 52.3601 42.7718 52.3021C42.896 52.2442 43.0657 52.2152 43.281 52.2152C43.6204 52.2152 43.8812 52.2669 44.0633 52.3704C44.2496 52.4698 44.3821 52.6395 44.4607 52.8796C44.5394 53.1197 44.5787 53.4632 44.5787 53.9103C44.5787 54.3532 44.5394 54.6947 44.4607 54.9348C44.3862 55.1749 44.2579 55.3467 44.0757 55.4502C43.8936 55.5495 43.6328 55.5992 43.2934 55.5992C43.0533 55.5992 42.8711 55.5702 42.747 55.5123C42.6269 55.4543 42.5172 55.3446 42.4179 55.1832H42.3682V56.8721H41.8528V52.2959ZM43.1692 55.1335C43.401 55.1335 43.579 55.0983 43.7032 55.028C43.8274 54.9534 43.9164 54.8293 43.9702 54.6554C44.024 54.4774 44.0509 54.229 44.0509 53.9103C44.0509 53.5874 44.024 53.339 43.9702 53.1652C43.9164 52.9913 43.8274 52.8671 43.7032 52.7926C43.579 52.7181 43.401 52.6809 43.1692 52.6809C42.9539 52.6809 42.7884 52.7181 42.6724 52.7926C42.5607 52.863 42.48 52.9872 42.4303 53.1652C42.3806 53.339 42.3558 53.5874 42.3558 53.9103C42.3558 54.2332 42.3806 54.4815 42.4303 54.6554C42.48 54.8293 42.5607 54.9534 42.6724 55.028C42.7884 55.0983 42.9539 55.1335 43.1692 55.1335ZM47.2586 55.6054C46.9937 55.6054 46.795 55.5702 46.6625 55.4999C46.5301 55.4295 46.4411 55.3219 46.3955 55.177C46.35 55.0321 46.3272 54.8272 46.3272 54.5623V52.7554H45.489L45.6132 52.2959H46.3521V51.5694L46.8364 51.3645V52.2959H47.9727V52.7554H46.8364V54.5374C46.8364 54.6823 46.8509 54.7961 46.8799 54.8789C46.913 54.9617 46.973 55.0259 47.0599 55.0714C47.151 55.1128 47.2855 55.1335 47.4635 55.1335C47.6208 55.1335 47.8361 55.1149 48.1093 55.0776V55.5371C47.745 55.5826 47.4615 55.6054 47.2586 55.6054Z" fill="#797B86"/>
</g>
<g opacity="0.4">
<g clip-path="url(#clip3_798_22674)">
<path d="M69.4774 30.9356C66.201 30.9356 66.4055 32.3564 66.4055 32.3564L66.4092 33.8285H69.5358V34.2704H65.1673C65.1673 34.2704 63.0707 34.0326 63.0707 37.3385C63.0707 40.6445 64.9007 40.5273 64.9007 40.5273H65.9928V38.9932C65.9928 38.9932 65.9339 37.1632 67.7935 37.1632H70.8946C70.8946 37.1632 72.6369 37.1914 72.6369 35.4794V32.6487C72.6369 32.6487 72.9015 30.9356 69.4774 30.9356ZM67.7534 31.9255C67.8272 31.9254 67.9004 31.9399 67.9687 31.9682C68.037 31.9964 68.099 32.0379 68.1512 32.0901C68.2035 32.1423 68.2449 32.2044 68.2732 32.2726C68.3014 32.3409 68.3159 32.4141 68.3158 32.488C68.3159 32.5619 68.3014 32.635 68.2732 32.7033C68.2449 32.7716 68.2035 32.8336 68.1512 32.8859C68.099 32.9381 68.037 32.9795 67.9687 33.0078C67.9004 33.036 67.8272 33.0505 67.7534 33.0505C67.6795 33.0505 67.6063 33.036 67.538 33.0078C67.4698 32.9795 67.4077 32.9381 67.3555 32.8859C67.3032 32.8336 67.2618 32.7716 67.2336 32.7033C67.2053 32.635 67.1908 32.5619 67.1909 32.488C67.1908 32.4141 67.2053 32.3409 67.2336 32.2726C67.2618 32.2044 67.3032 32.1423 67.3555 32.0901C67.4077 32.0379 67.4698 31.9964 67.538 31.9682C67.6063 31.9399 67.6795 31.9254 67.7534 31.9255Z" fill="#3372A7"/>
<path d="M69.5703 43.7747C72.8467 43.7747 72.6421 42.3539 72.6421 42.3539L72.6385 40.8819H69.5118V40.4399H73.8803C73.8803 40.4399 75.9769 40.6777 75.9769 37.3717C75.9769 34.0658 74.1469 34.183 74.1469 34.183H73.0548V35.7171C73.0548 35.7171 73.1137 37.547 71.2541 37.547H68.153C68.153 37.547 66.4107 37.5189 66.4107 39.2309V42.0617C66.4107 42.0617 66.1462 43.7747 69.5702 43.7747H69.5703ZM71.2943 42.7849C71.2204 42.785 71.1472 42.7705 71.079 42.7422C71.0107 42.714 70.9487 42.6726 70.8964 42.6203C70.8442 42.5681 70.8028 42.506 70.7745 42.4378C70.7463 42.3695 70.7318 42.2963 70.7318 42.2224C70.7318 42.1486 70.7463 42.0754 70.7745 42.0071C70.8027 41.9388 70.8442 41.8768 70.8964 41.8245C70.9487 41.7723 71.0107 41.7308 71.079 41.7026C71.1472 41.6744 71.2204 41.6598 71.2943 41.6599C71.3682 41.6598 71.4414 41.6744 71.5096 41.7026C71.5779 41.7308 71.6399 41.7723 71.6922 41.8245C71.7444 41.8768 71.7859 41.9388 71.8141 42.0071C71.8423 42.0753 71.8569 42.1485 71.8568 42.2224C71.8569 42.2963 71.8423 42.3694 71.8141 42.4377C71.7859 42.506 71.7444 42.568 71.6922 42.6203C71.6399 42.6725 71.5779 42.7139 71.5096 42.7422C71.4414 42.7704 71.3682 42.785 71.2943 42.7849Z" fill="#FFD235"/>
</g>
<path d="M59.5223 50.9255C59.9984 50.9255 60.3626 50.9648 60.6151 51.0434C60.8676 51.1221 61.0477 51.2566 61.1553 51.447C61.263 51.6375 61.3168 51.9107 61.3168 52.2667C61.3168 52.5978 61.2692 52.8565 61.174 53.0428C61.0829 53.2249 60.9277 53.3553 60.7083 53.434C60.493 53.5126 60.1867 53.552 59.7893 53.552H59.2429V55.1664H58.7089V50.9441L59.5223 50.9255ZM59.7334 53.0614C60.0066 53.0614 60.2177 53.0366 60.3668 52.9869C60.5199 52.9372 60.6276 52.8545 60.6896 52.7386C60.7559 52.6185 60.789 52.4509 60.789 52.2356C60.789 52.0162 60.7538 51.8486 60.6834 51.7327C60.6172 51.6126 60.5013 51.5298 60.3357 51.4843C60.1743 51.4346 59.9383 51.4098 59.6279 51.4098H59.2429V53.0614H59.7334ZM63.4876 54.9304H63.2392L62.1588 51.9251H62.6866L63.6118 54.5578H63.6242L64.5183 51.9251H65.0461L63.4441 56.5386H62.9225L63.4876 54.9304ZM67.726 55.2347C67.4611 55.2347 67.2624 55.1995 67.13 55.1291C66.9975 55.0587 66.9085 54.9511 66.863 54.8062C66.8174 54.6613 66.7947 54.4564 66.7947 54.1915V52.3846H65.9564L66.0806 51.9251H66.8195V51.1987L67.3038 50.9938V51.9251H68.4401V52.3846H67.3038V54.1667C67.3038 54.3116 67.3183 54.4254 67.3473 54.5082C67.3804 54.591 67.4404 54.6551 67.5273 54.7007C67.6184 54.7421 67.7529 54.7628 67.9309 54.7628C68.0882 54.7628 68.3035 54.7441 68.5767 54.7069V55.1664C68.2124 55.2119 67.9289 55.2347 67.726 55.2347ZM69.7664 50.646H70.288V52.4033H70.3315C70.4267 52.188 70.5405 52.0431 70.673 51.9686C70.8096 51.89 71.0186 51.8506 71.3001 51.8506C71.5775 51.8506 71.7906 51.8879 71.9397 51.9624C72.0887 52.0369 72.1942 52.1611 72.2563 52.335C72.3226 52.5088 72.3557 52.7592 72.3557 53.0863V55.1664H71.8403V53.0738C71.8403 52.8752 71.8176 52.722 71.772 52.6144C71.7306 52.5067 71.6603 52.4302 71.5609 52.3846C71.4616 52.3391 71.3208 52.3163 71.1387 52.3163C70.9151 52.3163 70.7434 52.3515 70.6233 52.4219C70.5033 52.4923 70.4163 52.6102 70.3625 52.7758C70.3129 52.9414 70.288 53.1773 70.288 53.4837V55.1664H69.7664V50.646ZM74.7811 55.2284C74.4168 55.2284 74.1353 55.1788 73.9366 55.0794C73.7421 54.9759 73.6034 54.8041 73.5206 54.5641C73.4378 54.324 73.3964 53.9825 73.3964 53.5395C73.3964 53.0925 73.4378 52.7489 73.5206 52.5088C73.6034 52.2687 73.7421 52.099 73.9366 51.9997C74.1353 51.8962 74.4168 51.8444 74.7811 51.8444C75.1453 51.8444 75.4268 51.8962 75.6255 51.9997C75.8242 52.099 75.9649 52.2708 76.0477 52.515C76.1305 52.7551 76.1719 53.0966 76.1719 53.5395C76.1719 53.9825 76.1305 54.324 76.0477 54.5641C75.9649 54.8041 75.8242 54.9759 75.6255 55.0794C75.4268 55.1788 75.1453 55.2284 74.7811 55.2284ZM74.7811 54.7628C75.0087 54.7628 75.1847 54.7276 75.3088 54.6572C75.433 54.5827 75.52 54.4585 75.5696 54.2846C75.6234 54.1108 75.6503 53.8624 75.6503 53.5395C75.6503 53.2125 75.6234 52.9621 75.5696 52.7882C75.52 52.6144 75.433 52.4902 75.3088 52.4157C75.1847 52.3412 75.0087 52.3039 74.7811 52.3039C74.5534 52.3039 74.3775 52.3412 74.2533 52.4157C74.1332 52.4902 74.0463 52.6144 73.9925 52.7882C73.9428 52.9621 73.918 53.2125 73.918 53.5395C73.918 53.8624 73.9428 54.1108 73.9925 54.2846C74.0463 54.4585 74.1332 54.5827 74.2533 54.6572C74.3775 54.7276 74.5534 54.7628 74.7811 54.7628ZM77.2126 51.9251H77.7342V52.397H77.7777C77.8688 52.1818 77.9826 52.0369 78.1192 51.9624C78.2599 51.8837 78.471 51.8444 78.7525 51.8444C79.0257 51.8444 79.2368 51.8817 79.3859 51.9562C79.5349 52.0307 79.6404 52.157 79.7025 52.335C79.7688 52.5088 79.8019 52.7572 79.8019 53.0801V55.1664H79.2865V53.0676C79.2865 52.8731 79.2638 52.722 79.2182 52.6144C79.1768 52.5067 79.1065 52.4322 79.0071 52.3908C78.9119 52.3453 78.7732 52.3225 78.5911 52.3225C78.3676 52.3225 78.1937 52.3577 78.0695 52.4281C77.9495 52.4985 77.8625 52.6164 77.8087 52.782C77.7591 52.9435 77.7342 53.1753 77.7342 53.4774V55.1664H77.2126V51.9251Z" fill="#797B86"/>
</g>
<g opacity="0.4">
<g clip-path="url(#clip4_798_22674)">
<path d="M103.069 36.3784C103.044 36.3784 103.037 36.3658 103.05 36.3469L103.182 36.1768C103.195 36.1579 103.226 36.1453 103.251 36.1453H105.5C105.525 36.1453 105.532 36.1642 105.519 36.1831L105.412 36.3469C105.399 36.3658 105.368 36.3847 105.349 36.3847L103.069 36.3784Z" fill="#FF5328"/>
<path d="M102.118 36.9579C102.092 36.9579 102.086 36.9454 102.099 36.9265L102.231 36.7564C102.244 36.7375 102.275 36.7249 102.3 36.7249H105.173C105.198 36.7249 105.211 36.7438 105.204 36.7627L105.154 36.9139C105.148 36.9391 105.122 36.9517 105.097 36.9517L102.118 36.9579Z" fill="#FF5328"/>
<path d="M103.642 37.5376C103.617 37.5376 103.611 37.5187 103.623 37.4998L103.711 37.3423C103.724 37.3234 103.749 37.3045 103.774 37.3045H105.034C105.059 37.3045 105.072 37.3234 105.072 37.3486L105.059 37.4998C105.059 37.525 105.034 37.5439 105.015 37.5439L103.642 37.5376Z" fill="#00ACD7"/>
<path d="M110.18 36.265C109.784 36.3658 109.513 36.4414 109.122 36.5422C109.028 36.5674 109.021 36.5737 108.939 36.4792C108.845 36.3721 108.776 36.3028 108.643 36.2399C108.247 36.0446 107.862 36.1013 107.503 36.3343C107.075 36.6115 106.854 37.0209 106.861 37.5312C106.867 38.0351 107.214 38.4508 107.711 38.5201C108.139 38.5768 108.499 38.4256 108.782 38.1044C108.839 38.0351 108.889 37.9595 108.952 37.8713H107.736C107.604 37.8713 107.573 37.7894 107.617 37.6823C107.699 37.4871 107.85 37.1595 107.938 36.9957C107.957 36.9579 108.001 36.895 108.095 36.895H110.388C110.376 37.065 110.376 37.2351 110.35 37.4052C110.281 37.8587 110.111 38.2744 109.834 38.6398C109.38 39.2382 108.788 39.6099 108.039 39.7106C107.421 39.7925 106.848 39.6728 106.344 39.2949C105.878 38.9421 105.614 38.476 105.544 37.8965C105.462 37.2099 105.664 36.5926 106.08 36.0509C106.527 35.4651 107.119 35.0934 107.843 34.9611C108.436 34.8541 109.002 34.9233 109.513 35.2698C109.847 35.4903 110.086 35.7926 110.243 36.158C110.281 36.2147 110.256 36.2462 110.18 36.265Z" fill="#00ACD7"/>
<path d="M112.265 39.7486C111.692 39.736 111.169 39.5722 110.729 39.1943C110.357 38.873 110.124 38.4636 110.048 37.9786C109.935 37.2668 110.13 36.6369 110.558 36.0763C111.018 35.4715 111.573 35.1566 112.322 35.0243C112.965 34.9109 113.569 34.9739 114.117 35.3456C114.615 35.6857 114.924 36.1455 115.006 36.7502C115.113 37.6006 114.867 38.2935 114.281 38.8856C113.865 39.3077 113.355 39.5722 112.769 39.6919C112.599 39.7234 112.429 39.7297 112.265 39.7486ZM113.765 37.2038C113.758 37.1219 113.758 37.0589 113.746 36.9959C113.632 36.3723 113.059 36.0196 112.461 36.1581C111.875 36.2904 111.497 36.6621 111.358 37.2542C111.245 37.7455 111.484 38.2431 111.938 38.4447C112.284 38.5959 112.631 38.577 112.965 38.4069C113.462 38.1486 113.733 37.7455 113.765 37.2038Z" fill="#00ACD7"/>
</g>
<path d="M106.604 55.2284C106.182 55.2284 105.857 55.1622 105.629 55.0297C105.402 54.8973 105.24 54.6758 105.145 54.3654C105.05 54.0508 105.002 53.6058 105.002 53.0304C105.002 52.4674 105.048 52.0328 105.139 51.7264C105.234 51.4201 105.391 51.2028 105.611 51.0745C105.83 50.9462 106.143 50.882 106.548 50.882C106.863 50.882 107.107 50.9151 107.281 50.9813C107.459 51.0434 107.589 51.149 107.672 51.298C107.759 51.447 107.815 51.6581 107.84 51.9314H107.325C107.304 51.7865 107.267 51.6747 107.213 51.5961C107.163 51.5133 107.087 51.4553 106.983 51.4222C106.88 51.3891 106.737 51.3725 106.555 51.3725C106.286 51.3725 106.079 51.4222 105.934 51.5215C105.789 51.6209 105.685 51.7885 105.623 52.0245C105.565 52.2604 105.536 52.5978 105.536 53.0366C105.536 53.4837 105.567 53.8293 105.629 54.0735C105.696 54.3136 105.803 54.4854 105.952 54.5889C106.105 54.6882 106.323 54.7379 106.604 54.7379C106.762 54.7379 106.892 54.7276 106.995 54.7069C107.099 54.682 107.213 54.6406 107.337 54.5827V53.3905H106.499V52.9H107.834V54.9304C107.602 55.0463 107.399 55.125 107.225 55.1664C107.051 55.2077 106.844 55.2284 106.604 55.2284ZM110.147 55.2284C109.766 55.2284 109.471 55.1643 109.259 55.036C109.048 54.9035 108.897 54.6841 108.806 54.3778C108.719 54.0673 108.676 53.6306 108.676 53.0676C108.676 52.4964 108.719 52.0555 108.806 51.7451C108.897 51.4305 109.046 51.209 109.253 51.0807C109.464 50.9482 109.762 50.882 110.147 50.882C110.528 50.882 110.822 50.9482 111.029 51.0807C111.24 51.2132 111.389 51.4346 111.476 51.7451C111.567 52.0555 111.613 52.4964 111.613 53.0676C111.613 53.6306 111.567 54.0673 111.476 54.3778C111.389 54.6841 111.24 54.9035 111.029 55.036C110.822 55.1643 110.528 55.2284 110.147 55.2284ZM110.147 54.7503C110.392 54.7503 110.58 54.7007 110.712 54.6013C110.845 54.4978 110.938 54.3281 110.992 54.0922C111.05 53.8521 111.079 53.5106 111.079 53.0676C111.079 52.6206 111.05 52.2749 110.992 52.0307C110.938 51.7865 110.845 51.6147 110.712 51.5153C110.58 51.4118 110.392 51.3601 110.147 51.3601C109.899 51.3601 109.709 51.4118 109.576 51.5153C109.444 51.6147 109.348 51.7865 109.29 52.0307C109.237 52.2749 109.21 52.6206 109.21 53.0676C109.21 53.5106 109.237 53.8521 109.29 54.0922C109.348 54.3281 109.444 54.4978 109.576 54.6013C109.709 54.7007 109.899 54.7503 110.147 54.7503Z" fill="#797B86"/>
</g>
<g opacity="0.4">
<g clip-path="url(#clip5_798_22674)">
<path d="M145.891 40.9078C145.891 40.9078 145.398 41.195 146.243 41.2922C147.266 41.4088 147.789 41.392 148.917 41.1785C148.917 41.1785 149.213 41.3643 149.627 41.5255C147.099 42.6091 143.906 41.4627 145.892 40.9078M145.583 39.494C145.583 39.494 145.029 39.9038 145.875 39.9913C146.967 40.1039 147.831 40.1132 149.325 39.8253C149.325 39.8253 149.531 40.0347 149.856 40.1495C146.8 41.0432 143.395 40.2202 145.582 39.494" fill="#5382A1"/>
<path d="M148.187 37.0954C148.81 37.8129 148.023 38.4583 148.023 38.4583C148.023 38.4583 149.605 37.6416 148.879 36.619C148.2 35.6655 147.68 35.1917 150.496 33.5581C150.496 33.5581 146.075 34.6623 148.187 37.0954Z" fill="#E76F00"/>
<path d="M151.53 41.9537C151.53 41.9537 151.896 42.2547 151.128 42.4876C149.669 42.9296 145.054 43.0631 143.773 42.5052C143.312 42.3048 144.176 42.0266 144.448 41.9679C144.731 41.9065 144.893 41.9181 144.893 41.9181C144.381 41.5569 141.581 42.6267 143.471 42.9333C148.626 43.769 152.868 42.5568 151.53 41.9537ZM146.129 38.029C146.129 38.029 143.782 38.5862 145.297 38.7888C145.938 38.8748 147.214 38.8554 148.402 38.7555C149.374 38.6737 150.349 38.4994 150.349 38.4994C150.349 38.4994 150.007 38.6464 149.758 38.8154C147.375 39.4424 142.771 39.1508 144.096 38.5095C145.217 37.9673 146.129 38.029 146.129 38.029ZM150.339 40.3825C152.762 39.1235 151.642 37.9135 150.86 38.0765C150.668 38.1165 150.583 38.1513 150.583 38.1513C150.583 38.1513 150.654 38.0395 150.79 37.9913C152.337 37.4476 153.527 39.5954 150.29 40.446C150.29 40.446 150.328 40.4124 150.339 40.3825Z" fill="#5382A1"/>
<path d="M148.879 30.9205C148.879 30.9205 150.221 32.2628 147.606 34.3269C145.509 35.9826 147.128 36.9267 147.605 38.0054C146.381 36.9013 145.483 35.9291 146.085 35.0246C146.97 33.6961 149.42 33.0525 148.879 30.9205Z" fill="#E76F00"/>
<path d="M146.367 43.7944C148.693 43.9433 152.264 43.7118 152.349 42.6114C152.349 42.6114 152.186 43.0283 150.427 43.3596C148.441 43.7335 145.993 43.6897 144.541 43.4501C144.541 43.4501 144.838 43.6961 146.367 43.7941" fill="#5382A1"/>
</g>
<path d="M141.817 55.2222C141.494 55.2222 141.246 55.187 141.072 55.1167C140.898 55.0463 140.774 54.9283 140.699 54.7628C140.629 54.5972 140.594 54.3612 140.594 54.0549H141.128C141.132 54.237 141.155 54.3757 141.196 54.4709C141.242 54.5661 141.31 54.6344 141.401 54.6758C141.496 54.7131 141.629 54.7317 141.798 54.7317C141.993 54.7317 142.142 54.7089 142.245 54.6634C142.349 54.6179 142.423 54.5392 142.469 54.4275C142.514 54.3116 142.537 54.148 142.537 53.9369V50.9441H143.071V53.9618C143.071 54.2929 143.032 54.5496 142.953 54.7317C142.879 54.9097 142.752 55.036 142.574 55.1105C142.396 55.185 142.144 55.2222 141.817 55.2222ZM145.36 55.2284C145.095 55.2284 144.89 55.1995 144.745 55.1415C144.604 55.0836 144.503 54.9863 144.441 54.8497C144.383 54.7131 144.354 54.5185 144.354 54.266C144.354 53.968 144.398 53.7382 144.484 53.5768C144.571 53.4112 144.716 53.2953 144.919 53.2291C145.126 53.1587 145.418 53.1235 145.795 53.1235H146.378V52.9683C146.378 52.7944 146.355 52.6599 146.31 52.5647C146.269 52.4695 146.194 52.4012 146.086 52.3598C145.983 52.3184 145.834 52.2977 145.639 52.2977C145.387 52.2977 145.215 52.3308 145.124 52.397C145.033 52.4591 144.983 52.5813 144.975 52.7634H144.453C144.453 52.5233 144.489 52.3391 144.559 52.2108C144.629 52.0783 144.749 51.9852 144.919 51.9314C145.089 51.8734 145.329 51.8444 145.639 51.8444C145.962 51.8444 146.211 51.8775 146.384 51.9438C146.562 52.01 146.687 52.1238 146.757 52.2853C146.832 52.4467 146.869 52.6744 146.869 52.9683V55.1664H146.397V54.7503H146.353C146.246 54.9325 146.122 55.0587 145.981 55.1291C145.844 55.1953 145.637 55.2284 145.36 55.2284ZM145.49 54.7628C145.722 54.7628 145.9 54.7276 146.024 54.6572C146.149 54.5827 146.238 54.4606 146.291 54.2909C146.345 54.1211 146.372 53.879 146.372 53.5644L145.67 53.5706C145.463 53.5747 145.302 53.5975 145.186 53.6389C145.074 53.6761 144.994 53.7403 144.944 53.8314C144.898 53.9183 144.876 54.0446 144.876 54.2101C144.876 54.4254 144.919 54.5723 145.006 54.651C145.093 54.7255 145.254 54.7628 145.49 54.7628ZM147.897 51.9251H148.444L149.375 54.5641H149.418L150.35 51.9251H150.896L149.673 55.1664H149.12L147.897 51.9251ZM152.806 55.2284C152.541 55.2284 152.336 55.1995 152.191 55.1415C152.051 55.0836 151.949 54.9863 151.887 54.8497C151.829 54.7131 151.8 54.5185 151.8 54.266C151.8 53.968 151.844 53.7382 151.931 53.5768C152.018 53.4112 152.162 53.2953 152.365 53.2291C152.572 53.1587 152.864 53.1235 153.241 53.1235H153.824V52.9683C153.824 52.7944 153.802 52.6599 153.756 52.5647C153.715 52.4695 153.64 52.4012 153.533 52.3598C153.429 52.3184 153.28 52.2977 153.086 52.2977C152.833 52.2977 152.661 52.3308 152.57 52.397C152.479 52.4591 152.429 52.5813 152.421 52.7634H151.9C151.9 52.5233 151.935 52.3391 152.005 52.2108C152.076 52.0783 152.196 51.9852 152.365 51.9314C152.535 51.8734 152.775 51.8444 153.086 51.8444C153.408 51.8444 153.657 51.8775 153.831 51.9438C154.009 52.01 154.133 52.1238 154.203 52.2853C154.278 52.4467 154.315 52.6744 154.315 52.9683V55.1664H153.843V54.7503H153.8C153.692 54.9325 153.568 55.0587 153.427 55.1291C153.29 55.1953 153.083 55.2284 152.806 55.2284ZM152.937 54.7628C153.168 54.7628 153.346 54.7276 153.471 54.6572C153.595 54.5827 153.684 54.4606 153.738 54.2909C153.791 54.1211 153.818 53.879 153.818 53.5644L153.117 53.5706C152.91 53.5747 152.748 53.5975 152.632 53.6389C152.521 53.6761 152.44 53.7403 152.39 53.8314C152.345 53.9183 152.322 54.0446 152.322 54.2101C152.322 54.4254 152.365 54.5723 152.452 54.651C152.539 54.7255 152.701 54.7628 152.937 54.7628Z" fill="#797B86"/>
</g>
<g opacity="0.4">
<g clip-path="url(#clip6_798_22674)">
<path fill-rule="evenodd" clip-rule="evenodd" d="M184.624 36.1094C185.086 37.5279 185.262 40.0553 186.615 40.0553C186.722 40.0553 186.823 40.0414 186.93 40.023C185.696 39.7365 185.553 37.2368 184.804 35.943L184.624 36.1094Z" fill="#1384C8"/>
<path fill-rule="evenodd" clip-rule="evenodd" d="M184.799 35.943C185.553 37.2368 185.696 39.7365 186.925 40.023C187.027 40.0045 187.124 39.9767 187.221 39.9444C186.112 39.4038 185.807 36.978 184.957 35.809L184.799 35.943Z" fill="#1384C8"/>
<path fill-rule="evenodd" clip-rule="evenodd" d="M185.881 35.1714C185.473 35.1975 185.078 35.328 184.735 35.5503C184.813 35.6288 184.887 35.712 184.956 35.809C185.243 35.5734 185.525 35.3932 185.807 35.2915C185.913 35.2499 186.019 35.2222 186.125 35.1991C186.045 35.1796 185.963 35.1703 185.881 35.1714ZM188.08 39.4454C188.195 39.353 188.311 39.2606 188.422 39.1497C187.951 37.7404 187.784 35.176 186.417 35.176C186.324 35.176 186.223 35.1852 186.125 35.2037C187.368 35.5133 187.526 38.2163 188.08 39.4454Z" fill="#1384C8"/>
<path fill-rule="evenodd" clip-rule="evenodd" d="M186.126 35.2037C186.046 35.1827 185.963 35.1718 185.881 35.1714H186.421C186.32 35.1714 186.223 35.1852 186.126 35.2037ZM188.057 39.7457C188.003 39.6932 187.952 39.6376 187.905 39.5794C187.673 39.7411 187.442 39.8659 187.221 39.949C187.367 40.0205 187.529 40.0569 187.692 40.0553C187.946 40.0553 188.149 40.023 188.32 39.9398C188.228 39.8936 188.136 39.8243 188.057 39.7457ZM185.807 35.2915C186.916 35.8737 187.017 38.5074 187.905 39.5794L188.08 39.4454C187.526 38.2163 187.369 35.5133 186.126 35.2037C186.019 35.2222 185.913 35.2499 185.807 35.2915Z" fill="#1384C8"/>
<path fill-rule="evenodd" clip-rule="evenodd" d="M184.957 35.8044C185.807 36.978 186.112 39.4038 187.221 39.9444C187.447 39.8658 187.673 39.7411 187.904 39.5794C187.017 38.5074 186.92 35.8737 185.807 35.2915C185.525 35.3978 185.243 35.5687 184.957 35.809M184.079 36.077C183.94 36.3773 183.806 36.7747 183.644 37.2968C183.968 36.8348 184.3 36.4328 184.624 36.1093C184.578 35.9707 184.531 35.846 184.481 35.7305C184.342 35.8321 184.213 35.9476 184.079 36.077Z" fill="#1384C8"/>
<path fill-rule="evenodd" clip-rule="evenodd" d="M184.596 35.6473L184.481 35.7305C184.527 35.846 184.578 35.9707 184.619 36.1094L184.804 35.943C184.743 35.8392 184.673 35.7404 184.596 35.6473Z" fill="#1384C8"/>
<path fill-rule="evenodd" clip-rule="evenodd" d="M184.739 35.5503L184.601 35.6427C184.67 35.7351 184.739 35.8368 184.8 35.943L184.957 35.8044C184.887 35.712 184.818 35.6288 184.739 35.5503ZM192.326 35.0651C191.698 37.4909 190.386 39.4408 189.281 39.9352L189.221 39.9583H189.212L189.194 39.9675H189.189L189.161 39.9814H189.147L189.134 39.9906H189.124L189.11 39.9999L189.087 40.0045H189.078L189.06 40.0137H189.05L189.032 40.0183L189.013 40.023C189.06 40.0414 189.115 40.0507 189.171 40.0507C190.215 40.0507 191.268 38.1794 193.01 35.0651H192.326ZM183.413 35.273H183.418L183.436 35.2638H183.441L183.446 35.2592L183.464 35.2546L183.506 35.2361H183.51L183.529 35.2315H183.538L183.552 35.2222H183.561L183.617 35.2084H183.626L183.644 35.2037H183.649L183.667 35.1945L183.704 35.1899H183.737L183.755 35.1853H183.765L183.801 35.176H183.691C182.512 35.176 180.891 37.3569 180.16 40.1847H180.299C180.535 39.7688 180.743 39.3715 180.937 39.0018C181.445 37.0011 182.489 35.6335 183.413 35.273ZM184.079 36.077C184.213 35.9476 184.347 35.8321 184.481 35.7305C184.452 35.6671 184.419 35.6054 184.384 35.5457C184.258 35.7081 184.156 35.8869 184.079 36.077Z" fill="#1384C8"/>
<path fill-rule="evenodd" clip-rule="evenodd" d="M184.171 35.2869C184.25 35.3516 184.319 35.444 184.384 35.5503L184.444 35.481C184.364 35.404 184.274 35.3387 184.176 35.2869M180.937 39.0018C182.009 36.9364 182.517 35.6288 183.413 35.273C182.489 35.6334 181.45 37.0011 180.937 39.0018Z" fill="#1384C8"/>
<path fill-rule="evenodd" clip-rule="evenodd" d="M184.448 35.481L184.384 35.5456L184.476 35.7305L184.596 35.6473C184.55 35.5872 184.499 35.5318 184.444 35.481M181.422 40.1754H181.385L181.339 40.18C182.425 40.1523 182.919 39.6071 183.168 38.817C183.353 38.2163 183.506 37.7173 183.644 37.2922C183.141 38.0181 182.683 38.7742 182.272 39.5563C182.05 39.9629 181.713 40.1385 181.422 40.1754Z" fill="#1384C8"/>
<path fill-rule="evenodd" clip-rule="evenodd" d="M181.422 40.1754C181.605 40.1493 181.779 40.0782 181.928 39.9686C182.077 39.8589 182.197 39.7141 182.277 39.547C182.739 38.6922 183.192 37.9298 183.649 37.2922C183.811 36.7701 183.949 36.3727 184.083 36.0724C183.178 36.9318 182.267 38.3688 181.426 40.1708M180.937 39.0018C180.743 39.3715 180.535 39.7688 180.299 40.1847H180.71C180.766 39.7688 180.84 39.3761 180.937 39.0018Z" fill="#1384C8"/>
<path fill-rule="evenodd" clip-rule="evenodd" d="M183.765 35.1806H183.755L183.737 35.1853H183.728L183.714 35.1899H183.704L183.672 35.1991H183.663C183.657 35.1995 183.651 35.1995 183.644 35.1991L183.635 35.2037H183.621L183.612 35.2084L183.557 35.2222H183.547L183.533 35.2315H183.524L183.506 35.2407H183.501L183.46 35.2546L183.441 35.2592L183.436 35.2638L183.418 35.2684L183.413 35.273C182.512 35.6288 182.004 36.9364 180.932 39.0018C180.84 39.3761 180.761 39.7688 180.706 40.1847H181.385L181.403 40.1801H181.427C182.263 38.3781 183.173 36.9411 184.079 36.077C184.18 35.8552 184.277 35.6797 184.384 35.5503C184.329 35.4531 184.259 35.3656 184.176 35.2915L184.162 35.2823L184.148 35.2777L184.134 35.2684H184.12L184.111 35.2592L184.088 35.2499H184.074C184.069 35.247 184.065 35.2439 184.06 35.2407L184.046 35.2361L184.023 35.2268L183.996 35.2176H183.986L183.963 35.2084H183.959C183.939 35.203 183.919 35.1984 183.899 35.1945H183.889L183.866 35.1899H183.862L183.829 35.1853H183.765M189.868 36.4051C189.665 37.0704 189.499 37.6157 189.351 38.0685C189.991 37.1561 190.545 36.1863 191.005 35.1714C190.386 35.3701 190.058 35.8137 189.868 36.4097M189.369 39.8936L189.281 39.9352C190.386 39.4408 191.698 37.4909 192.331 35.0651H192.202C190.755 37.6526 190.289 39.3761 189.369 39.8936ZM188.648 39.6764C188.889 39.3807 189.083 38.8863 189.351 38.0639C189.074 38.4498 188.765 38.8116 188.427 39.1451L188.422 39.1497C188.491 39.353 188.561 39.5332 188.648 39.6764ZM188.648 39.6764C188.559 39.7868 188.447 39.8767 188.32 39.9398C188.441 40.0054 188.576 40.0433 188.713 40.0507H188.903L188.921 40.0414H188.958L189.013 40.0276C188.87 39.9768 188.75 39.852 188.644 39.6764M186.62 40.0553C186.825 40.0561 187.029 40.0185 187.221 39.9444C187.367 40.0173 187.528 40.0553 187.692 40.0553H186.62Z" fill="#1384C8"/>
<path fill-rule="evenodd" clip-rule="evenodd" d="M187.692 40.0553C187.946 40.0553 188.149 40.023 188.32 39.9398C188.441 40.0054 188.576 40.0433 188.713 40.0507H188.773H187.692V40.0553ZM188.773 40.0553H188.843L188.861 40.0507H188.907L188.93 40.0414H188.958L189.013 40.0276C189.06 40.0461 189.115 40.0553 189.171 40.0553H188.773ZM188.422 39.1497C188.259 39.3045 188.087 39.448 187.905 39.5794C187.951 39.6395 188.006 39.6949 188.057 39.7457C188.14 39.8243 188.228 39.889 188.32 39.9398L188.385 39.9075C188.478 39.852 188.57 39.7735 188.648 39.6764C188.565 39.5286 188.491 39.353 188.422 39.1497ZM191.795 35.0651H191.157L191.051 35.0697L191.005 35.1714C190.544 36.1847 189.991 37.153 189.351 38.0639C189.083 38.8817 188.889 39.3807 188.648 39.6718C188.75 39.8474 188.87 39.9721 189.013 40.023H189.032L189.05 40.0137H189.06L189.078 40.0091H189.087L189.111 39.9999L189.124 39.9952L189.134 39.9906L189.147 39.986L189.161 39.9814L189.189 39.9721H189.194L189.212 39.9629H189.221L189.277 39.9352H189.281L189.369 39.889C190.289 39.3807 190.755 37.648 192.202 35.0651H191.795ZM183.802 35.1806H183.825L183.862 35.1853L183.889 35.1945H183.899L183.959 35.2084L183.986 35.2176H183.991C184.002 35.2203 184.013 35.2233 184.023 35.2268L184.046 35.2361H184.056L184.074 35.2453L184.083 35.2499L184.106 35.2592L184.12 35.2638L184.134 35.273H184.148L184.162 35.2823C184.264 35.3331 184.356 35.4024 184.444 35.481C184.475 35.4477 184.509 35.4168 184.545 35.3886C184.33 35.2323 184.066 35.1586 183.802 35.1806Z" fill="#1384C8"/>
<path fill-rule="evenodd" clip-rule="evenodd" d="M184.448 35.481C184.495 35.5272 184.55 35.5872 184.596 35.6473C184.642 35.6103 184.689 35.5826 184.735 35.5549C184.677 35.4942 184.613 35.4385 184.545 35.3886C184.508 35.4163 184.476 35.444 184.444 35.481M183.801 35.1806L183.889 35.176C184.139 35.176 184.351 35.2546 184.545 35.3886C184.749 35.2315 184.989 35.1714 185.331 35.1714H183.691L183.801 35.1806Z" fill="#1384C8"/>
<path fill-rule="evenodd" clip-rule="evenodd" d="M185.326 35.1714C184.989 35.1714 184.749 35.2315 184.541 35.3885C184.61 35.4348 184.679 35.4902 184.739 35.5503C185.017 35.3747 185.294 35.2546 185.571 35.2037C185.677 35.1852 185.779 35.1714 185.881 35.1714H185.326ZM189.346 38.0685C189.494 37.6157 189.66 37.0704 189.868 36.4051C190.053 35.8136 190.386 35.3654 191.005 35.1714L191.051 35.0697C190.044 35.1344 189.573 35.6473 189.332 36.4097C188.916 37.7358 188.667 38.5998 188.422 39.1451C188.761 38.8125 189.07 38.4507 189.346 38.0638" fill="#1384C8"/>
</g>
<path d="M180.511 54.2163H181.455V55.1664H180.511V54.2163ZM183.296 50.9441H183.924L185.637 54.4337H185.668L185.588 53.5768V50.9441H186.109V55.1664H185.476L183.768 51.6768H183.737L183.818 52.5336V55.1664H183.296V50.9441ZM187.274 50.9441H189.615V51.4284H187.808V52.7261H189.379V53.2105H187.808V54.682H189.739V55.1664H187.274V50.9441ZM191.879 51.4346H190.736V50.9441H193.562V51.4346H192.413V55.1664H191.879V51.4346Z" fill="#797B86"/>
</g>
<g opacity="0.4">
<g clip-path="url(#clip7_798_22674)">
<path fill-rule="evenodd" clip-rule="evenodd" d="M223.127 36.7726H222.65L222.39 38.1108H222.814C223.095 38.1108 223.304 38.0574 223.441 37.9519C223.579 37.846 223.672 37.6697 223.719 37.4219C223.766 37.1842 223.745 37.0168 223.657 36.9189C223.568 36.8215 223.392 36.7726 223.127 36.7726Z" fill="#6181B6"/>
<path d="M225.649 34.4887C222.3 34.4887 219.585 35.9171 219.585 37.6786C219.585 39.4402 222.3 40.869 225.649 40.869C228.999 40.869 231.714 39.4406 231.714 37.6786C231.714 35.9167 228.999 34.4887 225.649 34.4887ZM224.002 38.2544C223.87 38.3804 223.712 38.4754 223.539 38.5325C223.369 38.5871 223.152 38.6154 222.889 38.6154H222.292L222.127 39.4652H221.43L222.052 36.2681H223.391C223.794 36.2681 224.088 36.3736 224.272 36.5854C224.458 36.7969 224.513 37.092 224.439 37.4708C224.411 37.6208 224.359 37.7656 224.285 37.899C224.21 38.0317 224.114 38.1516 224.001 38.2544H224.002ZM226.035 38.6154L226.31 37.2012C226.342 37.0403 226.33 36.9303 226.276 36.8721C226.221 36.8134 226.106 36.7839 225.928 36.7839H225.376L225.021 38.6162H224.329L224.951 35.4186H225.642L225.477 36.2689H226.092C226.48 36.2689 226.747 36.3364 226.894 36.471C227.041 36.6056 227.085 36.8252 227.026 37.128L226.737 38.6158H226.035V38.6154ZM229.875 37.4712C229.847 37.6212 229.795 37.7657 229.721 37.899C229.646 38.0317 229.55 38.1516 229.437 38.2544C229.305 38.3803 229.147 38.4753 228.974 38.5325C228.804 38.5871 228.587 38.6154 228.324 38.6154H227.727L227.562 39.4656H226.866L227.488 36.2685H228.827C229.229 36.2685 229.523 36.3744 229.708 36.5858C229.893 36.7969 229.949 37.092 229.875 37.4712Z" fill="#6181B6"/>
<path fill-rule="evenodd" clip-rule="evenodd" d="M228.563 36.7726H228.087L227.826 38.1108H228.25C228.531 38.1108 228.741 38.0574 228.878 37.9519C229.015 37.846 229.107 37.6697 229.156 37.4219C229.202 37.1842 229.181 37.0168 229.093 36.9189C229.005 36.8215 228.828 36.7726 228.563 36.7726Z" fill="#6181B6"/>
</g>
<path d="M221.14 50.9255C221.616 50.9255 221.98 50.9648 222.232 51.0434C222.485 51.1221 222.665 51.2566 222.773 51.447C222.88 51.6375 222.934 51.9107 222.934 52.2667C222.934 52.5978 222.886 52.8565 222.791 53.0428C222.7 53.2249 222.545 53.3553 222.326 53.434C222.11 53.5126 221.804 53.552 221.407 53.552H220.86V55.1664H220.326V50.9441L221.14 50.9255ZM221.351 53.0614C221.624 53.0614 221.835 53.0366 221.984 52.9869C222.137 52.9372 222.245 52.8545 222.307 52.7386C222.373 52.6185 222.406 52.4509 222.406 52.2356C222.406 52.0162 222.371 51.8486 222.301 51.7327C222.235 51.6126 222.119 51.5298 221.953 51.4843C221.792 51.4346 221.556 51.4098 221.245 51.4098H220.86V53.0614H221.351ZM223.857 50.9441H224.391V52.7199H226.08V50.9441H226.614V55.1664H226.08V53.2105H224.391V55.1664H223.857V50.9441ZM228.586 50.9255C229.062 50.9255 229.426 50.9648 229.679 51.0434C229.931 51.1221 230.111 51.2566 230.219 51.447C230.326 51.6375 230.38 51.9107 230.38 52.2667C230.38 52.5978 230.333 52.8565 230.237 53.0428C230.146 53.2249 229.991 53.3553 229.772 53.434C229.557 53.5126 229.25 53.552 228.853 53.552H228.306V55.1664H227.772V50.9441L228.586 50.9255ZM228.797 53.0614C229.07 53.0614 229.281 53.0366 229.43 52.9869C229.583 52.9372 229.691 52.8545 229.753 52.7386C229.819 52.6185 229.853 52.4509 229.853 52.2356C229.853 52.0162 229.817 51.8486 229.747 51.7327C229.681 51.6126 229.565 51.5298 229.399 51.4843C229.238 51.4346 229.002 51.4098 228.691 51.4098H228.306V53.0614H228.797Z" fill="#797B86"/>
</g>
<g opacity="0.4">
<g clip-path="url(#clip8_798_22674)">
<path fill-rule="evenodd" clip-rule="evenodd" d="M267.413 39.2365L261.718 42.6185L269.092 42.118L269.66 34.6819L267.413 39.2365Z" fill="url(#paint1_linear_798_22674)"/>
<path fill-rule="evenodd" clip-rule="evenodd" d="M269.104 42.1129L268.471 37.7381L266.744 40.0179L269.104 42.1129Z" fill="url(#paint2_linear_798_22674)"/>
<path fill-rule="evenodd" clip-rule="evenodd" d="M269.113 42.1129L264.469 41.7484L261.742 42.6089L269.113 42.1129Z" fill="url(#paint3_linear_798_22674)"/>
<path fill-rule="evenodd" clip-rule="evenodd" d="M261.749 42.6099L262.909 38.8095L260.356 39.3553L261.749 42.6099Z" fill="url(#paint4_linear_798_22674)"/>
<path fill-rule="evenodd" clip-rule="evenodd" d="M266.744 40.0305L265.676 35.8495L262.622 38.7128L266.744 40.0305Z" fill="url(#paint5_linear_798_22674)"/>
<path fill-rule="evenodd" clip-rule="evenodd" d="M269.418 35.9084L266.531 33.55L265.727 36.1495L269.418 35.9084Z" fill="url(#paint6_linear_798_22674)"/>
<path fill-rule="evenodd" clip-rule="evenodd" d="M268.068 32.7092L266.37 33.6477L265.298 32.6966L268.068 32.7092Z" fill="url(#paint7_linear_798_22674)"/>
<path fill-rule="evenodd" clip-rule="evenodd" d="M259.685 40.6301L260.396 39.3326L259.821 37.7869L259.685 40.6301Z" fill="url(#paint8_linear_798_22674)"/>
<path fill-rule="evenodd" clip-rule="evenodd" d="M259.782 37.7381L260.361 39.3805L262.877 38.816L265.75 36.1465L266.56 33.5716L265.284 32.6704L263.114 33.4825C262.43 34.1184 261.103 35.3767 261.056 35.4003C261.008 35.4245 260.18 36.9909 259.782 37.7381Z" fill="white"/>
<path fill-rule="evenodd" clip-rule="evenodd" d="M261.815 34.7876C263.297 33.3184 265.207 32.4503 265.941 33.19C266.673 33.9296 265.896 35.7271 264.414 37.1958C262.933 38.6645 261.046 39.5803 260.313 38.8407C259.58 38.1016 260.334 36.2563 261.815 34.7876Z" fill="url(#paint9_linear_798_22674)"/>
<path fill-rule="evenodd" clip-rule="evenodd" d="M261.749 42.6084L262.9 38.7959L266.722 40.0239C265.34 41.3199 263.803 42.4155 261.749 42.6084Z" fill="url(#paint10_linear_798_22674)"/>
<path fill-rule="evenodd" clip-rule="evenodd" d="M265.755 36.139L266.736 40.026C267.891 38.812 268.927 37.507 269.434 35.8928L265.755 36.139Z" fill="url(#paint11_linear_798_22674)"/>
<path fill-rule="evenodd" clip-rule="evenodd" d="M269.424 35.9124C269.817 34.7271 269.908 33.0268 268.056 32.7112L266.536 33.5505L269.424 35.9124Z" fill="url(#paint12_linear_798_22674)"/>
<path fill-rule="evenodd" clip-rule="evenodd" d="M259.685 40.613C259.739 42.5692 261.15 42.5983 261.751 42.6155L260.363 39.3724L259.685 40.613Z" fill="#9E1209"/>
<path fill-rule="evenodd" clip-rule="evenodd" d="M265.76 36.145C266.647 36.6903 268.435 37.7854 268.472 37.8055C268.528 37.8372 269.243 36.6006 269.405 35.9018L265.76 36.145Z" fill="url(#paint13_radial_798_22674)"/>
<path fill-rule="evenodd" clip-rule="evenodd" d="M262.898 38.7959L264.437 41.7645C265.347 41.2711 266.059 40.6699 266.712 40.0259L262.898 38.7959Z" fill="url(#paint14_radial_798_22674)"/>
<path fill-rule="evenodd" clip-rule="evenodd" d="M260.357 39.3764L260.139 41.9725C260.55 42.5344 261.116 42.5832 261.71 42.5394C261.28 41.4705 260.422 39.3331 260.357 39.3764Z" fill="url(#paint15_linear_798_22674)"/>
<path fill-rule="evenodd" clip-rule="evenodd" d="M266.527 33.557L269.584 33.986C269.421 33.2947 268.92 32.8486 268.066 32.7091L266.527 33.557Z" fill="url(#paint16_linear_798_22674)"/>
</g>
<path d="M257.738 49.1804L258.358 49.1617C258.884 49.1452 259.284 49.1721 259.557 49.2424C259.834 49.3087 260.027 49.4267 260.134 49.5964C260.246 49.762 260.306 50.0041 260.314 50.3229C260.323 50.5547 260.304 50.743 260.259 50.8879C260.213 51.0328 260.134 51.1445 260.023 51.2232C259.911 51.3018 259.756 51.3536 259.557 51.3784V51.4157C259.747 51.4488 259.886 51.5192 259.973 51.6268C260.06 51.7303 260.138 51.9124 260.209 52.1732L260.532 53.4026H259.942L259.669 52.1732C259.619 51.9455 259.532 51.7903 259.408 51.7075C259.284 51.6247 259.077 51.5833 258.787 51.5833H258.272V53.4026H257.738V49.1804ZM259.184 51.0866C259.416 51.0824 259.575 51.0266 259.662 50.9189C259.749 50.8113 259.793 50.6209 259.793 50.3477C259.793 50.1738 259.774 50.0434 259.737 49.9565C259.704 49.8654 259.642 49.7992 259.551 49.7578C259.464 49.7123 259.331 49.6792 259.153 49.6585C259 49.6419 258.87 49.6336 258.762 49.6336C258.654 49.6336 258.491 49.6419 258.272 49.6585V51.0928L259.184 51.0866ZM262.46 53.4647C262.195 53.4647 261.991 53.4295 261.846 53.3592C261.705 53.2846 261.603 53.1605 261.541 52.9866C261.483 52.8086 261.454 52.5582 261.454 52.2353V50.1614H261.976V52.2477C261.976 52.4423 261.995 52.5934 262.032 52.701C262.073 52.8086 262.14 52.8852 262.231 52.9307C262.322 52.9763 262.45 52.999 262.616 52.999C262.856 52.999 263.04 52.9638 263.168 52.8935C263.297 52.8231 263.388 52.7051 263.441 52.5395C263.499 52.374 263.528 52.1401 263.528 51.8379V50.1614H264.044V53.4026H263.528V52.9183H263.485C263.39 53.1253 263.27 53.2681 263.125 53.3467C262.98 53.4254 262.758 53.4647 262.46 53.4647ZM266.624 53.4647C266.409 53.4647 266.239 53.4357 266.115 53.3778C265.995 53.3198 265.875 53.2101 265.755 53.0487H265.712V53.4026H265.196L265.202 48.8823H265.718L265.712 50.5029H265.761C265.861 50.3415 265.97 50.2318 266.09 50.1738C266.215 50.1159 266.399 50.0869 266.643 50.0869C266.978 50.0869 267.237 50.1386 267.419 50.2421C267.601 50.3415 267.73 50.5112 267.804 50.7513C267.883 50.9872 267.922 51.3267 267.922 51.7696C267.922 52.2167 267.883 52.5602 267.804 52.8003C267.725 53.0404 267.593 53.2122 267.407 53.3157C267.225 53.415 266.964 53.4647 266.624 53.4647ZM266.513 52.999C266.744 52.999 266.922 52.9618 267.047 52.8873C267.171 52.8127 267.26 52.6886 267.314 52.5147C267.367 52.3408 267.394 52.0925 267.394 51.7696C267.394 51.4509 267.367 51.2046 267.314 51.0307C267.26 50.8568 267.171 50.7347 267.047 50.6644C266.922 50.5898 266.744 50.5526 266.513 50.5526C266.297 50.5526 266.132 50.5898 266.016 50.6644C265.904 50.7347 265.823 50.8568 265.774 51.0307C265.724 51.2046 265.699 51.4509 265.699 51.7696C265.699 52.0925 265.724 52.3429 265.774 52.5209C265.823 52.6948 265.904 52.819 266.016 52.8935C266.132 52.9638 266.297 52.999 266.513 52.999ZM270.08 53.1667H269.832L268.752 50.1614H269.279L270.205 52.7941H270.217L271.111 50.1614H271.639L270.037 54.7749H269.515L270.08 53.1667Z" fill="#797B86"/>
</g>
<g opacity="0.3">
<g clip-path="url(#clip9_798_22674)">
<path d="M298.734 32.6704H308.682V42.6187H298.734" fill="#62636C"/>
<path d="M306.044 38.6646C306.051 38.6374 306.061 38.6083 306.067 38.5811C306.376 37.3531 305.624 35.9017 304.351 35.1381C304.909 35.8939 305.156 36.8091 304.936 37.6096C304.917 37.6815 304.893 37.7495 304.868 37.8155C304.841 37.7961 304.804 37.7767 304.757 37.7495C304.757 37.7495 303.493 36.9684 302.121 35.585C302.084 35.548 302.851 36.6828 303.724 37.6018C303.314 37.3706 302.169 36.539 301.447 35.8764C301.536 36.0241 301.641 36.1679 301.757 36.3058C302.362 37.0733 303.151 38.0195 304.095 38.7443C303.43 39.1504 302.494 39.1815 301.559 38.7443C301.328 38.6355 301.11 38.5053 300.91 38.3576C301.305 38.9891 301.915 39.5351 302.655 39.8537C303.539 40.2326 304.417 40.2074 305.072 39.8596C305.076 39.8576 305.078 39.8557 305.082 39.8537C305.109 39.8394 305.135 39.8245 305.162 39.8091C305.476 39.6458 306.096 39.4807 306.43 40.1297C306.512 40.289 306.685 39.4477 306.048 38.6627L306.044 38.6646Z" fill="white"/>
</g>
<path d="M296.071 53.4461C295.686 53.4461 295.392 53.413 295.189 53.3468C294.986 53.2806 294.842 53.1667 294.755 53.0053C294.672 52.8397 294.63 52.6038 294.63 52.2974H295.171C295.187 52.4796 295.224 52.6182 295.282 52.7135C295.34 52.8045 295.429 52.8708 295.549 52.9122C295.674 52.9494 295.852 52.9701 296.083 52.9742C296.319 52.9784 296.501 52.9639 296.63 52.9308C296.758 52.8935 296.851 52.8314 296.909 52.7445C296.967 52.6576 296.996 52.5293 296.996 52.3595C296.996 52.1857 296.963 52.0449 296.897 51.9373C296.831 51.8297 296.719 51.7345 296.562 51.6517C296.404 51.5648 296.172 51.4737 295.866 51.3785C295.539 51.275 295.291 51.1736 295.121 51.0742C294.955 50.9707 294.837 50.8486 294.767 50.7079C294.697 50.563 294.661 50.3726 294.661 50.1366C294.661 49.8676 294.703 49.6627 294.786 49.5219C294.868 49.377 295.007 49.2756 295.202 49.2177C295.4 49.1556 295.682 49.1245 296.046 49.1245C296.402 49.1245 296.675 49.1535 296.866 49.2115C297.056 49.2694 297.193 49.3688 297.276 49.5095C297.363 49.6502 297.414 49.8552 297.431 50.1242H296.897C296.88 49.9793 296.845 49.8696 296.791 49.7951C296.737 49.7206 296.653 49.6689 296.537 49.6399C296.425 49.6109 296.266 49.5964 296.059 49.5964C295.827 49.5964 295.647 49.6151 295.518 49.6523C295.394 49.6854 295.305 49.7413 295.251 49.82C295.202 49.8945 295.177 50.0021 295.177 50.1428C295.177 50.2836 295.21 50.3995 295.276 50.4906C295.342 50.5816 295.454 50.6665 295.612 50.7451C295.769 50.8196 296.007 50.9107 296.326 51.0183C296.644 51.1301 296.886 51.2398 297.052 51.3474C297.222 51.4551 297.34 51.5875 297.406 51.7448C297.476 51.898 297.512 52.105 297.512 52.3657C297.512 52.6514 297.468 52.8708 297.381 53.0239C297.298 53.1771 297.156 53.2868 296.953 53.353C296.75 53.4151 296.456 53.4461 296.071 53.4461ZM300.334 53.4027L299.813 50.7389H299.782L299.254 53.4027H298.689L297.993 50.1553H298.54L298.956 52.7818H299.012L299.527 50.1615H300.067L300.576 52.7818H300.632L301.048 50.1553H301.595L300.899 53.4027H300.334ZM303.207 48.8824H303.921V49.5902H303.207V48.8824ZM302.356 52.9432H303.405V50.6147H302.418V50.1615H303.915V52.9432H304.92V53.3965H302.356V52.9432ZM306.818 50.652H306.011L305.862 50.1615H306.818V49.7144C306.818 49.4371 306.868 49.228 306.967 49.0873C307.066 48.9465 307.234 48.8513 307.47 48.8017C307.71 48.752 308.056 48.7375 308.507 48.7582V49.2177C308.192 49.2053 307.95 49.2135 307.78 49.2425C307.611 49.2673 307.491 49.3191 307.42 49.3977C307.354 49.4764 307.321 49.5902 307.321 49.7392V50.1615H308.445V50.652H307.321V53.4027H306.818V50.652ZM311.348 53.471C311.083 53.471 310.885 53.4358 310.752 53.3654C310.62 53.2951 310.531 53.1874 310.485 53.0425C310.44 52.8977 310.417 52.6928 310.417 52.4278V50.621H309.579L309.703 50.1615H310.442V49.435L310.926 49.2301V50.1615H312.062V50.621H310.926V52.403C310.926 52.5479 310.941 52.6617 310.97 52.7445C311.003 52.8273 311.063 52.8915 311.15 52.937C311.241 52.9784 311.375 52.9991 311.553 52.9991C311.711 52.9991 311.926 52.9805 312.199 52.9432V53.4027C311.835 53.4482 311.551 53.471 311.348 53.471Z" fill="#797B86"/>
</g>
<g opacity="0.3">
<path d="M343.231 33.3217L342.899 32.776C342.828 32.6574 342.686 32.6574 342.615 32.776L342.283 33.3217M342.283 42.005L342.615 42.5507C342.686 42.6693 342.828 42.6693 342.899 42.5507L343.231 42.005" fill="#B2B3BD"/>
<path d="M344.069 33.4977L343.85 32.8977C343.803 32.7675 343.664 32.7397 343.571 32.8422L343.139 33.3126M341.445 41.829L341.664 42.429C341.711 42.5592 341.85 42.587 341.943 42.4845L342.375 42.0142" fill="#B2B3BD"/>
<path d="M344.857 33.8338L344.759 33.2026C344.739 33.0657 344.607 33.0113 344.496 33.0936L343.98 33.4706M340.657 41.493L340.755 42.1242C340.776 42.261 340.907 42.3155 341.018 42.2332L341.534 41.8561" fill="#B2B3BD"/>
<path d="M345.564 34.317L345.591 33.6788C345.597 33.5406 345.479 33.4615 345.354 33.5206L344.775 33.7898M339.95 41.0097L339.923 41.6479C339.917 41.7861 340.035 41.8652 340.16 41.8061L340.739 41.5369" fill="#B2B3BD"/>
<path d="M346.163 34.9289L346.314 34.3082C346.347 34.174 346.246 34.0733 346.112 34.1069L345.492 34.2578M339.351 40.3979L339.201 41.0186C339.167 41.1528 339.268 41.2534 339.402 41.2199L340.023 41.0689" fill="#B2B3BD"/>
<path d="M346.631 35.6458L346.9 35.0665C346.959 34.9414 346.88 34.823 346.742 34.8297L346.103 34.8567M338.883 39.6809L338.614 40.2602C338.555 40.3853 338.634 40.5037 338.772 40.497L339.411 40.47" fill="#B2B3BD"/>
<path d="M346.95 36.4403L347.327 35.9246C347.409 35.8134 347.355 35.6819 347.218 35.6616L346.587 35.5635M338.564 38.8865L338.187 39.4022C338.105 39.5133 338.159 39.6448 338.296 39.6652L338.927 39.7632" fill="#B2B3BD"/>
<path d="M347.108 37.2817L347.578 36.8495C347.681 36.7566 347.653 36.617 347.523 36.5703L346.923 36.351M338.406 38.045L337.936 38.4772C337.833 38.5702 337.861 38.7098 337.991 38.7565L338.591 38.9758" fill="#B2B3BD"/>
<path d="M347.099 38.1379L347.644 37.8057C347.763 37.7345 347.763 37.5922 347.644 37.521L347.099 37.1889M338.415 37.1889L337.87 37.521C337.751 37.5922 337.751 37.7345 337.87 37.8057L338.415 38.1379" fill="#B2B3BD"/>
<path d="M346.923 38.9758L347.523 38.7565C347.653 38.7098 347.681 38.5702 347.578 38.4772L347.108 38.045M338.591 36.351L337.991 36.5703C337.861 36.617 337.833 36.7566 337.936 36.8495L338.406 37.2817" fill="#B2B3BD"/>
<path d="M346.587 39.7632L347.218 39.6652C347.355 39.6448 347.409 39.5133 347.327 39.4022L346.95 38.8865M338.927 35.5635L338.296 35.6616C338.159 35.6819 338.105 35.8134 338.187 35.9246L338.564 36.4403" fill="#B2B3BD"/>
<path d="M346.103 40.47L346.742 40.497C346.88 40.5037 346.959 40.3853 346.9 40.2603L346.631 39.6809M339.411 34.8567L338.772 34.8298C338.634 34.823 338.555 34.9414 338.614 35.0665L338.883 35.6458" fill="#B2B3BD"/>
<path d="M345.492 41.0689L346.112 41.2199C346.246 41.2534 346.347 41.1528 346.314 41.0186L346.163 40.3979M340.023 34.2578L339.402 34.1069C339.268 34.0733 339.167 34.174 339.201 34.3082L339.352 34.9289" fill="#B2B3BD"/>
<path d="M344.775 41.5369L345.354 41.8061C345.479 41.8652 345.597 41.7861 345.591 41.6479L345.564 41.0097M340.739 33.7898L340.16 33.5206C340.035 33.4615 339.917 33.5406 339.923 33.6788L339.95 34.317" fill="#B2B3BD"/>
<path d="M343.98 41.8561L344.496 42.2331C344.607 42.3155 344.738 42.261 344.759 42.1242L344.857 41.493M341.534 33.4706L341.018 33.0936C340.907 33.0112 340.776 33.0657 340.755 33.2026L340.657 33.8338" fill="#B2B3BD"/>
<path d="M343.139 42.0142L343.571 42.4846C343.664 42.587 343.803 42.5592 343.85 42.429L344.069 41.829M342.375 33.3126L341.943 32.8422C341.85 32.7397 341.711 32.7675 341.664 32.8977L341.445 33.4977" fill="#B2B3BD"/>
<path d="M340.361 33.8437C339.472 34.4013 338.806 35.2514 338.477 36.2474C338.148 37.2435 338.176 38.3231 338.558 39.3004L339.317 38.9208C339.115 38.3672 339.05 37.773 339.127 37.1889L339.72 36.8804C339.863 36.8093 339.934 36.6669 339.839 36.5246L339.578 35.9077C339.901 35.3045 340.386 34.8033 340.978 34.4605M338.89 36.4059C339.009 36.0263 339.578 36.2399 339.459 36.5957C339.341 36.9516 338.771 36.7855 338.89 36.4059Z" fill="#B2B3BD"/>
<path d="M345.649 34.2041C344.844 33.5314 343.83 33.1605 342.781 33.1552C341.732 33.15 340.714 33.5108 339.902 34.1755L340.498 34.7802C340.962 34.417 341.507 34.1715 342.087 34.0645L342.563 34.5333C342.675 34.6467 342.832 34.6704 342.938 34.5361L343.444 34.0973C344.118 34.218 344.744 34.5241 345.253 34.9814M342.758 33.5969C343.156 33.5925 343.128 34.2 342.753 34.1971C342.378 34.1943 342.36 33.6014 342.758 33.5969Z" fill="#B2B3BD"/>
<path d="M346.941 39.3451C347.332 38.3717 347.371 37.2924 347.052 36.2931C346.733 35.2938 346.075 34.4372 345.192 33.8707L344.801 34.624C345.29 34.9531 345.692 35.3956 345.973 35.9136L345.674 36.5118C345.601 36.653 345.627 36.81 345.787 36.8694L346.361 37.2151C346.454 37.8929 346.357 38.5833 346.079 39.2086M346.625 36.4076C346.752 36.7844 346.166 36.9463 346.052 36.5887C345.939 36.2311 346.498 36.0307 346.625 36.4076Z" fill="#B2B3BD"/>
<path d="M342.45 42.162C343.497 42.2332 344.536 41.937 345.387 41.3247C346.239 40.7123 346.851 39.822 347.117 38.8073L346.279 38.6681C346.117 39.2347 345.821 39.7537 345.415 40.1809L344.754 40.0817C344.597 40.0557 344.455 40.129 344.448 40.2999L344.297 40.9524C343.681 41.2506 342.994 41.3712 342.314 41.3004M345.146 40.9537C344.827 41.1911 344.492 40.6837 344.797 40.4655C345.103 40.2473 345.466 40.7163 345.146 40.9537Z" fill="#B2B3BD"/>
<path d="M338.384 38.7619C338.64 39.7793 339.242 40.6756 340.088 41.2964C340.933 41.9172 341.969 42.2237 343.016 42.163L342.89 41.3237C342.301 41.3447 341.716 41.223 341.184 40.969L341.074 40.3096C341.05 40.1522 340.937 40.0405 340.772 40.0868L340.105 40.1444C339.631 39.6509 339.304 39.035 339.161 38.3659M340.366 40.9527C340.042 40.7226 340.421 40.247 340.723 40.4698C341.024 40.6926 340.691 41.1828 340.366 40.9527Z" fill="#B2B3BD"/>
<path d="M345.96 37.9006C345.96 37.9006 346.055 38.6598 345.533 38.6598C345.011 38.6598 345.39 38.0904 344.513 37.4498C344.513 37.4498 345.248 37.1414 345.248 36.3348C345.248 35.5281 344.299 35.196 343.896 35.196H339.459V36.2873H340.29V38.6361H339.056V39.7986H342.852V38.6598H341.927V37.9955H342.876C343.848 37.9955 343.184 39.7986 344.299 39.7986H346.648V37.9006M341.927 36.9991V36.2873H343.208C343.73 36.2873 343.753 36.9991 343.208 36.9991" fill="#B2B3BD"/>
<path d="M335.796 49.1804L336.417 49.1618C336.943 49.1452 337.342 49.1721 337.615 49.2425C337.893 49.3087 338.085 49.4267 338.193 49.5964C338.305 49.762 338.365 50.0042 338.373 50.3229C338.381 50.5547 338.363 50.7431 338.317 50.8879C338.271 51.0328 338.193 51.1446 338.081 51.2232C337.969 51.3019 337.814 51.3536 337.615 51.3785V51.4157C337.806 51.4488 337.944 51.5192 338.031 51.6268C338.118 51.7303 338.197 51.9125 338.267 52.1733L338.59 53.4027H338L337.727 52.1733C337.677 51.9456 337.591 51.7904 337.466 51.7076C337.342 51.6248 337.135 51.5834 336.845 51.5834H336.33V53.4027H335.796V49.1804ZM337.243 51.0866C337.475 51.0825 337.634 51.0266 337.721 50.919C337.808 50.8114 337.851 50.621 337.851 50.3477C337.851 50.1739 337.833 50.0435 337.795 49.9566C337.762 49.8655 337.7 49.7993 337.609 49.7579C337.522 49.7123 337.39 49.6792 337.212 49.6585C337.059 49.642 336.928 49.6337 336.821 49.6337C336.713 49.6337 336.549 49.642 336.33 49.6585V51.0929L337.243 51.0866ZM340.519 53.4648C340.254 53.4648 340.049 53.4296 339.904 53.3592C339.763 53.2847 339.662 53.1605 339.6 52.9867C339.542 52.8087 339.513 52.5582 339.513 52.2353V50.1615H340.035V52.2478C340.035 52.4423 340.053 52.5934 340.09 52.701C340.132 52.8087 340.198 52.8852 340.289 52.9308C340.38 52.9763 340.509 52.9991 340.674 52.9991C340.914 52.9991 341.098 52.9639 341.227 52.8935C341.355 52.8232 341.446 52.7052 341.5 52.5396C341.558 52.374 341.587 52.1401 341.587 51.838V50.1615H342.102V53.4027H341.587V52.9184H341.543C341.448 53.1253 341.328 53.2681 341.183 53.3468C341.038 53.4254 340.817 53.4648 340.519 53.4648ZM344.552 53.4648C344.205 53.4648 343.936 53.4358 343.745 53.3778C343.555 53.3199 343.42 53.2205 343.342 53.0798C343.263 52.9391 343.224 52.7404 343.224 52.4837H343.751C343.76 52.6203 343.789 52.7259 343.838 52.8004C343.892 52.8708 343.973 52.9225 344.081 52.9556C344.192 52.9846 344.35 53.0012 344.552 53.0053C344.755 53.0094 344.91 52.997 345.018 52.968C345.13 52.9391 345.209 52.8915 345.254 52.8252C345.304 52.759 345.329 52.6617 345.329 52.5334C345.329 52.4216 345.3 52.3306 345.242 52.2602C345.188 52.1857 345.095 52.1236 344.962 52.0739C344.83 52.0201 344.639 51.9684 344.391 51.9187C344.097 51.8607 343.869 51.7945 343.708 51.72C343.551 51.6455 343.437 51.5523 343.366 51.4406C343.3 51.3247 343.267 51.1756 343.267 50.9935C343.267 50.7534 343.304 50.5692 343.379 50.4409C343.458 50.3126 343.586 50.2215 343.764 50.1677C343.946 50.1097 344.205 50.0808 344.54 50.0808C344.855 50.0808 345.097 50.1056 345.266 50.1553C345.436 50.2049 345.56 50.2919 345.639 50.416C345.718 50.5361 345.763 50.7079 345.776 50.9314H345.26C345.24 50.7783 345.177 50.6748 345.074 50.621C344.971 50.5671 344.79 50.5402 344.534 50.5402C344.335 50.5402 344.182 50.5547 344.074 50.5837C343.967 50.6085 343.89 50.6541 343.845 50.7203C343.799 50.7865 343.776 50.8797 343.776 50.9997C343.776 51.0701 343.805 51.1322 343.863 51.186C343.925 51.2398 344.027 51.2936 344.167 51.3474C344.308 51.3971 344.509 51.4551 344.77 51.5213C345.055 51.5917 345.275 51.6682 345.428 51.751C345.581 51.8338 345.689 51.9352 345.751 52.0553C345.813 52.1753 345.844 52.3306 345.844 52.521C345.844 52.7693 345.805 52.9618 345.726 53.0984C345.647 53.2309 345.517 53.3261 345.335 53.3841C345.153 53.4379 344.892 53.4648 344.552 53.4648ZM348.654 53.471C348.389 53.471 348.191 53.4358 348.058 53.3654C347.926 53.2951 347.837 53.1874 347.791 53.0425C347.746 52.8977 347.723 52.6928 347.723 52.4278V50.621H346.885L347.009 50.1615H347.748V49.435L348.232 49.2301V50.1615H349.368V50.621H348.232V52.403C348.232 52.5479 348.247 52.6617 348.276 52.7445C348.309 52.8273 348.369 52.8915 348.456 52.937C348.547 52.9784 348.681 52.9991 348.859 52.9991C349.016 52.9991 349.232 52.9805 349.505 52.9432V53.4027C349.141 53.4482 348.857 53.471 348.654 53.471Z" fill="#797B86"/>
</g>
<path fill-rule="evenodd" clip-rule="evenodd" d="M1 61.8593L372.24 61.8593L372.24 62.3029L1 62.3028L1 61.8593Z" fill="black" fill-opacity="0.1"/>
<g opacity="0.9">
<rect width="371.24" height="102.174" transform="translate(1 62.3029)" fill="white" fill-opacity="0.05"/>
<path opacity="0.9" d="M10.2393 79.8692C9.81827 79.8692 9.49185 79.8337 9.26004 79.7627C9.03296 79.687 8.86974 79.5617 8.7704 79.3866C8.67578 79.2069 8.62611 78.9538 8.62137 78.6273H9.15359C9.18198 78.8166 9.23165 78.9632 9.30261 79.0673C9.37358 79.1714 9.48238 79.2471 9.62904 79.2944C9.7757 79.337 9.97912 79.3606 10.2393 79.3653C10.5184 79.3701 10.7337 79.3512 10.8851 79.3086C11.0365 79.266 11.1429 79.195 11.2044 79.0957C11.2706 78.9916 11.3038 78.8473 11.3038 78.6628C11.3038 78.4972 11.2635 78.3577 11.1831 78.2441C11.1074 78.1306 10.9773 78.0265 10.7928 77.9319C10.6083 77.8373 10.3481 77.7403 10.0122 77.641C9.65743 77.5321 9.38304 77.4233 9.18907 77.3145C8.99511 77.201 8.85792 77.0709 8.77749 76.9242C8.69707 76.7729 8.65686 76.5836 8.65686 76.3565C8.65686 76.0538 8.7018 75.8196 8.79168 75.654C8.8863 75.4884 9.04478 75.3725 9.26713 75.3063C9.48948 75.2353 9.80408 75.1999 10.2109 75.1999C10.5941 75.1999 10.8922 75.233 11.1051 75.2992C11.3179 75.3654 11.4717 75.4766 11.5663 75.6327C11.6657 75.7841 11.7248 76.0017 11.7437 76.2856H11.1831C11.1642 76.1295 11.1216 76.0112 11.0554 75.9308C10.9892 75.8456 10.8874 75.7865 10.7502 75.7534C10.6178 75.7155 10.4309 75.6966 10.1896 75.6966C9.92472 75.6966 9.71893 75.7179 9.57227 75.7605C9.43035 75.7983 9.32863 75.8669 9.26713 75.9662C9.21036 76.0656 9.18198 76.2052 9.18198 76.3849C9.18198 76.4985 9.22219 76.6002 9.30261 76.6901C9.38304 76.7799 9.51787 76.8698 9.7071 76.9597C9.89633 77.0449 10.1636 77.1419 10.509 77.2507C10.8543 77.3642 11.1193 77.4801 11.3038 77.5984C11.493 77.7167 11.6278 77.8586 11.7082 78.0242C11.7887 78.185 11.8289 78.3955 11.8289 78.6557C11.8289 78.9727 11.7816 79.2187 11.687 79.3937C11.5923 79.564 11.4315 79.687 11.2044 79.7627C10.9773 79.8337 10.6556 79.8692 10.2393 79.8692ZM10.0051 74.5328H10.4664L10.4664 80.6072H10.0051L10.0051 74.5328ZM17.252 76.243H17.848V76.7823H17.8977C18.0018 76.5363 18.1319 76.3707 18.288 76.2856C18.4489 76.1957 18.6901 76.1507 19.0118 76.1507C19.3241 76.1507 19.5653 76.1933 19.7356 76.2785C19.9059 76.3636 20.0266 76.5079 20.0975 76.7113C20.1732 76.91 20.2111 77.1939 20.2111 77.5629V79.9472H19.6221V77.5487C19.6221 77.3264 19.5961 77.1537 19.544 77.0307C19.4967 76.9077 19.4163 76.8225 19.3028 76.7752C19.194 76.7232 19.0355 76.6972 18.8273 76.6972C18.5719 76.6972 18.3732 76.7374 18.2312 76.8178C18.094 76.8982 17.9947 77.033 17.9332 77.2223C17.8764 77.4068 17.848 77.6717 17.848 78.0171V79.9472H17.252V76.243ZM21.5069 76.243H22.0959V76.6262H22.1456C22.2828 76.4417 22.42 76.3163 22.5572 76.2501C22.6991 76.1839 22.8931 76.1507 23.1391 76.1507C23.527 76.1507 23.825 76.2099 24.0332 76.3282C24.2461 76.4417 24.3975 76.6357 24.4873 76.91C24.5772 77.1844 24.6222 77.5771 24.6222 78.088C24.6222 78.5942 24.5772 78.9845 24.4873 79.2589C24.4022 79.5333 24.2555 79.7296 24.0474 79.8479C23.8392 79.9614 23.5412 80.0182 23.1533 80.0182C22.8789 80.0182 22.6707 79.9851 22.5288 79.9189C22.3916 79.8526 22.2662 79.7273 22.1527 79.5427H22.0959V81.4729H21.5069V76.243ZM23.0113 79.486C23.2763 79.486 23.4797 79.4458 23.6216 79.3653C23.7635 79.2802 23.8652 79.1383 23.9267 78.9396C23.9882 78.7361 24.019 78.4523 24.019 78.088C24.019 77.719 23.9882 77.4352 23.9267 77.2365C23.8652 77.0378 23.7635 76.8959 23.6216 76.8107C23.4797 76.7255 23.2763 76.683 23.0113 76.683C22.7653 76.683 22.5761 76.7255 22.4436 76.8107C22.3159 76.8911 22.2236 77.033 22.1669 77.2365C22.1101 77.4352 22.0817 77.719 22.0817 78.088C22.0817 78.457 22.1101 78.7409 22.1669 78.9396C22.2236 79.1383 22.3159 79.2802 22.4436 79.3653C22.5761 79.4458 22.7653 79.486 23.0113 79.486ZM25.4426 76.243H25.9748V76.7184H26.0245C26.1049 76.5056 26.1948 76.3589 26.2941 76.2785C26.3935 76.1981 26.5354 76.1578 26.7199 76.1578C26.9328 76.1578 27.096 76.2004 27.2095 76.2856C27.3231 76.366 27.4059 76.5103 27.4579 76.7184H27.4934C27.5785 76.5008 27.6732 76.3542 27.7772 76.2785C27.886 76.1981 28.0398 76.1578 28.2385 76.1578C28.4466 76.1578 28.6075 76.2004 28.721 76.2856C28.8393 76.3707 28.9221 76.5127 28.9694 76.7113C29.0167 76.91 29.0404 77.1892 29.0404 77.5487V79.9472H28.4798V77.6835C28.4798 77.4281 28.4656 77.2317 28.4372 77.0945C28.4135 76.9526 28.3662 76.8509 28.2953 76.7894C28.229 76.7279 28.1344 76.6972 28.0114 76.6972C27.8837 76.6972 27.7843 76.7303 27.7134 76.7965C27.6424 76.8627 27.5927 76.9739 27.5643 77.13C27.536 77.2814 27.5218 77.5014 27.5218 77.79V79.9472H26.9683L26.9825 77.6906C26.9872 77.3169 26.9493 77.0591 26.8689 76.9171C26.7932 76.7705 26.6655 76.6972 26.4857 76.6972C26.358 76.6972 26.2586 76.7326 26.1877 76.8036C26.1214 76.8698 26.0718 76.9857 26.0387 77.1513C26.0103 77.3122 25.9961 77.5392 25.9961 77.8326V79.9472H25.4426V76.243ZM35.4001 74.7812H36.2162V75.5901H35.4001V74.7812ZM34.428 79.4221H35.6272V76.761H34.4989V76.243H36.2091V79.4221H37.3587V79.9401H34.428V79.4221ZM38.5268 76.243H39.1229V76.7823H39.1726C39.2766 76.5363 39.4067 76.3707 39.5629 76.2856C39.7237 76.1957 39.965 76.1507 40.2867 76.1507C40.5989 76.1507 40.8402 76.1933 41.0105 76.2785C41.1808 76.3636 41.3014 76.5079 41.3724 76.7113C41.4481 76.91 41.4859 77.1939 41.4859 77.5629V79.9472H40.897V77.5487C40.897 77.3264 40.8709 77.1537 40.8189 77.0307C40.7716 76.9077 40.6912 76.8225 40.5776 76.7752C40.4688 76.7232 40.3103 76.6972 40.1022 76.6972C39.8467 76.6972 39.648 76.7374 39.5061 76.8178C39.3689 76.8982 39.2696 77.033 39.2081 77.2223C39.1513 77.4068 39.1229 77.6717 39.1229 78.0171V79.9472H38.5268V76.243ZM44.272 80.0182C43.8746 80.0182 43.5671 79.9851 43.3495 79.9189C43.1319 79.8526 42.9781 79.7391 42.8882 79.5782C42.7983 79.4174 42.7534 79.1903 42.7534 78.897H43.3566C43.366 79.0531 43.3992 79.1737 43.4559 79.2589C43.5174 79.3393 43.6097 79.3985 43.7327 79.4363C43.8604 79.4694 44.0402 79.4883 44.272 79.4931C44.5038 79.4978 44.6812 79.4836 44.8042 79.4505C44.9319 79.4174 45.0218 79.363 45.0739 79.2873C45.1306 79.2116 45.159 79.1004 45.159 78.9538C45.159 78.826 45.1259 78.722 45.0597 78.6415C44.9982 78.5564 44.8917 78.4854 44.7403 78.4286C44.589 78.3671 44.3713 78.308 44.0875 78.2512C43.7516 78.185 43.4914 78.1093 43.3069 78.0242C43.1271 77.939 42.997 77.8326 42.9166 77.7048C42.8409 77.5724 42.8031 77.4021 42.8031 77.1939C42.8031 76.9195 42.8457 76.709 42.9308 76.5623C43.0207 76.4157 43.1673 76.3116 43.3708 76.2501C43.5789 76.1839 43.8746 76.1507 44.2578 76.1507C44.6173 76.1507 44.8941 76.1791 45.0881 76.2359C45.282 76.2927 45.424 76.392 45.5138 76.5339C45.6037 76.6711 45.6558 76.8675 45.67 77.1229H45.081C45.0573 76.9479 44.9864 76.8296 44.8681 76.7681C44.7498 76.7066 44.544 76.6759 44.2507 76.6759C44.0236 76.6759 43.8486 76.6924 43.7256 76.7255C43.6026 76.7539 43.5151 76.806 43.463 76.8817C43.411 76.9574 43.385 77.0638 43.385 77.201C43.385 77.2814 43.4181 77.3524 43.4843 77.4139C43.5553 77.4754 43.6712 77.5369 43.832 77.5984C43.9929 77.6551 44.2223 77.7214 44.5204 77.7971C44.8468 77.8775 45.0975 77.965 45.2726 78.0596C45.4476 78.1543 45.5706 78.2702 45.6416 78.4074C45.7125 78.5445 45.748 78.722 45.748 78.9396C45.748 79.2234 45.7031 79.4434 45.6132 79.5995C45.5233 79.7509 45.3743 79.8597 45.1661 79.9259C44.958 79.9874 44.6599 80.0182 44.272 80.0182ZM48.9598 80.0253C48.6571 80.0253 48.43 79.9851 48.2786 79.9047C48.1272 79.8242 48.0255 79.7012 47.9735 79.5357C47.9214 79.3701 47.8954 79.1359 47.8954 78.8331V76.7681H46.9374L47.0793 76.243H47.9238V75.4127L48.4773 75.1786V76.243H49.7759V76.7681H48.4773V78.8047C48.4773 78.9703 48.4939 79.1004 48.527 79.195C48.5648 79.2897 48.6334 79.363 48.7328 79.415C48.8368 79.4623 48.9906 79.486 49.194 79.486C49.3738 79.486 49.6198 79.4647 49.932 79.4221V79.9472C49.5157 79.9993 49.1916 80.0253 48.9598 80.0253ZM52.4129 80.0182C52.1102 80.0182 51.876 79.9851 51.7104 79.9189C51.5496 79.8526 51.4337 79.7414 51.3627 79.5853C51.2965 79.4292 51.2633 79.2069 51.2633 78.9183C51.2633 78.5777 51.313 78.3151 51.4124 78.1306C51.5117 77.9414 51.6773 77.8089 51.9091 77.7332C52.1456 77.6528 52.4792 77.6126 52.9097 77.6126H53.5767V77.4352C53.5767 77.2365 53.5507 77.0827 53.4987 76.9739C53.4514 76.8651 53.3662 76.787 53.2432 76.7397C53.1249 76.6924 52.9546 76.6688 52.7323 76.6688C52.4437 76.6688 52.2474 76.7066 52.1433 76.7823C52.0392 76.8533 51.9824 76.9928 51.973 77.201H51.3769C51.3769 76.9266 51.4171 76.7161 51.4975 76.5694C51.5779 76.418 51.7151 76.3116 51.9091 76.2501C52.1031 76.1839 52.3775 76.1507 52.7323 76.1507C53.1013 76.1507 53.3851 76.1886 53.5838 76.2643C53.7872 76.34 53.9292 76.4701 54.0096 76.6546C54.0947 76.8391 54.1373 77.0993 54.1373 77.4352V79.9472H53.598V79.4718H53.5483C53.4253 79.6799 53.2834 79.8242 53.1226 79.9047C52.9664 79.9804 52.7299 80.0182 52.4129 80.0182ZM52.562 79.486C52.8269 79.486 53.0303 79.4458 53.1722 79.3653C53.3142 79.2802 53.4159 79.1406 53.4774 78.9467C53.5389 78.7527 53.5696 78.4759 53.5696 78.1164L52.7677 78.1235C52.5312 78.1282 52.3467 78.1543 52.2142 78.2016C52.0865 78.2441 51.9943 78.3175 51.9375 78.4215C51.8854 78.5209 51.8594 78.6652 51.8594 78.8544C51.8594 79.1004 51.9091 79.2684 52.0085 79.3582C52.1078 79.4434 52.2923 79.486 52.562 79.486ZM55.5396 79.4221H56.8027V75.3134H55.6106V74.7812H57.3775V79.4221H58.5555V79.9472H55.5396V79.4221ZM59.7946 79.4221H61.0577V75.3134H59.8655V74.7812H61.6325V79.4221H62.8105V79.9472H59.7946V79.4221ZM69.6457 79.6776H69.3619L68.1271 76.243H68.7303L69.7876 79.2518H69.8018L70.8237 76.243H71.4269L69.596 81.5155H69L69.6457 79.6776ZM74.0426 80.0182C73.6263 80.0182 73.3046 79.9614 73.0775 79.8479C72.8552 79.7296 72.6967 79.5333 72.6021 79.2589C72.5075 78.9845 72.4601 78.5942 72.4601 78.088C72.4601 77.5771 72.5075 77.1844 72.6021 76.91C72.6967 76.6357 72.8552 76.4417 73.0775 76.3282C73.3046 76.2099 73.6263 76.1507 74.0426 76.1507C74.4589 76.1507 74.7806 76.2099 75.0077 76.3282C75.2348 76.4417 75.3956 76.638 75.4902 76.9171C75.5849 77.1915 75.6322 77.5818 75.6322 78.088C75.6322 78.5942 75.5849 78.9845 75.4902 79.2589C75.3956 79.5333 75.2348 79.7296 75.0077 79.8479C74.7806 79.9614 74.4589 80.0182 74.0426 80.0182ZM74.0426 79.486C74.3028 79.486 74.5039 79.4458 74.6458 79.3653C74.7877 79.2802 74.8871 79.1383 74.9438 78.9396C75.0053 78.7409 75.0361 78.457 75.0361 78.088C75.0361 77.7143 75.0053 77.4281 74.9438 77.2294C74.8871 77.0307 74.7877 76.8888 74.6458 76.8036C74.5039 76.7184 74.3028 76.6759 74.0426 76.6759C73.7824 76.6759 73.5814 76.7184 73.4394 76.8036C73.3022 76.8888 73.2029 77.0307 73.1414 77.2294C73.0846 77.4281 73.0562 77.7143 73.0562 78.088C73.0562 78.457 73.0846 78.7409 73.1414 78.9396C73.2029 79.1383 73.3022 79.2802 73.4394 79.3653C73.5814 79.4458 73.7824 79.486 74.0426 79.486ZM77.957 80.0182C77.6542 80.0182 77.42 79.978 77.2544 79.8976C77.0936 79.8124 76.9777 79.6705 76.9067 79.4718C76.8405 79.2684 76.8074 78.9821 76.8074 78.6131V76.243H77.4035V78.6273C77.4035 78.8497 77.4247 79.0224 77.4673 79.1454C77.5146 79.2684 77.5903 79.3559 77.6944 79.4079C77.7985 79.46 77.9451 79.486 78.1344 79.486C78.4088 79.486 78.6193 79.4458 78.7659 79.3653C78.9126 79.2849 79.0167 79.1501 79.0782 78.9609C79.1444 78.7716 79.1775 78.5043 79.1775 78.159V76.243H79.7665V79.9472H79.1775V79.3937H79.1278C79.019 79.6303 78.8818 79.7935 78.7163 79.8834C78.5507 79.9733 78.2976 80.0182 77.957 80.0182ZM81.6159 76.243H82.1835L82.1623 77.1158H82.219C82.3468 76.8131 82.4508 76.6049 82.5313 76.4914C82.6117 76.3731 82.6945 76.2998 82.7796 76.2714C82.8695 76.243 83.0209 76.2264 83.2338 76.2217H83.248C83.546 76.2122 83.7802 76.2146 83.9505 76.2288V76.7894C83.5389 76.7752 83.2551 76.7799 83.099 76.8036C82.9618 76.8273 82.8222 76.9029 82.6803 77.0307C82.5384 77.1537 82.4201 77.3098 82.3255 77.499C82.2356 77.6835 82.1906 77.8751 82.1906 78.0738V79.9472H81.6159V76.243ZM85.6012 77.5487H88.0281V78.1164H85.6012V77.5487ZM91.1831 80.0182C90.7621 80.0182 90.4357 79.9614 90.2039 79.8479C89.9768 79.7296 89.8136 79.5357 89.7142 79.266C89.6196 78.9916 89.5723 78.6013 89.5723 78.0951C89.5723 77.5842 89.6196 77.1915 89.7142 76.9171C89.8136 76.638 89.9768 76.4417 90.2039 76.3282C90.4309 76.2099 90.7526 76.1507 91.1689 76.1507C91.519 76.1507 91.791 76.1862 91.985 76.2572C92.179 76.3282 92.3209 76.4488 92.4108 76.6191C92.5007 76.7847 92.5551 77.0212 92.574 77.3287H91.985C91.9377 77.0827 91.8596 76.9148 91.7508 76.8249C91.642 76.735 91.4623 76.6901 91.2115 76.6901C90.9371 76.6901 90.7266 76.7326 90.58 76.8178C90.4333 76.9029 90.3269 77.0472 90.2606 77.2507C90.1991 77.4494 90.1684 77.7356 90.1684 78.1093C90.1684 78.4689 90.1991 78.7456 90.2606 78.9396C90.3269 79.1335 90.4333 79.2731 90.58 79.3582C90.7313 79.4387 90.9442 79.4789 91.2186 79.4789C91.4646 79.4789 91.6397 79.441 91.7437 79.3653C91.8525 79.2849 91.933 79.1359 91.985 78.9183H92.574C92.5551 79.2069 92.5007 79.4292 92.4108 79.5853C92.3209 79.7414 92.179 79.8526 91.985 79.9189C91.7958 79.9851 91.5285 80.0182 91.1831 80.0182ZM95.3175 80.0182C94.9012 80.0182 94.5795 79.9614 94.3524 79.8479C94.13 79.7296 93.9715 79.5333 93.8769 79.2589C93.7823 78.9845 93.735 78.5942 93.735 78.088C93.735 77.5771 93.7823 77.1844 93.8769 76.91C93.9715 76.6357 94.13 76.4417 94.3524 76.3282C94.5795 76.2099 94.9012 76.1507 95.3175 76.1507C95.7338 76.1507 96.0555 76.2099 96.2826 76.3282C96.5096 76.4417 96.6705 76.638 96.7651 76.9171C96.8597 77.1915 96.907 77.5818 96.907 78.088C96.907 78.5942 96.8597 78.9845 96.7651 79.2589C96.6705 79.5333 96.5096 79.7296 96.2826 79.8479C96.0555 79.9614 95.7338 80.0182 95.3175 80.0182ZM95.3175 79.486C95.5777 79.486 95.7787 79.4458 95.9207 79.3653C96.0626 79.2802 96.1619 79.1383 96.2187 78.9396C96.2802 78.7409 96.3109 78.457 96.3109 78.088C96.3109 77.7143 96.2802 77.4281 96.2187 77.2294C96.1619 77.0307 96.0626 76.8888 95.9207 76.8036C95.7787 76.7184 95.5777 76.6759 95.3175 76.6759C95.0573 76.6759 94.8562 76.7184 94.7143 76.8036C94.5771 76.8888 94.4777 77.0307 94.4162 77.2294C94.3595 77.4281 94.3311 77.7143 94.3311 78.088C94.3311 78.457 94.3595 78.7409 94.4162 78.9396C94.4777 79.1383 94.5771 79.2802 94.7143 79.3653C94.8562 79.4458 95.0573 79.486 95.3175 79.486ZM97.7771 76.243H98.3093V76.7184H98.359C98.4394 76.5056 98.5293 76.3589 98.6286 76.2785C98.728 76.1981 98.8699 76.1578 99.0544 76.1578C99.2673 76.1578 99.4305 76.2004 99.5441 76.2856C99.6576 76.366 99.7404 76.5103 99.7924 76.7184H99.8279C99.9131 76.5008 100.008 76.3542 100.112 76.2785C100.221 76.1981 100.374 76.1578 100.573 76.1578C100.781 76.1578 100.942 76.2004 101.056 76.2856C101.174 76.3707 101.257 76.5127 101.304 76.7113C101.351 76.91 101.375 77.1892 101.375 77.5487V79.9472H100.814V77.6835C100.814 77.4281 100.8 77.2317 100.772 77.0945C100.748 76.9526 100.701 76.8509 100.63 76.7894C100.564 76.7279 100.469 76.6972 100.346 76.6972C100.218 76.6972 100.119 76.7303 100.048 76.7965C99.9769 76.8627 99.9272 76.9739 99.8989 77.13C99.8705 77.2814 99.8563 77.5014 99.8563 77.79V79.9472H99.3028L99.317 77.6906C99.3217 77.3169 99.2839 77.0591 99.2034 76.9171C99.1277 76.7705 99 76.6972 98.8202 76.6972C98.6925 76.6972 98.5932 76.7326 98.5222 76.8036C98.456 76.8698 98.4063 76.9857 98.3732 77.1513C98.3448 77.3122 98.3306 77.5392 98.3306 77.8326V79.9472H97.7771V76.243ZM102.351 76.243H102.94V76.6262H102.99C103.127 76.4417 103.264 76.3163 103.402 76.2501C103.544 76.1839 103.738 76.1507 103.984 76.1507C104.371 76.1507 104.669 76.2099 104.878 76.3282C105.091 76.4417 105.242 76.6357 105.332 76.91C105.422 77.1844 105.467 77.5771 105.467 78.088C105.467 78.5942 105.422 78.9845 105.332 79.2589C105.247 79.5333 105.1 79.7296 104.892 79.8479C104.684 79.9614 104.386 80.0182 103.998 80.0182C103.723 80.0182 103.515 79.9851 103.373 79.9189C103.236 79.8526 103.111 79.7273 102.997 79.5427H102.94V81.4729H102.351V76.243ZM103.856 79.486C104.121 79.486 104.324 79.4458 104.466 79.3653C104.608 79.2802 104.71 79.1383 104.771 78.9396C104.833 78.7361 104.863 78.4523 104.863 78.088C104.863 77.719 104.833 77.4352 104.771 77.2365C104.71 77.0378 104.608 76.8959 104.466 76.8107C104.324 76.7255 104.121 76.683 103.856 76.683C103.61 76.683 103.421 76.7255 103.288 76.8107C103.16 76.8911 103.068 77.033 103.011 77.2365C102.955 77.4352 102.926 77.719 102.926 78.088C102.926 78.457 102.955 78.7409 103.011 78.9396C103.068 79.1383 103.16 79.2802 103.288 79.3653C103.421 79.4458 103.61 79.486 103.856 79.486ZM107.728 80.0182C107.425 80.0182 107.191 79.9851 107.025 79.9189C106.864 79.8526 106.748 79.7414 106.677 79.5853C106.611 79.4292 106.578 79.2069 106.578 78.9183C106.578 78.5777 106.628 78.3151 106.727 78.1306C106.826 77.9414 106.992 77.8089 107.224 77.7332C107.46 77.6528 107.794 77.6126 108.224 77.6126H108.891V77.4352C108.891 77.2365 108.865 77.0827 108.813 76.9739C108.766 76.8651 108.681 76.787 108.558 76.7397C108.44 76.6924 108.269 76.6688 108.047 76.6688C107.758 76.6688 107.562 76.7066 107.458 76.7823C107.354 76.8533 107.297 76.9928 107.288 77.201H106.692C106.692 76.9266 106.732 76.7161 106.812 76.5694C106.893 76.418 107.03 76.3116 107.224 76.2501C107.418 76.1839 107.692 76.1507 108.047 76.1507C108.416 76.1507 108.7 76.1886 108.898 76.2643C109.102 76.34 109.244 76.4701 109.324 76.6546C109.409 76.8391 109.452 77.0993 109.452 77.4352V79.9472H108.913V79.4718H108.863C108.74 79.6799 108.598 79.8242 108.437 79.9047C108.281 79.9804 108.045 80.0182 107.728 80.0182ZM107.877 79.486C108.142 79.486 108.345 79.4458 108.487 79.3653C108.629 79.2802 108.731 79.1406 108.792 78.9467C108.854 78.7527 108.884 78.4759 108.884 78.1164L108.082 78.1235C107.846 78.1282 107.661 78.1543 107.529 78.2016C107.401 78.2441 107.309 78.3175 107.252 78.4215C107.2 78.5209 107.174 78.6652 107.174 78.8544C107.174 79.1004 107.224 79.2684 107.323 79.3582C107.422 79.4434 107.607 79.486 107.877 79.486ZM110.861 76.243H111.457V76.7823H111.507C111.611 76.5363 111.741 76.3707 111.897 76.2856C112.058 76.1957 112.3 76.1507 112.621 76.1507C112.933 76.1507 113.175 76.1933 113.345 76.2785C113.515 76.3636 113.636 76.5079 113.707 76.7113C113.783 76.91 113.82 77.1939 113.82 77.5629V79.9472H113.231V77.5487C113.231 77.3264 113.205 77.1537 113.153 77.0307C113.106 76.9077 113.026 76.8225 112.912 76.7752C112.803 76.7232 112.645 76.6972 112.437 76.6972C112.181 76.6972 111.983 76.7374 111.841 76.8178C111.703 76.8982 111.604 77.033 111.543 77.2223C111.486 77.4068 111.457 77.6717 111.457 78.0171V79.9472H110.861V76.243ZM116.45 79.6776H116.167L114.932 76.243H115.535L116.592 79.2518H116.607L117.628 76.243H118.232L116.401 81.5155H115.805L116.45 79.6776Z" fill="#797B86"/>
<g clip-path="url(#clip10_798_22674)">
<path d="M362.095 79.3228V80.5702C362.095 80.7998 361.909 80.986 361.679 80.986H358.075C357.846 80.986 357.66 80.7998 357.66 80.5702V75.8578C357.66 75.6282 357.846 75.442 358.075 75.442H358.768C358.957 75.442 359.143 75.4578 359.323 75.488M362.095 79.3228H363.342C363.572 79.3228 363.758 79.1366 363.758 78.907V77.1052C363.758 75.457 362.559 74.0888 360.986 73.8248C360.806 73.7946 360.621 73.7788 360.432 73.7788H359.739C359.509 73.7788 359.323 73.965 359.323 74.1946V75.488M362.095 79.3228H359.739C359.509 79.3228 359.323 79.1366 359.323 78.907V75.488M363.758 77.9368V77.2438C363.758 76.5549 363.2 75.9964 362.511 75.9964H361.956C361.727 75.9964 361.54 75.8103 361.54 75.5806V75.0262C361.54 74.3373 360.982 73.7788 360.293 73.7788H359.877" stroke="#303136" stroke-width="0.665272" stroke-linecap="round" stroke-linejoin="round"/>
</g>
</g>
</g>
<rect x="1.22176" y="1.69832" width="370.797" height="162.556" rx="3.32636" stroke="white" stroke-opacity="0.1" stroke-width="0.443515"/>
</g>
</g>
<defs>
<linearGradient id="paint0_linear_798_22674" x1="184" y1="69" x2="184.062" y2="102.5" gradientUnits="userSpaceOnUse">
<stop stop-color="white"/>
<stop offset="1" stop-color="white" stop-opacity="0"/>
</linearGradient>
<linearGradient id="paint1_linear_798_22674" x1="268.449" y1="43.5232" x2="266.345" y2="39.8076" gradientUnits="userSpaceOnUse">
<stop stop-color="#FB7655"/>
<stop offset="0.41" stop-color="#E42B1E"/>
<stop offset="0.99" stop-color="#990000"/>
<stop offset="1" stop-color="#990000"/>
</linearGradient>
<linearGradient id="paint2_linear_798_22674" x1="269.497" y1="40.4019" x2="266.785" y2="38.5819" gradientUnits="userSpaceOnUse">
<stop stop-color="#871101"/>
<stop offset="0.99" stop-color="#911209"/>
<stop offset="1" stop-color="#911209"/>
</linearGradient>
<linearGradient id="paint3_linear_798_22674" x1="267.327" y1="43.6358" x2="264.615" y2="41.8158" gradientUnits="userSpaceOnUse">
<stop stop-color="#871101"/>
<stop offset="0.99" stop-color="#911209"/>
<stop offset="1" stop-color="#911209"/>
</linearGradient>
<linearGradient id="paint4_linear_798_22674" x1="261.633" y1="39.0844" x2="262.053" y2="41.817" gradientUnits="userSpaceOnUse">
<stop stop-color="white"/>
<stop offset="0.23" stop-color="#E57252"/>
<stop offset="0.46" stop-color="#DE3B20"/>
<stop offset="0.99" stop-color="#A60003"/>
<stop offset="1" stop-color="#A60003"/>
</linearGradient>
<linearGradient id="paint5_linear_798_22674" x1="264.525" y1="36.533" x2="264.68" y2="39.3217" gradientUnits="userSpaceOnUse">
<stop stop-color="white"/>
<stop offset="0.23" stop-color="#E4714E"/>
<stop offset="0.56" stop-color="#BE1A0D"/>
<stop offset="0.99" stop-color="#A80D00"/>
<stop offset="1" stop-color="#A80D00"/>
</linearGradient>
<linearGradient id="paint6_linear_798_22674" x1="267.091" y1="33.9554" x2="267.555" y2="35.954" gradientUnits="userSpaceOnUse">
<stop stop-color="white"/>
<stop offset="0.18" stop-color="#E46342"/>
<stop offset="0.4" stop-color="#C82410"/>
<stop offset="0.99" stop-color="#A80D00"/>
<stop offset="1" stop-color="#A80D00"/>
</linearGradient>
<linearGradient id="paint7_linear_798_22674" x1="265.675" y1="33.2515" x2="267.674" y2="32.2522" gradientUnits="userSpaceOnUse">
<stop stop-color="white"/>
<stop offset="0.54" stop-color="#C81F11"/>
<stop offset="0.99" stop-color="#BF0905"/>
<stop offset="1" stop-color="#BF0905"/>
</linearGradient>
<linearGradient id="paint8_linear_798_22674" x1="259.881" y1="38.3878" x2="260.046" y2="40.0346" gradientUnits="userSpaceOnUse">
<stop stop-color="white"/>
<stop offset="0.31" stop-color="#DE4024"/>
<stop offset="0.99" stop-color="#BF190B"/>
<stop offset="1" stop-color="#BF190B"/>
</linearGradient>
<linearGradient id="paint9_linear_798_22674" x1="258.75" y1="40.4798" x2="266.483" y2="32.5289" gradientUnits="userSpaceOnUse">
<stop stop-color="#BD0012"/>
<stop offset="0.07" stop-color="white"/>
<stop offset="0.17" stop-color="white"/>
<stop offset="0.27" stop-color="#C82F1C"/>
<stop offset="0.33" stop-color="#820C01"/>
<stop offset="0.46" stop-color="#A31601"/>
<stop offset="0.72" stop-color="#B31301"/>
<stop offset="0.99" stop-color="#E82609"/>
<stop offset="1" stop-color="#E82609"/>
</linearGradient>
<linearGradient id="paint10_linear_798_22674" x1="264.673" y1="41.2818" x2="262.344" y2="40.707" gradientUnits="userSpaceOnUse">
<stop stop-color="#8C0C01"/>
<stop offset="0.54" stop-color="#990C00"/>
<stop offset="0.99" stop-color="#A80D0E"/>
<stop offset="1" stop-color="#A80D0E"/>
</linearGradient>
<linearGradient id="paint11_linear_798_22674" x1="268.673" y1="38.4865" x2="266.604" y2="36.6321" gradientUnits="userSpaceOnUse">
<stop stop-color="#7E110B"/>
<stop offset="0.99" stop-color="#9E0C00"/>
<stop offset="1" stop-color="#9E0C00"/>
</linearGradient>
<linearGradient id="paint12_linear_798_22674" x1="269.433" y1="35.084" x2="268.403" y2="33.9822" gradientUnits="userSpaceOnUse">
<stop stop-color="#79130D"/>
<stop offset="0.99" stop-color="#9E120B"/>
<stop offset="1" stop-color="#9E120B"/>
</linearGradient>
<radialGradient id="paint13_radial_798_22674" cx="0" cy="0" r="1" gradientUnits="userSpaceOnUse" gradientTransform="translate(266.927 36.6675) scale(2.53548)">
<stop stop-color="#A80D00"/>
<stop offset="0.99" stop-color="#7E0E08"/>
<stop offset="1" stop-color="#7E0E08"/>
</radialGradient>
<radialGradient id="paint14_radial_798_22674" cx="0" cy="0" r="1" gradientUnits="userSpaceOnUse" gradientTransform="translate(263.415 40.0089) scale(3.37059)">
<stop stop-color="#A30C00"/>
<stop offset="0.99" stop-color="#800E08"/>
<stop offset="1" stop-color="#800E08"/>
</radialGradient>
<linearGradient id="paint15_linear_798_22674" x1="261.027" y1="42.6062" x2="260.188" y2="39.7567" gradientUnits="userSpaceOnUse">
<stop stop-color="#8B2114"/>
<stop offset="0.43" stop-color="#9E100A"/>
<stop offset="0.99" stop-color="#B3100C"/>
<stop offset="1" stop-color="#B3100C"/>
</linearGradient>
<linearGradient id="paint16_linear_798_22674" x1="267.471" y1="33.1637" x2="269.354" y2="33.9949" gradientUnits="userSpaceOnUse">
<stop stop-color="#B31000"/>
<stop offset="0.44" stop-color="#910F08"/>
<stop offset="0.99" stop-color="#791C12"/>
<stop offset="1" stop-color="#791C12"/>
</linearGradient>
<clipPath id="clip0_798_22674">
<rect width="371.26" height="99" fill="white"/>
</clipPath>
<clipPath id="clip1_798_22674">
<rect x="1" y="1.47656" width="371.24" height="163" rx="3.54812" fill="white"/>
</clipPath>
<clipPath id="clip2_798_22674">
<rect x="25.5089" y="30.5359" width="9.98817" height="9.98817" rx="1.66469" fill="white"/>
</clipPath>
<clipPath id="clip3_798_22674">
<rect width="12.9375" height="12.9375" fill="white" transform="translate(63.0634 30.9066)"/>
</clipPath>
<clipPath id="clip4_798_22674">
<rect width="12.9375" height="12.9375" fill="white" transform="translate(102.093 30.9066)"/>
</clipPath>
<clipPath id="clip5_798_22674">
<rect width="12.9375" height="12.9375" fill="white" transform="translate(141.122 30.9066)"/>
</clipPath>
<clipPath id="clip6_798_22674">
<rect width="12.9375" height="12.9375" fill="white" transform="translate(180.151 30.9066)"/>
</clipPath>
<clipPath id="clip7_798_22674">
<rect width="12.9375" height="12.9375" fill="white" transform="translate(219.181 30.9066)"/>
</clipPath>
<clipPath id="clip8_798_22674">
<rect width="9.98816" height="9.94821" fill="white" transform="translate(259.685 32.6704)"/>
</clipPath>
<clipPath id="clip9_798_22674">
<rect width="9.94821" height="9.94821" fill="white" transform="translate(298.734 32.6704)"/>
</clipPath>
<clipPath id="clip10_798_22674">
<rect width="8.8703" height="8.8703" fill="white" transform="translate(356.274 72.9472)"/>
</clipPath>
</defs>
</svg>
