<svg width="372" height="100" viewBox="0 0 372 100" fill="none" xmlns="http://www.w3.org/2000/svg">
<g clip-path="url(#clip0_691_45676)">
<mask id="mask0_691_45676" style="mask-type:alpha" maskUnits="userSpaceOnUse" x="-36" y="-36" width="440" height="239">
<rect x="-36" y="-35.4766" width="440" height="238" fill="url(#paint0_linear_691_45676)"/>
</mask>
<g mask="url(#mask0_691_45676)">
<rect x="0.741663" y="1.74166" width="369.517" height="163.517" rx="4.084" fill="#FCFCFD"/>
<rect x="0.741663" y="1.74166" width="369.517" height="163.517" rx="4.084" stroke="#E0E1E6" stroke-width="0.516673"/>
<g clip-path="url(#clip1_691_45676)">
<rect x="8.09619" y="10.4922" width="49.4371" height="1.6464" rx="0.823199" fill="black" fill-opacity="0.2"/>
<path fill-rule="evenodd" clip-rule="evenodd" d="M1 20.6268L372.24 20.6268L372.24 21.0703L1 21.0703L1 20.6268Z" fill="black" fill-opacity="0.1"/>
<g opacity="0.4">
<g clip-path="url(#clip2_691_45676)">
<path d="M25.5088 31.0586H35.497V41.0468H25.5088" fill="#3178C6"/>
<path d="M30.0542 36.5997H31.3027V35.7999H27.8108V36.5997H29.0593V40.1697H30.0542V36.5997ZM31.6929 39.9746C32.0446 40.1543 32.5183 40.2185 32.9414 40.2185C33.3062 40.2185 33.7789 40.1711 34.1509 39.9375C34.309 39.8342 34.4436 39.7035 34.5216 39.5279C34.5996 39.3523 34.6601 39.1572 34.6601 38.9036C34.6583 38.1009 34.0887 37.8348 33.5267 37.5771C33.2715 37.461 32.6976 37.2735 32.6976 36.9118C32.6976 36.6204 33.0255 36.4723 33.4428 36.471C33.7682 36.471 34.2056 36.5769 34.4767 36.7761V35.8592C34.1106 35.7185 33.7268 35.6922 33.3843 35.6914C32.4235 35.6914 31.6742 36.0878 31.6676 36.9945C31.6771 37.6795 32.0835 37.9785 32.682 38.2626C33.008 38.4101 33.61 38.5989 33.6145 39.0078C33.6002 39.3896 33.135 39.4477 32.8653 39.4506C32.4448 39.4506 32 39.2909 31.6929 39.0382V39.9746Z" fill="white"/>
</g>
<path d="M13.0925 52.3269H11.95V51.8363H14.7752V52.3269H13.6265V56.0586H13.0925V52.3269ZM16.9584 55.8226H16.71L15.6296 52.8174H16.1574L17.0826 55.4501H17.095L17.9891 52.8174H18.5169L16.9149 57.4308H16.3934L16.9584 55.8226ZM19.5142 52.8174H20.0295V53.1527H20.073C20.193 52.9912 20.3131 52.8815 20.4331 52.8236C20.5573 52.7656 20.727 52.7367 20.9423 52.7367C21.2817 52.7367 21.5425 52.7884 21.7246 52.8919C21.9109 52.9912 22.0434 53.161 22.122 53.4011C22.2007 53.6411 22.24 53.9847 22.24 54.4318C22.24 54.8747 22.2007 55.2162 22.122 55.4563C22.0475 55.6964 21.9192 55.8682 21.7371 55.9717C21.5549 56.071 21.2941 56.1207 20.9547 56.1207C20.7146 56.1207 20.5325 56.0917 20.4083 56.0338C20.2883 55.9758 20.1786 55.8661 20.0792 55.7047H20.0295V57.3936H19.5142V52.8174ZM20.8305 55.655C21.0623 55.655 21.2403 55.6198 21.3645 55.5494C21.4887 55.4749 21.5777 55.3507 21.6315 55.1769C21.6853 54.9989 21.7122 54.7505 21.7122 54.4318C21.7122 54.1089 21.6853 53.8605 21.6315 53.6867C21.5777 53.5128 21.4887 53.3886 21.3645 53.3141C21.2403 53.2396 21.0623 53.2024 20.8305 53.2024C20.6153 53.2024 20.4497 53.2396 20.3338 53.3141C20.222 53.3845 20.1413 53.5087 20.0916 53.6867C20.042 53.8605 20.0171 54.1089 20.0171 54.4318C20.0171 54.7547 20.042 55.003 20.0916 55.1769C20.1413 55.3507 20.222 55.4749 20.3338 55.5494C20.4497 55.6198 20.6153 55.655 20.8305 55.655ZM24.5785 56.1207C24.2059 56.1207 23.9203 56.071 23.7216 55.9717C23.527 55.8723 23.3884 55.7026 23.3056 55.4625C23.2269 55.2224 23.1876 54.8747 23.1876 54.4194C23.1876 53.9764 23.229 53.6349 23.3118 53.3948C23.3946 53.1548 23.5312 52.9871 23.7216 52.8919C23.9161 52.7925 24.1852 52.7429 24.5288 52.7429C24.9013 52.7429 25.1808 52.7988 25.367 52.9105C25.5574 53.0182 25.6878 53.2044 25.7582 53.4694C25.8286 53.7343 25.8596 54.1255 25.8513 54.6429H23.7092C23.7216 54.9161 23.7547 55.1251 23.8085 55.27C23.8623 55.4149 23.9472 55.5163 24.0631 55.5743C24.1831 55.6322 24.3529 55.6612 24.5722 55.6612C24.7792 55.6612 24.9303 55.6322 25.0255 55.5743C25.1207 55.5122 25.1952 55.3942 25.2491 55.2204H25.7893C25.7437 55.4604 25.6775 55.6446 25.5906 55.773C25.5078 55.9013 25.3877 55.9924 25.2304 56.0462C25.0731 56.0958 24.8558 56.1207 24.5785 56.1207ZM25.3546 54.1896C25.3463 53.9247 25.3153 53.7239 25.2615 53.5873C25.2118 53.4466 25.129 53.3472 25.0131 53.2893C24.9013 53.2313 24.7399 53.2024 24.5288 53.2024C24.3301 53.2024 24.1749 53.2313 24.0631 53.2893C23.9555 53.3472 23.8747 53.4466 23.8209 53.5873C23.7713 53.7239 23.7361 53.9247 23.7154 54.1896H25.3546ZM28.2643 56.1207C27.9166 56.1207 27.6475 56.0917 27.4571 56.0338C27.2667 55.9758 27.1322 55.8765 27.0535 55.7357C26.9749 55.595 26.9355 55.3963 26.9355 55.1396H27.4633C27.4716 55.2762 27.5006 55.3818 27.5502 55.4563C27.6041 55.5267 27.6848 55.5784 27.7924 55.6115C27.9042 55.6405 28.0615 55.6571 28.2643 55.6612C28.4671 55.6653 28.6224 55.6529 28.73 55.6239C28.8418 55.595 28.9204 55.5474 28.9659 55.4811C29.0156 55.4149 29.0405 55.3176 29.0405 55.1893C29.0405 55.0775 29.0115 54.9865 28.9535 54.9161C28.8997 54.8416 28.8066 54.7795 28.6741 54.7298C28.5416 54.676 28.3512 54.6243 28.1029 54.5746C27.809 54.5166 27.5813 54.4504 27.4199 54.3759C27.2626 54.3014 27.1487 54.2082 27.0783 54.0965C27.0121 53.9806 26.979 53.8316 26.979 53.6494C26.979 53.4093 27.0163 53.2251 27.0908 53.0968C27.1694 52.9685 27.2977 52.8774 27.4757 52.8236C27.6579 52.7656 27.9166 52.7367 28.2519 52.7367C28.5665 52.7367 28.8086 52.7615 28.9784 52.8112C29.1481 52.8609 29.2723 52.9478 29.3509 53.072C29.4296 53.192 29.4751 53.3638 29.4875 53.5873H28.9722C28.9515 53.4342 28.8894 53.3307 28.7859 53.2769C28.6824 53.2231 28.5023 53.1961 28.2457 53.1961C28.047 53.1961 27.8938 53.2106 27.7862 53.2396C27.6786 53.2644 27.602 53.31 27.5565 53.3762C27.5109 53.4424 27.4882 53.5356 27.4882 53.6556C27.4882 53.726 27.5171 53.7881 27.5751 53.8419C27.6372 53.8957 27.7386 53.9495 27.8793 54.0033C28.0201 54.053 28.2208 54.111 28.4816 54.1772C28.7672 54.2476 28.9866 54.3242 29.1398 54.4069C29.293 54.4897 29.4006 54.5912 29.4627 54.7112C29.5248 54.8312 29.5558 54.9865 29.5558 55.1769C29.5558 55.4253 29.5165 55.6177 29.4378 55.7543C29.3592 55.8868 29.2288 55.982 29.0467 56.04C28.8645 56.0938 28.6037 56.1207 28.2643 56.1207ZM32.0805 56.1207C31.7121 56.1207 31.4265 56.071 31.2237 55.9717C31.025 55.8682 30.8822 55.6985 30.7952 55.4625C30.7124 55.2224 30.6711 54.8809 30.6711 54.438C30.6711 53.9909 30.7124 53.6474 30.7952 53.4073C30.8822 53.163 31.025 52.9912 31.2237 52.8919C31.4224 52.7884 31.7038 52.7367 32.0681 52.7367C32.3744 52.7367 32.6125 52.7677 32.7822 52.8298C32.9519 52.8919 33.0761 52.9975 33.1547 53.1465C33.2334 53.2914 33.281 53.4983 33.2975 53.7674H32.7822C32.7408 53.5521 32.6725 53.4052 32.5773 53.3265C32.4821 53.2479 32.3248 53.2086 32.1054 53.2086C31.8653 53.2086 31.6811 53.2458 31.5528 53.3203C31.4244 53.3948 31.3313 53.5211 31.2733 53.6991C31.2195 53.873 31.1926 54.1234 31.1926 54.4504C31.1926 54.765 31.2195 55.0072 31.2733 55.1769C31.3313 55.3466 31.4244 55.4687 31.5528 55.5432C31.6852 55.6136 31.8715 55.6488 32.1116 55.6488C32.3268 55.6488 32.48 55.6157 32.5711 55.5494C32.6663 55.4791 32.7366 55.3487 32.7822 55.1583H33.2975C33.281 55.4108 33.2334 55.6053 33.1547 55.7419C33.0761 55.8785 32.9519 55.9758 32.7822 56.0338C32.6166 56.0917 32.3827 56.1207 32.0805 56.1207ZM34.8785 52.8174H35.3752L35.3566 53.5811H35.4063C35.518 53.3162 35.6091 53.1341 35.6795 53.0347C35.7498 52.9312 35.8223 52.8671 35.8968 52.8422C35.9754 52.8174 36.1079 52.8029 36.2942 52.7988H36.3066C36.5674 52.7905 36.7723 52.7925 36.9213 52.805V53.2955C36.5612 53.2831 36.3128 53.2872 36.1762 53.3079C36.0562 53.3286 35.934 53.3948 35.8099 53.5066C35.6857 53.6142 35.5822 53.7508 35.4994 53.9164C35.4207 54.0779 35.3814 54.2455 35.3814 54.4194V56.0586H34.8785V52.8174ZM39.1169 51.5383H39.831V52.2461H39.1169V51.5383ZM38.2663 55.5991H39.3156V53.2707H38.3284V52.8174H39.8248V55.5991H40.8307V56.0524H38.2663V55.5991ZM41.8528 52.8174H42.3681V53.1527H42.4116C42.5316 52.9912 42.6517 52.8815 42.7717 52.8236C42.8959 52.7656 43.0656 52.7367 43.2809 52.7367C43.6203 52.7367 43.8811 52.7884 44.0633 52.8919C44.2495 52.9912 44.382 53.161 44.4606 53.4011C44.5393 53.6411 44.5786 53.9847 44.5786 54.4318C44.5786 54.8747 44.5393 55.2162 44.4606 55.4563C44.3861 55.6964 44.2578 55.8682 44.0757 55.9717C43.8935 56.071 43.6327 56.1207 43.2933 56.1207C43.0532 56.1207 42.8711 56.0917 42.7469 56.0338C42.6269 55.9758 42.5172 55.8661 42.4178 55.7047H42.3681V57.3936H41.8528V52.8174ZM43.1691 55.655C43.4009 55.655 43.5789 55.6198 43.7031 55.5494C43.8273 55.4749 43.9163 55.3507 43.9701 55.1769C44.0239 54.9989 44.0508 54.7505 44.0508 54.4318C44.0508 54.1089 44.0239 53.8605 43.9701 53.6867C43.9163 53.5128 43.8273 53.3886 43.7031 53.3141C43.5789 53.2396 43.4009 53.2024 43.1691 53.2024C42.9539 53.2024 42.7883 53.2396 42.6724 53.3141C42.5606 53.3845 42.4799 53.5087 42.4302 53.6867C42.3806 53.8605 42.3557 54.1089 42.3557 54.4318C42.3557 54.7547 42.3806 55.003 42.4302 55.1769C42.4799 55.3507 42.5606 55.4749 42.6724 55.5494C42.7883 55.6198 42.9539 55.655 43.1691 55.655ZM47.2586 56.1269C46.9936 56.1269 46.7949 56.0917 46.6625 56.0213C46.53 55.951 46.441 55.8433 46.3955 55.6985C46.35 55.5536 46.3272 55.3487 46.3272 55.0837V53.2769H45.4889L45.6131 52.8174H46.352V52.0909L46.8363 51.886V52.8174H47.9726V53.2769H46.8363V55.0589C46.8363 55.2038 46.8508 55.3176 46.8798 55.4004C46.9129 55.4832 46.9729 55.5474 47.0599 55.5929C47.1509 55.6343 47.2855 55.655 47.4635 55.655C47.6208 55.655 47.836 55.6364 48.1092 55.5991V56.0586C47.745 56.1041 47.4614 56.1269 47.2586 56.1269Z" fill="black" fill-opacity="0.7"/>
</g>
<g opacity="0.4">
<g clip-path="url(#clip3_691_45676)">
<path d="M69.4774 31.457C66.201 31.457 66.4056 32.8779 66.4056 32.8779L66.4092 34.3499H69.5359V34.7919H65.1674C65.1674 34.7919 63.0708 34.5541 63.0708 37.86C63.0708 41.166 64.9008 41.0487 64.9008 41.0487H65.9929V39.5146C65.9929 39.5146 65.934 37.6847 67.7936 37.6847H70.8947C70.8947 37.6847 72.6369 37.7128 72.6369 36.0008V33.1701C72.6369 33.1701 72.9015 31.457 69.4774 31.457ZM67.7534 32.447C67.8273 32.4469 67.9005 32.4614 67.9688 32.4896C68.037 32.5179 68.0991 32.5593 68.1513 32.6116C68.2035 32.6638 68.245 32.7258 68.2732 32.7941C68.3015 32.8624 68.316 32.9355 68.3159 33.0094C68.316 33.0833 68.3015 33.1565 68.2732 33.2248C68.245 33.293 68.2035 33.3551 68.1513 33.4073C68.0991 33.4596 68.037 33.501 67.9688 33.5292C67.9005 33.5575 67.8273 33.572 67.7534 33.5719C67.6795 33.572 67.6064 33.5575 67.5381 33.5292C67.4698 33.501 67.4078 33.4596 67.3555 33.4073C67.3033 33.3551 67.2619 33.293 67.2336 33.2248C67.2054 33.1565 67.1909 33.0833 67.1909 33.0094C67.1909 32.9355 67.2054 32.8624 67.2336 32.7941C67.2619 32.7258 67.3033 32.6638 67.3555 32.6116C67.4078 32.5593 67.4698 32.5179 67.5381 32.4896C67.6064 32.4614 67.6795 32.4469 67.7534 32.447Z" fill="#3372A7"/>
<path d="M69.5703 44.2992C72.8467 44.2992 72.6421 42.8784 72.6421 42.8784L72.6385 41.4064H69.5118V40.9645H73.8803C73.8803 40.9645 75.9769 41.2022 75.9769 37.8962C75.9769 34.5903 74.1469 34.7075 74.1469 34.7075H73.0548V36.2416C73.0548 36.2416 73.1137 38.0716 71.2541 38.0716H68.153C68.153 38.0716 66.4107 38.0434 66.4107 39.7555V42.5862C66.4107 42.5862 66.1462 44.2992 69.5702 44.2992H69.5703ZM71.2943 43.3094C71.2204 43.3095 71.1472 43.295 71.079 43.2667C71.0107 43.2385 70.9487 43.1971 70.8964 43.1448C70.8442 43.0926 70.8028 43.0306 70.7745 42.9623C70.7463 42.894 70.7318 42.8208 70.7318 42.7469C70.7318 42.6731 70.7463 42.5999 70.7745 42.5316C70.8027 42.4633 70.8442 42.4013 70.8964 42.349C70.9487 42.2968 71.0107 42.2554 71.079 42.2271C71.1472 42.1989 71.2204 42.1844 71.2943 42.1844C71.3682 42.1844 71.4414 42.1989 71.5096 42.2271C71.5779 42.2553 71.6399 42.2968 71.6922 42.349C71.7444 42.4013 71.7859 42.4633 71.8141 42.5316C71.8423 42.5998 71.8569 42.673 71.8568 42.7469C71.8569 42.8208 71.8423 42.894 71.8141 42.9622C71.7859 43.0305 71.7444 43.0925 71.6922 43.1448C71.6399 43.197 71.5779 43.2385 71.5096 43.2667C71.4414 43.2949 71.3682 43.3095 71.2943 43.3094Z" fill="#FFD235"/>
</g>
<path d="M59.5224 51.4466C59.9985 51.4466 60.3628 51.4859 60.6153 51.5646C60.8678 51.6432 61.0478 51.7778 61.1555 51.9682C61.2631 52.1586 61.3169 52.4318 61.3169 52.7878C61.3169 53.119 61.2693 53.3777 61.1741 53.564C61.083 53.7461 60.9278 53.8765 60.7084 53.9551C60.4931 54.0338 60.1868 54.0731 59.7894 54.0731H59.243V55.6875H58.709V51.4652L59.5224 51.4466ZM59.7336 53.5826C60.0068 53.5826 60.2179 53.5577 60.3669 53.5081C60.5201 53.4584 60.6277 53.3756 60.6898 53.2597C60.756 53.1397 60.7891 52.972 60.7891 52.7568C60.7891 52.5374 60.7539 52.3697 60.6836 52.2538C60.6173 52.1338 60.5014 52.051 60.3358 52.0054C60.1744 51.9558 59.9385 51.9309 59.628 51.9309H59.243V53.5826H59.7336ZM63.4877 55.4516H63.2393L62.1589 52.4463H62.6867L63.6119 55.079H63.6243L64.5184 52.4463H65.0462L63.4442 57.0597H62.9227L63.4877 55.4516ZM67.7262 55.7558C67.4612 55.7558 67.2625 55.7206 67.1301 55.6502C66.9976 55.5799 66.9086 55.4722 66.8631 55.3274C66.8175 55.1825 66.7948 54.9776 66.7948 54.7127V52.9058H65.9565L66.0807 52.4463H66.8196V51.7198L67.3039 51.5149V52.4463H68.4402V52.9058H67.3039V54.6878C67.3039 54.8327 67.3184 54.9465 67.3474 55.0293C67.3805 55.1121 67.4405 55.1763 67.5275 55.2218C67.6185 55.2632 67.7531 55.2839 67.9311 55.2839C68.0884 55.2839 68.3036 55.2653 68.5768 55.228V55.6875C68.2125 55.733 67.929 55.7558 67.7262 55.7558ZM69.7666 51.1672H70.2881V52.9244H70.3316C70.4268 52.7091 70.5406 52.5643 70.6731 52.4898C70.8097 52.4111 71.0188 52.3718 71.3002 52.3718C71.5776 52.3718 71.7908 52.409 71.9398 52.4835C72.0888 52.5581 72.1944 52.6822 72.2565 52.8561C72.3227 53.03 72.3558 53.2804 72.3558 53.6074V55.6875H71.8404V53.595C71.8404 53.3963 71.8177 53.2431 71.7721 53.1355C71.7307 53.0279 71.6604 52.9513 71.561 52.9058C71.4617 52.8602 71.3209 52.8375 71.1388 52.8375C70.9153 52.8375 70.7435 52.8727 70.6234 52.943C70.5034 53.0134 70.4165 53.1314 70.3626 53.297C70.313 53.4625 70.2881 53.6985 70.2881 54.0048V55.6875H69.7666V51.1672ZM74.7812 55.7496C74.4169 55.7496 74.1354 55.6999 73.9367 55.6006C73.7422 55.4971 73.6035 55.3253 73.5207 55.0852C73.4379 54.8451 73.3965 54.5036 73.3965 54.0607C73.3965 53.6136 73.4379 53.27 73.5207 53.03C73.6035 52.7899 73.7422 52.6202 73.9367 52.5208C74.1354 52.4173 74.4169 52.3656 74.7812 52.3656C75.1455 52.3656 75.4269 52.4173 75.6256 52.5208C75.8243 52.6202 75.9651 52.7919 76.0479 53.0362C76.1307 53.2763 76.172 53.6178 76.172 54.0607C76.172 54.5036 76.1307 54.8451 76.0479 55.0852C75.9651 55.3253 75.8243 55.4971 75.6256 55.6006C75.4269 55.6999 75.1455 55.7496 74.7812 55.7496ZM74.7812 55.2839C75.0089 55.2839 75.1848 55.2487 75.309 55.1783C75.4331 55.1038 75.5201 54.9797 75.5698 54.8058C75.6236 54.6319 75.6505 54.3836 75.6505 54.0607C75.6505 53.7337 75.6236 53.4832 75.5698 53.3094C75.5201 53.1355 75.4331 53.0113 75.309 52.9368C75.1848 52.8623 75.0089 52.8251 74.7812 52.8251C74.5535 52.8251 74.3776 52.8623 74.2534 52.9368C74.1334 53.0113 74.0464 53.1355 73.9926 53.3094C73.9429 53.4832 73.9181 53.7337 73.9181 54.0607C73.9181 54.3836 73.9429 54.6319 73.9926 54.8058C74.0464 54.9797 74.1334 55.1038 74.2534 55.1783C74.3776 55.2487 74.5535 55.2839 74.7812 55.2839ZM77.2128 52.4463H77.7343V52.9182H77.7778C77.8689 52.7029 77.9827 52.5581 78.1193 52.4835C78.2601 52.4049 78.4712 52.3656 78.7527 52.3656C79.0259 52.3656 79.237 52.4028 79.386 52.4773C79.535 52.5518 79.6406 52.6781 79.7027 52.8561C79.7689 53.03 79.802 53.2783 79.802 53.6012V55.6875H79.2866V53.5888C79.2866 53.3942 79.2639 53.2431 79.2183 53.1355C79.1769 53.0279 79.1066 52.9534 79.0072 52.912C78.912 52.8664 78.7733 52.8437 78.5912 52.8437C78.3677 52.8437 78.1938 52.8789 78.0696 52.9492C77.9496 53.0196 77.8627 53.1376 77.8089 53.3032C77.7592 53.4646 77.7343 53.6964 77.7343 53.9986V55.6875H77.2128V52.4463Z" fill="black" fill-opacity="0.7"/>
</g>
<g opacity="0.4">
<g clip-path="url(#clip4_691_45676)">
<path d="M103.069 36.901C103.043 36.901 103.037 36.8884 103.05 36.8695L103.182 36.6995C103.195 36.6806 103.226 36.668 103.251 36.668H105.5C105.525 36.668 105.532 36.6869 105.519 36.7058L105.412 36.8695C105.399 36.8884 105.368 36.9073 105.349 36.9073L103.069 36.901Z" fill="#FF5328"/>
<path d="M102.117 37.4831C102.092 37.4831 102.086 37.4705 102.099 37.4516L102.231 37.2815C102.243 37.2626 102.275 37.25 102.3 37.25H105.173C105.198 37.25 105.21 37.2689 105.204 37.2878L105.154 37.439C105.147 37.4642 105.122 37.4768 105.097 37.4768L102.117 37.4831Z" fill="#FF5328"/>
<path d="M103.643 38.0612C103.617 38.0612 103.611 38.0423 103.624 38.0234L103.712 37.8659C103.725 37.847 103.75 37.8281 103.775 37.8281H105.035C105.06 37.8281 105.073 37.847 105.073 37.8722L105.06 38.0234C105.06 38.0486 105.035 38.0675 105.016 38.0675L103.643 38.0612Z" fill="#00ACD7"/>
<path d="M110.181 36.7877C109.785 36.8884 109.514 36.964 109.123 37.0648C109.029 37.09 109.022 37.0963 108.94 37.0018C108.846 36.8947 108.777 36.8255 108.644 36.7625C108.248 36.5672 107.863 36.6239 107.504 36.857C107.076 37.1341 106.856 37.5435 106.862 38.0538C106.868 38.5577 107.215 38.9734 107.712 39.0427C108.141 39.0994 108.5 38.9482 108.783 38.627C108.84 38.5577 108.89 38.4821 108.953 38.3939H107.737C107.605 38.3939 107.574 38.312 107.618 38.205C107.7 38.0097 107.851 37.6821 107.939 37.5184C107.958 37.4806 108.002 37.4176 108.096 37.4176H110.389C110.377 37.5876 110.377 37.7577 110.351 37.9278C110.282 38.3813 110.112 38.7971 109.835 39.1624C109.381 39.7608 108.789 40.1325 108.04 40.2332C107.422 40.3151 106.849 40.1955 106.345 39.8175C105.879 39.4648 105.615 38.9986 105.545 38.4191C105.463 37.7325 105.665 37.1152 106.081 36.5735C106.528 35.9877 107.12 35.616 107.844 35.4838C108.437 35.3767 109.003 35.446 109.514 35.7924C109.848 36.0129 110.087 36.3152 110.244 36.6806C110.282 36.7373 110.257 36.7688 110.181 36.7877Z" fill="#00ACD7"/>
<path d="M112.266 40.2713C111.693 40.2587 111.17 40.0949 110.729 39.717C110.357 39.3957 110.124 38.9863 110.049 38.5013C109.935 37.7895 110.131 37.1596 110.559 36.599C111.019 35.9942 111.573 35.6793 112.323 35.547C112.965 35.4336 113.57 35.4966 114.118 35.8683C114.616 36.2084 114.924 36.6682 115.006 37.273C115.113 38.1233 114.868 38.8162 114.282 39.4083C113.866 39.8304 113.356 40.0949 112.77 40.2146C112.6 40.2461 112.43 40.2524 112.266 40.2713ZM113.765 37.7265C113.759 37.6446 113.759 37.5816 113.746 37.5186C113.633 36.895 113.06 36.5423 112.461 36.6808C111.876 36.8131 111.498 37.1848 111.359 37.7769C111.246 38.2682 111.485 38.7658 111.939 38.9674C112.285 39.1186 112.631 39.0997 112.965 38.9296C113.463 38.6713 113.734 38.2682 113.765 37.7265Z" fill="#00ACD7"/>
</g>
<path d="M106.604 55.7496C106.182 55.7496 105.857 55.6834 105.63 55.5509C105.402 55.4184 105.24 55.197 105.145 54.8865C105.05 54.5719 105.002 54.1269 105.002 53.5515C105.002 52.9886 105.048 52.5539 105.139 52.2476C105.234 51.9413 105.391 51.724 105.611 51.5956C105.83 51.4673 106.143 51.4031 106.548 51.4031C106.863 51.4031 107.107 51.4363 107.281 51.5025C107.459 51.5646 107.59 51.6701 107.672 51.8192C107.759 51.9682 107.815 52.1793 107.84 52.4525H107.325C107.304 52.3076 107.267 52.1959 107.213 52.1172C107.163 52.0344 107.087 51.9765 106.983 51.9433C106.88 51.9102 106.737 51.8937 106.555 51.8937C106.286 51.8937 106.079 51.9433 105.934 52.0427C105.789 52.142 105.685 52.3097 105.623 52.5456C105.565 52.7816 105.536 53.119 105.536 53.5577C105.536 54.0048 105.567 54.3505 105.63 54.5947C105.696 54.8348 105.803 55.0066 105.952 55.11C106.106 55.2094 106.323 55.2591 106.604 55.2591C106.762 55.2591 106.892 55.2487 106.996 55.228C107.099 55.2032 107.213 55.1618 107.337 55.1038V53.9117H106.499V53.4211H107.834V55.4516C107.602 55.5675 107.399 55.6461 107.225 55.6875C107.051 55.7289 106.844 55.7496 106.604 55.7496ZM110.147 55.7496C109.767 55.7496 109.471 55.6854 109.259 55.5571C109.048 55.4246 108.897 55.2053 108.806 54.8989C108.719 54.5885 108.676 54.1518 108.676 53.5888C108.676 53.0175 108.719 52.5767 108.806 52.2662C108.897 51.9516 109.046 51.7302 109.253 51.6018C109.464 51.4694 109.762 51.4031 110.147 51.4031C110.528 51.4031 110.822 51.4694 111.029 51.6018C111.24 51.7343 111.389 51.9558 111.476 52.2662C111.567 52.5767 111.613 53.0175 111.613 53.5888C111.613 54.1518 111.567 54.5885 111.476 54.8989C111.389 55.2053 111.24 55.4246 111.029 55.5571C110.822 55.6854 110.528 55.7496 110.147 55.7496ZM110.147 55.2715C110.392 55.2715 110.58 55.2218 110.712 55.1225C110.845 55.019 110.938 54.8493 110.992 54.6133C111.05 54.3732 111.079 54.0317 111.079 53.5888C111.079 53.1417 111.05 52.7961 110.992 52.5518C110.938 52.3076 110.845 52.1358 110.712 52.0365C110.58 51.933 110.392 51.8813 110.147 51.8813C109.899 51.8813 109.709 51.933 109.576 52.0365C109.444 52.1358 109.348 52.3076 109.291 52.5518C109.237 52.7961 109.21 53.1417 109.21 53.5888C109.21 54.0317 109.237 54.3732 109.291 54.6133C109.348 54.8493 109.444 55.019 109.576 55.1225C109.709 55.2218 109.899 55.2715 110.147 55.2715Z" fill="black" fill-opacity="0.7"/>
</g>
<g opacity="0.4">
<g clip-path="url(#clip5_691_45676)">
<path d="M145.891 41.4294C145.891 41.4294 145.398 41.7166 146.243 41.8138C147.266 41.9305 147.789 41.9136 148.917 41.7001C148.917 41.7001 149.213 41.886 149.627 42.0471C147.099 43.1307 143.906 41.9843 145.892 41.4294M145.583 40.0156C145.583 40.0156 145.029 40.4254 145.875 40.5129C146.967 40.6255 147.831 40.6348 149.325 40.3469C149.325 40.3469 149.531 40.5563 149.856 40.6711C146.8 41.5648 143.395 40.7418 145.582 40.0156" fill="#5382A1"/>
<path d="M148.187 37.6193C148.81 38.3368 148.023 38.9822 148.023 38.9822C148.023 38.9822 149.605 38.1656 148.879 37.1429C148.2 36.1894 147.68 35.7157 150.497 34.082C150.497 34.082 146.076 35.1862 148.187 37.6193Z" fill="#E76F00"/>
<path d="M151.53 42.4752C151.53 42.4752 151.896 42.7762 151.128 43.0092C149.669 43.4511 145.054 43.5846 143.773 43.0267C143.312 42.8263 144.176 42.5481 144.448 42.4894C144.731 42.4281 144.893 42.4397 144.893 42.4397C144.381 42.0785 141.581 43.1482 143.471 43.4549C148.626 44.2906 152.868 43.0783 151.53 42.4752ZM146.129 38.5506C146.129 38.5506 143.782 39.1077 145.298 39.3104C145.938 39.3964 147.214 39.3769 148.402 39.2771C149.374 39.1952 150.349 39.021 150.349 39.021C150.349 39.021 150.007 39.1679 149.758 39.3369C147.375 39.964 142.771 39.6723 144.096 39.0311C145.217 38.4889 146.129 38.5506 146.129 38.5506ZM150.339 40.904C152.762 39.645 151.642 38.435 150.86 38.5981C150.668 38.6381 150.583 38.6728 150.583 38.6728C150.583 38.6728 150.654 38.561 150.79 38.5128C152.337 37.9691 153.527 40.1169 150.29 40.9676C150.29 40.9676 150.328 40.9339 150.339 40.904Z" fill="#5382A1"/>
<path d="M148.879 31.4453C148.879 31.4453 150.221 32.7877 147.606 34.8517C145.509 36.5074 147.128 37.4515 147.605 38.5303C146.381 37.4261 145.483 36.4539 146.086 35.5494C146.97 34.2209 149.42 33.5774 148.879 31.4453Z" fill="#E76F00"/>
<path d="M146.367 44.3159C148.693 44.4647 152.264 44.2332 152.349 43.1328C152.349 43.1328 152.186 43.5497 150.427 43.881C148.442 44.2549 145.993 44.2112 144.541 43.9715C144.541 43.9715 144.839 44.2175 146.367 44.3155" fill="#5382A1"/>
</g>
<path d="M141.817 55.7434C141.494 55.7434 141.246 55.7082 141.072 55.6378C140.898 55.5675 140.774 55.4495 140.699 55.2839C140.629 55.1183 140.594 54.8824 140.594 54.5761H141.128C141.132 54.7582 141.155 54.8969 141.196 54.9921C141.242 55.0873 141.31 55.1556 141.401 55.197C141.496 55.2342 141.629 55.2529 141.798 55.2529C141.993 55.2529 142.142 55.2301 142.245 55.1846C142.349 55.139 142.423 55.0604 142.469 54.9486C142.514 54.8327 142.537 54.6692 142.537 54.4581V51.4652H143.071V54.4829C143.071 54.8141 143.032 55.0707 142.953 55.2529C142.879 55.4309 142.753 55.5571 142.575 55.6316C142.397 55.7061 142.144 55.7434 141.817 55.7434ZM145.36 55.7496C145.095 55.7496 144.89 55.7206 144.745 55.6627C144.605 55.6047 144.503 55.5074 144.441 55.3708C144.383 55.2342 144.354 55.0397 144.354 54.7872C144.354 54.4891 144.398 54.2594 144.485 54.0979C144.571 53.9324 144.716 53.8165 144.919 53.7502C145.126 53.6799 145.418 53.6447 145.795 53.6447H146.378V53.4894C146.378 53.3156 146.356 53.181 146.31 53.0858C146.269 52.9906 146.194 52.9223 146.086 52.8809C145.983 52.8395 145.834 52.8188 145.639 52.8188C145.387 52.8188 145.215 52.852 145.124 52.9182C145.033 52.9803 144.983 53.1024 144.975 53.2845H144.453C144.453 53.0444 144.489 52.8602 144.559 52.7319C144.629 52.5995 144.749 52.5063 144.919 52.4525C145.089 52.3945 145.329 52.3656 145.639 52.3656C145.962 52.3656 146.211 52.3987 146.385 52.4649C146.563 52.5312 146.687 52.645 146.757 52.8064C146.832 52.9679 146.869 53.1955 146.869 53.4894V55.6875H146.397V55.2715H146.353C146.246 55.4536 146.122 55.5799 145.981 55.6502C145.844 55.7165 145.637 55.7496 145.36 55.7496ZM145.49 55.2839C145.722 55.2839 145.9 55.2487 146.024 55.1783C146.149 55.1038 146.238 54.9817 146.291 54.812C146.345 54.6423 146.372 54.4001 146.372 54.0855L145.67 54.0917C145.464 54.0959 145.302 54.1186 145.186 54.16C145.074 54.1973 144.994 54.2615 144.944 54.3525C144.898 54.4394 144.876 54.5657 144.876 54.7313C144.876 54.9465 144.919 55.0935 145.006 55.1721C145.093 55.2466 145.254 55.2839 145.49 55.2839ZM147.897 52.4463H148.444L149.375 55.0852H149.418L150.35 52.4463H150.896L149.673 55.6875H149.12L147.897 52.4463ZM152.806 55.7496C152.541 55.7496 152.336 55.7206 152.192 55.6627C152.051 55.6047 151.949 55.5074 151.887 55.3708C151.829 55.2342 151.8 55.0397 151.8 54.7872C151.8 54.4891 151.844 54.2594 151.931 54.0979C152.018 53.9324 152.163 53.8165 152.365 53.7502C152.572 53.6799 152.864 53.6447 153.241 53.6447H153.825V53.4894C153.825 53.3156 153.802 53.181 153.756 53.0858C153.715 52.9906 153.64 52.9223 153.533 52.8809C153.429 52.8395 153.28 52.8188 153.086 52.8188C152.833 52.8188 152.661 52.852 152.57 52.9182C152.479 52.9803 152.43 53.1024 152.421 53.2845H151.9C151.9 53.0444 151.935 52.8602 152.005 52.7319C152.076 52.5995 152.196 52.5063 152.365 52.4525C152.535 52.3945 152.775 52.3656 153.086 52.3656C153.409 52.3656 153.657 52.3987 153.831 52.4649C154.009 52.5312 154.133 52.645 154.203 52.8064C154.278 52.9679 154.315 53.1955 154.315 53.4894V55.6875H153.843V55.2715H153.8C153.692 55.4536 153.568 55.5799 153.427 55.6502C153.291 55.7165 153.084 55.7496 152.806 55.7496ZM152.937 55.2839C153.168 55.2839 153.346 55.2487 153.471 55.1783C153.595 55.1038 153.684 54.9817 153.738 54.812C153.791 54.6423 153.818 54.4001 153.818 54.0855L153.117 54.0917C152.91 54.0959 152.748 54.1186 152.632 54.16C152.521 54.1973 152.44 54.2615 152.39 54.3525C152.345 54.4394 152.322 54.5657 152.322 54.7313C152.322 54.9465 152.365 55.0935 152.452 55.1721C152.539 55.2466 152.701 55.2839 152.937 55.2839Z" fill="black" fill-opacity="0.7"/>
</g>
<g opacity="0.4">
<g clip-path="url(#clip6_691_45676)">
<path fill-rule="evenodd" clip-rule="evenodd" d="M184.624 36.6351C185.086 38.0536 185.261 40.581 186.615 40.581C186.722 40.581 186.823 40.5672 186.929 40.5487C185.696 40.2622 185.553 37.7625 184.804 36.4688L184.624 36.6351Z" fill="#1384C8"/>
<path fill-rule="evenodd" clip-rule="evenodd" d="M184.799 36.4699C185.552 37.7637 185.695 40.2634 186.925 40.5499C187.026 40.5314 187.123 40.5037 187.22 40.4713C186.111 39.9307 185.806 37.5049 184.956 36.3359L184.799 36.4699Z" fill="#1384C8"/>
<path fill-rule="evenodd" clip-rule="evenodd" d="M185.88 35.6954C185.472 35.7215 185.078 35.852 184.734 36.0743C184.813 36.1528 184.887 36.236 184.956 36.333C185.243 36.0974 185.524 35.9172 185.806 35.8155C185.913 35.7739 186.019 35.7462 186.125 35.7231C186.045 35.7036 185.963 35.6943 185.88 35.6954ZM188.08 39.9694C188.195 39.877 188.311 39.7846 188.422 39.6737C187.95 38.2644 187.784 35.7 186.416 35.7C186.324 35.7 186.222 35.7093 186.125 35.7277C187.368 36.0373 187.525 38.7403 188.08 39.9694Z" fill="#1384C8"/>
<path fill-rule="evenodd" clip-rule="evenodd" d="M186.125 35.7277C186.046 35.7066 185.963 35.6957 185.881 35.6953H186.421C186.32 35.6953 186.222 35.7092 186.125 35.7277ZM188.057 40.2696C188.003 40.2171 187.952 40.1616 187.904 40.1033C187.673 40.265 187.442 40.3898 187.221 40.473C187.367 40.5444 187.529 40.5808 187.692 40.5792C187.946 40.5792 188.149 40.5469 188.32 40.4637C188.228 40.4175 188.135 40.3482 188.057 40.2696ZM185.807 35.8154C186.916 36.3976 187.017 39.0313 187.904 40.1033L188.08 39.9693C187.525 38.7402 187.368 36.0372 186.125 35.7277C186.019 35.7461 185.913 35.7739 185.807 35.8154Z" fill="#1384C8"/>
<path fill-rule="evenodd" clip-rule="evenodd" d="M184.956 36.3293C185.806 37.5029 186.111 39.9287 187.22 40.4693C187.447 40.3907 187.673 40.266 187.904 40.1043C187.017 39.0323 186.92 36.3986 185.806 35.8164C185.525 35.9227 185.243 36.0936 184.956 36.3339M184.078 36.6019C183.94 36.9022 183.806 37.2996 183.644 37.8217C183.967 37.3597 184.3 36.9577 184.624 36.6342C184.577 36.4956 184.531 36.3709 184.48 36.2554C184.342 36.357 184.212 36.4725 184.078 36.6019Z" fill="#1384C8"/>
<path fill-rule="evenodd" clip-rule="evenodd" d="M184.596 36.1719L184.48 36.255C184.527 36.3706 184.578 36.4953 184.619 36.6339L184.804 36.4676C184.742 36.3638 184.673 36.2649 184.596 36.1719Z" fill="#1384C8"/>
<path fill-rule="evenodd" clip-rule="evenodd" d="M184.739 36.075L184.6 36.1674C184.67 36.2598 184.739 36.3615 184.799 36.4677L184.956 36.3291C184.887 36.2367 184.818 36.1535 184.739 36.075ZM192.326 35.5898C191.698 38.0156 190.385 39.9655 189.281 40.4599L189.221 40.483H189.212L189.193 40.4922H189.189L189.161 40.5061H189.147L189.133 40.5153H189.124L189.11 40.5246L189.087 40.5292H189.078L189.059 40.5384H189.05L189.032 40.5431L189.013 40.5477C189.059 40.5662 189.115 40.5754 189.17 40.5754C190.214 40.5754 191.268 38.7041 193.01 35.5898H192.326ZM183.413 35.7978H183.418L183.436 35.7885H183.441L183.445 35.7839L183.464 35.7793L183.505 35.7608H183.51L183.529 35.7562H183.538L183.552 35.7469H183.561L183.616 35.7331H183.626L183.644 35.7285H183.649L183.667 35.7192L183.704 35.7146H183.736L183.755 35.71H183.764L183.801 35.7007H183.69C182.512 35.7007 180.89 37.8816 180.16 40.7094H180.299C180.534 40.2936 180.742 39.8962 180.936 39.5265C181.445 37.5259 182.489 36.1582 183.413 35.7978ZM184.078 36.6017C184.212 36.4724 184.346 36.3569 184.48 36.2552C184.451 36.1919 184.419 36.1302 184.383 36.0704C184.258 36.2329 184.155 36.4116 184.078 36.6017Z" fill="#1384C8"/>
<path fill-rule="evenodd" clip-rule="evenodd" d="M184.171 35.8107C184.249 35.8754 184.319 35.9678 184.383 36.0741L184.443 36.0048C184.364 35.9278 184.273 35.8625 184.175 35.8107M180.936 39.5257C182.008 37.4603 182.517 36.1527 183.413 35.7969C182.489 36.1573 181.449 37.525 180.936 39.5257Z" fill="#1384C8"/>
<path fill-rule="evenodd" clip-rule="evenodd" d="M184.448 36.0078L184.384 36.0725L184.476 36.2573L184.596 36.1742C184.55 36.1141 184.499 36.0586 184.444 36.0078M181.422 40.7023H181.385L181.339 40.7069C182.424 40.6792 182.919 40.134 183.168 39.3438C183.353 38.7432 183.506 38.2442 183.644 37.8191C183.141 38.545 182.683 39.3011 182.272 40.0831C182.05 40.4897 181.713 40.6653 181.422 40.7023Z" fill="#1384C8"/>
<path fill-rule="evenodd" clip-rule="evenodd" d="M181.422 40.7007C181.605 40.6745 181.779 40.6035 181.928 40.4938C182.077 40.3842 182.197 40.2394 182.276 40.0723C182.738 39.2175 183.191 38.4551 183.649 37.8175C183.81 37.2954 183.949 36.898 184.083 36.5977C183.177 37.4571 182.267 38.8941 181.426 40.6961M180.936 39.5271C180.742 39.8967 180.534 40.2941 180.299 40.7099H180.71C180.766 40.2941 180.839 39.9013 180.936 39.5271Z" fill="#1384C8"/>
<path fill-rule="evenodd" clip-rule="evenodd" d="M183.764 35.7054H183.755L183.737 35.71H183.727L183.714 35.7146H183.704L183.672 35.7238H183.663C183.657 35.7243 183.65 35.7243 183.644 35.7238L183.635 35.7285H183.621L183.612 35.7331L183.556 35.7469H183.547L183.533 35.7562H183.524L183.506 35.7654H183.501L183.459 35.7793L183.441 35.7839L183.436 35.7885L183.418 35.7931L183.413 35.7978C182.512 36.1535 182.004 37.4612 180.932 39.5265C180.84 39.9008 180.761 40.2936 180.706 40.7094H181.385L181.403 40.7048H181.426C182.263 38.9028 183.173 37.4658 184.079 36.6017C184.18 36.38 184.277 36.2044 184.384 36.075C184.329 35.9778 184.259 35.8903 184.176 35.8163L184.162 35.807L184.148 35.8024L184.134 35.7931H184.12L184.111 35.7839L184.088 35.7747H184.074C184.069 35.7717 184.065 35.7686 184.06 35.7654L184.046 35.7608L184.023 35.7516L183.995 35.7423H183.986L183.963 35.7331H183.958C183.939 35.7277 183.919 35.7231 183.898 35.7192H183.889L183.866 35.7146H183.861L183.829 35.71H183.764M189.868 36.9298C189.665 37.5952 189.498 38.1404 189.351 38.5932C189.991 37.6809 190.544 36.711 191.005 35.6961C190.386 35.8948 190.058 36.3384 189.868 36.9344M189.369 40.4183L189.281 40.4599C190.386 39.9655 191.698 38.0156 192.331 35.5898H192.201C190.755 38.1773 190.289 39.9008 189.369 40.4183ZM188.648 40.2011C188.889 39.9054 189.083 39.411 189.351 38.5886C189.074 38.9746 188.765 39.3363 188.426 39.6698L188.422 39.6744C188.491 39.8777 188.56 40.0579 188.648 40.2011ZM188.648 40.2011C188.559 40.3116 188.447 40.4014 188.32 40.4645C188.441 40.5301 188.575 40.568 188.713 40.5754H188.902L188.921 40.5662H188.958L189.013 40.5523C188.87 40.5015 188.75 40.3767 188.644 40.2011M186.62 40.58C186.825 40.5808 187.029 40.5432 187.221 40.4691C187.367 40.542 187.528 40.58 187.692 40.58H186.62Z" fill="#1384C8"/>
<path fill-rule="evenodd" clip-rule="evenodd" d="M187.692 40.58C187.946 40.58 188.149 40.5477 188.32 40.4645C188.441 40.5301 188.575 40.568 188.713 40.5754H188.773H187.692V40.58ZM188.773 40.58H188.842L188.861 40.5754H188.907L188.93 40.5662H188.958L189.013 40.5523C189.059 40.5708 189.115 40.58 189.17 40.58H188.773ZM188.422 39.6744C188.259 39.8292 188.086 39.9728 187.904 40.1041C187.951 40.1642 188.006 40.2196 188.057 40.2705C188.14 40.349 188.228 40.4137 188.32 40.4645L188.385 40.4322C188.477 40.3767 188.57 40.2982 188.648 40.2011C188.565 40.0533 188.491 39.8777 188.422 39.6744ZM191.795 35.5898H191.157L191.051 35.5945L191.005 35.6961C190.544 36.7094 189.99 37.6777 189.351 38.5886C189.083 39.4064 188.888 39.9054 188.648 40.1965C188.75 40.3721 188.87 40.4969 189.013 40.5477H189.032L189.05 40.5384H189.059L189.078 40.5338H189.087L189.11 40.5246L189.124 40.52L189.133 40.5153L189.147 40.5107L189.161 40.5061L189.189 40.4969H189.193L189.212 40.4876H189.221L189.277 40.4599H189.281L189.369 40.4137C190.289 39.9054 190.755 38.1727 192.201 35.5898H191.795ZM183.801 35.7054H183.824L183.861 35.71L183.889 35.7192H183.898L183.958 35.7331L183.986 35.7423H183.991C184.002 35.745 184.012 35.7481 184.023 35.7516L184.046 35.7608H184.055L184.074 35.77L184.083 35.7747L184.106 35.7839L184.12 35.7885L184.134 35.7978H184.148L184.162 35.807C184.263 35.8578 184.356 35.9271 184.444 36.0057C184.475 35.9724 184.509 35.9415 184.545 35.9133C184.33 35.7571 184.066 35.6833 183.801 35.7054Z" fill="#1384C8"/>
<path fill-rule="evenodd" clip-rule="evenodd" d="M184.448 36.0049C184.494 36.0511 184.55 36.1112 184.596 36.1712C184.642 36.1343 184.688 36.1065 184.735 36.0788C184.676 36.0181 184.613 35.9624 184.545 35.9125C184.508 35.9402 184.476 35.9679 184.444 36.0049M183.801 35.7046L183.889 35.6999C184.139 35.6999 184.351 35.7785 184.545 35.9125C184.749 35.7554 184.989 35.6953 185.331 35.6953H183.69L183.801 35.7046Z" fill="#1384C8"/>
<path fill-rule="evenodd" clip-rule="evenodd" d="M185.326 35.6954C184.989 35.6954 184.748 35.7555 184.541 35.9126C184.61 35.9588 184.679 36.0142 184.739 36.0743C185.016 35.8987 185.294 35.7786 185.571 35.7277C185.677 35.7093 185.779 35.6954 185.88 35.6954H185.326ZM189.346 38.5925C189.494 38.1397 189.66 37.5944 189.868 36.9291C190.053 36.3377 190.386 35.8895 191.005 35.6954L191.051 35.5938C190.044 35.6584 189.572 36.1713 189.332 36.9337C188.916 38.2598 188.667 39.1238 188.422 39.6691C188.761 39.3365 189.07 38.9747 189.346 38.5879" fill="#1384C8"/>
</g>
<path d="M180.511 54.7375H181.455V55.6875H180.511V54.7375ZM183.296 51.4652H183.924L185.637 54.9548H185.668L185.588 54.0979V51.4652H186.109V55.6875H185.476L183.768 52.1979H183.737L183.818 53.0548V55.6875H183.296V51.4652ZM187.274 51.4652H189.615V51.9496H187.808V53.2473H189.379V53.7316H187.808V55.2032H189.739V55.6875H187.274V51.4652ZM191.879 51.9558H190.736V51.4652H193.562V51.9558H192.413V55.6875H191.879V51.9558Z" fill="black" fill-opacity="0.7"/>
</g>
<g opacity="0.4">
<g clip-path="url(#clip7_691_45676)">
<path fill-rule="evenodd" clip-rule="evenodd" d="M223.127 37.2969H222.65L222.39 38.6351H222.814C223.095 38.6351 223.304 38.5817 223.442 38.4762C223.579 38.3703 223.672 38.194 223.719 37.9462C223.766 37.7084 223.745 37.5411 223.657 37.4432C223.569 37.3458 223.392 37.2969 223.127 37.2969Z" fill="#6181B6"/>
<path d="M225.649 35.0117C222.3 35.0117 219.585 36.4401 219.585 38.2016C219.585 39.9631 222.3 41.3919 225.649 41.3919C228.999 41.3919 231.714 39.9636 231.714 38.2016C231.714 36.4397 228.999 35.0117 225.649 35.0117ZM224.002 38.7773C223.87 38.9034 223.712 38.9984 223.539 39.0555C223.369 39.1101 223.152 39.1384 222.889 39.1384H222.292L222.127 39.9882H221.43L222.052 36.791H223.391C223.794 36.791 224.088 36.8966 224.272 37.1084C224.458 37.3199 224.513 37.615 224.439 37.9938C224.411 38.1438 224.359 38.2885 224.285 38.422C224.21 38.5547 224.114 38.6746 224.002 38.7773H224.002ZM226.036 39.1384L226.31 37.7242C226.342 37.5632 226.33 37.4533 226.276 37.3951C226.222 37.3364 226.106 37.3069 225.928 37.3069H225.377L225.021 39.1392H224.329L224.951 35.9416H225.642L225.477 36.7918H226.092C226.48 36.7918 226.747 36.8594 226.894 36.994C227.041 37.1286 227.085 37.3482 227.026 37.651L226.737 39.1388H226.036V39.1384ZM229.875 37.9942C229.847 38.1442 229.795 38.2887 229.721 38.422C229.646 38.5547 229.55 38.6746 229.437 38.7773C229.305 38.9032 229.147 38.9982 228.974 39.0555C228.804 39.1101 228.587 39.1384 228.324 39.1384H227.728L227.562 39.9886H226.866L227.488 36.7914H228.827C229.229 36.7914 229.523 36.8974 229.708 37.1088C229.893 37.3199 229.949 37.615 229.875 37.9942Z" fill="#6181B6"/>
<path fill-rule="evenodd" clip-rule="evenodd" d="M228.563 37.2969H228.087L227.827 38.6351H228.25C228.531 38.6351 228.741 38.5817 228.878 38.4762C229.015 38.3703 229.107 38.194 229.156 37.9462C229.202 37.7084 229.181 37.5411 229.093 37.4432C229.005 37.3458 228.828 37.2969 228.563 37.2969Z" fill="#6181B6"/>
</g>
<path d="M221.14 51.4466C221.616 51.4466 221.98 51.4859 222.232 51.5646C222.485 51.6432 222.665 51.7778 222.773 51.9682C222.88 52.1586 222.934 52.4318 222.934 52.7878C222.934 53.119 222.886 53.3777 222.791 53.564C222.7 53.7461 222.545 53.8765 222.326 53.9551C222.11 54.0338 221.804 54.0731 221.407 54.0731H220.86V55.6875H220.326V51.4652L221.14 51.4466ZM221.351 53.5826C221.624 53.5826 221.835 53.5577 221.984 53.5081C222.137 53.4584 222.245 53.3756 222.307 53.2597C222.373 53.1397 222.406 52.972 222.406 52.7568C222.406 52.5374 222.371 52.3697 222.301 52.2538C222.235 52.1338 222.119 52.051 221.953 52.0054C221.792 51.9558 221.556 51.9309 221.245 51.9309H220.86V53.5826H221.351ZM223.857 51.4652H224.391V53.2411H226.08V51.4652H226.614V55.6875H226.08V53.7316H224.391V55.6875H223.857V51.4652ZM228.586 51.4466C229.062 51.4466 229.426 51.4859 229.679 51.5646C229.931 51.6432 230.111 51.7778 230.219 51.9682C230.326 52.1586 230.38 52.4318 230.38 52.7878C230.38 53.119 230.333 53.3777 230.237 53.564C230.146 53.7461 229.991 53.8765 229.772 53.9551C229.557 54.0338 229.25 54.0731 228.853 54.0731H228.306V55.6875H227.772V51.4652L228.586 51.4466ZM228.797 53.5826C229.07 53.5826 229.281 53.5577 229.43 53.5081C229.583 53.4584 229.691 53.3756 229.753 53.2597C229.819 53.1397 229.853 52.972 229.853 52.7568C229.853 52.5374 229.817 52.3697 229.747 52.2538C229.681 52.1338 229.565 52.051 229.399 52.0054C229.238 51.9558 229.002 51.9309 228.691 51.9309H228.306V53.5826H228.797Z" fill="black" fill-opacity="0.7"/>
</g>
<g opacity="0.4">
<g clip-path="url(#clip8_691_45676)">
<path fill-rule="evenodd" clip-rule="evenodd" d="M267.413 39.7577L261.718 43.1397L269.092 42.6393L269.66 35.2031L267.413 39.7577Z" fill="url(#paint1_linear_691_45676)"/>
<path fill-rule="evenodd" clip-rule="evenodd" d="M269.104 42.6327L268.47 38.2578L266.744 40.5376L269.104 42.6327Z" fill="url(#paint2_linear_691_45676)"/>
<path fill-rule="evenodd" clip-rule="evenodd" d="M269.113 42.6341L264.469 42.2695L261.742 43.1301L269.113 42.6341Z" fill="url(#paint3_linear_691_45676)"/>
<path fill-rule="evenodd" clip-rule="evenodd" d="M261.749 43.1324L262.909 39.332L260.356 39.8779L261.749 43.1324Z" fill="url(#paint4_linear_691_45676)"/>
<path fill-rule="evenodd" clip-rule="evenodd" d="M266.743 40.5521L265.676 36.3711L262.621 39.2345L266.743 40.5521Z" fill="url(#paint5_linear_691_45676)"/>
<path fill-rule="evenodd" clip-rule="evenodd" d="M269.418 36.4287L266.531 34.0703L265.727 36.6699L269.418 36.4287Z" fill="url(#paint6_linear_691_45676)"/>
<path fill-rule="evenodd" clip-rule="evenodd" d="M268.068 33.2313L266.37 34.1699L265.298 33.2188L268.068 33.2313Z" fill="url(#paint7_linear_691_45676)"/>
<path fill-rule="evenodd" clip-rule="evenodd" d="M259.685 41.1518L260.396 39.8543L259.821 38.3086L259.685 41.1518Z" fill="url(#paint8_linear_691_45676)"/>
<path fill-rule="evenodd" clip-rule="evenodd" d="M259.782 38.2591L260.361 39.9015L262.877 39.337L265.75 36.6675L266.56 34.0927L265.284 33.1914L263.114 34.0035C262.43 34.6395 261.103 35.8977 261.056 35.9214C261.008 35.9455 260.179 37.5119 259.782 38.2591Z" fill="white"/>
<path fill-rule="evenodd" clip-rule="evenodd" d="M261.815 35.308C263.297 33.8388 265.207 32.9708 265.94 33.7104C266.673 34.4501 265.896 36.2475 264.414 37.7162C262.933 39.1849 261.046 40.1008 260.313 39.3612C259.58 38.622 260.333 36.7767 261.815 35.308Z" fill="url(#paint9_linear_691_45676)"/>
<path fill-rule="evenodd" clip-rule="evenodd" d="M261.749 43.1289L262.9 39.3164L266.723 40.5444C265.34 41.8404 263.803 42.936 261.749 43.1289Z" fill="url(#paint10_linear_691_45676)"/>
<path fill-rule="evenodd" clip-rule="evenodd" d="M265.755 36.6603L266.736 40.5473C267.89 39.3333 268.927 38.0283 269.434 36.4141L265.755 36.6603Z" fill="url(#paint11_linear_691_45676)"/>
<path fill-rule="evenodd" clip-rule="evenodd" d="M269.424 36.4317C269.817 35.2465 269.908 33.5462 268.056 33.2305L266.536 34.0698L269.424 36.4317Z" fill="url(#paint12_linear_691_45676)"/>
<path fill-rule="evenodd" clip-rule="evenodd" d="M259.685 41.1351C259.739 43.0913 261.15 43.1204 261.751 43.1376L260.363 39.8945L259.685 41.1351Z" fill="#9E1209"/>
<path fill-rule="evenodd" clip-rule="evenodd" d="M265.76 36.6651C266.647 37.2103 268.435 38.3055 268.472 38.3256C268.528 38.3573 269.242 37.1207 269.405 36.4219L265.76 36.6651Z" fill="url(#paint13_radial_691_45676)"/>
<path fill-rule="evenodd" clip-rule="evenodd" d="M262.898 39.3164L264.437 42.285C265.347 41.7916 266.059 41.1904 266.712 40.5464L262.898 39.3164Z" fill="url(#paint14_radial_691_45676)"/>
<path fill-rule="evenodd" clip-rule="evenodd" d="M260.357 39.8991L260.139 42.4951C260.55 43.057 261.116 43.1059 261.71 43.062C261.28 41.9931 260.422 39.8558 260.357 39.8991Z" fill="url(#paint15_linear_691_45676)"/>
<path fill-rule="evenodd" clip-rule="evenodd" d="M266.527 34.0784L269.584 34.5073C269.42 33.816 268.919 33.3699 268.066 33.2305L266.527 34.0784Z" fill="url(#paint16_linear_691_45676)"/>
</g>
<path d="M257.738 49.6996L258.358 49.681C258.884 49.6644 259.284 49.6913 259.557 49.7617C259.834 49.8279 260.027 49.9459 260.134 50.1156C260.246 50.2812 260.306 50.5234 260.314 50.8421C260.323 51.0739 260.304 51.2623 260.258 51.4071C260.213 51.552 260.134 51.6638 260.023 51.7424C259.911 51.8211 259.756 51.8728 259.557 51.8977V51.9349C259.747 51.968 259.886 52.0384 259.973 52.146C260.06 52.2495 260.138 52.4317 260.209 52.6925L260.532 53.9219H259.942L259.669 52.6925C259.619 52.4648 259.532 52.3096 259.408 52.2268C259.284 52.144 259.077 52.1026 258.787 52.1026H258.272V53.9219H257.738V49.6996ZM259.184 51.6058C259.416 51.6017 259.575 51.5458 259.662 51.4382C259.749 51.3306 259.793 51.1401 259.793 50.8669C259.793 50.6931 259.774 50.5627 259.737 50.4758C259.704 50.3847 259.642 50.3185 259.551 50.2771C259.464 50.2315 259.331 50.1984 259.153 50.1777C259 50.1612 258.87 50.1529 258.762 50.1529C258.654 50.1529 258.491 50.1612 258.272 50.1777V51.612L259.184 51.6058ZM262.46 53.984C262.195 53.984 261.99 53.9488 261.846 53.8784C261.705 53.8039 261.603 53.6797 261.541 53.5059C261.483 53.3279 261.454 53.0774 261.454 52.7545V50.6807H261.976V52.767C261.976 52.9615 261.995 53.1126 262.032 53.2202C262.073 53.3279 262.14 53.4044 262.231 53.45C262.322 53.4955 262.45 53.5183 262.616 53.5183C262.856 53.5183 263.04 53.4831 263.168 53.4127C263.296 53.3423 263.388 53.2244 263.441 53.0588C263.499 52.8932 263.528 52.6593 263.528 52.3572V50.6807H264.044V53.9219H263.528V53.4376H263.485C263.39 53.6445 263.27 53.7873 263.125 53.866C262.98 53.9446 262.758 53.984 262.46 53.984ZM266.624 53.984C266.409 53.984 266.239 53.955 266.115 53.897C265.995 53.8391 265.875 53.7294 265.755 53.568H265.712V53.9219H265.196L265.202 49.4016H265.718L265.712 51.0222H265.761C265.861 50.8607 265.97 50.751 266.09 50.6931C266.214 50.6351 266.399 50.6062 266.643 50.6062C266.978 50.6062 267.237 50.6579 267.419 50.7614C267.601 50.8607 267.73 51.0305 267.804 51.2705C267.883 51.5065 267.922 51.8459 267.922 52.2889C267.922 52.7359 267.883 53.0795 267.804 53.3196C267.725 53.5597 267.593 53.7315 267.407 53.8349C267.225 53.9343 266.964 53.984 266.624 53.984ZM266.513 53.5183C266.744 53.5183 266.922 53.481 267.047 53.4065C267.171 53.332 267.26 53.2078 267.313 53.034C267.367 52.8601 267.394 52.6117 267.394 52.2889C267.394 51.9701 267.367 51.7238 267.313 51.55C267.26 51.3761 267.171 51.254 267.047 51.1836C266.922 51.1091 266.744 51.0718 266.513 51.0718C266.297 51.0718 266.132 51.1091 266.016 51.1836C265.904 51.254 265.823 51.3761 265.774 51.55C265.724 51.7238 265.699 51.9701 265.699 52.2889C265.699 52.6117 265.724 52.8622 265.774 53.0402C265.823 53.214 265.904 53.3382 266.016 53.4127C266.132 53.4831 266.297 53.5183 266.513 53.5183ZM270.08 53.6859H269.832L268.752 50.6807H269.279L270.205 53.3134H270.217L271.111 50.6807H271.639L270.037 55.2941H269.515L270.08 53.6859Z" fill="black" fill-opacity="0.7"/>
</g>
<g opacity="0.3">
<g clip-path="url(#clip9_691_45676)">
<path d="M298.734 33.1914H308.682V43.1396H298.734" fill="#62636C"/>
<path d="M306.044 39.1867C306.051 39.1595 306.061 39.1304 306.067 39.1032C306.376 37.8752 305.624 36.4238 304.351 35.6602C304.909 36.416 305.156 37.3311 304.936 38.1317C304.917 38.2036 304.893 38.2716 304.868 38.3376C304.841 38.3182 304.804 38.2988 304.757 38.2716C304.757 38.2716 303.492 37.4905 302.121 36.107C302.084 36.0701 302.851 37.2048 303.724 38.1239C303.314 37.8927 302.169 37.0611 301.446 36.3985C301.536 36.5462 301.641 36.69 301.757 36.8279C302.362 37.5954 303.15 38.5416 304.095 39.2664C303.43 39.6725 302.494 39.7036 301.559 39.2664C301.328 39.1576 301.11 39.0274 300.91 38.8797C301.305 39.5112 301.915 40.0572 302.655 40.3758C303.539 40.7547 304.417 40.7295 305.072 40.3817C305.076 40.3797 305.078 40.3778 305.082 40.3758C305.109 40.3615 305.135 40.3466 305.161 40.3312C305.476 40.1679 306.096 40.0028 306.43 40.6517C306.512 40.8111 306.685 39.9698 306.047 39.1848L306.044 39.1867Z" fill="white"/>
</g>
<path d="M296.071 53.9653C295.686 53.9653 295.392 53.9322 295.189 53.866C294.986 53.7998 294.842 53.6859 294.755 53.5245C294.672 53.3589 294.63 53.123 294.63 52.8166H295.171C295.187 52.9988 295.224 53.1374 295.282 53.2327C295.34 53.3237 295.429 53.39 295.549 53.4313C295.674 53.4686 295.852 53.4893 296.083 53.4934C296.319 53.4976 296.502 53.4831 296.63 53.45C296.758 53.4127 296.851 53.3506 296.909 53.2637C296.967 53.1768 296.996 53.0484 296.996 52.8787C296.996 52.7049 296.963 52.5641 296.897 52.4565C296.831 52.3489 296.719 52.2537 296.562 52.1709C296.404 52.0839 296.172 51.9929 295.866 51.8977C295.539 51.7942 295.291 51.6928 295.121 51.5934C294.955 51.4899 294.837 51.3678 294.767 51.2271C294.697 51.0822 294.662 50.8918 294.662 50.6558C294.662 50.3868 294.703 50.1819 294.786 50.0411C294.868 49.8962 295.007 49.7948 295.202 49.7369C295.4 49.6748 295.682 49.6437 296.046 49.6437C296.402 49.6437 296.675 49.6727 296.866 49.7307C297.056 49.7886 297.193 49.888 297.276 50.0287C297.363 50.1694 297.414 50.3743 297.431 50.6434H296.897C296.88 50.4985 296.845 50.3888 296.791 50.3143C296.737 50.2398 296.653 50.1881 296.537 50.1591C296.425 50.1301 296.266 50.1156 296.059 50.1156C295.827 50.1156 295.647 50.1343 295.518 50.1715C295.394 50.2046 295.305 50.2605 295.251 50.3392C295.202 50.4137 295.177 50.5213 295.177 50.662C295.177 50.8028 295.21 50.9187 295.276 51.0098C295.342 51.1008 295.454 51.1857 295.612 51.2643C295.769 51.3388 296.007 51.4299 296.326 51.5375C296.644 51.6493 296.886 51.759 297.052 51.8666C297.222 51.9743 297.34 52.1067 297.406 52.264C297.476 52.4172 297.512 52.6242 297.512 52.8849C297.512 53.1706 297.468 53.39 297.381 53.5431C297.298 53.6963 297.156 53.806 296.953 53.8722C296.75 53.9343 296.456 53.9653 296.071 53.9653ZM300.334 53.9219L299.813 51.2581H299.782L299.254 53.9219H298.689L297.993 50.6745H298.54L298.956 53.301H299.012L299.527 50.6807H300.067L300.576 53.301H300.632L301.048 50.6745H301.595L300.899 53.9219H300.334ZM303.207 49.4016H303.921V50.1094H303.207V49.4016ZM302.356 53.4624H303.405V51.1339H302.418V50.6807H303.915V53.4624H304.92V53.9157H302.356V53.4624ZM306.818 51.1712H306.011L305.862 50.6807H306.818V50.2336C306.818 49.9563 306.868 49.7472 306.967 49.6065C307.066 49.4657 307.234 49.3705 307.47 49.3209C307.71 49.2712 308.056 49.2567 308.507 49.2774V49.7369C308.192 49.7244 307.95 49.7327 307.781 49.7617C307.611 49.7865 307.491 49.8383 307.42 49.9169C307.354 49.9956 307.321 50.1094 307.321 50.2584V50.6807H308.445V51.1712H307.321V53.9219H306.818V51.1712ZM311.348 53.9902C311.083 53.9902 310.885 53.955 310.752 53.8846C310.62 53.8142 310.531 53.7066 310.485 53.5617C310.44 53.4169 310.417 53.212 310.417 52.947V51.1401H309.579L309.703 50.6807H310.442V49.9542L310.926 49.7493V50.6807H312.062V51.1401H310.926V52.9222C310.926 53.0671 310.941 53.1809 310.97 53.2637C311.003 53.3465 311.063 53.4107 311.15 53.4562C311.241 53.4976 311.375 53.5183 311.553 53.5183C311.711 53.5183 311.926 53.4996 312.199 53.4624V53.9219C311.835 53.9674 311.551 53.9902 311.348 53.9902Z" fill="black" fill-opacity="0.7"/>
</g>
<g opacity="0.3">
<path d="M343.232 33.8417L342.9 33.296C342.828 33.1774 342.686 33.1774 342.615 33.296L342.283 33.8417M342.283 42.525L342.615 43.0706C342.686 43.1893 342.828 43.1893 342.9 43.0706L343.232 42.525" fill="black"/>
<path d="M344.07 34.0185L343.85 33.4185C343.804 33.2883 343.664 33.2605 343.571 33.363L343.139 33.8334M341.445 42.3498L341.664 42.9498C341.711 43.0801 341.85 43.1078 341.943 43.0054L342.376 42.535" fill="black"/>
<path d="M344.857 34.3557L344.759 33.7245C344.739 33.5877 344.607 33.5332 344.496 33.6156L343.98 33.9926M340.657 42.0149L340.755 42.6461C340.776 42.783 340.907 42.8375 341.018 42.7551L341.534 42.3781" fill="black"/>
<path d="M345.564 34.8362L345.591 34.1979C345.597 34.0598 345.479 33.9807 345.354 34.0398L344.775 34.3089M339.95 41.5288L339.923 42.1671C339.917 42.3052 340.035 42.3843 340.16 42.3252L340.739 42.0561" fill="black"/>
<path d="M346.163 35.4518L346.314 34.8311C346.347 34.6969 346.247 34.5963 346.112 34.6298L345.492 34.7808M339.352 40.9208L339.201 41.5415C339.167 41.6757 339.268 41.7764 339.402 41.7428L340.023 41.5918" fill="black"/>
<path d="M346.631 36.1651L346.9 35.5858C346.959 35.4607 346.88 35.3423 346.742 35.349L346.103 35.376M338.884 40.2002L338.614 40.7795C338.555 40.9046 338.634 41.023 338.773 41.0163L339.411 40.9893" fill="black"/>
<path d="M346.95 36.9595L347.327 36.4438C347.409 36.3326 347.355 36.2011 347.218 36.1808L346.587 36.0827M338.564 39.4057L338.187 39.9213C338.105 40.0325 338.16 40.164 338.296 40.1844L338.928 40.2824" fill="black"/>
<path d="M347.108 37.8046L347.578 37.3724C347.681 37.2794 347.653 37.1398 347.523 37.0931L346.923 36.8738M338.406 38.5678L337.936 39.0001C337.833 39.093 337.861 39.2326 337.991 39.2793L338.591 39.4986" fill="black"/>
<path d="M347.099 38.6599L347.644 38.3278C347.763 38.2566 347.763 38.1143 347.644 38.0431L347.099 37.7109M338.415 37.7109L337.87 38.0431C337.751 38.1143 337.751 38.2566 337.87 38.3278L338.415 38.6599" fill="black"/>
<path d="M346.923 39.4944L347.523 39.2751C347.653 39.2285 347.681 39.0889 347.578 38.9959L347.108 38.5637M338.592 36.8697L337.992 37.089C337.861 37.1356 337.834 37.2752 337.936 37.3682L338.406 37.8004" fill="black"/>
<path d="M346.587 40.2823L347.218 40.1843C347.355 40.1639 347.409 40.0324 347.327 39.9213L346.95 39.4056M338.928 36.0826L338.296 36.1807C338.16 36.201 338.105 36.3325 338.188 36.4437L338.565 36.9594" fill="black"/>
<path d="M346.104 40.9912L346.742 41.0181C346.88 41.0249 346.959 40.9065 346.9 40.7814L346.631 40.2021M339.411 35.3779L338.773 35.3509C338.634 35.3442 338.555 35.4626 338.614 35.5876L338.884 36.167" fill="black"/>
<path d="M345.492 41.5895L346.112 41.7405C346.247 41.774 346.347 41.6733 346.314 41.5391L346.163 40.9184M340.023 34.7784L339.402 34.6274C339.268 34.5939 339.167 34.6945 339.201 34.8287L339.352 35.4494" fill="black"/>
<path d="M344.775 42.0581L345.354 42.3273C345.479 42.3864 345.597 42.3073 345.591 42.1692L345.564 41.5309M340.739 34.311L340.16 34.0418C340.035 33.9827 339.917 34.0618 339.923 34.2L339.95 34.8382" fill="black"/>
<path d="M343.98 42.3784L344.496 42.7554C344.607 42.8378 344.739 42.7833 344.759 42.6465L344.857 42.0152M341.534 33.9929L341.018 33.6159C340.907 33.5335 340.776 33.588 340.755 33.7248L340.657 34.3561" fill="black"/>
<path d="M343.139 42.5354L343.571 43.0057C343.664 43.1082 343.804 43.0804 343.85 42.9502L344.07 42.3502M342.376 33.8338L341.943 33.3634C341.85 33.2609 341.711 33.2887 341.664 33.4189L341.445 34.0189" fill="black"/>
<path d="M340.361 34.3633C339.472 34.9209 338.806 35.771 338.477 36.767C338.148 37.7631 338.177 38.8427 338.558 39.82L339.317 39.4404C339.115 38.8868 339.05 38.2927 339.127 37.7085L339.72 37.4001C339.863 37.3289 339.934 37.1865 339.839 37.0442L339.578 36.4273C339.901 35.8241 340.386 35.3229 340.978 34.9801M338.89 36.9256C339.009 36.546 339.578 36.7595 339.459 37.1154C339.341 37.4712 338.771 37.3052 338.89 36.9256Z" fill="black"/>
<path d="M345.65 34.723C344.845 34.0503 343.83 33.6793 342.781 33.6741C341.732 33.6689 340.714 34.0297 339.903 34.6944L340.498 35.2991C340.962 34.9359 341.507 34.6904 342.087 34.5834L342.563 35.0522C342.675 35.1656 342.833 35.1893 342.939 35.055L343.445 34.6162C344.118 34.7369 344.745 35.043 345.254 35.5003M342.758 34.1158C343.156 34.1113 343.129 34.7189 342.754 34.716C342.378 34.7132 342.36 34.1203 342.758 34.1158Z" fill="black"/>
<path d="M346.941 39.8661C347.332 38.8927 347.371 37.8134 347.052 36.8141C346.733 35.8148 346.075 34.9582 345.192 34.3917L344.801 35.145C345.29 35.4741 345.692 35.9166 345.973 36.4346L345.674 37.0328C345.601 37.174 345.627 37.331 345.787 37.3904L346.361 37.736C346.454 38.4138 346.357 39.1043 346.079 39.7296M346.625 36.9286C346.752 37.3054 346.166 37.4673 346.053 37.1097C345.939 36.7521 346.498 36.5517 346.625 36.9286Z" fill="black"/>
<path d="M342.45 42.6847C343.497 42.7558 344.536 42.4597 345.387 41.8473C346.239 41.2349 346.851 40.3447 347.117 39.3299L346.279 39.1908C346.117 39.7574 345.821 40.2764 345.415 40.7035L344.754 40.6044C344.597 40.5783 344.455 40.6516 344.449 40.8226L344.297 41.475C343.681 41.7733 342.995 41.8938 342.314 41.8231M345.147 41.4763C344.827 41.7137 344.492 41.2063 344.797 40.9881C345.103 40.7699 345.466 41.239 345.147 41.4763Z" fill="black"/>
<path d="M338.384 39.2848C338.64 40.3022 339.242 41.1985 340.088 41.8193C340.933 42.4401 341.969 42.7466 343.016 42.6859L342.89 41.8465C342.301 41.8676 341.716 41.7459 341.184 41.4919L341.074 40.8325C341.05 40.6751 340.937 40.5634 340.772 40.6097L340.105 40.6673C339.631 40.1738 339.304 39.5579 339.161 38.8888M340.366 41.4756C340.042 41.2454 340.421 40.7699 340.723 40.9927C341.025 41.2155 340.691 41.7057 340.366 41.4756Z" fill="black"/>
<path d="M345.96 38.4234C345.96 38.4234 346.055 39.1826 345.533 39.1826C345.011 39.1826 345.391 38.6132 344.513 37.9726C344.513 37.9726 345.248 37.6642 345.248 36.8575C345.248 36.0509 344.299 35.7188 343.896 35.7188H339.459V36.8101H340.29V39.1589H339.056V40.3214H342.852V39.1826H341.927V38.5183H342.876C343.849 38.5183 343.184 40.3214 344.299 40.3214H346.648V38.4234M341.927 37.5218V36.8101H343.208C343.73 36.8101 343.754 37.5218 343.208 37.5218" fill="black"/>
<path d="M335.796 49.6996L336.417 49.681C336.943 49.6644 337.342 49.6913 337.615 49.7617C337.893 49.8279 338.085 49.9459 338.193 50.1156C338.305 50.2812 338.365 50.5234 338.373 50.8421C338.381 51.0739 338.363 51.2623 338.317 51.4071C338.272 51.552 338.193 51.6638 338.081 51.7424C337.969 51.8211 337.814 51.8728 337.615 51.8977V51.9349C337.806 51.968 337.945 52.0384 338.031 52.146C338.118 52.2495 338.197 52.4317 338.267 52.6925L338.59 53.9219H338L337.727 52.6925C337.678 52.4648 337.591 52.3096 337.466 52.2268C337.342 52.144 337.135 52.1026 336.845 52.1026H336.33V53.9219H335.796V49.6996ZM337.243 51.6058C337.475 51.6017 337.634 51.5458 337.721 51.4382C337.808 51.3306 337.851 51.1401 337.851 50.8669C337.851 50.6931 337.833 50.5627 337.795 50.4758C337.762 50.3847 337.7 50.3185 337.609 50.2771C337.522 50.2315 337.39 50.1984 337.212 50.1777C337.059 50.1612 336.928 50.1529 336.821 50.1529C336.713 50.1529 336.55 50.1612 336.33 50.1777V51.612L337.243 51.6058ZM340.519 53.984C340.254 53.984 340.049 53.9488 339.904 53.8784C339.763 53.8039 339.662 53.6797 339.6 53.5059C339.542 53.3279 339.513 53.0774 339.513 52.7545V50.6807H340.035V52.767C340.035 52.9615 340.053 53.1126 340.09 53.2202C340.132 53.3279 340.198 53.4044 340.289 53.45C340.38 53.4955 340.509 53.5183 340.674 53.5183C340.914 53.5183 341.098 53.4831 341.227 53.4127C341.355 53.3423 341.446 53.2244 341.5 53.0588C341.558 52.8932 341.587 52.6593 341.587 52.3572V50.6807H342.102V53.9219H341.587V53.4376H341.543C341.448 53.6445 341.328 53.7873 341.183 53.866C341.038 53.9446 340.817 53.984 340.519 53.984ZM344.552 53.984C344.205 53.984 343.936 53.955 343.745 53.897C343.555 53.8391 343.42 53.7397 343.342 53.599C343.263 53.4583 343.224 53.2596 343.224 53.0029H343.751C343.76 53.1395 343.789 53.2451 343.838 53.3196C343.892 53.39 343.973 53.4417 344.081 53.4748C344.192 53.5038 344.35 53.5203 344.552 53.5245C344.755 53.5286 344.911 53.5162 345.018 53.4872C345.13 53.4583 345.209 53.4107 345.254 53.3444C345.304 53.2782 345.329 53.1809 345.329 53.0526C345.329 52.9408 345.3 52.8498 345.242 52.7794C345.188 52.7049 345.095 52.6428 344.962 52.5931C344.83 52.5393 344.639 52.4875 344.391 52.4379C344.097 52.3799 343.869 52.3137 343.708 52.2392C343.551 52.1647 343.437 52.0715 343.367 51.9598C343.3 51.8439 343.267 51.6948 343.267 51.5127C343.267 51.2726 343.304 51.0884 343.379 50.9601C343.458 50.8318 343.586 50.7407 343.764 50.6869C343.946 50.6289 344.205 50.5999 344.54 50.5999C344.855 50.5999 345.097 50.6248 345.267 50.6745C345.436 50.7241 345.56 50.8111 345.639 50.9352C345.718 51.0553 345.763 51.2271 345.776 51.4506H345.26C345.24 51.2974 345.178 51.194 345.074 51.1401C344.971 51.0863 344.79 51.0594 344.534 51.0594C344.335 51.0594 344.182 51.0739 344.074 51.1029C343.967 51.1277 343.89 51.1733 343.845 51.2395C343.799 51.3057 343.776 51.3989 343.776 51.5189C343.776 51.5893 343.805 51.6514 343.863 51.7052C343.925 51.759 344.027 51.8128 344.168 51.8666C344.308 51.9163 344.509 51.9743 344.77 52.0405C345.055 52.1109 345.275 52.1874 345.428 52.2702C345.581 52.353 345.689 52.4544 345.751 52.5745C345.813 52.6945 345.844 52.8498 345.844 53.0402C345.844 53.2885 345.805 53.481 345.726 53.6176C345.647 53.7501 345.517 53.8453 345.335 53.9032C345.153 53.9571 344.892 53.984 344.552 53.984ZM348.654 53.9902C348.389 53.9902 348.191 53.955 348.058 53.8846C347.926 53.8142 347.837 53.7066 347.791 53.5617C347.746 53.4169 347.723 53.212 347.723 52.947V51.1401H346.885L347.009 50.6807H347.748V49.9542L348.232 49.7493V50.6807H349.368V51.1401H348.232V52.9222C348.232 53.0671 348.247 53.1809 348.276 53.2637C348.309 53.3465 348.369 53.4107 348.456 53.4562C348.547 53.4976 348.681 53.5183 348.859 53.5183C349.017 53.5183 349.232 53.4996 349.505 53.4624V53.9219C349.141 53.9674 348.857 53.9902 348.654 53.9902Z" fill="black" fill-opacity="0.7"/>
</g>
<path fill-rule="evenodd" clip-rule="evenodd" d="M1 62.3846L372.24 62.3846L372.24 62.8281L1 62.8281L1 62.3846Z" fill="black" fill-opacity="0.1"/>
<g opacity="0.9">
<rect width="371.24" height="30.2887" transform="translate(1 62.8281)" fill="white" fill-opacity="0.05"/>
<path opacity="0.9" d="M10.2393 80.3946C9.81821 80.3946 9.49179 80.3591 9.25997 80.2882C9.0329 80.2125 8.86968 80.0871 8.77033 79.9121C8.67572 79.7323 8.62604 79.4792 8.62131 79.1528H9.15353C9.18192 79.342 9.23159 79.4886 9.30255 79.5927C9.37351 79.6968 9.48232 79.7725 9.62898 79.8198C9.77563 79.8624 9.97906 79.886 10.2393 79.8908C10.5184 79.8955 10.7336 79.8766 10.885 79.834C11.0364 79.7914 11.1428 79.7205 11.2043 79.6211C11.2706 79.517 11.3037 79.3727 11.3037 79.1882C11.3037 79.0227 11.2635 78.8831 11.1831 78.7696C11.1074 78.656 10.9773 78.5519 10.7928 78.4573C10.6083 78.3627 10.3481 78.2657 10.0122 78.1664C9.65736 78.0576 9.38298 77.9488 9.18901 77.84C8.99505 77.7264 8.85785 77.5963 8.77743 77.4497C8.69701 77.2983 8.65679 77.109 8.65679 76.882C8.65679 76.5792 8.70174 76.345 8.79162 76.1794C8.88624 76.0139 9.04472 75.8979 9.26707 75.8317C9.48942 75.7608 9.80402 75.7253 10.2109 75.7253C10.5941 75.7253 10.8921 75.7584 11.105 75.8246C11.3179 75.8909 11.4716 76.002 11.5663 76.1581C11.6656 76.3095 11.7247 76.5271 11.7437 76.811H11.1831C11.1641 76.6549 11.1216 76.5366 11.0553 76.4562C10.9891 76.371 10.8874 76.3119 10.7502 76.2788C10.6177 76.2409 10.4309 76.222 10.1896 76.222C9.92466 76.222 9.71887 76.2433 9.57221 76.2859C9.43028 76.3237 9.32857 76.3923 9.26707 76.4917C9.2103 76.591 9.18192 76.7306 9.18192 76.9103C9.18192 77.0239 9.22213 77.1256 9.30255 77.2155C9.38298 77.3054 9.5178 77.3953 9.70704 77.4851C9.89627 77.5703 10.1636 77.6673 10.5089 77.7761C10.8543 77.8896 11.1192 78.0055 11.3037 78.1238C11.4929 78.2421 11.6278 78.384 11.7082 78.5496C11.7886 78.7104 11.8288 78.9209 11.8288 79.1811C11.8288 79.4981 11.7815 79.7441 11.6869 79.9191C11.5923 80.0895 11.4314 80.2125 11.2043 80.2882C10.9773 80.3591 10.6556 80.3946 10.2393 80.3946ZM10.0051 75.0582H10.4663L10.4663 81.1326H10.0051L10.0051 75.0582ZM17.2519 76.7684H17.848V77.3077H17.8977C18.0017 77.0617 18.1318 76.8962 18.2879 76.811C18.4488 76.7211 18.6901 76.6762 19.0118 76.6762C19.324 76.6762 19.5653 76.7187 19.7356 76.8039C19.9059 76.8891 20.0265 77.0333 20.0975 77.2368C20.1732 77.4355 20.211 77.7193 20.211 78.0883V80.4727H19.622V78.0741C19.622 77.8518 19.596 77.6791 19.544 77.5561C19.4967 77.4331 19.4162 77.3479 19.3027 77.3006C19.1939 77.2486 19.0354 77.2226 18.8273 77.2226C18.5718 77.2226 18.3731 77.2628 18.2312 77.3432C18.094 77.4236 17.9946 77.5585 17.9331 77.7477C17.8764 77.9322 17.848 78.1971 17.848 78.5425V80.4727H17.2519V76.7684ZM21.5069 76.7684H22.0959V77.1516H22.1455C22.2827 76.9671 22.4199 76.8417 22.5571 76.7755C22.699 76.7093 22.893 76.6762 23.139 76.6762C23.5269 76.6762 23.825 76.7353 24.0331 76.8536C24.246 76.9671 24.3974 77.1611 24.4873 77.4355C24.5772 77.7099 24.6221 78.1025 24.6221 78.6134C24.6221 79.1196 24.5772 79.5099 24.4873 79.7843C24.4021 80.0587 24.2555 80.255 24.0473 80.3733C23.8392 80.4868 23.5411 80.5436 23.1532 80.5436C22.8788 80.5436 22.6706 80.5105 22.5287 80.4443C22.3915 80.378 22.2662 80.2527 22.1526 80.0682H22.0959V81.9983H21.5069V76.7684ZM23.0113 80.0114C23.2762 80.0114 23.4796 79.9712 23.6215 79.8908C23.7635 79.8056 23.8652 79.6637 23.9267 79.465C23.9882 79.2616 24.0189 78.9777 24.0189 78.6134C24.0189 78.2444 23.9882 77.9606 23.9267 77.7619C23.8652 77.5632 23.7635 77.4213 23.6215 77.3361C23.4796 77.251 23.2762 77.2084 23.0113 77.2084C22.7653 77.2084 22.576 77.251 22.4436 77.3361C22.3158 77.4165 22.2236 77.5585 22.1668 77.7619C22.11 77.9606 22.0817 78.2444 22.0817 78.6134C22.0817 78.9824 22.11 79.2663 22.1668 79.465C22.2236 79.6637 22.3158 79.8056 22.4436 79.8908C22.576 79.9712 22.7653 80.0114 23.0113 80.0114ZM25.4425 76.7684H25.9747V77.2439H26.0244C26.1048 77.031 26.1947 76.8843 26.2941 76.8039C26.3934 76.7235 26.5353 76.6833 26.7198 76.6833C26.9327 76.6833 27.0959 76.7258 27.2095 76.811C27.323 76.8914 27.4058 77.0357 27.4578 77.2439H27.4933C27.5785 77.0262 27.6731 76.8796 27.7772 76.8039C27.886 76.7235 28.0397 76.6833 28.2384 76.6833C28.4466 76.6833 28.6074 76.7258 28.721 76.811C28.8392 76.8962 28.922 77.0381 28.9693 77.2368C29.0166 77.4355 29.0403 77.7146 29.0403 78.0741V80.4727H28.4797V78.209C28.4797 77.9535 28.4655 77.7572 28.4371 77.62C28.4135 77.478 28.3662 77.3763 28.2952 77.3148C28.229 77.2533 28.1343 77.2226 28.0113 77.2226C27.8836 77.2226 27.7843 77.2557 27.7133 77.3219C27.6423 77.3882 27.5927 77.4993 27.5643 77.6554C27.5359 77.8068 27.5217 78.0268 27.5217 78.3154V80.4727H26.9682L26.9824 78.2161C26.9871 77.8423 26.9493 77.5845 26.8689 77.4426C26.7932 77.2959 26.6654 77.2226 26.4857 77.2226C26.3579 77.2226 26.2586 77.2581 26.1876 77.329C26.1214 77.3953 26.0717 77.5112 26.0386 77.6767C26.0102 77.8376 25.996 78.0647 25.996 78.358V80.4727H25.4425V76.7684ZM35.4001 75.3066H36.2162V76.1156H35.4001V75.3066ZM34.4279 79.9475H35.6272V77.2864H34.4989V76.7684H36.2091V79.9475H37.3586V80.4656H34.4279V79.9475ZM38.5268 76.7684H39.1228V77.3077H39.1725C39.2766 77.0617 39.4067 76.8962 39.5628 76.811C39.7237 76.7211 39.9649 76.6762 40.2866 76.6762C40.5989 76.6762 40.8401 76.7187 41.0104 76.8039C41.1807 76.8891 41.3014 77.0333 41.3723 77.2368C41.448 77.4355 41.4859 77.7193 41.4859 78.0883V80.4727H40.8969V78.0741C40.8969 77.8518 40.8709 77.6791 40.8188 77.5561C40.7715 77.4331 40.6911 77.3479 40.5776 77.3006C40.4688 77.2486 40.3103 77.2226 40.1021 77.2226C39.8467 77.2226 39.648 77.2628 39.506 77.3432C39.3688 77.4236 39.2695 77.5585 39.208 77.7477C39.1512 77.9322 39.1228 78.1971 39.1228 78.5425V80.4727H38.5268V76.7684ZM44.2719 80.5436C43.8745 80.5436 43.567 80.5105 43.3494 80.4443C43.1318 80.378 42.9781 80.2645 42.8882 80.1037C42.7983 79.9428 42.7533 79.7157 42.7533 79.4224H43.3565C43.366 79.5785 43.3991 79.6992 43.4559 79.7843C43.5174 79.8647 43.6096 79.9239 43.7326 79.9617C43.8604 79.9948 44.0401 80.0138 44.2719 80.0185C44.5037 80.0232 44.6812 80.009 44.8042 79.9759C44.9319 79.9428 45.0218 79.8884 45.0738 79.8127C45.1306 79.737 45.159 79.6258 45.159 79.4792C45.159 79.3515 45.1258 79.2474 45.0596 79.1669C44.9981 79.0818 44.8917 79.0108 44.7403 78.9541C44.5889 78.8926 44.3713 78.8334 44.0874 78.7767C43.7515 78.7104 43.4913 78.6347 43.3068 78.5496C43.1271 78.4644 42.997 78.358 42.9166 78.2302C42.8409 78.0978 42.803 77.9275 42.803 77.7193C42.803 77.4449 42.8456 77.2344 42.9307 77.0877C43.0206 76.9411 43.1673 76.837 43.3707 76.7755C43.5789 76.7093 43.8745 76.6762 44.2577 76.6762C44.6173 76.6762 44.894 76.7046 45.088 76.7613C45.282 76.8181 45.4239 76.9174 45.5138 77.0594C45.6037 77.1966 45.6557 77.3929 45.6699 77.6484H45.0809C45.0573 77.4733 44.9863 77.355 44.868 77.2935C44.7497 77.232 44.544 77.2013 44.2506 77.2013C44.0236 77.2013 43.8485 77.2178 43.7255 77.251C43.6025 77.2793 43.515 77.3314 43.463 77.4071C43.4109 77.4828 43.3849 77.5892 43.3849 77.7264C43.3849 77.8068 43.418 77.8778 43.4843 77.9393C43.5552 78.0008 43.6711 78.0623 43.832 78.1238C43.9928 78.1806 44.2223 78.2468 44.5203 78.3225C44.8467 78.4029 45.0975 78.4904 45.2725 78.5851C45.4475 78.6797 45.5705 78.7956 45.6415 78.9328C45.7125 79.07 45.748 79.2474 45.748 79.465C45.748 79.7488 45.703 79.9688 45.6131 80.1249C45.5232 80.2763 45.3742 80.3851 45.1661 80.4514C44.9579 80.5129 44.6599 80.5436 44.2719 80.5436ZM48.9598 80.5507C48.657 80.5507 48.4299 80.5105 48.2785 80.4301C48.1272 80.3497 48.0254 80.2267 47.9734 80.0611C47.9214 79.8955 47.8953 79.6613 47.8953 79.3585V77.2935H46.9373L47.0793 76.7684H47.9237V75.9382L48.4772 75.704V76.7684H49.7758V77.2935H48.4772V79.3302C48.4772 79.4957 48.4938 79.6258 48.5269 79.7205C48.5648 79.8151 48.6333 79.8884 48.7327 79.9404C48.8368 79.9877 48.9905 80.0114 49.194 80.0114C49.3737 80.0114 49.6197 79.9901 49.932 79.9475V80.4727C49.5156 80.5247 49.1916 80.5507 48.9598 80.5507ZM52.4129 80.5436C52.1101 80.5436 51.8759 80.5105 51.7103 80.4443C51.5495 80.378 51.4336 80.2669 51.3626 80.1107C51.2964 79.9546 51.2633 79.7323 51.2633 79.4437C51.2633 79.1031 51.313 78.8405 51.4123 78.656C51.5117 78.4668 51.6772 78.3343 51.909 78.2586C52.1456 78.1782 52.4791 78.138 52.9096 78.138H53.5767V77.9606C53.5767 77.7619 53.5506 77.6081 53.4986 77.4993C53.4513 77.3905 53.3661 77.3125 53.2431 77.2652C53.1249 77.2178 52.9546 77.1942 52.7322 77.1942C52.4436 77.1942 52.2473 77.232 52.1432 77.3077C52.0391 77.3787 51.9824 77.5183 51.9729 77.7264H51.3768C51.3768 77.452 51.417 77.2415 51.4975 77.0948C51.5779 76.9435 51.7151 76.837 51.909 76.7755C52.103 76.7093 52.3774 76.6762 52.7322 76.6762C53.1012 76.6762 53.3851 76.714 53.5838 76.7897C53.7872 76.8654 53.9291 76.9955 54.0095 77.18C54.0947 77.3645 54.1373 77.6247 54.1373 77.9606V80.4727H53.5979V79.9972H53.5483C53.4253 80.2054 53.2833 80.3497 53.1225 80.4301C52.9664 80.5058 52.7298 80.5436 52.4129 80.5436ZM52.5619 80.0114C52.8268 80.0114 53.0302 79.9712 53.1722 79.8908C53.3141 79.8056 53.4158 79.6661 53.4773 79.4721C53.5388 79.2781 53.5696 79.0014 53.5696 78.6418L52.7677 78.6489C52.5311 78.6537 52.3466 78.6797 52.2142 78.727C52.0864 78.7696 51.9942 78.8429 51.9374 78.947C51.8854 79.0463 51.8594 79.1906 51.8594 79.3798C51.8594 79.6258 51.909 79.7938 52.0084 79.8837C52.1077 79.9688 52.2922 80.0114 52.5619 80.0114ZM55.5395 79.9475H56.8027V75.8388H55.6105V75.3066H57.3775V79.9475H58.5554V80.4727H55.5395V79.9475ZM59.7945 79.9475H61.0576V75.8388H59.8655V75.3066H61.6324V79.9475H62.8104V80.4727H59.7945V79.9475ZM69.6456 80.203H69.3618L68.1271 76.7684H68.7302L69.7876 79.7772H69.8018L70.8236 76.7684H71.4268L69.596 82.0409H68.9999L69.6456 80.203ZM74.0425 80.5436C73.6262 80.5436 73.3045 80.4868 73.0775 80.3733C72.8551 80.255 72.6966 80.0587 72.602 79.7843C72.5074 79.5099 72.4601 79.1196 72.4601 78.6134C72.4601 78.1025 72.5074 77.7099 72.602 77.4355C72.6966 77.1611 72.8551 76.9671 73.0775 76.8536C73.3045 76.7353 73.6262 76.6762 74.0425 76.6762C74.4589 76.6762 74.7806 76.7353 75.0076 76.8536C75.2347 76.9671 75.3956 77.1634 75.4902 77.4426C75.5848 77.7169 75.6321 78.1072 75.6321 78.6134C75.6321 79.1196 75.5848 79.5099 75.4902 79.7843C75.3956 80.0587 75.2347 80.255 75.0076 80.3733C74.7806 80.4868 74.4589 80.5436 74.0425 80.5436ZM74.0425 80.0114C74.3027 80.0114 74.5038 79.9712 74.6457 79.8908C74.7877 79.8056 74.887 79.6637 74.9438 79.465C75.0053 79.2663 75.036 78.9824 75.036 78.6134C75.036 78.2397 75.0053 77.9535 74.9438 77.7548C74.887 77.5561 74.7877 77.4142 74.6457 77.329C74.5038 77.2439 74.3027 77.2013 74.0425 77.2013C73.7824 77.2013 73.5813 77.2439 73.4394 77.329C73.3022 77.4142 73.2028 77.5561 73.1413 77.7548C73.0846 77.9535 73.0562 78.2397 73.0562 78.6134C73.0562 78.9824 73.0846 79.2663 73.1413 79.465C73.2028 79.6637 73.3022 79.8056 73.4394 79.8908C73.5813 79.9712 73.7824 80.0114 74.0425 80.0114ZM77.9569 80.5436C77.6541 80.5436 77.42 80.5034 77.2544 80.423C77.0935 80.3378 76.9776 80.1959 76.9067 79.9972C76.8404 79.7938 76.8073 79.5076 76.8073 79.1386V76.7684H77.4034V79.1528C77.4034 79.3751 77.4247 79.5478 77.4673 79.6708C77.5146 79.7938 77.5903 79.8813 77.6943 79.9333C77.7984 79.9854 77.9451 80.0114 78.1343 80.0114C78.4087 80.0114 78.6192 79.9712 78.7659 79.8908C78.9125 79.8103 79.0166 79.6755 79.0781 79.4863C79.1443 79.297 79.1775 79.0298 79.1775 78.6844V76.7684H79.7664V80.4727H79.1775V79.9191H79.1278C79.019 80.1557 78.8818 80.3189 78.7162 80.4088C78.5506 80.4987 78.2975 80.5436 77.9569 80.5436ZM81.6158 76.7684H82.1835L82.1622 77.6413H82.219C82.3467 77.3385 82.4508 77.1303 82.5312 77.0168C82.6116 76.8985 82.6944 76.8252 82.7796 76.7968C82.8695 76.7684 83.0208 76.7519 83.2337 76.7471H83.2479C83.546 76.7377 83.7801 76.74 83.9505 76.7542V77.3148C83.5389 77.3006 83.255 77.3054 83.0989 77.329C82.9617 77.3527 82.8222 77.4284 82.6802 77.5561C82.5383 77.6791 82.42 77.8352 82.3254 78.0245C82.2355 78.209 82.1906 78.4006 82.1906 78.5992V80.4727H81.6158V76.7684ZM85.6011 78.0741H88.028V78.6418H85.6011V78.0741ZM91.1831 80.5436C90.762 80.5436 90.4356 80.4868 90.2038 80.3733C89.9767 80.255 89.8135 80.0611 89.7141 79.7914C89.6195 79.517 89.5722 79.1267 89.5722 78.6205C89.5722 78.1096 89.6195 77.7169 89.7141 77.4426C89.8135 77.1634 89.9767 76.9671 90.2038 76.8536C90.4309 76.7353 90.7526 76.6762 91.1689 76.6762C91.519 76.6762 91.791 76.7116 91.9849 76.7826C92.1789 76.8536 92.3208 76.9742 92.4107 77.1445C92.5006 77.3101 92.555 77.5466 92.5739 77.8541H91.9849C91.9376 77.6081 91.8596 77.4402 91.7508 77.3503C91.642 77.2604 91.4622 77.2155 91.2115 77.2155C90.9371 77.2155 90.7265 77.2581 90.5799 77.3432C90.4332 77.4284 90.3268 77.5727 90.2606 77.7761C90.1991 77.9748 90.1683 78.261 90.1683 78.6347C90.1683 78.9943 90.1991 79.271 90.2606 79.465C90.3268 79.659 90.4332 79.7985 90.5799 79.8837C90.7313 79.9641 90.9442 80.0043 91.2186 80.0043C91.4646 80.0043 91.6396 79.9665 91.7437 79.8908C91.8525 79.8103 91.9329 79.6613 91.9849 79.4437H92.5739C92.555 79.7323 92.5006 79.9546 92.4107 80.1107C92.3208 80.2669 92.1789 80.378 91.9849 80.4443C91.7957 80.5105 91.5284 80.5436 91.1831 80.5436ZM95.3174 80.5436C94.9011 80.5436 94.5794 80.4868 94.3523 80.3733C94.13 80.255 93.9715 80.0587 93.8769 79.7843C93.7823 79.5099 93.7349 79.1196 93.7349 78.6134C93.7349 78.1025 93.7823 77.7099 93.8769 77.4355C93.9715 77.1611 94.13 76.9671 94.3523 76.8536C94.5794 76.7353 94.9011 76.6762 95.3174 76.6762C95.7337 76.6762 96.0554 76.7353 96.2825 76.8536C96.5096 76.9671 96.6704 77.1634 96.765 77.4426C96.8597 77.7169 96.907 78.1072 96.907 78.6134C96.907 79.1196 96.8597 79.5099 96.765 79.7843C96.6704 80.0587 96.5096 80.255 96.2825 80.3733C96.0554 80.4868 95.7337 80.5436 95.3174 80.5436ZM95.3174 80.0114C95.5776 80.0114 95.7787 79.9712 95.9206 79.8908C96.0625 79.8056 96.1619 79.6637 96.2186 79.465C96.2801 79.2663 96.3109 78.9824 96.3109 78.6134C96.3109 78.2397 96.2801 77.9535 96.2186 77.7548C96.1619 77.5561 96.0625 77.4142 95.9206 77.329C95.7787 77.2439 95.5776 77.2013 95.3174 77.2013C95.0572 77.2013 94.8562 77.2439 94.7142 77.329C94.577 77.4142 94.4777 77.5561 94.4162 77.7548C94.3594 77.9535 94.331 78.2397 94.331 78.6134C94.331 78.9824 94.3594 79.2663 94.4162 79.465C94.4777 79.6637 94.577 79.8056 94.7142 79.8908C94.8562 79.9712 95.0572 80.0114 95.3174 80.0114ZM97.777 76.7684H98.3092V77.2439H98.3589C98.4393 77.031 98.5292 76.8843 98.6286 76.8039C98.7279 76.7235 98.8698 76.6833 99.0543 76.6833C99.2672 76.6833 99.4305 76.7258 99.544 76.811C99.6575 76.8914 99.7403 77.0357 99.7924 77.2439H99.8278C99.913 77.0262 100.008 76.8796 100.112 76.8039C100.22 76.7235 100.374 76.6833 100.573 76.6833C100.781 76.6833 100.942 76.7258 101.055 76.811C101.174 76.8962 101.257 77.0381 101.304 77.2368C101.351 77.4355 101.375 77.7146 101.375 78.0741V80.4727H100.814V78.209C100.814 77.9535 100.8 77.7572 100.772 77.62C100.748 77.478 100.701 77.3763 100.63 77.3148C100.563 77.2533 100.469 77.2226 100.346 77.2226C100.218 77.2226 100.119 77.2557 100.048 77.3219C99.9769 77.3882 99.9272 77.4993 99.8988 77.6554C99.8704 77.8068 99.8562 78.0268 99.8562 78.3154V80.4727H99.3027L99.3169 78.2161C99.3216 77.8423 99.2838 77.5845 99.2034 77.4426C99.1277 77.2959 98.9999 77.2226 98.8202 77.2226C98.6924 77.2226 98.5931 77.2581 98.5221 77.329C98.4559 77.3953 98.4062 77.5112 98.3731 77.6767C98.3447 77.8376 98.3305 78.0647 98.3305 78.358V80.4727H97.777V76.7684ZM102.351 76.7684H102.94V77.1516H102.99C103.127 76.9671 103.264 76.8417 103.402 76.7755C103.544 76.7093 103.737 76.6762 103.983 76.6762C104.371 76.6762 104.669 76.7353 104.878 76.8536C105.09 76.9671 105.242 77.1611 105.332 77.4355C105.422 77.7099 105.467 78.1025 105.467 78.6134C105.467 79.1196 105.422 79.5099 105.332 79.7843C105.247 80.0587 105.1 80.255 104.892 80.3733C104.684 80.4868 104.386 80.5436 103.998 80.5436C103.723 80.5436 103.515 80.5105 103.373 80.4443C103.236 80.378 103.111 80.2527 102.997 80.0682H102.94V81.9983H102.351V76.7684ZM103.856 80.0114C104.121 80.0114 104.324 79.9712 104.466 79.8908C104.608 79.8056 104.71 79.6637 104.771 79.465C104.833 79.2616 104.863 78.9777 104.863 78.6134C104.863 78.2444 104.833 77.9606 104.771 77.7619C104.71 77.5632 104.608 77.4213 104.466 77.3361C104.324 77.251 104.121 77.2084 103.856 77.2084C103.61 77.2084 103.42 77.251 103.288 77.3361C103.16 77.4165 103.068 77.5585 103.011 77.7619C102.955 77.9606 102.926 78.2444 102.926 78.6134C102.926 78.9824 102.955 79.2663 103.011 79.465C103.068 79.6637 103.16 79.8056 103.288 79.8908C103.42 79.9712 103.61 80.0114 103.856 80.0114ZM107.728 80.5436C107.425 80.5436 107.191 80.5105 107.025 80.4443C106.864 80.378 106.748 80.2669 106.677 80.1107C106.611 79.9546 106.578 79.7323 106.578 79.4437C106.578 79.1031 106.628 78.8405 106.727 78.656C106.826 78.4668 106.992 78.3343 107.224 78.2586C107.46 78.1782 107.794 78.138 108.224 78.138H108.891V77.9606C108.891 77.7619 108.865 77.6081 108.813 77.4993C108.766 77.3905 108.681 77.3125 108.558 77.2652C108.44 77.2178 108.269 77.1942 108.047 77.1942C107.758 77.1942 107.562 77.232 107.458 77.3077C107.354 77.3787 107.297 77.5183 107.288 77.7264H106.691C106.691 77.452 106.732 77.2415 106.812 77.0948C106.893 76.9435 107.03 76.837 107.224 76.7755C107.418 76.7093 107.692 76.6762 108.047 76.6762C108.416 76.6762 108.7 76.714 108.898 76.7897C109.102 76.8654 109.244 76.9955 109.324 77.18C109.409 77.3645 109.452 77.6247 109.452 77.9606V80.4727H108.913V79.9972H108.863C108.74 80.2054 108.598 80.3497 108.437 80.4301C108.281 80.5058 108.044 80.5436 107.728 80.5436ZM107.877 80.0114C108.141 80.0114 108.345 79.9712 108.487 79.8908C108.629 79.8056 108.73 79.6661 108.792 79.4721C108.853 79.2781 108.884 79.0014 108.884 78.6418L108.082 78.6489C107.846 78.6537 107.661 78.6797 107.529 78.727C107.401 78.7696 107.309 78.8429 107.252 78.947C107.2 79.0463 107.174 79.1906 107.174 79.3798C107.174 79.6258 107.224 79.7938 107.323 79.8837C107.422 79.9688 107.607 80.0114 107.877 80.0114ZM110.861 76.7684H111.457V77.3077H111.507C111.611 77.0617 111.741 76.8962 111.897 76.811C112.058 76.7211 112.299 76.6762 112.621 76.6762C112.933 76.6762 113.175 76.7187 113.345 76.8039C113.515 76.8891 113.636 77.0333 113.707 77.2368C113.783 77.4355 113.82 77.7193 113.82 78.0883V80.4727H113.231V78.0741C113.231 77.8518 113.205 77.6791 113.153 77.5561C113.106 77.4331 113.026 77.3479 112.912 77.3006C112.803 77.2486 112.645 77.2226 112.437 77.2226C112.181 77.2226 111.982 77.2628 111.841 77.3432C111.703 77.4236 111.604 77.5585 111.543 77.7477C111.486 77.9322 111.457 78.1971 111.457 78.5425V80.4727H110.861V76.7684ZM116.45 80.203H116.166L114.932 76.7684H115.535L116.592 79.7772H116.606L117.628 76.7684H118.231L116.401 82.0409H115.805L116.45 80.203Z" fill="black" fill-opacity="0.5"/>
<path d="M362.095 79.915V81.1624C362.095 81.3921 361.909 81.5782 361.679 81.5782H358.075C357.846 81.5782 357.66 81.3921 357.66 81.1624V76.4501C357.66 76.2204 357.846 76.0343 358.075 76.0343H358.768C358.957 76.0343 359.143 76.05 359.323 76.0803M362.095 79.915H363.342C363.572 79.915 363.758 79.7289 363.758 79.4992V77.6975C363.758 76.0492 362.559 74.681 360.986 74.4171C360.806 74.3868 360.621 74.3711 360.432 74.3711H359.739C359.509 74.3711 359.323 74.5573 359.323 74.7869V76.0803M362.095 79.915H359.739C359.509 79.915 359.323 79.7289 359.323 79.4992V76.0803M363.758 78.529V77.8361C363.758 77.1471 363.2 76.5887 362.511 76.5887H361.956C361.727 76.5887 361.54 76.4025 361.54 76.1729V75.6185C361.54 74.9296 360.982 74.3711 360.293 74.3711H359.877" stroke="black" stroke-opacity="0.3" stroke-width="0.665272" stroke-linecap="round" stroke-linejoin="round"/>
</g>
</g>
<rect x="1.22176" y="2.22176" width="370.797" height="90.6715" rx="3.32636" stroke="white" stroke-opacity="0.1" stroke-width="0.443515"/>
</g>
</g>
<defs>
<linearGradient id="paint0_linear_691_45676" x1="184" y1="47.6658" x2="183.716" y2="152.322" gradientUnits="userSpaceOnUse">
<stop stop-color="white"/>
<stop offset="1" stop-color="white" stop-opacity="0"/>
</linearGradient>
<linearGradient id="paint1_linear_691_45676" x1="268.449" y1="44.0445" x2="266.344" y2="40.3289" gradientUnits="userSpaceOnUse">
<stop stop-color="#FB7655"/>
<stop offset="0.41" stop-color="#E42B1E"/>
<stop offset="0.99" stop-color="#990000"/>
<stop offset="1" stop-color="#990000"/>
</linearGradient>
<linearGradient id="paint2_linear_691_45676" x1="269.497" y1="40.9217" x2="266.785" y2="39.1016" gradientUnits="userSpaceOnUse">
<stop stop-color="#871101"/>
<stop offset="0.99" stop-color="#911209"/>
<stop offset="1" stop-color="#911209"/>
</linearGradient>
<linearGradient id="paint3_linear_691_45676" x1="267.327" y1="44.1569" x2="264.615" y2="42.3369" gradientUnits="userSpaceOnUse">
<stop stop-color="#871101"/>
<stop offset="0.99" stop-color="#911209"/>
<stop offset="1" stop-color="#911209"/>
</linearGradient>
<linearGradient id="paint4_linear_691_45676" x1="261.633" y1="39.607" x2="262.053" y2="42.3395" gradientUnits="userSpaceOnUse">
<stop stop-color="white"/>
<stop offset="0.23" stop-color="#E57252"/>
<stop offset="0.46" stop-color="#DE3B20"/>
<stop offset="0.99" stop-color="#A60003"/>
<stop offset="1" stop-color="#A60003"/>
</linearGradient>
<linearGradient id="paint5_linear_691_45676" x1="264.525" y1="37.0546" x2="264.68" y2="39.8433" gradientUnits="userSpaceOnUse">
<stop stop-color="white"/>
<stop offset="0.23" stop-color="#E4714E"/>
<stop offset="0.56" stop-color="#BE1A0D"/>
<stop offset="0.99" stop-color="#A80D00"/>
<stop offset="1" stop-color="#A80D00"/>
</linearGradient>
<linearGradient id="paint6_linear_691_45676" x1="267.091" y1="34.4757" x2="267.555" y2="36.4743" gradientUnits="userSpaceOnUse">
<stop stop-color="white"/>
<stop offset="0.18" stop-color="#E46342"/>
<stop offset="0.4" stop-color="#C82410"/>
<stop offset="0.99" stop-color="#A80D00"/>
<stop offset="1" stop-color="#A80D00"/>
</linearGradient>
<linearGradient id="paint7_linear_691_45676" x1="265.675" y1="33.7737" x2="267.674" y2="32.7744" gradientUnits="userSpaceOnUse">
<stop stop-color="white"/>
<stop offset="0.54" stop-color="#C81F11"/>
<stop offset="0.99" stop-color="#BF0905"/>
<stop offset="1" stop-color="#BF0905"/>
</linearGradient>
<linearGradient id="paint8_linear_691_45676" x1="259.881" y1="38.9095" x2="260.046" y2="40.5563" gradientUnits="userSpaceOnUse">
<stop stop-color="white"/>
<stop offset="0.31" stop-color="#DE4024"/>
<stop offset="0.99" stop-color="#BF190B"/>
<stop offset="1" stop-color="#BF190B"/>
</linearGradient>
<linearGradient id="paint9_linear_691_45676" x1="258.75" y1="41.0003" x2="266.482" y2="33.0494" gradientUnits="userSpaceOnUse">
<stop stop-color="#BD0012"/>
<stop offset="0.07" stop-color="white"/>
<stop offset="0.17" stop-color="white"/>
<stop offset="0.27" stop-color="#C82F1C"/>
<stop offset="0.33" stop-color="#820C01"/>
<stop offset="0.46" stop-color="#A31601"/>
<stop offset="0.72" stop-color="#B31301"/>
<stop offset="0.99" stop-color="#E82609"/>
<stop offset="1" stop-color="#E82609"/>
</linearGradient>
<linearGradient id="paint10_linear_691_45676" x1="264.673" y1="41.8023" x2="262.344" y2="41.2275" gradientUnits="userSpaceOnUse">
<stop stop-color="#8C0C01"/>
<stop offset="0.54" stop-color="#990C00"/>
<stop offset="0.99" stop-color="#A80D0E"/>
<stop offset="1" stop-color="#A80D0E"/>
</linearGradient>
<linearGradient id="paint11_linear_691_45676" x1="268.673" y1="39.0078" x2="266.604" y2="37.1534" gradientUnits="userSpaceOnUse">
<stop stop-color="#7E110B"/>
<stop offset="0.99" stop-color="#9E0C00"/>
<stop offset="1" stop-color="#9E0C00"/>
</linearGradient>
<linearGradient id="paint12_linear_691_45676" x1="269.433" y1="35.6033" x2="268.403" y2="34.5015" gradientUnits="userSpaceOnUse">
<stop stop-color="#79130D"/>
<stop offset="0.99" stop-color="#9E120B"/>
<stop offset="1" stop-color="#9E120B"/>
</linearGradient>
<radialGradient id="paint13_radial_691_45676" cx="0" cy="0" r="1" gradientUnits="userSpaceOnUse" gradientTransform="translate(266.926 37.1876) scale(2.53548)">
<stop stop-color="#A80D00"/>
<stop offset="0.99" stop-color="#7E0E08"/>
<stop offset="1" stop-color="#7E0E08"/>
</radialGradient>
<radialGradient id="paint14_radial_691_45676" cx="0" cy="0" r="1" gradientUnits="userSpaceOnUse" gradientTransform="translate(263.415 40.5294) scale(3.37059)">
<stop stop-color="#A30C00"/>
<stop offset="0.99" stop-color="#800E08"/>
<stop offset="1" stop-color="#800E08"/>
</radialGradient>
<linearGradient id="paint15_linear_691_45676" x1="261.027" y1="43.1288" x2="260.187" y2="40.2793" gradientUnits="userSpaceOnUse">
<stop stop-color="#8B2114"/>
<stop offset="0.43" stop-color="#9E100A"/>
<stop offset="0.99" stop-color="#B3100C"/>
<stop offset="1" stop-color="#B3100C"/>
</linearGradient>
<linearGradient id="paint16_linear_691_45676" x1="267.47" y1="33.685" x2="269.353" y2="34.5162" gradientUnits="userSpaceOnUse">
<stop stop-color="#B31000"/>
<stop offset="0.44" stop-color="#910F08"/>
<stop offset="0.99" stop-color="#791C12"/>
<stop offset="1" stop-color="#791C12"/>
</linearGradient>
<clipPath id="clip0_691_45676">
<rect width="371.26" height="99" fill="white" transform="translate(0 0.523438)"/>
</clipPath>
<clipPath id="clip1_691_45676">
<rect x="1" y="2" width="371.24" height="91.115" rx="3.54812" fill="white"/>
</clipPath>
<clipPath id="clip2_691_45676">
<rect x="25.5088" y="31.0586" width="9.98817" height="9.98817" rx="1.66469" fill="white"/>
</clipPath>
<clipPath id="clip3_691_45676">
<rect width="12.9375" height="12.9375" fill="white" transform="translate(63.0635 31.4297)"/>
</clipPath>
<clipPath id="clip4_691_45676">
<rect width="12.9375" height="12.9375" fill="white" transform="translate(102.093 31.4297)"/>
</clipPath>
<clipPath id="clip5_691_45676">
<rect width="12.9375" height="12.9375" fill="white" transform="translate(141.122 31.4297)"/>
</clipPath>
<clipPath id="clip6_691_45676">
<rect width="12.9375" height="12.9375" fill="white" transform="translate(180.151 31.4297)"/>
</clipPath>
<clipPath id="clip7_691_45676">
<rect width="12.9375" height="12.9375" fill="white" transform="translate(219.181 31.4297)"/>
</clipPath>
<clipPath id="clip8_691_45676">
<rect width="9.98816" height="9.94821" fill="white" transform="translate(259.685 33.1914)"/>
</clipPath>
<clipPath id="clip9_691_45676">
<rect width="9.94821" height="9.94821" fill="white" transform="translate(298.734 33.1914)"/>
</clipPath>
</defs>
</svg>
