<svg width="25" height="24" viewBox="0 0 25 24" fill="none" xmlns="http://www.w3.org/2000/svg">
<g clip-path="url(#clip0_815_29537)">
<path d="M5.47917 15.0857C5.47917 16.4381 4.3744 17.5428 3.02202 17.5428C1.66964 17.5428 0.56488 16.4381 0.56488 15.0857C0.56488 13.7333 1.66964 12.6285 3.02202 12.6285H5.47917V15.0857Z" fill="#EEEEF0"/>
<path d="M6.71725 15.0857C6.71725 13.7333 7.82202 12.6285 9.1744 12.6285C10.5268 12.6285 11.6315 13.7333 11.6315 15.0857V21.2381C11.6315 22.5904 10.5268 23.6952 9.1744 23.6952C7.82202 23.6952 6.71725 22.5904 6.71725 21.2381V15.0857Z" fill="#EEEEF0"/>
<path d="M9.17437 5.2191C7.82199 5.2191 6.71722 4.11433 6.71722 2.76195C6.71722 1.40957 7.82199 0.30481 9.17437 0.30481C10.5267 0.30481 11.6315 1.40957 11.6315 2.76195V5.2191H9.17437Z" fill="#EEEEF0"/>
<path d="M9.17441 6.45715C10.5268 6.45715 11.6315 7.56192 11.6315 8.9143C11.6315 10.2667 10.5268 11.3714 9.17441 11.3714H3.02202C1.66964 11.3714 0.56488 10.2667 0.56488 8.9143C0.56488 7.56192 1.66964 6.45715 3.02202 6.45715H9.17441Z" fill="#EEEEF0"/>
<path d="M19.0411 8.9143C19.0411 7.56192 20.1459 6.45715 21.4983 6.45715C22.8506 6.45715 23.9554 7.56192 23.9554 8.9143C23.9554 10.2667 22.8506 11.3714 21.4983 11.3714H19.0411V8.9143Z" fill="#EEEEF0"/>
<path d="M17.8029 8.91433C17.8029 10.2667 16.6981 11.3715 15.3458 11.3715C13.9934 11.3715 12.8886 10.2667 12.8886 8.91433V2.76195C12.8886 1.40957 13.9934 0.30481 15.3458 0.30481C16.6981 0.30481 17.8029 1.40957 17.8029 2.76195V8.91433Z" fill="#EEEEF0"/>
<path d="M15.3458 18.781C16.6982 18.781 17.8029 19.8858 17.8029 21.2381C17.8029 22.5905 16.6982 23.6953 15.3458 23.6953C13.9934 23.6953 12.8886 22.5905 12.8886 21.2381V18.781H15.3458Z" fill="#EEEEF0"/>
<path d="M15.3458 17.5428C13.9934 17.5428 12.8886 16.4381 12.8886 15.0857C12.8886 13.7333 13.9934 12.6285 15.3458 12.6285H21.4981C22.8505 12.6285 23.9553 13.7333 23.9553 15.0857C23.9553 16.4381 22.8505 17.5428 21.4981 17.5428H15.3458Z" fill="#EEEEF0"/>
</g>
<defs>
<clipPath id="clip0_815_29537">
<rect width="24" height="24" fill="white" transform="translate(0.26001)"/>
</clipPath>
</defs>
</svg>
