<svg width="25" height="24" viewBox="0 0 25 24" fill="none" xmlns="http://www.w3.org/2000/svg">
<g clip-path="url(#clip0_815_29472)">
<path d="M5.47911 15.0857C5.47911 16.4381 4.37434 17.5428 3.02196 17.5428C1.66958 17.5428 0.564819 16.4381 0.564819 15.0857C0.564819 13.7333 1.66958 12.6285 3.02196 12.6285H5.47911V15.0857Z" fill="#1E1F24"/>
<path d="M6.71716 15.0857C6.71716 13.7333 7.82193 12.6285 9.17431 12.6285C10.5267 12.6285 11.6314 13.7333 11.6314 15.0857V21.2381C11.6314 22.5904 10.5267 23.6952 9.17431 23.6952C7.82193 23.6952 6.71716 22.5904 6.71716 21.2381V15.0857Z" fill="#1E1F24"/>
<path d="M9.17431 5.2191C7.82193 5.2191 6.71716 4.11433 6.71716 2.76195C6.71716 1.40957 7.82193 0.30481 9.17431 0.30481C10.5267 0.30481 11.6314 1.40957 11.6314 2.76195V5.2191H9.17431Z" fill="#1E1F24"/>
<path d="M9.17434 6.45715C10.5267 6.45715 11.6315 7.56192 11.6315 8.9143C11.6315 10.2667 10.5267 11.3714 9.17434 11.3714H3.02196C1.66958 11.3714 0.564819 10.2667 0.564819 8.9143C0.564819 7.56192 1.66958 6.45715 3.02196 6.45715H9.17434Z" fill="#1E1F24"/>
<path d="M19.041 8.9143C19.041 7.56192 20.1458 6.45715 21.4982 6.45715C22.8505 6.45715 23.9553 7.56192 23.9553 8.9143C23.9553 10.2667 22.8505 11.3714 21.4982 11.3714H19.041V8.9143Z" fill="#1E1F24"/>
<path d="M17.8028 8.91433C17.8028 10.2667 16.6981 11.3715 15.3457 11.3715C13.9933 11.3715 12.8885 10.2667 12.8885 8.91433V2.76195C12.8885 1.40957 13.9933 0.30481 15.3457 0.30481C16.6981 0.30481 17.8028 1.40957 17.8028 2.76195V8.91433Z" fill="#1E1F24"/>
<path d="M15.3457 18.781C16.6981 18.781 17.8028 19.8858 17.8028 21.2381C17.8028 22.5905 16.6981 23.6953 15.3457 23.6953C13.9933 23.6953 12.8885 22.5905 12.8885 21.2381V18.781H15.3457Z" fill="#1E1F24"/>
<path d="M15.3457 17.5428C13.9933 17.5428 12.8885 16.4381 12.8885 15.0857C12.8885 13.7333 13.9933 12.6285 15.3457 12.6285H21.4981C22.8505 12.6285 23.9552 13.7333 23.9552 15.0857C23.9552 16.4381 22.8505 17.5428 21.4981 17.5428H15.3457Z" fill="#1E1F24"/>
</g>
<defs>
<clipPath id="clip0_815_29472">
<rect width="24" height="24" fill="white" transform="translate(0.26001)"/>
</clipPath>
</defs>
</svg>
