<svg width="21" height="20" viewBox="0 0 21 20" fill="none" xmlns="http://www.w3.org/2000/svg">
<g clip-path="url(#clip0_705_26211)">
<path d="M0.666626 0L20.6666 0V20H0.666626" fill="#3178C6"/>
<path d="M9.76819 11.0937H12.2682V9.49218H5.276V11.0937H7.776V18.2422H9.76819V11.0937ZM13.0494 17.8516C13.7537 18.2113 14.7022 18.3398 15.5494 18.3398C16.2799 18.3398 17.2264 18.2449 17.9713 17.7773C18.2877 17.5703 18.5573 17.3086 18.7135 16.957C18.8698 16.6055 18.9908 16.2148 18.9908 15.707C18.9873 14.0996 17.8467 13.5668 16.7213 13.0508C16.2104 12.8184 15.0612 12.443 15.0612 11.7187C15.0612 11.1351 15.7178 10.8387 16.5533 10.8359C17.2049 10.8359 18.0807 11.048 18.6237 11.4469V9.61093C17.8905 9.32929 17.1221 9.27656 16.4362 9.27499C14.5123 9.27499 13.0119 10.0687 12.9987 11.8844C13.0178 13.2559 13.8315 13.8547 15.0299 14.4234C15.6826 14.7187 16.8881 15.0969 16.8971 15.9156C16.8686 16.6801 15.9369 16.7965 15.3971 16.8023C14.5549 16.8023 13.6643 16.4824 13.0494 15.9766V17.8516Z" fill="white"/>
</g>
<defs>
<clipPath id="clip0_705_26211">
<rect x="0.666626" width="20" height="20" rx="3.33333" fill="white"/>
</clipPath>
</defs>
</svg>
