<svg width="56" height="56" viewBox="0 0 56 56" fill="none" xmlns="http://www.w3.org/2000/svg">
<g clip-path="url(#clip0_507_27106)">
<g opacity="0.1" filter="url(#filter0_f_507_27106)">
<ellipse cx="35.5281" cy="51.8811" rx="35.5281" ry="51.8811" transform="matrix(-0.71934 0.694658 0.694658 0.71934 -10.8865 -21)" fill="#C3FBB7"/>
</g>
<g opacity="0.1" filter="url(#filter1_f_507_27106)">
<ellipse cx="48.5983" cy="25.1229" rx="25.6935" ry="44.5578" transform="rotate(-17 48.5983 25.1229)" fill="#A7BFF7"/>
</g>
<mask id="mask0_507_27106" style="mask-type:alpha" maskUnits="userSpaceOnUse" x="-18" y="-6" width="101" height="74">
<rect width="82.2302" height="66.4015" transform="matrix(0.994522 -0.104528 0.275637 0.961262 -17.1544 3.53235)" fill="url(#paint0_linear_507_27106)"/>
</mask>
<g mask="url(#mask0_507_27106)">
<g filter="url(#filter2_df_507_27106)">
<g clip-path="url(#clip1_507_27106)">
<rect width="47.3061" height="51.8356" rx="2" transform="matrix(0.994522 -0.104528 0.275637 0.961262 6 14.1812)" fill="white"/>
<rect width="16.4364" height="0.591326" rx="0.295663" transform="matrix(0.994522 -0.104528 0.275637 0.961262 21.8824 14.4238)" fill="black" fill-opacity="0.2"/>
<path fill-rule="evenodd" clip-rule="evenodd" d="M7.41065 19.1007L54.4576 14.1559L54.5391 14.4401L7.49214 19.385L7.41065 19.1007Z" fill="#CDCED7"/>
<g clip-path="url(#clip2_507_27106)">
<path d="M17.0112 23.0037L21.7159 22.5092L23.0199 27.0566L18.3152 27.5511" fill="#3178C6"/>
<path d="M19.8755 25.3011L20.4636 25.2392L20.3592 24.8751L18.7144 25.048L18.8188 25.4121L19.4069 25.3503L19.8729 26.9756L20.3415 26.9264L19.8755 25.3011ZM21.0879 26.7564C21.2771 26.8208 21.5086 26.8266 21.7079 26.8056C21.8797 26.7876 22.0961 26.7426 22.2409 26.6179C22.3018 26.563 22.3482 26.4968 22.362 26.413C22.3758 26.3292 22.3789 26.2374 22.3457 26.1219C22.2401 25.7566 21.9371 25.6636 21.6387 25.5741C21.5034 25.5339 21.2085 25.477 21.1613 25.3123C21.1233 25.1796 21.2584 25.096 21.4548 25.0747C21.6081 25.0586 21.8279 25.0851 21.9816 25.1624L21.8619 24.745C21.6711 24.6991 21.4869 24.7061 21.3255 24.7227C20.8729 24.7702 20.5717 24.9878 20.687 25.4009C20.7809 25.7123 21.0113 25.8283 21.3303 25.928C21.5031 25.979 21.8113 26.0352 21.8668 26.2211C21.91 26.3957 21.6984 26.4452 21.5718 26.4598C21.3737 26.4807 21.1433 26.4299 20.9657 26.3301L21.0879 26.7564Z" fill="white"/>
</g>
<g clip-path="url(#clip3_507_27106)">
<path d="M32.2845 21.4089C31.093 21.5342 31.3106 22.0258 31.3106 22.0258L31.4603 22.543L32.5973 22.4235L32.6418 22.5789L31.0532 22.7458C31.0532 22.7458 30.2669 22.7424 30.6 23.9044C30.9332 25.0664 31.5869 24.9552 31.5869 24.9552L31.984 24.9135L31.8294 24.3743C31.8294 24.3743 31.6236 23.7333 32.2998 23.6622L33.4275 23.5437C33.4275 23.5437 34.0639 23.487 33.8914 22.8853L33.6061 21.8903C33.6061 21.8903 33.5296 21.2781 32.2845 21.4089ZM31.7573 21.8228C31.7842 21.8199 31.8122 21.8222 31.8399 21.8295C31.8676 21.8369 31.8943 21.8491 31.9186 21.8654C31.9428 21.8818 31.9642 21.902 31.9813 21.9249C31.9985 21.9478 32.0111 21.973 32.0185 21.999C32.026 22.0249 32.0281 22.0512 32.0247 22.0763C32.0213 22.1014 32.0125 22.1248 31.9988 22.1451C31.9851 22.1655 31.9667 22.1824 31.9447 22.195C31.9227 22.2075 31.8976 22.2154 31.8707 22.2182C31.8438 22.221 31.8158 22.2187 31.7881 22.2114C31.7604 22.2041 31.7337 22.1919 31.7094 22.1755C31.6851 22.1592 31.6638 22.139 31.6467 22.116C31.6295 22.0931 31.6169 22.068 31.6095 22.042C31.602 22.016 31.5999 21.9897 31.6033 21.9647C31.6067 21.9396 31.6155 21.9162 31.6292 21.8958C31.6429 21.8755 31.6613 21.8585 31.6833 21.846C31.7053 21.8335 31.7304 21.8256 31.7573 21.8228Z" fill="#3372A7"/>
<path d="M33.6123 25.9182C34.8038 25.793 34.5862 25.3014 34.5862 25.3014L34.4365 24.7841L33.2995 24.9036L33.255 24.7483L34.8435 24.5813C34.8435 24.5813 35.6299 24.5848 35.2967 23.4228C34.9635 22.2608 34.3099 22.3719 34.3099 22.3719L33.9127 22.4137L34.0674 22.9529C34.0674 22.9529 34.2732 23.5938 33.597 23.6649L32.4693 23.7834C32.4693 23.7834 31.8329 23.8401 32.0054 24.4419L32.2907 25.4368C32.2907 25.4368 32.3672 26.0491 33.6123 25.9182L33.6123 25.9182ZM34.1395 25.5044C34.1126 25.5072 34.0846 25.5049 34.0569 25.4976C34.0292 25.4903 34.0025 25.4781 33.9782 25.4617C33.954 25.4454 33.9326 25.4252 33.9155 25.4022C33.8983 25.3793 33.8857 25.3542 33.8783 25.3282C33.8708 25.3022 33.8687 25.2759 33.8721 25.2509C33.8755 25.2258 33.8843 25.2024 33.898 25.182C33.9117 25.1617 33.9301 25.1447 33.9521 25.1322C33.9741 25.1197 33.9992 25.1118 34.0261 25.109C34.053 25.1061 34.081 25.1084 34.1087 25.1157C34.1364 25.1231 34.1631 25.1352 34.1874 25.1516C34.2117 25.168 34.233 25.1882 34.2501 25.2111C34.2673 25.234 34.2799 25.2592 34.2873 25.2852C34.2948 25.3111 34.2969 25.3374 34.2935 25.3625C34.2901 25.3876 34.2813 25.4109 34.2676 25.4313C34.2539 25.4517 34.2355 25.4686 34.2135 25.4811C34.1915 25.4937 34.1664 25.5016 34.1395 25.5044Z" fill="#FFD235"/>
</g>
<g clip-path="url(#clip4_507_27106)">
<path d="M43.7934 22.1701C43.7842 22.171 43.7807 22.1668 43.7833 22.1597L43.8143 22.0949C43.817 22.0878 43.8272 22.0821 43.8363 22.0812L44.6541 21.9952C44.6633 21.9943 44.6674 22.0007 44.6648 22.0078L44.6423 22.0694C44.6397 22.0766 44.6301 22.0844 44.6232 22.0851L43.7934 22.1701Z" fill="#FF5328"/>
<path d="M43.5059 22.4101C43.4968 22.4111 43.4932 22.4069 43.4959 22.3998L43.5268 22.3349C43.5295 22.3278 43.5397 22.3222 43.5489 22.3212L44.5934 22.2114C44.6026 22.2105 44.609 22.2166 44.6087 22.2235L44.6056 22.2786C44.6058 22.2877 44.5979 22.2931 44.5888 22.294L43.5059 22.4101Z" fill="#FF5328"/>
<path d="M44.1187 22.5556C44.1095 22.5565 44.1054 22.5501 44.108 22.543L44.1242 22.4843C44.1269 22.4772 44.1342 22.4696 44.1433 22.4686L44.6015 22.4204C44.6106 22.4195 44.6171 22.4256 44.6196 22.4345L44.6303 22.4881C44.6328 22.497 44.6256 22.5046 44.6187 22.5053L44.1187 22.5556Z" fill="#00ACD7"/>
<path d="M46.3681 21.8584C46.2339 21.909 46.143 21.9459 46.0112 21.9963C45.9794 22.0087 45.9777 22.0112 45.9384 21.9811C45.8932 21.9471 45.8611 21.9254 45.8066 21.9083C45.6426 21.8548 45.5086 21.8894 45.4015 21.9851C45.2737 22.0989 45.2348 22.2512 45.2885 22.4303C45.3416 22.6072 45.5095 22.7401 45.6974 22.7454C45.8589 22.7489 45.9742 22.6821 46.0449 22.5583C46.0586 22.5318 46.0693 22.5033 46.0833 22.4699L45.6412 22.5164C45.5931 22.5214 45.5734 22.4939 45.5786 22.4545C45.5887 22.3828 45.6107 22.2619 45.6262 22.2009C45.6293 22.1869 45.639 22.1631 45.6734 22.1595L46.5071 22.0718C46.5197 22.1321 46.5368 22.1919 46.5448 22.2526C46.5653 22.4147 46.5454 22.5673 46.4814 22.7063C46.3768 22.934 46.1989 23.0872 45.9365 23.1513C45.7203 23.2037 45.4998 23.1835 45.2784 23.07C45.0734 22.9638 44.9302 22.8101 44.8466 22.609C44.7476 22.3708 44.7587 22.1461 44.8553 21.9398C44.9589 21.7168 45.1367 21.5636 45.3868 21.4894C45.5914 21.4291 45.8045 21.4318 46.025 21.5341C46.1686 21.5988 46.2861 21.6959 46.3802 21.8183C46.3996 21.8368 46.3937 21.8489 46.3681 21.8584Z" fill="#00ACD7"/>
<path d="M47.4775 23.0031C47.2677 23.0206 47.0611 22.983 46.8627 22.867C46.6952 22.7683 46.5691 22.6333 46.4928 22.4657C46.3798 22.2199 46.3873 21.991 46.4866 21.7776C46.5928 21.5474 46.7627 21.4156 47.0219 21.3404C47.2441 21.276 47.4704 21.275 47.7071 21.3847C47.9224 21.4853 48.081 21.6351 48.1717 21.8445C48.2963 22.1393 48.2768 22.3922 48.1235 22.6227C48.0148 22.787 47.856 22.8995 47.655 22.9639C47.5963 22.9815 47.5351 22.9902 47.4775 23.0031ZM47.7662 22.0513C47.7556 22.0228 47.7493 22.0007 47.7383 21.979C47.6342 21.7641 47.3902 21.6621 47.1866 21.7336C46.9869 21.8025 46.8869 21.9476 46.8962 22.161C46.9045 22.338 47.0417 22.5038 47.2269 22.5573C47.3682 22.5972 47.4922 22.5773 47.5965 22.5048C47.7514 22.395 47.8093 22.2429 47.7662 22.0513Z" fill="#00ACD7"/>
</g>
<g clip-path="url(#clip5_507_27106)">
<path d="M22.4355 35.6904C22.4355 35.6904 22.285 35.8102 22.6021 35.8121C22.986 35.814 23.1744 35.7881 23.563 35.6699C23.563 35.6699 23.6895 35.7239 23.8563 35.7648C23.0463 36.2422 21.7694 35.9614 22.4357 35.6904M22.1809 35.2053C22.1809 35.2053 22.0208 35.3705 22.337 35.3689C22.7458 35.3667 23.0607 35.337 23.5749 35.1787C23.5749 35.1787 23.6712 35.2444 23.801 35.2723C22.7795 35.7033 21.4585 35.5441 22.1807 35.2053" fill="#5382A1"/>
<path d="M22.886 34.2627C23.1849 34.4911 22.9638 34.748 22.9638 34.748C22.9638 34.748 23.4567 34.4005 23.0896 34.0688C22.7467 33.7596 22.5098 33.6129 23.3694 32.9311C23.3694 32.9311 21.873 33.4882 22.886 34.2627Z" fill="#E76F00"/>
<path d="M24.5916 35.8425C24.5916 35.8425 24.7548 35.9343 24.4993 36.0455C24.0131 36.2567 22.3485 36.48 21.8262 36.3329C21.6385 36.28 21.9246 36.1492 22.0176 36.1182C22.1145 36.0858 22.1745 36.0837 22.1745 36.0837C21.9518 35.9763 21.0415 36.4593 21.7597 36.4949C23.7184 36.5916 25.1388 36.0034 24.5916 35.8425ZM22.2318 34.6695C22.2318 34.6695 21.4344 34.955 22.0061 34.9683C22.2476 34.9741 22.7097 34.9185 23.1317 34.838C23.4768 34.7721 23.8139 34.6735 23.8139 34.6735C23.8139 34.6735 23.7042 34.7383 23.631 34.8072C22.8275 35.1187 21.1237 35.1921 21.5411 34.9161C21.8941 34.6827 22.2318 34.6695 22.2318 34.6695ZM24.0001 35.3358C24.7543 34.8007 24.225 34.4182 23.9571 34.5054C23.8915 34.5267 23.864 34.5422 23.864 34.5422C23.864 34.5422 23.8785 34.5002 23.923 34.4781C24.4308 34.2279 25.0799 34.9373 23.9888 35.36C23.9888 35.36 23.999 35.3467 24.0001 35.3358Z" fill="#5382A1"/>
<path d="M22.5153 32.0658C22.5153 32.0658 23.1386 32.4864 22.3958 33.3118C21.8002 33.9739 22.484 34.2438 22.7663 34.6048C22.2099 34.2634 21.7853 33.9561 21.9132 33.6151C22.101 33.1143 22.9271 32.7945 22.5153 32.0658Z" fill="#E76F00"/>
<path d="M22.8995 36.6868C23.7603 36.6502 25.0356 36.4324 24.9555 36.0424C24.9555 36.0424 24.9383 36.1951 24.332 36.3788C23.6478 36.5861 22.753 36.6643 22.2009 36.6355C22.2009 36.6355 22.3338 36.7107 22.8995 36.6867" fill="#5382A1"/>
</g>
<g clip-path="url(#clip6_507_27106)">
<path fill-rule="evenodd" clip-rule="evenodd" d="M34.782 32.6553C35.093 33.1363 35.4116 34.0179 35.9039 33.9662C35.9426 33.9621 35.9781 33.9533 36.0149 33.9428C35.5374 33.8892 35.2334 33.0161 34.8308 32.59L34.782 32.6553Z" fill="#1384C8"/>
<path fill-rule="evenodd" clip-rule="evenodd" d="M34.8291 32.5901C35.2333 33.0161 35.5374 33.8892 36.0132 33.9429C36.0483 33.9325 36.0808 33.9191 36.1128 33.904C35.655 33.7564 35.2997 32.9154 34.8727 32.537L34.8291 32.5901Z" fill="#1384C8"/>
<path fill-rule="evenodd" clip-rule="evenodd" d="M35.1445 32.2776C34.9987 32.3024 34.8684 32.3633 34.766 32.4546C34.8025 32.4792 34.8377 32.5056 34.8727 32.537C34.9531 32.4432 35.0375 32.3691 35.1297 32.3226C35.1642 32.304 35.2 32.2902 35.2363 32.278C35.2052 32.2742 35.1744 32.274 35.1445 32.2776ZM36.3751 33.6958C36.4077 33.6589 36.4404 33.622 36.4696 33.5788C36.1562 33.1014 35.8372 32.2064 35.3399 32.2587C35.3063 32.2623 35.2702 32.2694 35.2368 32.2796C35.72 32.3409 36.0496 33.285 36.3751 33.6958Z" fill="#1384C8"/>
<path fill-rule="evenodd" clip-rule="evenodd" d="M35.2369 32.2796C35.2057 32.2752 35.1747 32.2746 35.1446 32.2776L35.3411 32.2569C35.3042 32.2608 35.2703 32.2694 35.2369 32.2796ZM36.397 33.8022C36.3721 33.7858 36.348 33.7682 36.3248 33.7496C36.2571 33.8152 36.1856 33.8679 36.1134 33.9056C36.1739 33.9251 36.2363 33.9318 36.2955 33.925C36.3879 33.9153 36.4585 33.8961 36.5123 33.8603C36.4741 33.8476 36.4335 33.8268 36.397 33.8022ZM35.1298 32.3226C35.5917 32.4849 35.8941 33.4067 36.3248 33.7496L36.3751 33.6958C36.0496 33.285 35.7201 32.3409 35.2369 32.2796C35.2001 32.2901 35.1642 32.3039 35.1298 32.3226Z" fill="#1384C8"/>
<path fill-rule="evenodd" clip-rule="evenodd" d="M34.8723 32.5354C35.2997 32.9154 35.6551 33.7564 36.1128 33.904C36.1873 33.8677 36.257 33.8152 36.3247 33.7496C35.8941 33.4067 35.5934 32.4847 35.1297 32.3226C35.038 32.3708 34.9527 32.4416 34.8727 32.537M34.5805 32.6648C34.5604 32.7756 34.5517 32.9204 34.5455 33.1101C34.6165 32.9353 34.697 32.7813 34.782 32.6553C34.7513 32.6083 34.7219 32.5663 34.6917 32.5276C34.6516 32.5686 34.6162 32.6142 34.5805 32.6648Z" fill="#1384C8"/>
<path fill-rule="evenodd" clip-rule="evenodd" d="M34.7254 32.4939L34.6917 32.5276C34.7202 32.5664 34.7512 32.6083 34.7803 32.6555L34.8308 32.5899C34.7979 32.5558 34.7627 32.5237 34.7254 32.4939Z" fill="#1384C8"/>
<path fill-rule="evenodd" clip-rule="evenodd" d="M34.7677 32.4544L34.7266 32.4922C34.7612 32.522 34.7966 32.5551 34.8292 32.5901L34.8723 32.5354C34.8378 32.5056 34.8042 32.479 34.7677 32.4544ZM37.4778 31.9939C37.4938 32.8705 37.2131 33.606 36.8614 33.822L36.8418 33.8324L36.8385 33.8328L36.8327 33.8367L36.831 33.8369L36.8223 33.8428L36.8173 33.8434L36.8132 33.8471L36.8098 33.8475L36.8057 33.8513L36.7978 33.8538L36.7944 33.8541L36.7886 33.8581L36.7853 33.8584L36.779 33.8608L36.7727 33.8631C36.7914 33.8678 36.8125 33.869 36.8327 33.8668C37.2124 33.8269 37.4069 33.1289 37.7265 31.9677L37.4778 31.9939ZM34.2576 32.4076L34.2592 32.4074L34.265 32.4035L34.2667 32.4033L34.2679 32.4015L34.2742 32.3992L34.2874 32.3911L34.2891 32.3909L34.2954 32.3886L34.2987 32.3882L34.3028 32.3845L34.3062 32.3841L34.325 32.3771L34.3283 32.3768L34.3346 32.3744L34.3363 32.3743L34.3421 32.3703L34.355 32.3673L34.3668 32.366L34.3731 32.3637L34.3764 32.3633L34.3889 32.3587L34.3486 32.3629C33.9201 32.4079 33.5502 33.2365 33.5697 34.2583L33.6201 34.253C33.6639 34.0978 33.6994 33.9502 33.7328 33.8129C33.7159 33.0902 33.9578 32.5696 34.2576 32.4076ZM34.5805 32.6648C34.6162 32.6142 34.6533 32.5685 34.6918 32.5276C34.6749 32.5064 34.6569 32.486 34.6379 32.4664C34.6087 32.5282 34.5894 32.595 34.5805 32.6648Z" fill="#1384C8"/>
<path fill-rule="evenodd" clip-rule="evenodd" d="M34.5345 32.3835C34.5696 32.4032 34.6041 32.4331 34.6383 32.468L34.6532 32.4413C34.6164 32.4173 34.577 32.3978 34.5362 32.3833M33.7327 33.8129C33.9144 33.0459 33.9674 32.5669 34.2575 32.4076C33.9578 32.5696 33.7176 33.0901 33.7327 33.8129Z" fill="#1384C8"/>
<path fill-rule="evenodd" clip-rule="evenodd" d="M34.6549 32.4411L34.6379 32.4664L34.6901 32.5278L34.7254 32.494C34.7025 32.4746 34.6785 32.4571 34.6532 32.4413M34.0274 34.2069L34.014 34.2083L33.9977 34.2117C34.3897 34.1604 34.5146 33.9499 34.5257 33.6626C34.5323 33.4444 34.5375 33.2632 34.545 33.1085C34.4352 33.3829 34.3447 33.6662 34.2742 33.9567C34.2345 34.1081 34.1296 34.1827 34.0274 34.2069Z" fill="#1384C8"/>
<path fill-rule="evenodd" clip-rule="evenodd" d="M34.0274 34.2069C34.0914 34.1907 34.1475 34.159 34.1907 34.1148C34.2338 34.0706 34.2628 34.0151 34.2749 33.9533C34.3568 33.6352 34.4446 33.3499 34.5467 33.1083C34.5529 32.9186 34.5632 32.7737 34.5817 32.663C34.339 32.9997 34.1528 33.5395 34.0286 34.2051M33.7327 33.8129C33.6994 33.9502 33.6638 34.0979 33.62 34.253L33.7696 34.2373C33.7478 34.089 33.7351 33.9482 33.7327 33.8129Z" fill="#1384C8"/>
<path fill-rule="evenodd" clip-rule="evenodd" d="M34.3759 32.3617L34.3726 32.362L34.3663 32.3644L34.3629 32.3647L34.3584 32.3669L34.355 32.3672L34.3442 32.3717L34.3408 32.3721C34.3386 32.3724 34.3364 32.3727 34.3341 32.3728L34.3312 32.3747L34.3262 32.3753L34.3233 32.3773L34.3045 32.3842L34.3011 32.3846L34.297 32.3884L34.2937 32.3887L34.2879 32.3927L34.2862 32.3929L34.2725 32.3993L34.2662 32.4017L34.265 32.4035L34.2587 32.4058L34.2575 32.4076C33.9657 32.5671 33.9127 33.0461 33.7311 33.813C33.7352 33.9481 33.7462 34.0892 33.7679 34.2374L34.0149 34.2115L34.0212 34.2091L34.0296 34.2083C34.1521 33.5429 34.3383 33.003 34.5805 32.6647C34.5951 32.5829 34.6127 32.5175 34.6383 32.4679C34.6087 32.4359 34.5744 32.4078 34.5366 32.3849L34.5307 32.3822L34.5252 32.3811L34.5192 32.3784L34.5141 32.3789L34.5099 32.376L34.5005 32.3737L34.4955 32.3742C34.4935 32.3733 34.4915 32.3724 34.4895 32.3715L34.484 32.3704L34.4747 32.368L34.4637 32.3658L34.4603 32.3662L34.451 32.3638L34.4493 32.364C34.4415 32.3629 34.4338 32.362 34.426 32.3614L34.4227 32.3618L34.4138 32.361L34.4121 32.3612L34.3999 32.3608L34.3764 32.3633M36.7189 32.5588C36.7121 32.8004 36.7065 32.9984 36.6984 33.1632C36.8392 32.8181 36.9428 32.456 37.0079 32.0817C36.8028 32.1752 36.7282 32.3436 36.7194 32.5604M36.8891 33.804L36.8613 33.822C37.2131 33.606 37.4937 32.8705 37.4795 31.9937L37.4324 31.9986C37.1673 32.9634 37.1713 33.587 36.8891 33.804ZM36.6051 33.7552C36.6626 33.6421 36.6834 33.4609 36.6979 33.1616C36.6362 33.3078 36.5602 33.4468 36.4709 33.5769L36.4696 33.5787C36.5153 33.6475 36.5587 33.7082 36.6051 33.7552ZM36.6051 33.7552C36.5838 33.7974 36.5521 33.8333 36.5123 33.8603C36.5629 33.8788 36.6155 33.887 36.6663 33.8843L36.7352 33.8771L36.741 33.8731L36.7544 33.8717L36.7732 33.8647C36.716 33.8523 36.6597 33.813 36.6034 33.7554M35.9056 33.9659C35.9804 33.9583 36.0507 33.9373 36.1129 33.904C36.1735 33.924 36.236 33.9312 36.2954 33.9249L35.9056 33.9659Z" fill="#1384C8"/>
<path fill-rule="evenodd" clip-rule="evenodd" d="M36.2954 33.925C36.3878 33.9153 36.4585 33.8961 36.5123 33.8604C36.5629 33.8788 36.6155 33.887 36.6663 33.8843L36.6881 33.882L36.2949 33.9234L36.2954 33.925ZM36.6886 33.8837L36.7138 33.881L36.72 33.8787L36.7368 33.8769L36.7443 33.8728L36.7544 33.8717L36.7732 33.8647C36.7918 33.8695 36.8129 33.8706 36.8331 33.8685L36.6886 33.8837ZM36.4696 33.5788C36.4261 33.6394 36.3777 33.6965 36.3247 33.7496C36.3476 33.7689 36.3733 33.7863 36.3969 33.8022C36.4351 33.8266 36.4735 33.846 36.5123 33.8604L36.5325 33.8465C36.5606 33.8235 36.5862 33.7924 36.605 33.7553C36.5599 33.7065 36.5153 33.6476 36.4696 33.5788ZM37.2845 32.0142L37.0526 32.0386L37.0145 32.0442L37.0079 32.0817C36.9425 32.4555 36.8387 32.817 36.6979 33.1616C36.6829 33.4593 36.6626 33.6421 36.6046 33.7536C36.6592 33.8115 36.7155 33.8507 36.7727 33.8631L36.7794 33.8624L36.7852 33.8584L36.7886 33.8581L36.7948 33.8558L36.7982 33.8554L36.8056 33.8513L36.8102 33.8491L36.8131 33.8471L36.8177 33.845L36.8223 33.8428L36.8314 33.8385L36.8331 33.8384L36.8389 33.8344L36.8422 33.834L36.8596 33.8222L36.8613 33.822L36.8886 33.8024C37.1717 33.5886 37.1668 32.9618 37.4324 31.9986L37.2845 32.0142ZM34.3893 32.3603L34.3977 32.3594L34.4116 32.3596L34.4226 32.3618L34.426 32.3615L34.4493 32.364L34.4603 32.3662L34.4619 32.3661C34.4662 32.3666 34.4704 32.3672 34.4746 32.3681L34.484 32.3704L34.4873 32.3701L34.495 32.3726L34.4988 32.3739L34.5081 32.3763L34.5136 32.3774L34.5196 32.3801L34.5247 32.3795L34.5306 32.3823C34.5727 32.3962 34.6133 32.4171 34.6532 32.4413C34.6613 32.4284 34.6705 32.4163 34.6808 32.405C34.5869 32.3583 34.4834 32.3424 34.3893 32.3603Z" fill="#1384C8"/>
<path fill-rule="evenodd" clip-rule="evenodd" d="M34.6548 32.4411C34.6762 32.4556 34.7025 32.4746 34.7253 32.4939C34.7384 32.4792 34.7524 32.4677 34.7664 32.4562C34.7391 32.437 34.7104 32.4199 34.6808 32.4049C34.6701 32.4161 34.6611 32.4271 34.6531 32.4413M34.3893 32.3603L34.4207 32.3553C34.5115 32.3458 34.5967 32.3652 34.6808 32.4049C34.7389 32.3419 34.8202 32.3116 34.9445 32.2986L34.348 32.3613L34.3893 32.3603Z" fill="#1384C8"/>
<path fill-rule="evenodd" clip-rule="evenodd" d="M34.9429 32.2987C34.8202 32.3116 34.7389 32.3419 34.6791 32.4051C34.709 32.4187 34.7398 32.4355 34.7677 32.4543C34.8508 32.382 34.9395 32.3292 35.0352 32.3007C35.072 32.2902 35.1075 32.2814 35.1445 32.2775L34.9429 32.2987ZM36.6967 33.1634C36.7048 32.9986 36.7103 32.8006 36.7189 32.5588C36.7265 32.3438 36.8023 32.1736 37.0079 32.0817L37.0144 32.0442C36.6547 32.1054 36.535 32.3037 36.5244 32.5809C36.5069 33.0629 36.5032 33.3761 36.4691 33.5771C36.5589 33.4472 36.6349 33.3083 36.6962 33.1618" fill="#1384C8"/>
</g>
<g clip-path="url(#clip7_507_27106)">
<path fill-rule="evenodd" clip-rule="evenodd" d="M47.5955 31.5487L47.422 31.567L47.4624 32.0473L47.6163 32.0311C47.7185 32.0204 47.7893 31.9936 47.8286 31.9512C47.8679 31.9088 47.8838 31.8433 47.8762 31.7543C47.8692 31.669 47.8446 31.611 47.8027 31.5799C47.7609 31.5491 47.6918 31.5386 47.5955 31.5487Z" fill="#6181B6"/>
<path d="M48.2825 30.6496C47.0645 30.7776 46.2211 31.3834 46.3986 32.0026C46.5762 32.6217 47.7076 33.0201 48.9255 32.8921C50.1434 32.7641 50.9869 32.1583 50.8093 31.539C50.6317 30.9197 49.5004 30.5215 48.2825 30.6496ZM48.0629 32.0361C48.0276 32.0854 47.9797 32.1249 47.9224 32.1516C47.8662 32.1772 47.7902 32.1955 47.6947 32.2055L47.4775 32.2283L47.5032 32.5333L47.2497 32.56L47.1536 31.4125L47.6405 31.3613C47.787 31.3459 47.9045 31.3717 47.993 31.4391C48.0817 31.5064 48.1316 31.608 48.1428 31.744C48.1477 31.7978 48.1434 31.8506 48.1301 31.9003C48.1161 31.9499 48.0934 31.9957 48.0627 32.0361L48.0629 32.0361ZM48.8388 32.0853L48.7961 31.5777C48.7915 31.5199 48.776 31.4817 48.7504 31.4633C48.7248 31.4448 48.6798 31.4388 48.6152 31.4456L48.4146 31.4667L48.4698 32.1243L48.2184 32.1508L48.1223 31.0031L48.3734 30.9767L48.3991 31.2818L48.6229 31.2583C48.7639 31.2435 48.8677 31.257 48.9348 31.2987C49.0019 31.3404 49.0399 31.4159 49.0492 31.5246L49.0941 32.0586L48.8388 32.0854L48.8388 32.0853ZM50.1196 31.5364C50.1246 31.5902 50.1202 31.6429 50.1067 31.6926C50.0927 31.7421 50.0701 31.7879 50.0394 31.8283C50.0041 31.8776 49.9561 31.9171 49.8988 31.9438C49.8426 31.9695 49.7666 31.9877 49.6709 31.9978L49.4541 32.0206L49.4796 32.3258L49.2266 32.3524L49.1304 31.2048L49.6173 31.1537C49.7637 31.1383 49.8811 31.1643 49.9698 31.2315C50.0582 31.2986 50.1083 31.4002 50.1196 31.5364Z" fill="#6181B6"/>
<path fill-rule="evenodd" clip-rule="evenodd" d="M49.5722 31.341L49.3992 31.3592L49.4392 31.8395L49.5931 31.8233C49.6955 31.8126 49.7662 31.7858 49.8054 31.7435C49.8448 31.701 49.8605 31.6355 49.8532 31.5466C49.8461 31.4612 49.8215 31.4032 49.7795 31.3722C49.7378 31.3413 49.6683 31.3309 49.5722 31.341Z" fill="#6181B6"/>
</g>
<g clip-path="url(#clip8_507_27106)">
<path fill-rule="evenodd" clip-rule="evenodd" d="M27.3849 44.2764L25.1346 46.1054L28.5566 45.5101L27.8506 42.0827L27.3849 44.2764Z" fill="url(#paint1_linear_507_27106)"/>
<path fill-rule="evenodd" clip-rule="evenodd" d="M28.5618 45.5072L27.6886 43.5389L27.1709 44.6669L28.5618 45.5072Z" fill="url(#paint2_linear_507_27106)"/>
<path fill-rule="evenodd" clip-rule="evenodd" d="M28.5657 45.5067L26.3218 45.5709L25.145 46.0998L28.5657 45.5067Z" fill="url(#paint3_linear_507_27106)"/>
<path fill-rule="evenodd" clip-rule="evenodd" d="M25.1483 46.0999L25.1988 44.3051L24.0631 44.6815L25.1483 46.0999Z" fill="url(#paint4_linear_507_27106)"/>
<path fill-rule="evenodd" clip-rule="evenodd" d="M27.1722 44.6726L26.1194 42.8145L25.0501 44.2752L27.1722 44.6726Z" fill="url(#paint5_linear_507_27106)"/>
<path fill-rule="evenodd" clip-rule="evenodd" d="M27.8969 42.6554L26.2222 41.721L26.1826 42.9492L27.8969 42.6554Z" fill="url(#paint6_linear_507_27106)"/>
<path fill-rule="evenodd" clip-rule="evenodd" d="M26.8388 41.2602L26.1587 41.7736L25.5273 41.3922L26.8388 41.2602Z" fill="url(#paint7_linear_507_27106)"/>
<path fill-rule="evenodd" clip-rule="evenodd" d="M23.9126 45.2976L24.079 44.6691L23.6042 43.9912L23.9126 45.2976Z" fill="url(#paint8_linear_507_27106)"/>
<path fill-rule="evenodd" clip-rule="evenodd" d="M23.5796 43.9708L24.0687 44.6928L25.1846 44.3097L26.1931 42.9467L26.239 41.7294L25.5172 41.3809L24.5974 41.86C24.3574 42.1847 23.8949 42.8257 23.8754 42.8389C23.8562 42.8523 23.6696 43.6095 23.5796 43.9708Z" fill="white"/>
<path fill-rule="evenodd" clip-rule="evenodd" d="M24.1545 42.5211C24.6627 41.7758 25.4523 41.2841 25.8959 41.5858C26.3393 41.8874 26.2075 42.7477 25.6992 43.4927C25.191 44.2377 24.4188 44.7501 23.9754 44.4484C23.5319 44.147 23.6462 43.2661 24.1545 42.5211Z" fill="url(#paint9_linear_507_27106)"/>
<path fill-rule="evenodd" clip-rule="evenodd" d="M25.1481 46.0993L25.1928 44.2994L27.1615 44.6707C26.6777 45.3318 26.0944 45.909 25.1481 46.0993Z" fill="url(#paint10_linear_507_27106)"/>
<path fill-rule="evenodd" clip-rule="evenodd" d="M26.1946 42.9429L27.1682 44.6709C27.5551 44.0586 27.874 43.4106 27.9025 42.6475L26.1946 42.9429Z" fill="url(#paint11_linear_507_27106)"/>
<path fill-rule="evenodd" clip-rule="evenodd" d="M27.9003 42.657C27.9307 42.0957 27.7507 41.314 26.8335 41.2617L26.2249 41.7209L27.9003 42.657Z" fill="url(#paint12_linear_507_27106)"/>
<path fill-rule="evenodd" clip-rule="evenodd" d="M23.9103 45.2898C24.1924 46.1813 24.8637 46.1244 25.1502 46.1024L24.0684 44.689L23.9103 45.2898Z" fill="#9E1209"/>
<path fill-rule="evenodd" clip-rule="evenodd" d="M26.198 42.9455C26.689 43.1506 27.6781 43.5623 27.6979 43.5697C27.7287 43.5814 27.9045 42.9806 27.8896 42.6531L26.198 42.9455Z" fill="url(#paint13_radial_507_27106)"/>
<path fill-rule="evenodd" clip-rule="evenodd" d="M25.192 44.2994L26.3088 45.5799C26.6744 45.3091 26.9325 44.9989 27.1567 44.6721L25.192 44.2994Z" fill="url(#paint14_radial_507_27106)"/>
<path fill-rule="evenodd" clip-rule="evenodd" d="M24.0661 44.6911L24.3032 45.8886C24.5714 46.125 24.8455 46.1192 25.1205 46.0697C24.7772 45.6024 24.0914 44.6681 24.0661 44.6911Z" fill="url(#paint15_linear_507_27106)"/>
<path fill-rule="evenodd" clip-rule="evenodd" d="M26.2214 41.7244L27.7232 41.7685C27.5554 41.4606 27.26 41.2816 26.8379 41.2603L26.2214 41.7244Z" fill="url(#paint16_linear_507_27106)"/>
</g>
<g clip-path="url(#clip9_507_27106)">
<path d="M35.826 40.2974L40.5307 39.8029L41.8347 44.3502L37.13 44.8447" fill="#62636C"/>
<path d="M40.0685 42.674C40.0686 42.6612 40.0694 42.6474 40.0686 42.6346C40.0537 42.058 39.5079 41.4319 38.8059 41.1461C39.1687 41.4639 39.4054 41.8699 39.4065 42.2468C39.4067 42.2806 39.4046 42.3128 39.4013 42.3443C39.3859 42.3368 39.3659 42.3297 39.3403 42.3196C39.3403 42.3196 38.6397 42.0254 37.8096 41.4612C37.7873 41.4462 38.299 41.9267 38.8321 42.3035C38.6079 42.2182 37.9576 41.8949 37.529 41.628C37.5906 41.691 37.6591 41.7515 37.7323 41.8088C38.1187 42.1296 38.6157 42.5229 39.1573 42.8073C38.8963 43.0259 38.4575 43.0867 37.9582 42.9333C37.8346 42.8951 37.7146 42.8464 37.6006 42.7888C37.8699 43.0579 38.23 43.2771 38.6218 43.386C39.0896 43.5152 39.5016 43.46 39.7657 43.2685C39.7673 43.2674 39.7679 43.2664 39.7695 43.2653C39.7804 43.2575 39.791 43.2493 39.8013 43.2409C39.9288 43.1507 40.2003 43.0444 40.4434 43.3244C40.5029 43.3932 40.4744 43 40.0701 42.6729L40.0685 42.674Z" fill="white"/>
</g>
<path d="M50.8623 38.9565L50.6837 38.7746C50.6453 38.735 50.5927 38.7405 50.5786 38.7857L50.5117 38.9934M51.4007 42.0934L51.5792 42.2753C51.6176 42.3149 51.6702 42.3094 51.6844 42.2642L51.7512 42.0565" fill="black"/>
<path d="M51.1898 38.9868L51.0474 38.7811C51.0168 38.7364 50.9624 38.7319 50.9386 38.7721L50.8271 38.9568M51.0732 42.063L51.2156 42.2687C51.2462 42.3134 51.3006 42.3179 51.3244 42.2777L51.4359 42.093" fill="black"/>
<path d="M51.5151 39.0762L51.4142 38.8547C51.3927 38.8066 51.3385 38.7923 51.3059 38.826L51.154 38.9806M50.7479 41.9736L50.8487 42.1952C50.8703 42.2433 50.9244 42.2576 50.9571 42.2239L51.1089 42.0693" fill="black"/>
<path d="M51.8256 39.2213L51.7702 38.9924C51.7586 38.9428 51.7068 38.9192 51.6666 38.9451L51.4802 39.0637M50.4374 41.8286L50.4928 42.0575C50.5044 42.1071 50.5563 42.1307 50.5964 42.1048L50.7828 41.9862" fill="black"/>
<path d="M52.1095 39.4165L52.1017 39.189C52.1003 39.1398 52.0529 39.1078 52.0067 39.125L51.7929 39.203M50.1536 41.6334L50.1613 41.8608C50.1627 41.9101 50.2102 41.9421 50.2563 41.9249L50.4701 41.8469" fill="black"/>
<path d="M52.3557 39.6542L52.3958 39.437C52.4049 39.39 52.3635 39.3508 52.3132 39.3586L52.0802 39.393M49.9073 41.3956L49.8672 41.6129C49.8582 41.6598 49.8995 41.699 49.9498 41.6912L50.1828 41.6568" fill="black"/>
<path d="M52.5549 39.9255L52.6414 39.7267C52.6604 39.6838 52.6268 39.639 52.5742 39.6371L52.331 39.6266M49.708 41.1243L49.6216 41.3231C49.6025 41.3659 49.6361 41.4108 49.6887 41.4127L49.9319 41.4232" fill="black"/>
<path d="M52.6995 40.2198L52.829 40.0472C52.8573 40.01 52.8328 39.9613 52.7799 39.9497L52.5358 39.8947M49.5636 40.8301L49.4341 41.0026C49.4057 41.0398 49.4303 41.0886 49.4832 41.1002L49.7272 41.1552" fill="black"/>
<path d="M52.7836 40.5258L52.9512 40.386C52.9877 40.356 52.9731 40.3052 52.922 40.2844L52.6865 40.187M49.4792 40.5241L49.3116 40.6639C49.2751 40.6939 49.2897 40.7447 49.3408 40.7655L49.5763 40.8629" fill="black"/>
<path d="M52.8045 40.8318L53.0036 40.7302C53.0469 40.7085 53.0429 40.6575 52.9955 40.6283L52.7776 40.4923M49.4585 40.2181L49.2593 40.3197C49.216 40.3414 49.22 40.3924 49.2674 40.4216L49.4854 40.5576" fill="black"/>
<path d="M52.7609 41.1259L52.9841 41.0664C53.0325 41.0538 53.0392 41.0047 52.9974 40.9683L52.8053 40.7988M49.502 39.9239L49.2789 39.9834C49.2304 39.996 49.2238 40.0451 49.2656 40.0815L49.4576 40.251" fill="black"/>
<path d="M52.6548 41.397L52.8933 41.3818C52.945 41.3789 52.9621 41.3335 52.9275 41.2912L52.7688 41.0948M49.6081 39.6528L49.3696 39.668C49.3179 39.6709 49.3008 39.7162 49.3354 39.7586L49.4942 39.955" fill="black"/>
<path d="M52.4901 41.6345L52.7348 41.6644C52.7879 41.6711 52.8147 41.6313 52.7886 41.5847L52.6693 41.3689M49.7728 39.4152L49.5281 39.3854C49.4751 39.3787 49.4482 39.4185 49.4744 39.4651L49.5937 39.6809" fill="black"/>
<path d="M52.2732 41.8295L52.5148 41.9031C52.567 41.9193 52.6026 41.8865 52.586 41.8374L52.5107 41.6106M49.9897 39.2203L49.7482 39.1467C49.6959 39.1305 49.6603 39.1633 49.6769 39.2124L49.7522 39.4392" fill="black"/>
<path d="M52.0125 41.9743L52.2415 42.0889C52.291 42.114 52.334 42.0894 52.3275 42.0398L52.2991 41.8106M50.2505 39.0756L50.0214 38.961C49.9719 38.9359 49.9289 38.9604 49.9354 39.0101L49.9638 39.2392" fill="black"/>
<path d="M51.7178 42.0634L51.9256 42.2146C51.9704 42.2475 52.0192 42.2322 52.0231 42.1839L52.0426 41.9612M50.5451 38.9865L50.3373 38.8353C50.2925 38.8024 50.2438 38.8177 50.2398 38.866L50.2203 39.0887" fill="black"/>
<path d="M49.8553 39.2543C49.5842 39.4878 49.4252 39.8172 49.4056 40.1856C49.386 40.554 49.5071 40.9383 49.748 41.2724L49.9895 41.1074C49.8582 40.9176 49.7734 40.708 49.7421 40.4964L49.9296 40.3633C49.9749 40.3324 49.9866 40.2788 49.937 40.2316L49.7775 40.0216C49.835 39.7937 49.9627 39.5959 50.1463 39.4505M49.5743 40.2261C49.5793 40.086 49.8115 40.1401 49.8041 40.2718C49.7967 40.4034 49.5694 40.3663 49.5743 40.2261Z" fill="black"/>
<path d="M51.8456 39.1776C51.4795 38.9687 51.0668 38.8757 50.6788 38.9145C50.2908 38.9534 49.9518 39.1217 49.72 39.3905L50.0019 39.5833C50.1362 39.4356 50.3123 39.3268 50.5154 39.2661L50.7394 39.415C50.7923 39.4511 50.8528 39.4535 50.8783 39.4014L51.0203 39.2251C51.2814 39.242 51.5441 39.327 51.7789 39.4705M50.7155 39.0731C50.8619 39.0561 50.9141 39.274 50.7752 39.2876C50.6364 39.3011 50.5691 39.0901 50.7155 39.0731Z" fill="black"/>
<path d="M52.849 40.9629C52.8938 40.6002 52.7978 40.2133 52.5776 39.869C52.3574 39.5246 52.0268 39.2443 51.6427 39.0764L51.5754 39.3605C51.7896 39.459 51.9834 39.6014 52.1401 39.7754L52.0911 40.0005C52.0784 40.0538 52.1041 40.1089 52.1695 40.1238L52.4168 40.225C52.5207 40.4633 52.5553 40.7136 52.5168 40.9476M52.4315 39.9264C52.5171 40.056 52.3172 40.1366 52.2387 40.0133C52.1603 39.89 52.346 39.7968 52.4315 39.9264Z" fill="black"/>
<path d="M51.4788 42.1429C51.8727 42.1276 52.226 41.9816 52.4779 41.7299C52.7298 41.4782 52.8645 41.1367 52.8589 40.7641L52.5353 40.7469C52.5335 40.9554 52.4771 41.1522 52.3709 41.3205L52.1166 41.3108C52.0559 41.3076 52.0112 41.3392 52.0262 41.4005L52.037 41.6393C51.8401 41.7697 51.5988 41.8394 51.3402 41.8406M52.3509 41.6068C52.2574 41.704 52.0816 41.5358 52.172 41.4461C52.2624 41.3563 52.4445 41.5097 52.3509 41.6068Z" fill="black"/>
<path d="M49.6287 41.0869C49.8273 41.4402 50.1416 41.7368 50.5175 41.9256C50.8934 42.1144 51.3073 42.1836 51.6879 42.1213L51.5553 41.8265C51.3399 41.8569 51.1113 41.8362 50.8889 41.7661L50.7808 41.535C50.7559 41.4797 50.7026 41.4443 50.6465 41.4672L50.4059 41.5136C50.1804 41.3559 49.9966 41.1487 49.8752 40.9153M50.5852 41.7921C50.4418 41.7225 50.5331 41.538 50.6674 41.6058C50.8017 41.6737 50.7285 41.8616 50.5852 41.7921Z" fill="black"/>
<path d="M52.3388 40.4853C52.3388 40.4853 52.4515 40.7526 52.2588 40.7729C52.066 40.7932 52.1479 40.5751 51.7581 40.3805C51.7581 40.3805 51.9982 40.2419 51.9156 39.9539C51.833 39.6659 51.4485 39.5842 51.2995 39.5998L49.6608 39.7721L49.7725 40.1617L50.0792 40.1294L50.3197 40.968L49.864 41.0159L49.983 41.4309L51.3851 41.2835L51.2685 40.877L50.9268 40.9129L50.8588 40.6757L51.2093 40.6389C51.5686 40.6011 51.5078 41.2706 51.9197 41.2274L52.7872 41.1362L52.5929 40.4586M50.7568 40.32L50.6839 40.0659L51.1571 40.0162C51.3499 39.9959 51.4315 40.2491 51.23 40.2703" fill="black"/>
</g>
<rect x="-0.15877" y="-0.107092" width="47.5561" height="52.0856" rx="2.125" transform="matrix(0.994522 -0.104528 0.275637 0.961262 6.02865 14.1604)" stroke="url(#paint17_linear_507_27106)" stroke-width="0.25"/>
</g>
</g>
</g>
<rect x="0.5" y="0.5" width="55" height="55" rx="8.83333" stroke="url(#paint18_linear_507_27106)"/>
<defs>
<filter id="filter0_f_507_27106" x="-104.589" y="-63.7474" width="208.37" height="209.495" filterUnits="userSpaceOnUse" color-interpolation-filters="sRGB">
<feFlood flood-opacity="0" result="BackgroundImageFix"/>
<feBlend mode="normal" in="SourceGraphic" in2="BackgroundImageFix" result="shape"/>
<feGaussianBlur stdDeviation="30" result="effect1_foregroundBlur_507_27106"/>
</filter>
<filter id="filter1_f_507_27106" x="-91.218" y="-130.152" width="279.633" height="310.55" filterUnits="userSpaceOnUse" color-interpolation-filters="sRGB">
<feFlood flood-opacity="0" result="BackgroundImageFix"/>
<feBlend mode="normal" in="SourceGraphic" in2="BackgroundImageFix" result="shape"/>
<feGaussianBlur stdDeviation="56" result="effect1_foregroundBlur_507_27106"/>
</filter>
<filter id="filter2_df_507_27106" x="-11" y="-6.80786" width="95.3347" height="88.8608" filterUnits="userSpaceOnUse" color-interpolation-filters="sRGB">
<feFlood flood-opacity="0" result="BackgroundImageFix"/>
<feColorMatrix in="SourceAlpha" type="matrix" values="0 0 0 0 0 0 0 0 0 0 0 0 0 0 0 0 0 0 127 0" result="hardAlpha"/>
<feMorphology radius="1" operator="dilate" in="SourceAlpha" result="effect1_dropShadow_507_27106"/>
<feOffset dy="1"/>
<feGaussianBlur stdDeviation="8"/>
<feComposite in2="hardAlpha" operator="out"/>
<feColorMatrix type="matrix" values="0 0 0 0 0.858824 0 0 0 0 0.992157 0 0 0 0 0.827451 0 0 0 1 0"/>
<feBlend mode="normal" in2="BackgroundImageFix" result="effect1_dropShadow_507_27106"/>
<feBlend mode="normal" in="SourceGraphic" in2="effect1_dropShadow_507_27106" result="shape"/>
<feGaussianBlur stdDeviation="2.26" result="effect2_foregroundBlur_507_27106"/>
</filter>
<linearGradient id="paint0_linear_507_27106" x1="40.5718" y1="30.8086" x2="40.1163" y2="56.3178" gradientUnits="userSpaceOnUse">
<stop stop-color="white"/>
<stop offset="1" stop-color="white" stop-opacity="0"/>
</linearGradient>
<linearGradient id="paint1_linear_507_27106" x1="28.4366" y1="46.1843" x2="27.1098" y2="44.4702" gradientUnits="userSpaceOnUse">
<stop stop-color="#FB7655"/>
<stop offset="0.41" stop-color="#E42B1E"/>
<stop offset="0.99" stop-color="#990000"/>
<stop offset="1" stop-color="#990000"/>
</linearGradient>
<linearGradient id="paint2_linear_507_27106" x1="28.5234" y1="44.7056" x2="26.9625" y2="44.1127" gradientUnits="userSpaceOnUse">
<stop stop-color="#871101"/>
<stop offset="0.99" stop-color="#911209"/>
<stop offset="1" stop-color="#911209"/>
</linearGradient>
<linearGradient id="paint3_linear_507_27106" x1="27.9209" y1="46.2916" x2="26.3601" y2="45.6988" gradientUnits="userSpaceOnUse">
<stop stop-color="#871101"/>
<stop offset="0.99" stop-color="#911209"/>
<stop offset="1" stop-color="#911209"/>
</linearGradient>
<linearGradient id="paint4_linear_507_27106" x1="24.6314" y1="44.4942" x2="24.9722" y2="45.7797" gradientUnits="userSpaceOnUse">
<stop stop-color="white"/>
<stop offset="0.23" stop-color="#E57252"/>
<stop offset="0.46" stop-color="#DE3B20"/>
<stop offset="0.99" stop-color="#A60003"/>
<stop offset="1" stop-color="#A60003"/>
</linearGradient>
<linearGradient id="paint5_linear_507_27106" x1="25.6645" y1="43.1842" x2="25.8748" y2="44.4881" gradientUnits="userSpaceOnUse">
<stop stop-color="white"/>
<stop offset="0.23" stop-color="#E4714E"/>
<stop offset="0.56" stop-color="#BE1A0D"/>
<stop offset="0.99" stop-color="#A80D00"/>
<stop offset="1" stop-color="#A80D00"/>
</linearGradient>
<linearGradient id="paint6_linear_507_27106" x1="26.5404" y1="41.8784" x2="26.8724" y2="42.8215" gradientUnits="userSpaceOnUse">
<stop stop-color="white"/>
<stop offset="0.18" stop-color="#E46342"/>
<stop offset="0.4" stop-color="#C82410"/>
<stop offset="0.99" stop-color="#A80D00"/>
<stop offset="1" stop-color="#A80D00"/>
</linearGradient>
<linearGradient id="paint7_linear_507_27106" x1="25.7783" y1="41.6271" x2="26.5253" y2="40.992" gradientUnits="userSpaceOnUse">
<stop stop-color="white"/>
<stop offset="0.54" stop-color="#C81F11"/>
<stop offset="0.99" stop-color="#BF0905"/>
<stop offset="1" stop-color="#BF0905"/>
</linearGradient>
<linearGradient id="paint8_linear_507_27106" x1="23.7116" y1="44.2628" x2="23.8718" y2="45.0351" gradientUnits="userSpaceOnUse">
<stop stop-color="white"/>
<stop offset="0.31" stop-color="#DE4024"/>
<stop offset="0.99" stop-color="#BF190B"/>
<stop offset="1" stop-color="#BF190B"/>
</linearGradient>
<linearGradient id="paint9_linear_507_27106" x1="23.451" y1="45.2754" x2="26.0853" y2="41.2696" gradientUnits="userSpaceOnUse">
<stop stop-color="#BD0012"/>
<stop offset="0.07" stop-color="white"/>
<stop offset="0.17" stop-color="white"/>
<stop offset="0.27" stop-color="#C82F1C"/>
<stop offset="0.33" stop-color="#820C01"/>
<stop offset="0.46" stop-color="#A31601"/>
<stop offset="0.72" stop-color="#B31301"/>
<stop offset="0.99" stop-color="#E82609"/>
<stop offset="1" stop-color="#E82609"/>
</linearGradient>
<linearGradient id="paint10_linear_507_27106" x1="26.3571" y1="45.3475" x2="25.1859" y2="45.3834" gradientUnits="userSpaceOnUse">
<stop stop-color="#8C0C01"/>
<stop offset="0.54" stop-color="#990C00"/>
<stop offset="0.99" stop-color="#A80D0E"/>
<stop offset="1" stop-color="#A80D0E"/>
</linearGradient>
<linearGradient id="paint11_linear_507_27106" x1="27.8826" y1="43.8709" x2="26.6472" y2="43.1499" gradientUnits="userSpaceOnUse">
<stop stop-color="#7E110B"/>
<stop offset="0.99" stop-color="#9E0C00"/>
<stop offset="1" stop-color="#9E0C00"/>
</linearGradient>
<linearGradient id="paint12_linear_507_27106" x1="27.7961" y1="42.2779" x2="27.1697" y2="41.8181" gradientUnits="userSpaceOnUse">
<stop stop-color="#79130D"/>
<stop offset="0.99" stop-color="#9E120B"/>
<stop offset="1" stop-color="#9E120B"/>
</linearGradient>
<radialGradient id="paint13_radial_507_27106" cx="0" cy="0" r="1" gradientUnits="userSpaceOnUse" gradientTransform="translate(26.818 43.1263) rotate(-6) scale(1.20568 1.18736)">
<stop stop-color="#A80D00"/>
<stop offset="0.99" stop-color="#7E0E08"/>
<stop offset="1" stop-color="#7E0E08"/>
</radialGradient>
<radialGradient id="paint14_radial_507_27106" cx="0" cy="0" r="1" gradientUnits="userSpaceOnUse" gradientTransform="translate(25.5954 44.8282) rotate(-6) scale(1.60279 1.57844)">
<stop stop-color="#A30C00"/>
<stop offset="0.99" stop-color="#800E08"/>
<stop offset="1" stop-color="#800E08"/>
</radialGradient>
<linearGradient id="paint15_linear_507_27106" x1="24.8066" y1="46.1341" x2="24.2352" y2="44.7887" gradientUnits="userSpaceOnUse">
<stop stop-color="#8B2114"/>
<stop offset="0.43" stop-color="#9E100A"/>
<stop offset="0.99" stop-color="#B3100C"/>
<stop offset="1" stop-color="#B3100C"/>
</linearGradient>
<linearGradient id="paint16_linear_507_27106" x1="26.6161" y1="41.4977" x2="27.6351" y2="41.6629" gradientUnits="userSpaceOnUse">
<stop stop-color="#B31000"/>
<stop offset="0.44" stop-color="#910F08"/>
<stop offset="0.99" stop-color="#791C12"/>
<stop offset="1" stop-color="#791C12"/>
</linearGradient>
<linearGradient id="paint17_linear_507_27106" x1="-3.93249" y1="231.692" x2="69.1363" y2="230.559" gradientUnits="userSpaceOnUse">
<stop stop-color="#8292BA"/>
<stop offset="0.145557" stop-color="#A7BFF7"/>
<stop offset="0.268635" stop-color="#65D649"/>
<stop offset="0.735959" stop-color="#A7BFF7"/>
<stop offset="1" stop-color="#A7BFF7"/>
</linearGradient>
<linearGradient id="paint18_linear_507_27106" x1="-4.6552" y1="250.306" x2="81.838" y2="248.836" gradientUnits="userSpaceOnUse">
<stop stop-color="#8292BA"/>
<stop offset="0.145557" stop-color="#A7BFF7"/>
<stop offset="0.268635" stop-color="#65D649"/>
<stop offset="0.735959" stop-color="#A7BFF7"/>
<stop offset="1" stop-color="#A7BFF7"/>
</linearGradient>
<clipPath id="clip0_507_27106">
<rect width="56" height="56" rx="9.33333" fill="white"/>
</clipPath>
<clipPath id="clip1_507_27106">
<rect width="47.3061" height="51.8356" rx="2" transform="matrix(0.994522 -0.104528 0.275637 0.961262 6 14.1812)" fill="white"/>
</clipPath>
<clipPath id="clip2_507_27106">
<rect width="4.73061" height="4.73061" rx="0.788434" transform="matrix(0.994522 -0.104528 0.275637 0.961262 17.0112 23.0037)" fill="white"/>
</clipPath>
<clipPath id="clip3_507_27106">
<rect width="4.73061" height="4.73061" fill="white" transform="matrix(0.994522 -0.104528 0.275637 0.961262 29.9491 21.6439)"/>
</clipPath>
<clipPath id="clip4_507_27106">
<rect width="4.73061" height="4.73061" fill="white" transform="matrix(0.994522 -0.104528 0.275637 0.961262 42.887 20.2841)"/>
</clipPath>
<clipPath id="clip5_507_27106">
<rect width="4.73061" height="4.73061" fill="white" transform="matrix(0.994522 -0.104528 0.275637 0.961262 19.6932 32.3574)"/>
</clipPath>
<clipPath id="clip6_507_27106">
<rect width="4.73061" height="4.73061" fill="white" transform="matrix(0.994522 -0.104528 0.275637 0.961262 32.6312 30.9976)"/>
</clipPath>
<clipPath id="clip7_507_27106">
<rect width="4.73061" height="4.73061" fill="white" transform="matrix(0.994522 -0.104528 0.275637 0.961262 45.5691 29.6378)"/>
</clipPath>
<clipPath id="clip8_507_27106">
<rect width="4.7496" height="4.73061" fill="white" transform="matrix(0.994522 -0.104528 0.275637 0.961262 22.8693 41.6592)"/>
</clipPath>
<clipPath id="clip9_507_27106">
<rect width="4.73061" height="4.73061" fill="white" transform="matrix(0.994522 -0.104528 0.275637 0.961262 35.826 40.2974)"/>
</clipPath>
</defs>
</svg>
